<svg width="384" height="284" viewBox="0 0 384 284" fill="none" xmlns="http://www.w3.org/2000/svg">
<mask id="mask0_1_1574" style="mask-type:luminance" maskUnits="userSpaceOnUse" x="102" y="28" width="187" height="182">
<path d="M238.96 28.2832L252.862 36.2974H280.585V127.071C280.585 167.831 242.523 200.998 195.723 200.998C148.922 200.998 110.861 167.831 110.861 127.071V36.2974H138.724L152.579 28.2832H102.846V127.071C102.846 172.247 144.506 209.012 195.723 209.012C246.939 209.012 288.599 172.247 288.599 127.071V28.2832H238.96Z" fill="white"/>
</mask>
<g mask="url(#mask0_1_1574)">
<path d="M238.96 28.2832L252.862 36.2974H280.585V127.071C280.585 167.831 242.523 200.998 195.723 200.998C148.922 200.998 110.861 167.831 110.861 127.071V36.2974H138.724L152.579 28.2832H102.846V127.071C102.846 172.247 144.506 209.012 195.723 209.012C246.939 209.012 288.599 172.247 288.599 127.071V28.2832H238.96Z" fill="url(#paint0_linear_1_1574)"/>
</g>
<mask id="mask1_1_1574" style="mask-type:luminance" maskUnits="userSpaceOnUse" x="116" y="41" width="160" height="155">
<path d="M262.126 41.6363L266.764 44.3116H272.582V127.071C272.582 163.415 238.095 192.996 195.723 192.996C153.35 192.996 118.863 163.415 118.863 127.071V44.3116H124.868L129.494 41.6363H116.2V127.071C116.2 164.887 151.866 195.659 195.723 195.659C239.579 195.659 275.246 164.887 275.246 127.071V41.6363H262.126Z" fill="white"/>
</mask>
<g mask="url(#mask1_1_1574)">
<path d="M262.126 41.6363L266.764 44.3116H272.582V127.071C272.582 163.415 238.095 192.996 195.723 192.996C153.35 192.996 118.863 163.415 118.863 127.071V44.3116H124.868L129.494 41.6363H116.2V127.071C116.2 164.887 151.866 195.659 195.723 195.659C239.579 195.659 275.246 164.887 275.246 127.071V41.6363H262.126Z" fill="url(#paint1_linear_1_1574)"/>
</g>
<mask id="mask2_1_1574" style="mask-type:luminance" maskUnits="userSpaceOnUse" x="302" y="42" width="36" height="129">
<path d="M320.966 93.9602L321.106 79.6514C329.516 78.6326 336.68 71.3205 337.339 62.8285C330.14 63.2456 323.683 68.3368 321.152 74.9795L321.248 65.1872C326.085 58.5176 325.837 48.6178 320.436 42.3081C314.912 48.5115 314.47 58.4043 319.176 65.1685L319.079 74.962C316.68 68.2702 310.324 63.0504 303.134 62.4932C303.625 70.9969 310.645 78.448 319.033 79.6315L318.893 93.9415C316.495 87.2497 310.138 82.0311 302.948 81.4727C303.439 89.9764 310.458 97.4287 318.846 98.611L318.706 112.922C316.308 106.23 309.951 101.012 302.761 100.453C303.252 108.957 310.273 116.408 318.661 117.592L318.519 131.902C316.121 125.211 309.764 119.992 302.575 119.434C303.067 127.938 310.086 135.389 318.474 136.572L318.333 150.882C315.934 144.19 309.577 138.972 302.388 138.415C302.88 146.918 309.899 154.369 318.287 155.553L318.138 170.681L320.211 170.701L320.36 155.573C328.77 154.554 335.934 147.243 336.593 138.751C329.393 139.167 322.935 144.259 320.406 150.902L320.546 136.592C328.956 135.575 336.12 128.262 336.779 119.77C329.58 120.186 323.122 125.279 320.593 131.921L320.733 117.613C329.142 116.594 336.307 109.282 336.966 100.79C329.767 101.206 323.309 106.298 320.779 112.941L320.92 98.632C329.329 97.6133 336.493 90.3012 337.152 81.8091C329.953 82.2262 323.496 87.3175 320.966 93.9602Z" fill="white"/>
</mask>
<g mask="url(#mask2_1_1574)">
<path d="M320.966 93.9602L321.106 79.6514C329.516 78.6326 336.68 71.3205 337.339 62.8285C330.14 63.2456 323.683 68.3368 321.152 74.9795L321.248 65.1872C326.085 58.5176 325.837 48.6178 320.436 42.3081C314.912 48.5115 314.47 58.4043 319.176 65.1685L319.079 74.962C316.68 68.2702 310.324 63.0504 303.134 62.4932C303.625 70.9969 310.645 78.448 319.033 79.6315L318.893 93.9415C316.495 87.2497 310.138 82.0311 302.948 81.4727C303.439 89.9764 310.458 97.4287 318.846 98.611L318.706 112.922C316.308 106.23 309.951 101.012 302.761 100.453C303.252 108.957 310.273 116.408 318.661 117.592L318.519 131.902C316.121 125.211 309.764 119.992 302.575 119.434C303.067 127.938 310.086 135.389 318.474 136.572L318.333 150.882C315.934 144.19 309.577 138.972 302.388 138.415C302.88 146.918 309.899 154.369 318.287 155.553L318.138 170.681L320.211 170.701L320.36 155.573C328.77 154.554 335.934 147.243 336.593 138.751C329.393 139.167 322.935 144.259 320.406 150.902L320.546 136.592C328.956 135.575 336.12 128.262 336.779 119.77C329.58 120.186 323.122 125.279 320.593 131.921L320.733 117.613C329.142 116.594 336.307 109.282 336.966 100.79C329.767 101.206 323.309 106.298 320.779 112.941L320.92 98.632C329.329 97.6133 336.493 90.3012 337.152 81.8091C329.953 82.2262 323.496 87.3175 320.966 93.9602Z" fill="url(#paint2_linear_1_1574)"/>
</g>
<mask id="mask3_1_1574" style="mask-type:luminance" maskUnits="userSpaceOnUse" x="54" y="42" width="36" height="129">
<path d="M72.6844 93.9602L72.8246 79.6514C81.2348 78.6326 88.3986 71.3205 89.0575 62.8285C81.8587 63.2456 75.4006 68.3368 72.8713 74.9795L72.9671 65.1872C77.8037 58.5176 77.556 48.6178 72.1552 42.3081C66.6305 48.5115 66.1889 58.4043 70.8946 65.1685L70.7976 74.962C68.3992 68.2702 62.0427 63.0504 54.8521 62.4932C55.344 70.9969 62.364 78.448 70.7521 79.6315L70.6119 93.9415C68.2135 87.2497 61.857 82.0311 54.6664 81.4727C55.1582 89.9764 62.1771 97.4287 70.5652 98.611L70.425 112.922C68.0265 106.23 61.6701 101.012 54.4794 100.453C54.9713 108.957 61.9913 116.408 70.3794 117.592L70.238 131.902C67.8396 125.211 61.4831 119.992 54.2937 119.434C54.7844 127.938 61.8044 135.389 70.1925 136.572L70.0523 150.882C67.6527 144.19 61.2962 138.972 54.1068 138.415C54.5986 146.918 61.6175 154.369 70.0056 155.553L69.8572 170.681L71.9297 170.701L72.0792 155.573C80.4883 154.554 87.6532 147.243 88.311 138.751C81.1122 139.167 74.6541 144.259 72.1248 150.902L72.265 136.592C80.6752 135.575 87.839 128.262 88.4979 119.77C81.2991 120.186 74.841 125.279 72.3117 131.921L72.4519 117.613C80.861 116.594 88.0259 109.282 88.6848 100.79C81.4848 101.206 75.0279 106.298 72.4975 112.941L72.6388 98.632C81.0479 97.6133 88.2117 90.3012 88.8706 81.8091C81.6718 82.2262 75.2148 87.3175 72.6844 93.9602Z" fill="white"/>
</mask>
<g mask="url(#mask3_1_1574)">
<path d="M72.6844 93.9602L72.8246 79.6514C81.2348 78.6326 88.3986 71.3205 89.0575 62.8285C81.8587 63.2456 75.4006 68.3368 72.8713 74.9795L72.9671 65.1872C77.8037 58.5176 77.556 48.6178 72.1552 42.3081C66.6305 48.5115 66.1889 58.4043 70.8946 65.1685L70.7976 74.962C68.3992 68.2702 62.0427 63.0504 54.8521 62.4932C55.344 70.9969 62.364 78.448 70.7521 79.6315L70.6119 93.9415C68.2135 87.2497 61.857 82.0311 54.6664 81.4727C55.1582 89.9764 62.1771 97.4287 70.5652 98.611L70.425 112.922C68.0265 106.23 61.6701 101.012 54.4794 100.453C54.9713 108.957 61.9913 116.408 70.3794 117.592L70.238 131.902C67.8396 125.211 61.4831 119.992 54.2937 119.434C54.7844 127.938 61.8044 135.389 70.1925 136.572L70.0523 150.882C67.6527 144.19 61.2962 138.972 54.1068 138.415C54.5986 146.918 61.6175 154.369 70.0056 155.553L69.8572 170.681L71.9297 170.701L72.0792 155.573C80.4883 154.554 87.6532 147.243 88.311 138.751C81.1122 139.167 74.6541 144.259 72.1248 150.902L72.265 136.592C80.6752 135.575 87.839 128.262 88.4979 119.77C81.2991 120.186 74.841 125.279 72.3117 131.921L72.4519 117.613C80.861 116.594 88.0259 109.282 88.6848 100.79C81.4848 101.206 75.0279 106.298 72.4975 112.941L72.6388 98.632C81.0479 97.6133 88.2117 90.3012 88.8706 81.8091C81.6718 82.2262 75.2148 87.3175 72.6844 93.9602Z" fill="url(#paint3_linear_1_1574)"/>
</g>
<mask id="mask4_1_1574" style="mask-type:luminance" maskUnits="userSpaceOnUse" x="196" y="102" width="63" height="68">
<path d="M196.351 169.619V167.681C196.351 167.681 206.321 163.358 223.223 163.358C230.994 163.358 240.227 164.27 250.635 166.938L257.759 102.908L258.701 104.846L251.467 168.876C240.9 166.209 231.525 165.296 223.636 165.296C206.474 165.296 196.351 169.619 196.351 169.619Z" fill="white"/>
</mask>
<g mask="url(#mask4_1_1574)">
<path d="M196.351 169.619V167.681C196.351 167.681 206.321 163.358 223.223 163.358C230.994 163.358 240.227 164.27 250.635 166.938L257.759 102.908L258.701 104.846L251.467 168.876C240.9 166.209 231.525 165.296 223.636 165.296C206.474 165.296 196.351 169.619 196.351 169.619Z" fill="url(#paint4_linear_1_1574)"/>
</g>
<mask id="mask5_1_1574" style="mask-type:luminance" maskUnits="userSpaceOnUse" x="196" y="100" width="62" height="68">
<path d="M196.351 167.681C196.351 167.681 209.019 160.54 229.843 160.54C235.001 160.54 240.655 160.977 246.745 162.069L253.008 100.827C256.007 102.06 257.735 102.895 257.759 102.907V102.908L250.635 166.938C240.227 164.27 230.994 163.358 223.223 163.358C206.321 163.358 196.351 167.681 196.351 167.681Z" fill="white"/>
</mask>
<g mask="url(#mask5_1_1574)">
<path d="M196.351 167.681C196.351 167.681 209.019 160.54 229.843 160.54C235.001 160.54 240.655 160.977 246.745 162.069L253.008 100.827C256.007 102.06 257.735 102.895 257.759 102.907V102.908L250.635 166.938C240.227 164.27 230.994 163.358 223.223 163.358C206.321 163.358 196.351 167.681 196.351 167.681Z" fill="url(#paint5_linear_1_1574)"/>
</g>
<mask id="mask6_1_1574" style="mask-type:luminance" maskUnits="userSpaceOnUse" x="196" y="95" width="58" height="73">
<path d="M196.351 167.681C196.351 167.681 211.307 157.09 235.211 157.09C237.706 157.09 240.3 157.206 242.983 157.461L248.776 95.688C251.685 96.6892 253.359 97.4007 253.359 97.4007L253.008 100.827L246.745 162.069C240.655 160.977 235.001 160.54 229.843 160.54C209.019 160.54 196.351 167.681 196.351 167.681Z" fill="white"/>
</mask>
<g mask="url(#mask6_1_1574)">
<path d="M196.351 167.681C196.351 167.681 211.307 157.09 235.211 157.09C237.706 157.09 240.3 157.206 242.983 157.461L248.776 95.688C251.685 96.6892 253.359 97.4007 253.359 97.4007L253.008 100.827L246.745 162.069C240.655 160.977 235.001 160.54 229.843 160.54C209.019 160.54 196.351 167.681 196.351 167.681Z" fill="url(#paint6_linear_1_1574)"/>
</g>
<mask id="mask7_1_1574" style="mask-type:luminance" maskUnits="userSpaceOnUse" x="196" y="90" width="54" height="78">
<path d="M196.351 167.681C196.351 167.681 213.13 152.881 239.243 152.65L244.524 90.8012C247.425 91.5816 249.103 92.1868 249.103 92.1868L248.776 95.688L242.983 157.461C240.3 157.206 237.706 157.09 235.211 157.09C211.307 157.09 196.351 167.681 196.351 167.681Z" fill="white"/>
</mask>
<g mask="url(#mask7_1_1574)">
<path d="M196.351 167.681C196.351 167.681 213.13 152.881 239.243 152.65L244.524 90.8012C247.425 91.5816 249.103 92.1868 249.103 92.1868L248.776 95.688L242.983 157.461C240.3 157.206 237.706 157.09 235.211 157.09C211.307 157.09 196.351 167.681 196.351 167.681Z" fill="url(#paint7_linear_1_1574)"/>
</g>
<mask id="mask8_1_1574" style="mask-type:luminance" maskUnits="userSpaceOnUse" x="196" y="85" width="49" height="83">
<path d="M196.351 167.681V109.676C200.013 109.643 203.667 109.32 207.201 108.708C203.887 109.917 201.233 111.201 199.32 112.246V114.516C203.868 111.892 214.73 106.73 229.89 106.73C229.894 106.73 229.899 106.73 229.904 106.73C232.767 106.73 235.793 106.916 240.12 107.492L240.288 105.519C235.922 104.941 232.831 104.751 229.904 104.751C225.47 104.753 221.394 105.18 217.721 105.854C219.858 105.032 221.883 104.077 223.764 102.99C226.696 101.29 229.069 99.3856 230.881 97.3563C233.594 97.5105 236.716 97.8738 240.878 98.604L241.048 96.625C237.574 96.021 234.801 95.667 232.376 95.4754C232.387 95.459 232.398 95.4427 232.409 95.4275C234.336 92.6751 235.293 89.7416 235.29 86.8186L235.289 85.0557C241.155 85.7041 244.871 86.745 244.871 86.745L244.524 90.8012L239.243 152.65C213.13 152.881 196.351 167.681 196.351 167.681ZM237.186 141.832C218.871 142.537 205.401 150.109 199.32 154.294V156.709C204.489 152.963 218.116 144.597 237.018 143.813L237.186 141.832ZM237.347 132.627C218.927 132.635 205.412 139.808 199.32 143.784V146.159C204.54 142.57 218.271 134.607 237.322 134.607C237.331 134.607 237.337 134.607 237.347 134.607C237.497 134.607 237.651 134.612 237.803 134.613L237.973 132.636C237.765 132.634 237.553 132.627 237.347 132.627ZM234.845 123.425C217.694 123.432 205.125 129.691 199.32 133.273V135.607C204.335 132.347 217.104 125.404 234.825 125.404C234.832 125.404 234.838 125.404 234.845 125.404C236.063 125.404 237.316 125.454 238.58 125.523L238.748 123.549C237.427 123.476 236.119 123.425 234.845 123.425ZM232.363 114.132C216.479 114.137 204.835 119.553 199.32 122.761V125.061C204.103 122.126 215.909 116.111 232.345 116.111C232.351 116.111 232.357 116.111 232.363 116.111C234.481 116.111 236.686 116.215 239.35 116.504L239.518 114.532C236.8 114.239 234.538 114.132 232.363 114.132Z" fill="white"/>
</mask>
<g mask="url(#mask8_1_1574)">
<path d="M196.351 167.681V109.676C200.013 109.643 203.667 109.32 207.201 108.708C203.887 109.917 201.233 111.201 199.32 112.246V114.516C203.868 111.892 214.73 106.73 229.89 106.73C229.894 106.73 229.899 106.73 229.904 106.73C232.767 106.73 235.793 106.916 240.12 107.492L240.288 105.519C235.922 104.941 232.831 104.751 229.904 104.751C225.47 104.753 221.394 105.18 217.721 105.854C219.858 105.032 221.883 104.077 223.764 102.99C226.696 101.29 229.069 99.3856 230.881 97.3563C233.594 97.5105 236.716 97.8738 240.878 98.604L241.048 96.625C237.574 96.021 234.801 95.667 232.376 95.4754C232.387 95.459 232.398 95.4427 232.409 95.4275C234.336 92.6751 235.293 89.7416 235.29 86.8186L235.289 85.0557C241.155 85.7041 244.871 86.745 244.871 86.745L244.524 90.8012L239.243 152.65C213.13 152.881 196.351 167.681 196.351 167.681ZM237.186 141.832C218.871 142.537 205.401 150.109 199.32 154.294V156.709C204.489 152.963 218.116 144.597 237.018 143.813L237.186 141.832ZM237.347 132.627C218.927 132.635 205.412 139.808 199.32 143.784V146.159C204.54 142.57 218.271 134.607 237.322 134.607C237.331 134.607 237.337 134.607 237.347 134.607C237.497 134.607 237.651 134.612 237.803 134.613L237.973 132.636C237.765 132.634 237.553 132.627 237.347 132.627ZM234.845 123.425C217.694 123.432 205.125 129.691 199.32 133.273V135.607C204.335 132.347 217.104 125.404 234.825 125.404C234.832 125.404 234.838 125.404 234.845 125.404C236.063 125.404 237.316 125.454 238.58 125.523L238.748 123.549C237.427 123.476 236.119 123.425 234.845 123.425ZM232.363 114.132C216.479 114.137 204.835 119.553 199.32 122.761V125.061C204.103 122.126 215.909 116.111 232.345 116.111C232.351 116.111 232.357 116.111 232.363 116.111C234.481 116.111 236.686 116.215 239.35 116.504L239.518 114.532C236.8 114.239 234.538 114.132 232.363 114.132Z" fill="url(#paint8_linear_1_1574)"/>
</g>
<mask id="mask9_1_1574" style="mask-type:luminance" maskUnits="userSpaceOnUse" x="199" y="132" width="39" height="15">
<path d="M199.32 146.159V143.784C205.412 139.808 218.927 132.635 237.346 132.627C237.553 132.627 237.765 132.634 237.973 132.636L237.803 134.613C237.651 134.612 237.497 134.607 237.346 134.607C237.337 134.607 237.331 134.607 237.322 134.607C218.271 134.607 204.54 142.57 199.32 146.159Z" fill="white"/>
</mask>
<g mask="url(#mask9_1_1574)">
<path d="M199.32 146.159V143.784C205.412 139.808 218.927 132.635 237.346 132.627C237.553 132.627 237.765 132.634 237.973 132.636L237.803 134.613C237.651 134.612 237.497 134.607 237.346 134.607C237.337 134.607 237.331 134.607 237.322 134.607C218.271 134.607 204.54 142.57 199.32 146.159Z" fill="url(#paint9_linear_1_1574)"/>
</g>
<mask id="mask10_1_1574" style="mask-type:luminance" maskUnits="userSpaceOnUse" x="199" y="123" width="40" height="13">
<path d="M199.32 135.607V133.273C205.125 129.691 217.694 123.432 234.845 123.425C236.119 123.425 237.427 123.476 238.748 123.549L238.58 125.523C237.316 125.454 236.063 125.404 234.845 125.404C234.838 125.404 234.832 125.404 234.825 125.404C217.104 125.404 204.335 132.347 199.32 135.607Z" fill="white"/>
</mask>
<g mask="url(#mask10_1_1574)">
<path d="M199.32 135.607V133.273C205.125 129.691 217.694 123.432 234.845 123.425C236.119 123.425 237.427 123.476 238.748 123.549L238.58 125.523C237.316 125.454 236.063 125.404 234.845 125.404C234.838 125.404 234.832 125.404 234.825 125.404C217.104 125.404 204.335 132.347 199.32 135.607Z" fill="url(#paint10_linear_1_1574)"/>
</g>
<mask id="mask11_1_1574" style="mask-type:luminance" maskUnits="userSpaceOnUse" x="199" y="141" width="39" height="16">
<path d="M199.32 156.709V154.294C205.401 150.109 218.871 142.537 237.186 141.832L237.018 143.813C218.116 144.597 204.489 152.963 199.32 156.709Z" fill="white"/>
</mask>
<g mask="url(#mask11_1_1574)">
<path d="M199.32 156.709V154.294C205.401 150.109 218.871 142.537 237.186 141.832L237.018 143.813C218.116 144.597 204.489 152.963 199.32 156.709Z" fill="url(#paint11_linear_1_1574)"/>
</g>
<mask id="mask12_1_1574" style="mask-type:luminance" maskUnits="userSpaceOnUse" x="230" y="95" width="12" height="4">
<path d="M240.878 98.604C236.716 97.8738 233.594 97.5105 230.881 97.3563C231.432 96.7395 231.929 96.1121 232.376 95.4754C234.801 95.667 237.574 96.021 241.048 96.625L240.878 98.604Z" fill="white"/>
</mask>
<g mask="url(#mask12_1_1574)">
<path d="M240.878 98.604C236.716 97.8738 233.594 97.5105 230.881 97.3563C231.432 96.7395 231.929 96.1121 232.376 95.4754C234.801 95.667 237.574 96.021 241.048 96.625L240.878 98.604Z" fill="url(#paint12_linear_1_1574)"/>
</g>
<mask id="mask13_1_1574" style="mask-type:luminance" maskUnits="userSpaceOnUse" x="199" y="104" width="42" height="11">
<path d="M199.32 114.516V112.246C201.233 111.201 203.886 109.917 207.201 108.708C210.882 108.072 214.432 107.119 217.721 105.854C221.394 105.18 225.47 104.752 229.904 104.751C232.831 104.751 235.922 104.941 240.288 105.519L240.12 107.492C235.793 106.916 232.767 106.73 229.904 106.73C229.899 106.73 229.894 106.73 229.89 106.73C214.73 106.73 203.868 111.892 199.32 114.516Z" fill="white"/>
</mask>
<g mask="url(#mask13_1_1574)">
<path d="M199.32 114.516V112.246C201.233 111.201 203.886 109.917 207.201 108.708C210.882 108.072 214.432 107.119 217.721 105.854C221.394 105.18 225.47 104.752 229.904 104.751C232.831 104.751 235.922 104.941 240.288 105.519L240.12 107.492C235.793 106.916 232.767 106.73 229.904 106.73C229.899 106.73 229.894 106.73 229.89 106.73C214.73 106.73 203.868 111.892 199.32 114.516Z" fill="url(#paint13_linear_1_1574)"/>
</g>
<mask id="mask14_1_1574" style="mask-type:luminance" maskUnits="userSpaceOnUse" x="199" y="114" width="41" height="12">
<path d="M199.32 125.061V122.761C204.835 119.553 216.479 114.137 232.363 114.132C234.538 114.132 236.8 114.239 239.518 114.532L239.35 116.504C236.686 116.215 234.481 116.111 232.363 116.111C232.357 116.111 232.351 116.111 232.345 116.111C215.909 116.111 204.103 122.126 199.32 125.061Z" fill="white"/>
</mask>
<g mask="url(#mask14_1_1574)">
<path d="M199.32 125.061V122.761C204.835 119.553 216.479 114.137 232.363 114.132C234.538 114.132 236.8 114.239 239.518 114.532L239.35 116.504C236.686 116.215 234.481 116.111 232.363 116.111C232.357 116.111 232.351 116.111 232.345 116.111C215.909 116.111 204.103 122.126 199.32 125.061Z" fill="url(#paint14_linear_1_1574)"/>
</g>
<mask id="mask15_1_1574" style="mask-type:luminance" maskUnits="userSpaceOnUse" x="196" y="97" width="58" height="71">
<path d="M196.351 167.681C200.139 165.646 204.221 164.199 208.36 163.031C212.511 161.883 216.764 161.108 221.048 160.631C222.119 160.51 223.197 160.453 224.27 160.36L225.884 160.234L227.5 160.191L230.734 160.121L233.968 160.229C236.128 160.246 238.269 160.543 240.42 160.705C242.565 160.934 244.691 161.309 246.828 161.603L246.273 162.022C247.326 151.239 248.517 140.47 249.641 129.694L251.446 113.541L253.357 97.4007L251.964 113.595L250.461 129.778C249.381 140.557 248.368 151.345 247.216 162.117L247.163 162.608L246.661 162.536C244.546 162.232 242.441 161.846 240.319 161.607C238.19 161.433 236.068 161.126 233.929 161.097L230.726 160.969L227.521 161.005L225.917 161.018L224.317 161.114C223.252 161.186 222.181 161.222 221.117 161.324C216.855 161.704 212.63 162.436 208.467 163.442C204.315 164.468 200.202 165.773 196.351 167.681Z" fill="white"/>
</mask>
<g mask="url(#mask15_1_1574)">
<path d="M196.351 167.681C200.139 165.646 204.221 164.199 208.36 163.031C212.511 161.883 216.764 161.108 221.048 160.631C222.119 160.51 223.197 160.453 224.27 160.36L225.884 160.234L227.5 160.191L230.734 160.121L233.968 160.229C236.128 160.246 238.269 160.543 240.42 160.705C242.565 160.934 244.691 161.309 246.828 161.603L246.273 162.022C247.326 151.239 248.517 140.47 249.641 129.694L251.446 113.541L253.357 97.4007L251.964 113.595L250.461 129.778C249.381 140.557 248.368 151.345 247.216 162.117L247.163 162.608L246.661 162.536C244.546 162.232 242.441 161.846 240.319 161.607C238.19 161.433 236.068 161.126 233.929 161.097L230.726 160.969L227.521 161.005L225.917 161.018L224.317 161.114C223.252 161.186 222.181 161.222 221.117 161.324C216.855 161.704 212.63 162.436 208.467 163.442C204.315 164.468 200.202 165.773 196.351 167.681Z" fill="url(#paint15_linear_1_1574)"/>
</g>
<mask id="mask16_1_1574" style="mask-type:luminance" maskUnits="userSpaceOnUse" x="196" y="92" width="54" height="76">
<path d="M196.351 167.681C199.699 165.397 203.362 163.598 207.117 162.065C210.882 160.547 214.778 159.336 218.753 158.478C222.728 157.652 226.759 156.971 230.829 156.813C232.858 156.632 234.896 156.701 236.931 156.681C238.966 156.697 240.995 156.896 243.028 156.995L242.518 157.416C243.471 146.532 244.592 135.662 245.627 124.785L247.309 108.48L249.104 92.1868L247.836 108.529L246.46 124.863C245.454 135.743 244.537 146.631 243.449 157.504L243.404 157.951L242.939 157.926C240.931 157.817 238.924 157.606 236.912 157.579C234.899 157.586 232.884 157.504 230.876 157.671C226.85 157.825 222.85 158.389 218.893 159.141C214.93 159.9 211.061 161.08 207.265 162.447C203.481 163.845 199.773 165.512 196.351 167.681Z" fill="white"/>
</mask>
<g mask="url(#mask16_1_1574)">
<path d="M196.351 167.681C199.699 165.397 203.362 163.598 207.117 162.065C210.882 160.547 214.778 159.336 218.753 158.478C222.728 157.652 226.759 156.971 230.829 156.813C232.858 156.632 234.896 156.701 236.931 156.681C238.966 156.697 240.995 156.896 243.028 156.995L242.518 157.416C243.471 146.532 244.592 135.662 245.627 124.785L247.309 108.48L249.104 92.1868L247.836 108.529L246.46 124.863C245.454 135.743 244.537 146.631 243.449 157.504L243.404 157.951L242.939 157.926C240.931 157.817 238.924 157.606 236.912 157.579C234.899 157.586 232.884 157.504 230.876 157.671C226.85 157.825 222.85 158.389 218.893 159.141C214.93 159.9 211.061 161.08 207.265 162.447C203.481 163.845 199.773 165.512 196.351 167.681Z" fill="url(#paint16_linear_1_1574)"/>
</g>
<mask id="mask17_1_1574" style="mask-type:luminance" maskUnits="userSpaceOnUse" x="196" y="86" width="49" height="82">
<path d="M196.351 167.681C199.28 165.169 202.524 163.034 205.892 161.14C209.258 159.236 212.801 157.638 216.451 156.344C220.1 155.055 223.837 153.957 227.666 153.324C231.477 152.577 235.362 152.327 239.238 152.187L238.781 152.61C239.653 141.62 240.677 130.643 241.638 119.662L243.196 103.199L244.871 86.745L243.731 103.244L242.476 119.733C241.56 130.719 240.709 141.71 239.703 152.69L239.665 153.1L239.246 153.112C235.42 153.227 231.583 153.448 227.814 154.163C224.031 154.78 220.308 155.747 216.671 156.969C213.02 158.165 209.502 159.738 206.08 161.488C202.668 163.258 199.364 165.272 196.351 167.681Z" fill="white"/>
</mask>
<g mask="url(#mask17_1_1574)">
<path d="M196.351 167.681C199.28 165.169 202.524 163.034 205.892 161.14C209.258 159.236 212.801 157.638 216.451 156.344C220.1 155.055 223.837 153.957 227.666 153.324C231.477 152.577 235.362 152.327 239.238 152.187L238.781 152.61C239.653 141.62 240.677 130.643 241.638 119.662L243.196 103.199L244.871 86.745L243.731 103.244L242.476 119.733C241.56 130.719 240.709 141.71 239.703 152.69L239.665 153.1L239.246 153.112C235.42 153.227 231.583 153.448 227.814 154.163C224.031 154.78 220.308 155.747 216.671 156.969C213.02 158.165 209.502 159.738 206.08 161.488C202.668 163.258 199.364 165.272 196.351 167.681Z" fill="url(#paint17_linear_1_1574)"/>
</g>
<mask id="mask18_1_1574" style="mask-type:luminance" maskUnits="userSpaceOnUse" x="134" y="102" width="63" height="68">
<path d="M196.351 169.619C196.351 169.619 186.228 165.296 169.067 165.296C161.177 165.296 151.802 166.209 141.234 168.876L134.001 104.846L134.943 102.907L142.067 166.938C152.475 164.27 161.708 163.358 169.479 163.358C186.381 163.358 196.351 167.681 196.351 167.681V169.619Z" fill="white"/>
</mask>
<g mask="url(#mask18_1_1574)">
<path d="M196.351 169.619C196.351 169.619 186.228 165.296 169.067 165.296C161.177 165.296 151.802 166.209 141.234 168.876L134.001 104.846L134.943 102.907L142.067 166.938C152.475 164.27 161.708 163.358 169.479 163.358C186.381 163.358 196.351 167.681 196.351 167.681V169.619Z" fill="url(#paint18_linear_1_1574)"/>
</g>
<mask id="mask19_1_1574" style="mask-type:luminance" maskUnits="userSpaceOnUse" x="134" y="100" width="63" height="68">
<path d="M196.351 167.681C196.351 167.681 186.381 163.358 169.479 163.358C161.708 163.358 152.475 164.27 142.067 166.938L134.943 102.907C134.966 102.896 136.695 102.06 139.694 100.827L145.957 162.069C152.048 160.977 157.702 160.54 162.859 160.54C183.684 160.54 196.351 167.681 196.351 167.681Z" fill="white"/>
</mask>
<g mask="url(#mask19_1_1574)">
<path d="M196.351 167.681C196.351 167.681 186.381 163.358 169.479 163.358C161.708 163.358 152.475 164.27 142.067 166.938L134.943 102.907C134.966 102.896 136.695 102.06 139.694 100.827L145.957 162.069C152.048 160.977 157.702 160.54 162.859 160.54C183.684 160.54 196.351 167.681 196.351 167.681Z" fill="url(#paint19_linear_1_1574)"/>
</g>
<mask id="mask20_1_1574" style="mask-type:luminance" maskUnits="userSpaceOnUse" x="139" y="95" width="58" height="73">
<path d="M196.351 167.681C196.351 167.681 183.684 160.54 162.858 160.54C157.702 160.54 152.047 160.977 145.957 162.069L139.694 100.827L139.344 97.4007C139.344 97.4007 141.018 96.6892 143.927 95.688L149.719 157.461C152.403 157.206 154.996 157.09 157.492 157.09C181.395 157.09 196.351 167.681 196.351 167.681Z" fill="white"/>
</mask>
<g mask="url(#mask20_1_1574)">
<path d="M196.351 167.681C196.351 167.681 183.684 160.54 162.858 160.54C157.702 160.54 152.047 160.977 145.957 162.069L139.694 100.827L139.344 97.4007C139.344 97.4007 141.018 96.6892 143.927 95.688L149.719 157.461C152.403 157.206 154.996 157.09 157.492 157.09C181.395 157.09 196.351 167.681 196.351 167.681Z" fill="url(#paint20_linear_1_1574)"/>
</g>
<mask id="mask21_1_1574" style="mask-type:luminance" maskUnits="userSpaceOnUse" x="143" y="90" width="54" height="78">
<path d="M196.351 167.681C196.351 167.681 181.395 157.09 157.492 157.09C154.996 157.09 152.403 157.206 149.719 157.461L143.927 95.688L143.599 92.1868C143.599 92.1868 145.277 91.5816 148.177 90.8012L153.46 152.65C179.572 152.881 196.351 167.681 196.351 167.681Z" fill="white"/>
</mask>
<g mask="url(#mask21_1_1574)">
<path d="M196.351 167.681C196.351 167.681 181.395 157.09 157.492 157.09C154.996 157.09 152.403 157.206 149.719 157.461L143.927 95.688L143.599 92.1868C143.599 92.1868 145.277 91.5816 148.177 90.8012L153.46 152.65C179.572 152.881 196.351 167.681 196.351 167.681Z" fill="url(#paint21_linear_1_1574)"/>
</g>
<mask id="mask22_1_1574" style="mask-type:luminance" maskUnits="userSpaceOnUse" x="147" y="85" width="50" height="83">
<path d="M196.351 167.681C196.351 167.681 179.572 152.881 153.46 152.65L148.177 90.8012L147.831 86.745C147.831 86.745 151.048 85.8443 156.218 85.1971L156.219 86.8794C156.222 89.8397 157.207 92.7989 159.176 95.5759C157.029 95.7827 154.592 96.1144 151.655 96.625L151.824 98.604C155.41 97.9755 158.222 97.6191 160.667 97.4334C162.482 99.451 164.854 101.342 167.782 103.032C169.373 103.949 171.068 104.771 172.846 105.498C169.747 105.033 166.39 104.752 162.799 104.751C159.871 104.751 156.78 104.941 152.414 105.519L152.583 107.492C156.91 106.916 159.934 106.73 162.799 106.73C162.804 106.73 162.808 106.73 162.813 106.73C177.972 106.73 188.835 111.892 193.382 114.516V112.246C191.643 111.297 189.295 110.15 186.394 109.042C189.456 109.466 192.591 109.679 195.725 109.679C195.934 109.679 196.142 109.678 196.351 109.676V167.681ZM155.516 141.832L155.684 143.813C174.587 144.597 188.213 152.963 193.382 156.709V154.294C187.301 150.109 173.832 142.537 155.516 141.832ZM155.381 134.607C174.43 134.607 188.163 142.57 193.382 146.159V143.784C187.29 139.808 173.776 132.635 155.356 132.627C155.149 132.627 154.938 132.634 154.73 132.636L154.899 134.613C155.051 134.612 155.205 134.607 155.356 134.607C155.365 134.607 155.371 134.607 155.381 134.607ZM157.877 125.404C175.598 125.404 188.367 132.347 193.382 135.607V133.273C187.578 129.691 175.008 123.432 157.857 123.425C156.584 123.425 155.275 123.476 153.954 123.549L154.122 125.523C155.386 125.454 156.639 125.404 157.857 125.404C157.864 125.404 157.87 125.404 157.877 125.404ZM160.357 116.111C176.794 116.111 188.599 122.126 193.382 125.061V122.761C187.867 119.553 176.223 114.137 160.34 114.132C158.164 114.132 155.903 114.239 153.184 114.532L153.352 116.504C156.016 116.215 158.221 116.111 160.34 116.111C160.346 116.111 160.351 116.111 160.357 116.111Z" fill="white"/>
</mask>
<g mask="url(#mask22_1_1574)">
<path d="M196.351 167.681C196.351 167.681 179.572 152.881 153.46 152.65L148.177 90.8012L147.831 86.745C147.831 86.745 151.048 85.8443 156.218 85.1971L156.219 86.8794C156.222 89.8397 157.207 92.7989 159.176 95.5759C157.029 95.7827 154.592 96.1144 151.655 96.625L151.824 98.604C155.41 97.9755 158.222 97.6191 160.667 97.4334C162.482 99.451 164.854 101.342 167.782 103.032C169.373 103.949 171.068 104.771 172.846 105.498C169.747 105.033 166.39 104.752 162.799 104.751C159.871 104.751 156.78 104.941 152.414 105.519L152.583 107.492C156.91 106.916 159.934 106.73 162.799 106.73C162.804 106.73 162.808 106.73 162.813 106.73C177.972 106.73 188.835 111.892 193.382 114.516V112.246C191.643 111.297 189.295 110.15 186.394 109.042C189.456 109.466 192.591 109.679 195.725 109.679C195.934 109.679 196.142 109.678 196.351 109.676V167.681ZM155.516 141.832L155.684 143.813C174.587 144.597 188.213 152.963 193.382 156.709V154.294C187.301 150.109 173.832 142.537 155.516 141.832ZM155.381 134.607C174.43 134.607 188.163 142.57 193.382 146.159V143.784C187.29 139.808 173.776 132.635 155.356 132.627C155.149 132.627 154.938 132.634 154.73 132.636L154.899 134.613C155.051 134.612 155.205 134.607 155.356 134.607C155.365 134.607 155.371 134.607 155.381 134.607ZM157.877 125.404C175.598 125.404 188.367 132.347 193.382 135.607V133.273C187.578 129.691 175.008 123.432 157.857 123.425C156.584 123.425 155.275 123.476 153.954 123.549L154.122 125.523C155.386 125.454 156.639 125.404 157.857 125.404C157.864 125.404 157.87 125.404 157.877 125.404ZM160.357 116.111C176.794 116.111 188.599 122.126 193.382 125.061V122.761C187.867 119.553 176.223 114.137 160.34 114.132C158.164 114.132 155.903 114.239 153.184 114.532L153.352 116.504C156.016 116.215 158.221 116.111 160.34 116.111C160.346 116.111 160.351 116.111 160.357 116.111Z" fill="url(#paint22_linear_1_1574)"/>
</g>
<mask id="mask23_1_1574" style="mask-type:luminance" maskUnits="userSpaceOnUse" x="154" y="132" width="40" height="15">
<path d="M193.382 146.159C188.163 142.57 174.43 134.607 155.381 134.607C155.371 134.607 155.365 134.607 155.356 134.607C155.205 134.607 155.051 134.612 154.899 134.613L154.73 132.636C154.938 132.634 155.149 132.627 155.356 132.627C173.776 132.635 187.29 139.808 193.382 143.784V146.159Z" fill="white"/>
</mask>
<g mask="url(#mask23_1_1574)">
<path d="M193.382 146.159C188.163 142.57 174.43 134.607 155.381 134.607C155.371 134.607 155.365 134.607 155.356 134.607C155.205 134.607 155.051 134.612 154.899 134.613L154.73 132.636C154.938 132.634 155.149 132.627 155.356 132.627C173.776 132.635 187.29 139.808 193.382 143.784V146.159Z" fill="url(#paint23_linear_1_1574)"/>
</g>
<mask id="mask24_1_1574" style="mask-type:luminance" maskUnits="userSpaceOnUse" x="153" y="123" width="41" height="13">
<path d="M193.382 135.607C188.367 132.347 175.598 125.404 157.877 125.404C157.87 125.404 157.864 125.404 157.857 125.404C156.639 125.404 155.386 125.454 154.122 125.523L153.954 123.549C155.275 123.476 156.584 123.425 157.857 123.425C175.008 123.432 187.578 129.691 193.382 133.273V135.607Z" fill="white"/>
</mask>
<g mask="url(#mask24_1_1574)">
<path d="M193.382 135.607C188.367 132.347 175.598 125.404 157.877 125.404C157.87 125.404 157.864 125.404 157.857 125.404C156.639 125.404 155.386 125.454 154.122 125.523L153.954 123.549C155.275 123.476 156.584 123.425 157.857 123.425C175.008 123.432 187.578 129.691 193.382 133.273V135.607Z" fill="url(#paint24_linear_1_1574)"/>
</g>
<mask id="mask25_1_1574" style="mask-type:luminance" maskUnits="userSpaceOnUse" x="155" y="141" width="39" height="16">
<path d="M193.382 156.709C188.213 152.963 174.587 144.597 155.684 143.813L155.516 141.832C173.832 142.537 187.301 150.109 193.382 154.294V156.709Z" fill="white"/>
</mask>
<g mask="url(#mask25_1_1574)">
<path d="M193.382 156.709C188.213 152.963 174.587 144.597 155.684 143.813L155.516 141.832C173.832 142.537 187.301 150.109 193.382 154.294V156.709Z" fill="url(#paint25_linear_1_1574)"/>
</g>
<mask id="mask26_1_1574" style="mask-type:luminance" maskUnits="userSpaceOnUse" x="151" y="95" width="10" height="4">
<path d="M151.824 98.604L151.655 96.625C154.592 96.1144 157.029 95.7827 159.176 95.5759C159.622 96.2044 160.119 96.8247 160.667 97.4334C158.222 97.6191 155.41 97.9755 151.824 98.604Z" fill="white"/>
</mask>
<g mask="url(#mask26_1_1574)">
<path d="M151.824 98.604L151.655 96.625C154.592 96.1144 157.029 95.7827 159.176 95.5759C159.622 96.2044 160.119 96.8247 160.667 97.4334C158.222 97.6191 155.41 97.9755 151.824 98.604Z" fill="url(#paint26_linear_1_1574)"/>
</g>
<mask id="mask27_1_1574" style="mask-type:luminance" maskUnits="userSpaceOnUse" x="152" y="104" width="42" height="11">
<path d="M193.382 114.516C188.835 111.892 177.972 106.73 162.813 106.73C162.808 106.73 162.804 106.73 162.799 106.73C159.934 106.73 156.91 106.916 152.583 107.492L152.414 105.519C156.78 104.941 159.871 104.751 162.799 104.751C166.39 104.752 169.747 105.033 172.846 105.498C177 107.198 181.61 108.379 186.394 109.042C189.295 110.15 191.643 111.297 193.382 112.246V114.516Z" fill="white"/>
</mask>
<g mask="url(#mask27_1_1574)">
<path d="M193.382 114.516C188.835 111.892 177.972 106.73 162.813 106.73C162.808 106.73 162.804 106.73 162.799 106.73C159.934 106.73 156.91 106.916 152.583 107.492L152.414 105.519C156.78 104.941 159.871 104.751 162.799 104.751C166.39 104.752 169.747 105.033 172.846 105.498C177 107.198 181.61 108.379 186.394 109.042C189.295 110.15 191.643 111.297 193.382 112.246V114.516Z" fill="url(#paint27_linear_1_1574)"/>
</g>
<mask id="mask28_1_1574" style="mask-type:luminance" maskUnits="userSpaceOnUse" x="153" y="114" width="41" height="12">
<path d="M193.382 125.061C188.599 122.126 176.793 116.111 160.357 116.111C160.351 116.111 160.346 116.111 160.34 116.111C158.221 116.111 156.016 116.215 153.352 116.504L153.184 114.532C155.903 114.239 158.164 114.132 160.34 114.132C176.223 114.137 187.867 119.553 193.382 122.761V125.061Z" fill="white"/>
</mask>
<g mask="url(#mask28_1_1574)">
<path d="M193.382 125.061C188.599 122.126 176.793 116.111 160.357 116.111C160.351 116.111 160.346 116.111 160.34 116.111C158.221 116.111 156.016 116.215 153.352 116.504L153.184 114.532C155.903 114.239 158.164 114.132 160.34 114.132C176.223 114.137 187.867 119.553 193.382 122.761V125.061Z" fill="url(#paint28_linear_1_1574)"/>
</g>
<mask id="mask29_1_1574" style="mask-type:luminance" maskUnits="userSpaceOnUse" x="139" y="97" width="58" height="71">
<path d="M196.351 167.681C192.501 165.773 188.387 164.468 184.234 163.442C180.073 162.436 175.847 161.704 171.585 161.324C170.521 161.222 169.451 161.186 168.386 161.114L166.785 161.018L165.181 161.005L161.976 160.969L158.773 161.097C156.634 161.126 154.512 161.433 152.384 161.607C150.261 161.846 148.156 162.232 146.041 162.536L145.539 162.608L145.487 162.117C144.335 151.345 143.322 140.557 142.241 129.778L140.739 113.595L139.344 97.4007L141.256 113.541L143.061 129.694C144.185 140.47 145.377 151.239 146.428 162.022L145.874 161.603C148.011 161.309 150.137 160.934 152.282 160.705C154.433 160.543 156.574 160.246 158.735 160.229L161.967 160.121L165.202 160.191L166.819 160.234L168.432 160.36C169.506 160.453 170.583 160.51 171.654 160.631C175.938 161.108 180.192 161.883 184.343 163.031C188.482 164.199 192.564 165.646 196.351 167.681Z" fill="white"/>
</mask>
<g mask="url(#mask29_1_1574)">
<path d="M196.351 167.681C192.501 165.773 188.387 164.468 184.234 163.442C180.073 162.436 175.847 161.704 171.585 161.324C170.521 161.222 169.451 161.186 168.386 161.114L166.785 161.018L165.181 161.005L161.976 160.969L158.773 161.097C156.634 161.126 154.512 161.433 152.384 161.607C150.261 161.846 148.156 162.232 146.041 162.536L145.539 162.608L145.487 162.117C144.335 151.345 143.322 140.557 142.241 129.778L140.739 113.595L139.344 97.4007L141.256 113.541L143.061 129.694C144.185 140.47 145.377 151.239 146.428 162.022L145.874 161.603C148.011 161.309 150.137 160.934 152.282 160.705C154.433 160.543 156.574 160.246 158.735 160.229L161.967 160.121L165.202 160.191L166.819 160.234L168.432 160.36C169.506 160.453 170.583 160.51 171.654 160.631C175.938 161.108 180.192 161.883 184.343 163.031C188.482 164.199 192.564 165.646 196.351 167.681Z" fill="url(#paint29_linear_1_1574)"/>
</g>
<mask id="mask30_1_1574" style="mask-type:luminance" maskUnits="userSpaceOnUse" x="143" y="92" width="54" height="76">
<path d="M196.351 167.681C192.929 165.512 189.221 163.845 185.437 162.447C181.642 161.08 177.771 159.9 173.81 159.141C169.853 158.389 165.853 157.825 161.827 157.671C159.819 157.504 157.803 157.586 155.791 157.579C153.779 157.606 151.772 157.817 149.764 157.926L149.299 157.951L149.253 157.504C148.165 146.631 147.248 135.743 146.242 124.863L144.865 108.529L143.599 92.1868L145.393 108.48L147.075 124.785C148.11 135.662 149.232 146.532 150.184 157.416L149.675 156.995C151.708 156.896 153.737 156.697 155.772 156.681C157.807 156.701 159.844 156.632 161.874 156.813C165.944 156.971 169.974 157.652 173.95 158.478C177.924 159.336 181.82 160.547 185.586 162.065C189.341 163.598 193.003 165.397 196.351 167.681Z" fill="white"/>
</mask>
<g mask="url(#mask30_1_1574)">
<path d="M196.351 167.681C192.929 165.512 189.221 163.845 185.437 162.447C181.642 161.08 177.771 159.9 173.81 159.141C169.853 158.389 165.853 157.825 161.827 157.671C159.819 157.504 157.803 157.586 155.791 157.579C153.779 157.606 151.772 157.817 149.764 157.926L149.299 157.951L149.253 157.504C148.165 146.631 147.248 135.743 146.242 124.863L144.865 108.529L143.599 92.1868L145.393 108.48L147.075 124.785C148.11 135.662 149.232 146.532 150.184 157.416L149.675 156.995C151.708 156.896 153.737 156.697 155.772 156.681C157.807 156.701 159.844 156.632 161.874 156.813C165.944 156.971 169.974 157.652 173.95 158.478C177.924 159.336 181.82 160.547 185.586 162.065C189.341 163.598 193.003 165.397 196.351 167.681Z" fill="url(#paint30_linear_1_1574)"/>
</g>
<mask id="mask31_1_1574" style="mask-type:luminance" maskUnits="userSpaceOnUse" x="147" y="86" width="50" height="82">
<path d="M196.351 167.681C193.338 165.272 190.035 163.258 186.622 161.488C183.2 159.738 179.683 158.165 176.032 156.969C172.395 155.747 168.672 154.78 164.889 154.163C161.119 153.448 157.281 153.227 153.456 153.112L153.037 153.1L153 152.69C151.994 141.71 151.142 130.719 150.226 119.733L148.97 103.244L147.831 86.745L149.505 103.199L151.065 119.662C152.025 130.643 153.05 141.62 153.921 152.61L153.465 152.187C157.341 152.327 161.225 152.577 165.036 153.324C168.866 153.957 172.603 155.055 176.25 156.344C179.901 157.638 183.444 159.236 186.81 161.14C190.178 163.034 193.421 165.169 196.351 167.681Z" fill="white"/>
</mask>
<g mask="url(#mask31_1_1574)">
<path d="M196.351 167.681C193.338 165.272 190.035 163.258 186.622 161.488C183.2 159.738 179.683 158.165 176.032 156.969C172.395 155.747 168.672 154.78 164.889 154.163C161.119 153.448 157.281 153.227 153.456 153.112L153.037 153.1L153 152.69C151.994 141.71 151.142 130.719 150.226 119.733L148.97 103.244L147.831 86.745L149.505 103.199L151.065 119.662C152.025 130.643 153.05 141.62 153.921 152.61L153.465 152.187C157.341 152.327 161.225 152.577 165.036 153.324C168.866 153.957 172.603 155.055 176.25 156.344C179.901 157.638 183.444 159.236 186.81 161.14C190.178 163.034 193.421 165.169 196.351 167.681Z" fill="url(#paint31_linear_1_1574)"/>
</g>
<mask id="mask32_1_1574" style="mask-type:luminance" maskUnits="userSpaceOnUse" x="125" y="13" width="141" height="82">
<path d="M195.754 94.1295L156.208 71.3369V71.338L125.61 53.7032V49.9415H132.115L195.692 13.1706L259.493 49.9415H265.836V53.5969L208.843 86.5592L196.351 93.7837L195.753 94.1295" fill="white"/>
</mask>
<g mask="url(#mask32_1_1574)">
<path d="M195.754 94.1295L156.208 71.3369V71.338L125.61 53.7032V49.9415H132.115L195.692 13.1706L259.493 49.9415H265.836V53.5969L208.843 86.5592L196.351 93.7837L195.753 94.1295" fill="url(#paint32_linear_1_1574)"/>
</g>
<mask id="mask33_1_1574" style="mask-type:luminance" maskUnits="userSpaceOnUse" x="156" y="71" width="80" height="39">
<path d="M195.725 109.679C192.591 109.679 189.456 109.466 186.394 109.042C181.61 108.379 177 107.198 172.846 105.498C171.068 104.771 169.373 103.949 167.782 103.032C164.854 101.342 162.482 99.4509 160.667 97.4334C160.119 96.8247 159.622 96.2044 159.176 95.5759C157.206 92.7989 156.222 89.8397 156.219 86.8793L156.218 85.1971L156.211 76.7821L195.753 99.5713L235.282 76.7097L235.289 85.0557L235.29 86.8186C235.293 89.7416 234.336 92.6751 232.409 95.4275C232.398 95.4427 232.387 95.459 232.376 95.4754C231.929 96.1121 231.432 96.7394 230.881 97.3563C229.069 99.3855 226.696 101.29 223.764 102.99C221.883 104.077 219.858 105.032 217.721 105.854C214.432 107.119 210.882 108.072 207.201 108.708C203.667 109.32 200.013 109.643 196.351 109.676C196.142 109.678 195.934 109.679 195.725 109.679Z" fill="white"/>
</mask>
<g mask="url(#mask33_1_1574)">
<path d="M195.725 109.679C192.591 109.679 189.456 109.466 186.394 109.042C181.61 108.379 177 107.198 172.846 105.498C171.068 104.771 169.373 103.949 167.782 103.032C164.854 101.342 162.482 99.4509 160.667 97.4334C160.119 96.8247 159.622 96.2044 159.176 95.5759C157.206 92.7989 156.222 89.8397 156.219 86.8793L156.218 85.1971L156.211 76.7821L195.753 99.5713L235.282 76.7097L235.289 85.0557L235.29 86.8186C235.293 89.7416 234.336 92.6751 232.409 95.4275C232.398 95.4427 232.387 95.459 232.376 95.4754C231.929 96.1121 231.432 96.7394 230.881 97.3563C229.069 99.3855 226.696 101.29 223.764 102.99C221.883 104.077 219.858 105.032 217.721 105.854C214.432 107.119 210.882 108.072 207.201 108.708C203.667 109.32 200.013 109.643 196.351 109.676C196.142 109.678 195.934 109.679 195.725 109.679Z" fill="url(#paint33_linear_1_1574)"/>
</g>
<mask id="mask34_1_1574" style="mask-type:luminance" maskUnits="userSpaceOnUse" x="125" y="9" width="141" height="82">
<path d="M195.692 9.51515L125.61 50.0478L195.753 90.4741L265.836 49.9415L195.692 9.51515Z" fill="white"/>
</mask>
<g mask="url(#mask34_1_1574)">
<path d="M196.131 9.22332L126.049 49.7559L196.192 90.1822L266.274 49.6496L196.131 9.22332Z" fill="url(#paint34_linear_1_1574)"/>
</g>
<mask id="mask35_1_1574" style="mask-type:luminance" maskUnits="userSpaceOnUse" x="156" y="71" width="80" height="29">
<path d="M195.753 99.5713L156.211 76.7821L156.208 71.3369L195.754 94.1295L196.351 93.7837L208.843 86.5592L235.279 71.2703L235.282 76.7097L195.753 99.5713Z" fill="white"/>
</mask>
<g mask="url(#mask35_1_1574)">
<path d="M195.753 99.5713L156.211 76.7821L156.208 71.3369L195.754 94.1295L196.351 93.7837L208.843 86.5592L235.279 71.2703L235.282 76.7097L195.753 99.5713Z" fill="url(#paint35_linear_1_1574)"/>
</g>
<mask id="mask36_1_1574" style="mask-type:luminance" maskUnits="userSpaceOnUse" x="189" y="46" width="14" height="8">
<path d="M202.318 49.9952C202.318 52.1518 199.365 53.9006 195.723 53.9006C192.08 53.9006 189.128 52.1518 189.128 49.9952C189.128 47.8374 192.08 46.0885 195.723 46.0885C199.365 46.0885 202.318 47.8374 202.318 49.9952Z" fill="white"/>
</mask>
<g mask="url(#mask36_1_1574)">
<path d="M202.318 49.9952C202.318 52.1518 199.365 53.9006 195.723 53.9006C192.08 53.9006 189.128 52.1518 189.128 49.9952C189.128 47.8374 192.08 46.0885 195.723 46.0885C199.365 46.0885 202.318 47.8374 202.318 49.9952Z" fill="url(#paint36_linear_1_1574)"/>
</g>
<mask id="mask37_1_1574" style="mask-type:luminance" maskUnits="userSpaceOnUse" x="229" y="94" width="4" height="12">
<path d="M231.231 105.702C230.462 105.702 229.839 105.08 229.839 104.312V96.0887C229.839 95.3211 230.462 94.6973 231.231 94.6973C231.998 94.6973 232.621 95.3211 232.621 96.0887V104.312C232.621 105.08 231.998 105.702 231.231 105.702Z" fill="white"/>
</mask>
<g mask="url(#mask37_1_1574)">
<path d="M231.231 105.702C230.462 105.702 229.839 105.08 229.839 104.312V96.0887C229.839 95.3211 230.462 94.6973 231.231 94.6973C231.998 94.6973 232.621 95.3211 232.621 96.0887V104.312C232.621 105.08 231.998 105.702 231.231 105.702Z" fill="url(#paint37_linear_1_1574)"/>
</g>
<mask id="mask38_1_1574" style="mask-type:luminance" maskUnits="userSpaceOnUse" x="229" y="94" width="5" height="7">
<path d="M231.231 100.564C230.206 100.564 229.376 99.7337 229.376 98.7091V96.7044C229.376 95.6798 230.206 94.8492 231.231 94.8492C232.255 94.8492 233.085 95.6798 233.085 96.7044V98.7091C233.085 99.7337 232.255 100.564 231.231 100.564Z" fill="white"/>
</mask>
<g mask="url(#mask38_1_1574)">
<path d="M231.231 100.564C230.206 100.564 229.376 99.7337 229.376 98.7091V96.7044C229.376 95.6798 230.206 94.8492 231.231 94.8492C232.255 94.8492 233.085 95.6798 233.085 96.7044V98.7091C233.085 99.7337 232.255 100.564 231.231 100.564Z" fill="url(#paint38_radial_1_1574)"/>
</g>
<mask id="mask39_1_1574" style="mask-type:luminance" maskUnits="userSpaceOnUse" x="195" y="49" width="38" height="49">
<path d="M231.231 97.0163C230.718 97.0163 230.303 96.6004 230.303 96.0887V70.4922L196.133 50.7978C195.689 50.5419 195.537 49.9753 195.793 49.5314C196.049 49.0886 196.615 48.9356 197.059 49.1914L231.693 69.1522C231.981 69.3181 232.158 69.6231 232.158 69.956V96.0887C232.158 96.6004 231.742 97.0163 231.231 97.0163Z" fill="white"/>
</mask>
<g mask="url(#mask39_1_1574)">
<path d="M231.231 97.0163C230.718 97.0163 230.303 96.6004 230.303 96.0887V70.4922L196.133 50.7978C195.689 50.5419 195.537 49.9753 195.793 49.5314C196.049 49.0886 196.615 48.9356 197.059 49.1914L231.693 69.1522C231.981 69.3181 232.158 69.6231 232.158 69.956V96.0887C232.158 96.6004 231.742 97.0163 231.231 97.0163Z" fill="url(#paint39_linear_1_1574)"/>
</g>
<mask id="mask40_1_1574" style="mask-type:luminance" maskUnits="userSpaceOnUse" x="262" y="0" width="20" height="19">
<path d="M273.413 0.747398L275.698 5.37721L280.808 6.1202C281.907 6.27909 282.347 7.63077 281.551 8.40649L277.853 12.0106L278.726 17.0995C278.914 18.1953 277.765 19.0306 276.781 18.5131L272.211 16.1111L267.641 18.5131C266.657 19.0306 265.507 18.1953 265.695 17.0995L266.568 12.0106L262.871 8.40649C262.075 7.63077 262.514 6.27909 263.614 6.1202L268.724 5.37721L271.009 0.747398C271.5 -0.249124 272.921 -0.249124 273.413 0.747398Z" fill="white"/>
</mask>
<g mask="url(#mask40_1_1574)">
<path d="M273.413 0.747398L275.698 5.37721L280.808 6.1202C281.907 6.27909 282.347 7.63077 281.551 8.40649L277.853 12.0106L278.726 17.0995C278.914 18.1953 277.765 19.0306 276.781 18.5131L272.211 16.1111L267.641 18.5131C266.657 19.0306 265.507 18.1953 265.695 17.0995L266.568 12.0106L262.871 8.40649C262.075 7.63077 262.514 6.27909 263.614 6.1202L268.724 5.37721L271.009 0.747398C271.5 -0.249124 272.921 -0.249124 273.413 0.747398Z" fill="url(#paint40_radial_1_1574)"/>
</g>
<mask id="mask41_1_1574" style="mask-type:luminance" maskUnits="userSpaceOnUse" x="227" y="0" width="20" height="19">
<path d="M238.004 0.747398L240.289 5.37721L245.399 6.1202C246.499 6.27909 246.938 7.63077 246.142 8.40649L242.445 12.0106L243.317 17.0995C243.506 18.1953 242.356 19.0306 241.372 18.5131L236.802 16.1111L232.232 18.5131C231.248 19.0306 230.099 18.1953 230.287 17.0995L231.159 12.0106L227.462 8.40649C226.666 7.63077 227.106 6.27909 228.205 6.1202L233.315 5.37721L235.6 0.747398C236.092 -0.249124 237.512 -0.249124 238.004 0.747398Z" fill="white"/>
</mask>
<g mask="url(#mask41_1_1574)">
<path d="M238.004 0.747398L240.289 5.37721L245.399 6.1202C246.499 6.27909 246.938 7.63077 246.142 8.40649L242.445 12.0106L243.317 17.0995C243.506 18.1953 242.356 19.0306 241.372 18.5131L236.802 16.1111L232.232 18.5131C231.248 19.0306 230.099 18.1953 230.287 17.0995L231.159 12.0106L227.462 8.40649C226.666 7.63077 227.106 6.27909 228.205 6.1202L233.315 5.37721L235.6 0.747398C236.092 -0.249124 237.512 -0.249124 238.004 0.747398Z" fill="url(#paint41_radial_1_1574)"/>
</g>
<mask id="mask42_1_1574" style="mask-type:luminance" maskUnits="userSpaceOnUse" x="149" y="0" width="20" height="19">
<path d="M160.058 0.747398L162.343 5.37721L167.453 6.1202C168.553 6.27909 168.992 7.63077 168.196 8.40649L164.499 12.0106L165.371 17.0995C165.56 18.1953 164.41 19.0306 163.426 18.5131L158.856 16.1111L154.286 18.5131C153.302 19.0306 152.153 18.1953 152.341 17.0995L153.213 12.0106L149.516 8.40649C148.72 7.63077 149.16 6.27909 150.259 6.1202L155.369 5.37721L157.654 0.747398C158.146 -0.249124 159.566 -0.249124 160.058 0.747398Z" fill="white"/>
</mask>
<g mask="url(#mask42_1_1574)">
<path d="M160.058 0.747398L162.343 5.37721L167.453 6.1202C168.553 6.27909 168.992 7.63077 168.196 8.40649L164.499 12.0106L165.371 17.0995C165.56 18.1953 164.41 19.0306 163.426 18.5131L158.856 16.1111L154.286 18.5131C153.302 19.0306 152.153 18.1953 152.341 17.0995L153.213 12.0106L149.516 8.40649C148.72 7.63077 149.16 6.27909 150.259 6.1202L155.369 5.37721L157.654 0.747398C158.146 -0.249124 159.566 -0.249124 160.058 0.747398Z" fill="url(#paint42_radial_1_1574)"/>
</g>
<mask id="mask43_1_1574" style="mask-type:luminance" maskUnits="userSpaceOnUse" x="113" y="0" width="21" height="19">
<path d="M124.65 0.747398L126.935 5.37721L132.045 6.1202C133.144 6.27909 133.583 7.63077 132.788 8.40649L129.09 12.0106L129.963 17.0995C130.151 18.1953 129.001 19.0306 128.018 18.5131L123.447 16.1111L118.877 18.5131C117.894 19.0306 116.744 18.1953 116.932 17.0995L117.805 12.0106L114.107 8.40649C113.312 7.63077 113.751 6.27909 114.85 6.1202L119.96 5.37721L122.245 0.747398C122.737 -0.249124 124.158 -0.249124 124.65 0.747398Z" fill="white"/>
</mask>
<g mask="url(#mask43_1_1574)">
<path d="M124.65 0.747398L126.935 5.37721L132.045 6.1202C133.144 6.27909 133.583 7.63077 132.788 8.40649L129.09 12.0106L129.963 17.0995C130.151 18.1953 129.001 19.0306 128.018 18.5131L123.447 16.1111L118.877 18.5131C117.894 19.0306 116.744 18.1953 116.932 17.0995L117.805 12.0106L114.107 8.40649C113.312 7.63077 113.751 6.27909 114.85 6.1202L119.96 5.37721L122.245 0.747398C122.737 -0.249124 124.158 -0.249124 124.65 0.747398Z" fill="url(#paint43_radial_1_1574)"/>
</g>
<path d="M21.0178 278.703C21.0178 279.268 20.8738 279.775 20.5858 280.223C20.2978 280.66 19.9085 281.007 19.4178 281.263C18.9378 281.508 18.4098 281.631 17.8338 281.631H12.4738V270.271H17.9458C18.4791 270.271 18.9378 270.415 19.3218 270.703C19.7165 270.98 20.0151 271.343 20.2178 271.791C20.4311 272.228 20.5378 272.687 20.5378 273.167C20.5378 273.732 20.3938 274.255 20.1058 274.735C19.8178 275.215 19.4178 275.572 18.9058 275.807C19.5565 275.999 20.0685 276.356 20.4418 276.879C20.8258 277.402 21.0178 278.01 21.0178 278.703ZM19.8978 278.511C19.8978 278.127 19.8125 277.775 19.6418 277.455C19.4711 277.124 19.2365 276.858 18.9378 276.655C18.6498 276.452 18.3191 276.351 17.9458 276.351H13.5938V280.655H17.8338C18.2178 280.655 18.5645 280.554 18.8738 280.351C19.1831 280.148 19.4285 279.887 19.6098 279.567C19.8018 279.236 19.8978 278.884 19.8978 278.511ZM13.5938 271.247V275.439H17.4978C17.8711 275.439 18.2018 275.343 18.4898 275.151C18.7778 274.948 19.0071 274.687 19.1778 274.367C19.3485 274.047 19.4338 273.706 19.4338 273.343C19.4338 272.959 19.3538 272.612 19.1938 272.303C19.0338 271.983 18.8151 271.727 18.5378 271.535C18.2605 271.343 17.9458 271.247 17.5938 271.247H13.5938ZM24.7301 281.631V270.271H29.5301C30.0207 270.271 30.4687 270.372 30.8741 270.575C31.2794 270.778 31.6314 271.055 31.9301 271.407C32.2394 271.748 32.4741 272.132 32.6341 272.559C32.8047 272.975 32.8901 273.402 32.8901 273.839C32.8901 274.383 32.7834 274.895 32.5701 275.375C32.3674 275.855 32.0741 276.26 31.6901 276.591C31.3167 276.922 30.8741 277.14 30.3621 277.247L33.1461 281.631H31.8821L29.2101 277.439H25.8501V281.631H24.7301ZM25.8501 276.447H29.5621C30.0101 276.447 30.3994 276.324 30.7301 276.079C31.0607 275.834 31.3167 275.514 31.4981 275.119C31.6794 274.714 31.7701 274.287 31.7701 273.839C31.7701 273.38 31.6634 272.959 31.4501 272.575C31.2474 272.18 30.9701 271.866 30.6181 271.631C30.2767 271.386 29.8927 271.263 29.4661 271.263H25.8501V276.447ZM36.7832 281.631V270.271H37.9032V281.631H36.7832ZM42.3519 281.631V270.271H46.2079C47.4133 270.271 48.4159 270.527 49.2159 271.039C50.0266 271.54 50.6346 272.223 51.0399 273.087C51.4453 273.94 51.6479 274.89 51.6479 275.935C51.6479 277.087 51.4239 278.09 50.9759 278.943C50.5386 279.796 49.9093 280.458 49.0879 280.927C48.2773 281.396 47.3173 281.631 46.2079 281.631H42.3519ZM50.5279 275.935C50.5279 275.028 50.3573 274.223 50.0159 273.519C49.6853 272.815 49.1999 272.266 48.5599 271.871C47.9199 271.466 47.1359 271.263 46.2079 271.263H43.4719V280.639H46.2079C47.1466 280.639 47.9359 280.431 48.5759 280.015C49.2159 279.599 49.7013 279.039 50.0319 278.335C50.3626 277.62 50.5279 276.82 50.5279 275.935ZM59.9494 281.711C59.1921 281.711 58.4881 281.551 57.8374 281.231C57.1868 280.9 56.6214 280.458 56.1414 279.903C55.6614 279.348 55.2881 278.73 55.0214 278.047C54.7654 277.364 54.6374 276.66 54.6374 275.935C54.6374 275.167 54.7654 274.442 55.0214 273.759C55.2881 273.066 55.6561 272.452 56.1254 271.919C56.5948 271.386 57.1494 270.964 57.7894 270.655C58.4294 270.346 59.1281 270.191 59.8854 270.191C61.0054 270.191 61.9174 270.42 62.6214 270.879C63.3254 271.338 63.8588 271.935 64.2214 272.671L63.3574 273.247C62.9948 272.543 62.5094 272.026 61.9014 271.695C61.2934 271.364 60.6161 271.199 59.8694 271.199C59.2401 271.199 58.6694 271.332 58.1574 271.599C57.6561 271.866 57.2241 272.223 56.8614 272.671C56.4988 273.119 56.2214 273.626 56.0294 274.191C55.8481 274.756 55.7574 275.343 55.7574 275.951C55.7574 276.591 55.8641 277.199 56.0774 277.775C56.2908 278.34 56.5948 278.847 56.9894 279.295C57.3841 279.732 57.8374 280.079 58.3494 280.335C58.8721 280.58 59.4321 280.703 60.0294 280.703C60.7228 280.703 61.3788 280.532 61.9974 280.191C62.6161 279.839 63.2081 279.3 63.7734 278.575V279.759C62.6961 281.06 61.4214 281.711 59.9494 281.711ZM63.5974 276.911H61.0694V276.047H64.5414V281.631H63.5974V276.911ZM68.4426 281.631V270.271H69.5626V281.631H68.4426ZM75.1313 272.335V281.631H74.0113V270.271H74.9393L82.3953 279.743V270.287H83.5153V281.631H82.4753L75.1313 272.335ZM92.5307 281.711C91.7733 281.711 91.0693 281.551 90.4187 281.231C89.768 280.9 89.2027 280.458 88.7227 279.903C88.2427 279.348 87.8693 278.73 87.6027 278.047C87.3467 277.364 87.2187 276.66 87.2187 275.935C87.2187 275.167 87.3467 274.442 87.6027 273.759C87.8693 273.066 88.2373 272.452 88.7067 271.919C89.176 271.386 89.7307 270.964 90.3707 270.655C91.0107 270.346 91.7093 270.191 92.4667 270.191C93.5867 270.191 94.4987 270.42 95.2027 270.879C95.9067 271.338 96.44 271.935 96.8027 272.671L95.9387 273.247C95.576 272.543 95.0907 272.026 94.4827 271.695C93.8747 271.364 93.1973 271.199 92.4507 271.199C91.8213 271.199 91.2507 271.332 90.7387 271.599C90.2373 271.866 89.8053 272.223 89.4427 272.671C89.08 273.119 88.8027 273.626 88.6107 274.191C88.4293 274.756 88.3387 275.343 88.3387 275.951C88.3387 276.591 88.4453 277.199 88.6587 277.775C88.872 278.34 89.176 278.847 89.5707 279.295C89.9653 279.732 90.4187 280.079 90.9307 280.335C91.4533 280.58 92.0133 280.703 92.6107 280.703C93.304 280.703 93.96 280.532 94.5787 280.191C95.1973 279.839 95.7893 279.3 96.3547 278.575V279.759C95.2773 281.06 94.0027 281.711 92.5307 281.711ZM96.1787 276.911H93.6507V276.047H97.1227V281.631H96.1787V276.911ZM106.702 281.631V270.271H114.158V271.263H107.822V275.439H113.166V276.367H107.822V281.631H106.702ZM122.348 281.711C121.452 281.711 120.694 281.551 120.076 281.231C119.457 280.911 118.966 280.484 118.604 279.951C118.241 279.407 117.974 278.794 117.804 278.111C117.644 277.428 117.564 276.724 117.564 275.999V270.271H118.668V275.999C118.668 276.586 118.726 277.162 118.844 277.727C118.972 278.292 119.174 278.799 119.452 279.247C119.729 279.695 120.102 280.052 120.572 280.319C121.041 280.575 121.628 280.703 122.332 280.703C123.057 280.703 123.654 280.57 124.124 280.303C124.604 280.026 124.977 279.663 125.244 279.215C125.521 278.767 125.718 278.266 125.836 277.711C125.953 277.146 126.012 276.575 126.012 275.999V270.271H127.132V275.999C127.132 276.756 127.046 277.482 126.876 278.175C126.705 278.868 126.428 279.476 126.044 279.999C125.67 280.522 125.18 280.938 124.572 281.247C123.964 281.556 123.222 281.711 122.348 281.711ZM139.466 271.263H135.418V281.631H134.298V271.263H130.25V270.271H139.466V271.263ZM147.392 281.711C146.496 281.711 145.738 281.551 145.12 281.231C144.501 280.911 144.01 280.484 143.648 279.951C143.285 279.407 143.018 278.794 142.848 278.111C142.688 277.428 142.608 276.724 142.608 275.999V270.271H143.712V275.999C143.712 276.586 143.77 277.162 143.888 277.727C144.016 278.292 144.218 278.799 144.496 279.247C144.773 279.695 145.146 280.052 145.616 280.319C146.085 280.575 146.672 280.703 147.376 280.703C148.101 280.703 148.698 280.57 149.168 280.303C149.648 280.026 150.021 279.663 150.288 279.215C150.565 278.767 150.762 278.266 150.88 277.711C150.997 277.146 151.056 276.575 151.056 275.999V270.271H152.176V275.999C152.176 276.756 152.09 277.482 151.92 278.175C151.749 278.868 151.472 279.476 151.088 279.999C150.714 280.522 150.224 280.938 149.616 281.247C149.008 281.556 148.266 281.711 147.392 281.711ZM156.446 281.631V270.271H161.246C161.736 270.271 162.184 270.372 162.59 270.575C162.995 270.778 163.347 271.055 163.646 271.407C163.955 271.748 164.19 272.132 164.35 272.559C164.52 272.975 164.606 273.402 164.606 273.839C164.606 274.383 164.499 274.895 164.286 275.375C164.083 275.855 163.79 276.26 163.406 276.591C163.032 276.922 162.59 277.14 162.078 277.247L164.862 281.631H163.598L160.926 277.439H157.566V281.631H156.446ZM157.566 276.447H161.278C161.726 276.447 162.115 276.324 162.446 276.079C162.776 275.834 163.032 275.514 163.214 275.119C163.395 274.714 163.486 274.287 163.486 273.839C163.486 273.38 163.379 272.959 163.166 272.575C162.963 272.18 162.686 271.866 162.334 271.631C161.992 271.386 161.608 271.263 161.182 271.263H157.566V276.447ZM176.131 280.639V281.631H168.499V270.271H175.987V271.263H169.619V275.359H175.171V276.303H169.619V280.639H176.131ZM186.426 272.399C186.266 272.218 186.08 272.058 185.866 271.919C185.653 271.77 185.413 271.642 185.146 271.535C184.88 271.428 184.592 271.343 184.282 271.279C183.984 271.215 183.664 271.183 183.322 271.183C182.33 271.183 181.6 271.375 181.13 271.759C180.672 272.132 180.442 272.644 180.442 273.295C180.442 273.743 180.549 274.095 180.762 274.351C180.986 274.607 181.333 274.815 181.802 274.975C182.272 275.135 182.869 275.3 183.594 275.471C184.405 275.642 185.104 275.844 185.69 276.079C186.277 276.314 186.73 276.634 187.05 277.039C187.37 277.434 187.53 277.972 187.53 278.655C187.53 279.178 187.429 279.631 187.226 280.015C187.024 280.399 186.741 280.719 186.378 280.975C186.016 281.231 185.584 281.423 185.082 281.551C184.581 281.668 184.032 281.727 183.434 281.727C182.848 281.727 182.282 281.668 181.738 281.551C181.205 281.423 180.698 281.242 180.218 281.007C179.738 280.762 179.29 280.452 178.874 280.079L179.434 279.167C179.637 279.38 179.877 279.583 180.154 279.775C180.442 279.956 180.757 280.122 181.098 280.271C181.45 280.42 181.824 280.538 182.218 280.623C182.624 280.698 183.04 280.735 183.466 280.735C184.373 280.735 185.077 280.57 185.578 280.239C186.09 279.908 186.346 279.418 186.346 278.767C186.346 278.298 186.218 277.924 185.962 277.647C185.706 277.359 185.322 277.124 184.81 276.943C184.298 276.762 183.669 276.586 182.922 276.415C182.133 276.234 181.466 276.031 180.922 275.807C180.378 275.583 179.968 275.29 179.69 274.927C179.424 274.554 179.29 274.063 179.29 273.455C179.29 272.751 179.461 272.159 179.802 271.679C180.154 271.188 180.634 270.82 181.242 270.575C181.85 270.319 182.549 270.191 183.338 270.191C183.84 270.191 184.304 270.244 184.73 270.351C185.168 270.447 185.568 270.591 185.93 270.783C186.304 270.975 186.65 271.215 186.97 271.503L186.426 272.399ZM191.057 282.927L191.329 281.583H190.961V280.063H192.017V281.583L191.617 282.927H191.057ZM210.521 278.703C210.521 279.268 210.377 279.775 210.089 280.223C209.801 280.66 209.412 281.007 208.921 281.263C208.441 281.508 207.913 281.631 207.337 281.631H201.977V270.271H207.449C207.982 270.271 208.441 270.415 208.825 270.703C209.22 270.98 209.518 271.343 209.721 271.791C209.934 272.228 210.041 272.687 210.041 273.167C210.041 273.732 209.897 274.255 209.609 274.735C209.321 275.215 208.921 275.572 208.409 275.807C209.06 275.999 209.572 276.356 209.945 276.879C210.329 277.402 210.521 278.01 210.521 278.703ZM209.401 278.511C209.401 278.127 209.316 277.775 209.145 277.455C208.974 277.124 208.74 276.858 208.441 276.655C208.153 276.452 207.822 276.351 207.449 276.351H203.097V280.655H207.337C207.721 280.655 208.068 280.554 208.377 280.351C208.686 280.148 208.932 279.887 209.113 279.567C209.305 279.236 209.401 278.884 209.401 278.511ZM203.097 271.247V275.439H207.001C207.374 275.439 207.705 275.343 207.993 275.151C208.281 274.948 208.51 274.687 208.681 274.367C208.852 274.047 208.937 273.706 208.937 273.343C208.937 272.959 208.857 272.612 208.697 272.303C208.537 271.983 208.318 271.727 208.041 271.535C207.764 271.343 207.449 271.247 207.097 271.247H203.097ZM218.857 281.711C217.961 281.711 217.204 281.551 216.585 281.231C215.967 280.911 215.476 280.484 215.113 279.951C214.751 279.407 214.484 278.794 214.313 278.111C214.153 277.428 214.073 276.724 214.073 275.999V270.271H215.177V275.999C215.177 276.586 215.236 277.162 215.353 277.727C215.481 278.292 215.684 278.799 215.961 279.247C216.239 279.695 216.612 280.052 217.081 280.319C217.551 280.575 218.137 280.703 218.841 280.703C219.567 280.703 220.164 280.57 220.633 280.303C221.113 280.026 221.487 279.663 221.753 279.215C222.031 278.767 222.228 278.266 222.345 277.711C222.463 277.146 222.521 276.575 222.521 275.999V270.271H223.641V275.999C223.641 276.756 223.556 277.482 223.385 278.175C223.215 278.868 222.937 279.476 222.553 279.999C222.18 280.522 221.689 280.938 221.081 281.247C220.473 281.556 219.732 281.711 218.857 281.711ZM227.911 281.631V270.271H229.031V281.631H227.911ZM233.48 281.631V270.271H234.6V280.639H241.16V281.631H233.48ZM244.408 281.631V270.271H248.264C249.47 270.271 250.472 270.527 251.272 271.039C252.083 271.54 252.691 272.223 253.096 273.087C253.502 273.94 253.704 274.89 253.704 275.935C253.704 277.087 253.48 278.09 253.032 278.943C252.595 279.796 251.966 280.458 251.144 280.927C250.334 281.396 249.374 281.631 248.264 281.631H244.408ZM252.584 275.935C252.584 275.028 252.414 274.223 252.072 273.519C251.742 272.815 251.256 272.266 250.616 271.871C249.976 271.466 249.192 271.263 248.264 271.263H245.528V280.639H248.264C249.203 280.639 249.992 280.431 250.632 280.015C251.272 279.599 251.758 279.039 252.088 278.335C252.419 277.62 252.584 276.82 252.584 275.935ZM257.446 281.631V270.271H258.566V281.631H257.446ZM264.134 272.335V281.631H263.014V270.271H263.942L271.398 279.743V270.287H272.518V281.631H271.478L264.134 272.335ZM281.534 281.711C280.776 281.711 280.072 281.551 279.422 281.231C278.771 280.9 278.206 280.458 277.726 279.903C277.246 279.348 276.872 278.73 276.606 278.047C276.35 277.364 276.222 276.66 276.222 275.935C276.222 275.167 276.35 274.442 276.606 273.759C276.872 273.066 277.24 272.452 277.71 271.919C278.179 271.386 278.734 270.964 279.374 270.655C280.014 270.346 280.712 270.191 281.47 270.191C282.59 270.191 283.502 270.42 284.206 270.879C284.91 271.338 285.443 271.935 285.806 272.671L284.942 273.247C284.579 272.543 284.094 272.026 283.486 271.695C282.878 271.364 282.2 271.199 281.454 271.199C280.824 271.199 280.254 271.332 279.742 271.599C279.24 271.866 278.808 272.223 278.446 272.671C278.083 273.119 277.806 273.626 277.614 274.191C277.432 274.756 277.342 275.343 277.342 275.951C277.342 276.591 277.448 277.199 277.662 277.775C277.875 278.34 278.179 278.847 278.574 279.295C278.968 279.732 279.422 280.079 279.934 280.335C280.456 280.58 281.016 280.703 281.614 280.703C282.307 280.703 282.963 280.532 283.582 280.191C284.2 279.839 284.792 279.3 285.358 278.575V279.759C284.28 281.06 283.006 281.711 281.534 281.711ZM285.182 276.911H282.654V276.047H286.126V281.631H285.182V276.911ZM295.705 281.631V270.271H299.561C300.766 270.271 301.769 270.527 302.569 271.039C303.38 271.54 303.988 272.223 304.393 273.087C304.798 273.94 305.001 274.89 305.001 275.935C305.001 277.087 304.777 278.09 304.329 278.943C303.892 279.796 303.262 280.458 302.441 280.927C301.63 281.396 300.67 281.631 299.561 281.631H295.705ZM303.881 275.935C303.881 275.028 303.71 274.223 303.369 273.519C303.038 272.815 302.553 272.266 301.913 271.871C301.273 271.466 300.489 271.263 299.561 271.263H296.825V280.639H299.561C300.5 280.639 301.289 280.431 301.929 280.015C302.569 279.599 303.054 279.039 303.385 278.335C303.716 277.62 303.881 276.82 303.881 275.935ZM308.743 281.631V270.271H313.543C314.033 270.271 314.481 270.372 314.887 270.575C315.292 270.778 315.644 271.055 315.943 271.407C316.252 271.748 316.487 272.132 316.647 272.559C316.817 272.975 316.903 273.402 316.903 273.839C316.903 274.383 316.796 274.895 316.583 275.375C316.38 275.855 316.087 276.26 315.703 276.591C315.329 276.922 314.887 277.14 314.375 277.247L317.159 281.631H315.895L313.223 277.439H309.863V281.631H308.743ZM309.863 276.447H313.575C314.023 276.447 314.412 276.324 314.743 276.079C315.073 275.834 315.329 275.514 315.511 275.119C315.692 274.714 315.783 274.287 315.783 273.839C315.783 273.38 315.676 272.959 315.463 272.575C315.26 272.18 314.983 271.866 314.631 271.631C314.289 271.386 313.905 271.263 313.479 271.263H309.863V276.447ZM328.428 280.639V281.631H320.796V270.271H328.284V271.263H321.916V275.359H327.468V276.303H321.916V280.639H328.428ZM335.666 270.271H336.61L341.33 281.631H340.146L338.674 278.079H333.57L332.114 281.631H330.914L335.666 270.271ZM338.418 277.199L336.13 271.583L333.81 277.199H338.418ZM354.622 281.631V272.383L350.51 279.567H349.806L345.678 272.383V281.631H344.558V270.271H345.71L350.142 278.047L354.606 270.271H355.742V281.631H354.622ZM366.829 272.399C366.669 272.218 366.483 272.058 366.269 271.919C366.056 271.77 365.816 271.642 365.549 271.535C365.283 271.428 364.995 271.343 364.685 271.279C364.387 271.215 364.067 271.183 363.725 271.183C362.733 271.183 362.003 271.375 361.533 271.759C361.075 272.132 360.845 272.644 360.845 273.295C360.845 273.743 360.952 274.095 361.165 274.351C361.389 274.607 361.736 274.815 362.205 274.975C362.675 275.135 363.272 275.3 363.997 275.471C364.808 275.642 365.507 275.844 366.093 276.079C366.68 276.314 367.133 276.634 367.453 277.039C367.773 277.434 367.933 277.972 367.933 278.655C367.933 279.178 367.832 279.631 367.629 280.015C367.427 280.399 367.144 280.719 366.781 280.975C366.419 281.231 365.987 281.423 365.485 281.551C364.984 281.668 364.435 281.727 363.837 281.727C363.251 281.727 362.685 281.668 362.141 281.551C361.608 281.423 361.101 281.242 360.621 281.007C360.141 280.762 359.693 280.452 359.277 280.079L359.837 279.167C360.04 279.38 360.28 279.583 360.557 279.775C360.845 279.956 361.16 280.122 361.501 280.271C361.853 280.42 362.227 280.538 362.621 280.623C363.027 280.698 363.443 280.735 363.869 280.735C364.776 280.735 365.48 280.57 365.981 280.239C366.493 279.908 366.749 279.418 366.749 278.767C366.749 278.298 366.621 277.924 366.365 277.647C366.109 277.359 365.725 277.124 365.213 276.943C364.701 276.762 364.072 276.586 363.325 276.415C362.536 276.234 361.869 276.031 361.325 275.807C360.781 275.583 360.371 275.29 360.093 274.927C359.827 274.554 359.693 274.063 359.693 273.455C359.693 272.751 359.864 272.159 360.205 271.679C360.557 271.188 361.037 270.82 361.645 270.575C362.253 270.319 362.952 270.191 363.741 270.191C364.243 270.191 364.707 270.244 365.133 270.351C365.571 270.447 365.971 270.591 366.333 270.783C366.707 270.975 367.053 271.215 367.373 271.503L366.829 272.399Z" fill="black"/>
<path d="M26.4081 248.695V256.495H3V223.918H25.9917V231.718H12.0209V236.306H23.9562V243.556H12.0209V248.695H26.4081Z" fill="url(#paint44_linear_1_1574)"/>
<path d="M28.2997 244.382C28.2997 241.996 28.7469 239.87 29.6413 238.004C30.5665 236.108 31.831 234.624 33.4347 233.553C35.0384 232.452 36.8734 231.901 38.9397 231.901C40.5126 231.901 41.9621 232.269 43.2883 233.003C44.6144 233.706 45.6167 234.685 46.2952 235.939V223H55.0848V246.86C55.0848 247.686 55.2082 248.267 55.4549 248.603C55.7016 248.909 56.1334 249.093 56.7502 249.154V256.495C55.239 256.801 54.0054 256.954 53.0493 256.954C51.569 256.954 50.397 256.679 49.5335 256.128C48.6699 255.578 48.1148 254.736 47.8681 253.605L47.683 252.733C46.8503 254.201 45.7247 255.272 44.306 255.945C42.8873 256.618 41.3761 256.954 39.7724 256.954C38.107 256.954 36.565 256.648 35.1463 256.036C33.7585 255.425 32.5403 254.568 31.4917 253.467C30.474 252.335 29.6875 251.004 29.1324 249.475C28.5773 247.915 28.2997 246.217 28.2997 244.382ZM46.3415 247.135V242.822C46.0639 242.118 45.6784 241.507 45.185 240.987C44.7223 240.436 44.1981 240.008 43.6121 239.702C43.0261 239.396 42.4247 239.243 41.8079 239.243C41.1602 239.243 40.5589 239.381 40.0037 239.656C39.4794 239.931 39.0168 240.314 38.6159 240.803C38.215 241.292 37.9066 241.858 37.6907 242.501C37.4748 243.143 37.3668 243.831 37.3668 244.565C37.3668 245.33 37.4748 246.018 37.6907 246.63C37.9374 247.242 38.2766 247.777 38.7084 248.236C39.1402 248.664 39.6491 249.001 40.235 249.246C40.821 249.49 41.4687 249.613 42.178 249.613C42.6098 249.613 43.0107 249.567 43.3808 249.475C43.7509 249.353 44.1055 249.2 44.4448 249.016C44.784 248.802 45.1079 248.542 45.4163 248.236C45.7555 247.9 46.0639 247.533 46.3415 247.135Z" fill="url(#paint45_linear_1_1574)"/>
<path d="M60.1291 248.236V232.36H68.9186V246.263C68.9186 247.303 69.1499 248.129 69.6126 248.741C70.106 249.322 70.7691 249.613 71.6018 249.613C72.0644 249.613 72.527 249.552 72.9896 249.429C73.4522 249.307 73.9148 249.062 74.3774 248.695C74.8709 248.328 75.3489 247.808 75.8115 247.135V232.36H84.6011V246.86C84.6011 247.686 84.7245 248.267 84.9712 248.603C85.2179 248.909 85.6497 249.093 86.2665 249.154V256.495C85.4955 256.648 84.8016 256.755 84.1848 256.816C83.568 256.908 83.0282 256.954 82.5656 256.954C81.0853 256.954 79.9133 256.679 79.0498 256.128C78.1863 255.578 77.6311 254.736 77.3844 253.605L77.1994 252.733C76.0583 254.232 74.6858 255.318 73.0821 255.991C71.5093 256.633 69.7205 256.954 67.7159 256.954C65.2794 256.954 63.3982 256.205 62.072 254.706C60.7767 253.207 60.1291 251.05 60.1291 248.236Z" fill="url(#paint46_linear_1_1574)"/>
<path d="M119.514 223.918V256.495H110.493V243.74H99.4831V256.495H90.4622V223.918H99.4831V235.939H110.493V223.918H119.514Z" fill="url(#paint47_linear_1_1574)"/>
<path d="M124.325 248.236V232.36H133.115V246.263C133.115 247.303 133.346 248.129 133.809 248.741C134.302 249.322 134.965 249.613 135.798 249.613C136.261 249.613 136.723 249.552 137.186 249.429C137.648 249.307 138.111 249.062 138.574 248.695C139.067 248.328 139.545 247.808 140.008 247.135V232.36H148.797V246.86C148.797 247.686 148.921 248.267 149.167 248.603C149.414 248.909 149.846 249.093 150.463 249.154V256.495C149.692 256.648 148.998 256.755 148.381 256.816C147.764 256.908 147.224 256.954 146.762 256.954C145.281 256.954 144.109 256.679 143.246 256.128C142.382 255.578 141.827 254.736 141.581 253.605L141.396 252.733C140.254 254.232 138.882 255.318 137.278 255.991C135.705 256.633 133.917 256.954 131.912 256.954C129.476 256.954 127.594 256.205 126.268 254.706C124.973 253.207 124.325 251.05 124.325 248.236Z" fill="url(#paint48_linear_1_1574)"/>
<path d="M169.554 256.954C167.735 256.954 166.162 256.602 164.836 255.899C163.51 255.165 162.461 254.109 161.69 252.733V256.495H154.057V223H162.846V235.939C163.556 234.624 164.558 233.63 165.853 232.957C167.149 232.253 168.675 231.901 170.433 231.901C171.914 231.901 173.286 232.223 174.551 232.865C175.815 233.477 176.91 234.349 177.835 235.48C178.791 236.612 179.531 237.958 180.056 239.518C180.58 241.048 180.842 242.715 180.842 244.52C180.842 246.294 180.549 247.946 179.963 249.475C179.408 250.974 178.621 252.289 177.604 253.421C176.617 254.553 175.429 255.425 174.042 256.036C172.685 256.648 171.189 256.954 169.554 256.954ZM167.01 249.613C167.719 249.613 168.367 249.49 168.953 249.246C169.539 249.001 170.048 248.664 170.48 248.236C170.911 247.777 171.235 247.242 171.451 246.63C171.698 246.018 171.821 245.33 171.821 244.565C171.821 243.587 171.621 242.7 171.22 241.904C170.85 241.078 170.325 240.436 169.647 239.977C168.999 239.488 168.244 239.243 167.38 239.243C166.763 239.243 166.162 239.396 165.576 239.702C164.99 240.008 164.45 240.436 163.957 240.987C163.494 241.507 163.124 242.118 162.846 242.822V247.135C163.124 247.533 163.417 247.9 163.725 248.236C164.065 248.542 164.404 248.802 164.743 249.016C165.082 249.2 165.437 249.353 165.807 249.475C166.208 249.567 166.609 249.613 167.01 249.613Z" fill="url(#paint49_linear_1_1574)"/>
<path d="M193.197 239.931C193.197 237.943 193.567 236 194.307 234.104C195.078 232.177 196.188 230.433 197.638 228.873C199.088 227.313 200.845 226.074 202.912 225.157C205.009 224.208 207.368 223.734 209.99 223.734C213.135 223.734 215.88 224.392 218.224 225.707C220.568 226.992 222.311 228.705 223.452 230.846L216.559 235.71C216.158 234.639 215.572 233.813 214.801 233.232C214.061 232.651 213.243 232.253 212.349 232.039C211.485 231.794 210.637 231.672 209.805 231.672C208.509 231.672 207.384 231.932 206.428 232.452C205.502 232.942 204.731 233.599 204.115 234.425C203.529 235.251 203.081 236.169 202.773 237.178C202.495 238.188 202.357 239.197 202.357 240.206C202.357 241.338 202.526 242.424 202.866 243.464C203.205 244.504 203.698 245.437 204.346 246.263C204.994 247.058 205.78 247.686 206.705 248.144C207.661 248.603 208.725 248.833 209.897 248.833C210.73 248.833 211.578 248.71 212.442 248.466C213.305 248.19 214.092 247.762 214.801 247.181C215.51 246.6 216.05 245.82 216.42 244.841L223.775 249.2C223.128 250.79 222.048 252.152 220.537 253.283C219.026 254.415 217.314 255.287 215.402 255.899C213.49 256.48 211.593 256.771 209.712 256.771C207.276 256.771 205.04 256.296 203.004 255.348C201 254.369 199.257 253.085 197.777 251.494C196.327 249.873 195.202 248.068 194.4 246.08C193.598 244.061 193.197 242.011 193.197 239.931Z" fill="url(#paint50_linear_1_1574)"/>
<path d="M238.141 256.954C235.982 256.954 234.07 256.618 232.404 255.945C230.739 255.272 229.336 254.354 228.194 253.192C227.084 251.999 226.236 250.653 225.65 249.154C225.095 247.655 224.817 246.08 224.817 244.428C224.817 242.776 225.095 241.201 225.65 239.702C226.236 238.172 227.084 236.826 228.194 235.664C229.336 234.502 230.739 233.584 232.404 232.911C234.07 232.238 235.982 231.901 238.141 231.901C240.33 231.901 242.242 232.238 243.877 232.911C245.542 233.584 246.93 234.502 248.04 235.664C249.182 236.826 250.03 238.172 250.585 239.702C251.171 241.201 251.464 242.776 251.464 244.428C251.464 246.08 251.171 247.655 250.585 249.154C250.03 250.653 249.182 251.999 248.04 253.192C246.93 254.354 245.542 255.272 243.877 255.945C242.242 256.618 240.33 256.954 238.141 256.954ZM233.838 244.428C233.838 245.498 234.023 246.431 234.393 247.227C234.764 247.991 235.272 248.588 235.92 249.016C236.568 249.414 237.308 249.613 238.141 249.613C238.973 249.613 239.713 249.414 240.361 249.016C241.009 248.588 241.518 247.991 241.888 247.227C242.258 246.431 242.443 245.498 242.443 244.428C242.443 243.357 242.258 242.439 241.888 241.675C241.518 240.879 241.009 240.283 240.361 239.885C239.713 239.457 238.973 239.243 238.141 239.243C237.308 239.243 236.568 239.457 235.92 239.885C235.272 240.283 234.764 240.879 234.393 241.675C234.023 242.439 233.838 243.357 233.838 244.428Z" fill="url(#paint51_linear_1_1574)"/>
<path d="M279.047 256.495H270.258V242.914C270.258 241.721 269.98 240.864 269.425 240.344C268.901 239.794 268.284 239.518 267.575 239.518C267.081 239.518 266.557 239.671 266.002 239.977C265.446 240.252 264.938 240.65 264.475 241.17C264.012 241.69 263.642 242.287 263.365 242.96V256.495H254.575V232.36H262.486V235.939C263.072 235.052 263.812 234.318 264.706 233.737C265.601 233.125 266.634 232.666 267.806 232.36C268.978 232.054 270.258 231.901 271.645 231.901C273.311 231.901 274.637 232.192 275.624 232.773C276.611 233.354 277.351 234.104 277.844 235.022C278.338 235.939 278.662 236.903 278.816 237.912C278.97 238.891 279.047 239.794 279.047 240.619V256.495Z" fill="url(#paint52_linear_1_1574)"/>
<path d="M307.78 256.495H298.99V242.914C298.99 241.721 298.712 240.864 298.157 240.344C297.633 239.794 297.016 239.518 296.307 239.518C295.813 239.518 295.289 239.671 294.734 239.977C294.179 240.252 293.67 240.65 293.207 241.17C292.745 241.69 292.375 242.287 292.097 242.96V256.495H283.308V232.36H291.218V235.939C291.804 235.052 292.544 234.318 293.439 233.737C294.333 233.125 295.366 232.666 296.538 232.36C297.71 232.054 298.99 231.901 300.378 231.901C302.043 231.901 303.369 232.192 304.356 232.773C305.343 233.354 306.083 234.104 306.577 235.022C307.07 235.939 307.394 236.903 307.548 237.912C307.703 238.891 307.78 239.794 307.78 240.619V256.495Z" fill="url(#paint53_linear_1_1574)"/>
<path d="M324.022 256.954C321.894 256.954 319.997 256.633 318.331 255.991C316.666 255.318 315.263 254.415 314.122 253.283C313.011 252.152 312.163 250.852 311.577 249.383C310.991 247.915 310.698 246.37 310.698 244.749C310.698 242.424 311.207 240.298 312.225 238.371C313.243 236.413 314.739 234.853 316.712 233.691C318.686 232.498 321.123 231.901 324.022 231.901C326.921 231.901 329.357 232.483 331.331 233.645C333.305 234.807 334.8 236.337 335.818 238.233C336.836 240.13 337.345 242.195 337.345 244.428C337.345 244.887 337.314 245.361 337.252 245.85C337.221 246.309 337.175 246.722 337.113 247.089H320.043C320.105 247.946 320.336 248.649 320.737 249.2C321.169 249.72 321.693 250.102 322.31 250.347C322.958 250.592 323.621 250.714 324.299 250.714C325.255 250.714 326.15 250.5 326.982 250.072C327.846 249.643 328.416 249.047 328.694 248.282L336.142 250.393C335.494 251.677 334.584 252.809 333.413 253.788C332.271 254.767 330.914 255.547 329.342 256.128C327.769 256.679 325.995 256.954 324.022 256.954ZM319.858 241.858H327.907C327.815 241.063 327.584 240.39 327.214 239.839C326.874 239.289 326.412 238.861 325.826 238.555C325.271 238.249 324.623 238.096 323.883 238.096C323.143 238.096 322.48 238.249 321.894 238.555C321.338 238.861 320.876 239.289 320.506 239.839C320.166 240.39 319.951 241.063 319.858 241.858Z" fill="url(#paint54_linear_1_1574)"/>
<path d="M352.258 256.954C350.099 256.954 348.187 256.618 346.522 255.945C344.887 255.272 343.499 254.354 342.358 253.192C341.217 251.999 340.354 250.653 339.768 249.154C339.182 247.655 338.889 246.08 338.889 244.428C338.889 242.225 339.398 240.176 340.415 238.279C341.464 236.352 342.975 234.807 344.949 233.645C346.954 232.483 349.39 231.901 352.258 231.901C355.188 231.901 357.655 232.513 359.66 233.737C361.665 234.96 363.16 236.536 364.147 238.463L355.589 241.032C355.188 240.451 354.695 240.008 354.109 239.702C353.553 239.396 352.921 239.243 352.212 239.243C351.41 239.243 350.685 239.457 350.038 239.885C349.39 240.283 348.866 240.864 348.465 241.629C348.095 242.394 347.91 243.327 347.91 244.428C347.91 245.498 348.095 246.431 348.465 247.227C348.866 247.991 349.39 248.588 350.038 249.016C350.685 249.414 351.41 249.613 352.212 249.613C352.705 249.613 353.152 249.552 353.553 249.429C353.954 249.276 354.324 249.062 354.664 248.787C355.034 248.511 355.342 248.19 355.589 247.823L364.147 250.393C363.5 251.677 362.605 252.809 361.464 253.788C360.354 254.767 359.028 255.547 357.486 256.128C355.974 256.679 354.232 256.954 352.258 256.954Z" fill="url(#paint55_linear_1_1574)"/>
<path d="M384 255.165C383.198 255.501 382.335 255.822 381.409 256.128C380.515 256.404 379.59 256.618 378.634 256.771C377.709 256.924 376.799 257 375.904 257C374.578 257 373.36 256.786 372.25 256.358C371.139 255.899 370.245 255.165 369.567 254.155C368.919 253.115 368.595 251.723 368.595 249.98V238.922H365.588V232.36H368.595V224.789H377.385V232.36H382.15V238.922H377.385V246.906C377.385 247.701 377.554 248.267 377.894 248.603C378.233 248.909 378.695 249.062 379.281 249.062C379.713 249.062 380.207 248.986 380.762 248.833C381.317 248.68 381.872 248.496 382.427 248.282L384 255.165Z" fill="url(#paint56_linear_1_1574)"/>
<defs>
<linearGradient id="paint0_linear_1_1574" x1="146.862" y1="2.87127" x2="255.248" y2="190.603" gradientUnits="userSpaceOnUse">
<stop stop-color="#DA006A"/>
<stop offset="1" stop-color="#733BE4"/>
</linearGradient>
<linearGradient id="paint1_linear_1_1574" x1="153.855" y1="19.8962" x2="246.459" y2="180.291" gradientUnits="userSpaceOnUse">
<stop stop-color="#EEBD2F"/>
<stop offset="1" stop-color="#DA5618"/>
</linearGradient>
<linearGradient id="paint2_linear_1_1574" x1="290.772" y1="43.995" x2="359.14" y2="180.731" gradientUnits="userSpaceOnUse">
<stop stop-color="#EEBD2F"/>
<stop offset="1" stop-color="#DA5618"/>
</linearGradient>
<linearGradient id="paint3_linear_1_1574" x1="42.4908" y1="43.995" x2="110.859" y2="180.731" gradientUnits="userSpaceOnUse">
<stop stop-color="#EEBD2F"/>
<stop offset="1" stop-color="#DA5618"/>
</linearGradient>
<linearGradient id="paint4_linear_1_1574" x1="257.326" y1="147.168" x2="203.805" y2="127.887" gradientUnits="userSpaceOnUse">
<stop stop-color="#5899FF"/>
<stop offset="1" stop-color="#4F39EE"/>
</linearGradient>
<linearGradient id="paint5_linear_1_1574" x1="264.297" y1="142.407" x2="245.037" y2="139.383" gradientUnits="userSpaceOnUse">
<stop stop-color="#5899FF"/>
<stop offset="1" stop-color="#4F39EE"/>
</linearGradient>
<linearGradient id="paint6_linear_1_1574" x1="259.616" y1="136.124" x2="241.846" y2="133.491" gradientUnits="userSpaceOnUse">
<stop stop-color="#F1CC60"/>
<stop offset="0.30985" stop-color="#F5E2AA"/>
<stop offset="1" stop-color="#E59F2F"/>
</linearGradient>
<linearGradient id="paint7_linear_1_1574" x1="264.447" y1="147.38" x2="216.183" y2="127.197" gradientUnits="userSpaceOnUse">
<stop stop-color="#F1CC60"/>
<stop offset="0.30985" stop-color="#F5E2AA"/>
<stop offset="1" stop-color="#E59F2F"/>
</linearGradient>
<linearGradient id="paint8_linear_1_1574" x1="196.351" y1="126.114" x2="244.871" y2="126.114" gradientUnits="userSpaceOnUse">
<stop stop-color="#F1CC60"/>
<stop offset="0.30985" stop-color="#F5E2AA"/>
<stop offset="1" stop-color="#E59F2F"/>
</linearGradient>
<linearGradient id="paint9_linear_1_1574" x1="196.351" y1="126.114" x2="244.871" y2="126.114" gradientUnits="userSpaceOnUse">
<stop stop-color="#EABC4E"/>
<stop offset="0.30985" stop-color="#EED08A"/>
<stop offset="1" stop-color="#DF9326"/>
</linearGradient>
<linearGradient id="paint10_linear_1_1574" x1="196.351" y1="126.114" x2="244.871" y2="126.114" gradientUnits="userSpaceOnUse">
<stop stop-color="#EABC4E"/>
<stop offset="0.30985" stop-color="#EED08A"/>
<stop offset="1" stop-color="#DF9326"/>
</linearGradient>
<linearGradient id="paint11_linear_1_1574" x1="196.351" y1="126.114" x2="244.871" y2="126.114" gradientUnits="userSpaceOnUse">
<stop stop-color="#EABC4E"/>
<stop offset="0.30985" stop-color="#EED08A"/>
<stop offset="1" stop-color="#DF9326"/>
</linearGradient>
<linearGradient id="paint12_linear_1_1574" x1="196.351" y1="126.114" x2="244.871" y2="126.114" gradientUnits="userSpaceOnUse">
<stop stop-color="#EABC4E"/>
<stop offset="0.30985" stop-color="#EED08A"/>
<stop offset="1" stop-color="#DF9326"/>
</linearGradient>
<linearGradient id="paint13_linear_1_1574" x1="196.351" y1="126.114" x2="244.871" y2="126.114" gradientUnits="userSpaceOnUse">
<stop stop-color="#EABC4E"/>
<stop offset="0.30985" stop-color="#EED08A"/>
<stop offset="1" stop-color="#DF9326"/>
</linearGradient>
<linearGradient id="paint14_linear_1_1574" x1="196.351" y1="126.114" x2="244.871" y2="126.114" gradientUnits="userSpaceOnUse">
<stop stop-color="#EABC4E"/>
<stop offset="0.30985" stop-color="#EED08A"/>
<stop offset="1" stop-color="#DF9326"/>
</linearGradient>
<linearGradient id="paint15_linear_1_1574" x1="216.619" y1="118.277" x2="243.474" y2="164.792" gradientUnits="userSpaceOnUse">
<stop stop-color="#F1CC60"/>
<stop offset="0.30985" stop-color="#F5E2AA"/>
<stop offset="1" stop-color="#E59F2F"/>
</linearGradient>
<linearGradient id="paint16_linear_1_1574" x1="212.833" y1="112.797" x2="240.056" y2="159.948" gradientUnits="userSpaceOnUse">
<stop stop-color="#F1CC60"/>
<stop offset="0.30985" stop-color="#F5E2AA"/>
<stop offset="1" stop-color="#E59F2F"/>
</linearGradient>
<linearGradient id="paint17_linear_1_1574" x1="209.012" y1="107.122" x2="236.61" y2="154.923" gradientUnits="userSpaceOnUse">
<stop stop-color="#F1CC60"/>
<stop offset="0.30985" stop-color="#F5E2AA"/>
<stop offset="1" stop-color="#E59F2F"/>
</linearGradient>
<linearGradient id="paint18_linear_1_1574" x1="135.376" y1="147.168" x2="188.898" y2="127.887" gradientUnits="userSpaceOnUse">
<stop stop-color="#5899FF"/>
<stop offset="1" stop-color="#4F39EE"/>
</linearGradient>
<linearGradient id="paint19_linear_1_1574" x1="128.406" y1="142.407" x2="147.665" y2="139.383" gradientUnits="userSpaceOnUse">
<stop stop-color="#5899FF"/>
<stop offset="1" stop-color="#4F39EE"/>
</linearGradient>
<linearGradient id="paint20_linear_1_1574" x1="133.086" y1="136.124" x2="150.855" y2="133.491" gradientUnits="userSpaceOnUse">
<stop stop-color="#F1CC60"/>
<stop offset="0.30985" stop-color="#F5E2AA"/>
<stop offset="1" stop-color="#E59F2F"/>
</linearGradient>
<linearGradient id="paint21_linear_1_1574" x1="128.256" y1="147.38" x2="176.52" y2="127.197" gradientUnits="userSpaceOnUse">
<stop stop-color="#F1CC60"/>
<stop offset="0.30985" stop-color="#F5E2AA"/>
<stop offset="1" stop-color="#E59F2F"/>
</linearGradient>
<linearGradient id="paint22_linear_1_1574" x1="196.351" y1="126.114" x2="147.831" y2="126.114" gradientUnits="userSpaceOnUse">
<stop stop-color="#F1CC60"/>
<stop offset="0.30985" stop-color="#F5E2AA"/>
<stop offset="1" stop-color="#E59F2F"/>
</linearGradient>
<linearGradient id="paint23_linear_1_1574" x1="196.351" y1="126.114" x2="147.831" y2="126.114" gradientUnits="userSpaceOnUse">
<stop stop-color="#EABC4E"/>
<stop offset="0.30985" stop-color="#EED08A"/>
<stop offset="1" stop-color="#DF9326"/>
</linearGradient>
<linearGradient id="paint24_linear_1_1574" x1="196.351" y1="126.114" x2="147.831" y2="126.114" gradientUnits="userSpaceOnUse">
<stop stop-color="#EABC4E"/>
<stop offset="0.30985" stop-color="#EED08A"/>
<stop offset="1" stop-color="#DF9326"/>
</linearGradient>
<linearGradient id="paint25_linear_1_1574" x1="196.351" y1="126.114" x2="147.831" y2="126.114" gradientUnits="userSpaceOnUse">
<stop stop-color="#EABC4E"/>
<stop offset="0.30985" stop-color="#EED08A"/>
<stop offset="1" stop-color="#DF9326"/>
</linearGradient>
<linearGradient id="paint26_linear_1_1574" x1="196.351" y1="126.114" x2="147.831" y2="126.114" gradientUnits="userSpaceOnUse">
<stop stop-color="#EABC4E"/>
<stop offset="0.30985" stop-color="#EED08A"/>
<stop offset="1" stop-color="#DF9326"/>
</linearGradient>
<linearGradient id="paint27_linear_1_1574" x1="196.351" y1="126.114" x2="147.831" y2="126.114" gradientUnits="userSpaceOnUse">
<stop stop-color="#EABC4E"/>
<stop offset="0.30985" stop-color="#EED08A"/>
<stop offset="1" stop-color="#DF9326"/>
</linearGradient>
<linearGradient id="paint28_linear_1_1574" x1="196.351" y1="126.114" x2="147.831" y2="126.114" gradientUnits="userSpaceOnUse">
<stop stop-color="#EABC4E"/>
<stop offset="0.30985" stop-color="#EED08A"/>
<stop offset="1" stop-color="#DF9326"/>
</linearGradient>
<linearGradient id="paint29_linear_1_1574" x1="176.083" y1="118.277" x2="149.228" y2="164.792" gradientUnits="userSpaceOnUse">
<stop stop-color="#F1CC60"/>
<stop offset="0.30985" stop-color="#F5E2AA"/>
<stop offset="1" stop-color="#E59F2F"/>
</linearGradient>
<linearGradient id="paint30_linear_1_1574" x1="179.869" y1="112.797" x2="152.647" y2="159.948" gradientUnits="userSpaceOnUse">
<stop stop-color="#F1CC60"/>
<stop offset="0.30985" stop-color="#F5E2AA"/>
<stop offset="1" stop-color="#E59F2F"/>
</linearGradient>
<linearGradient id="paint31_linear_1_1574" x1="183.691" y1="107.122" x2="156.093" y2="154.923" gradientUnits="userSpaceOnUse">
<stop stop-color="#F1CC60"/>
<stop offset="0.30985" stop-color="#F5E2AA"/>
<stop offset="1" stop-color="#E59F2F"/>
</linearGradient>
<linearGradient id="paint32_linear_1_1574" x1="163.993" y1="14.3973" x2="225.079" y2="86.4471" gradientUnits="userSpaceOnUse">
<stop stop-color="#5899FF"/>
<stop offset="1" stop-color="#4F39EE"/>
</linearGradient>
<linearGradient id="paint33_linear_1_1574" x1="155.959" y1="90.4741" x2="211.115" y2="90.4741" gradientUnits="userSpaceOnUse">
<stop stop-color="#514FF2"/>
<stop offset="0.30457" stop-color="#5899FF"/>
<stop offset="1" stop-color="#4F39EE"/>
</linearGradient>
<linearGradient id="paint34_linear_1_1574" x1="169.688" y1="12.8122" x2="258.5" y2="136.574" gradientUnits="userSpaceOnUse">
<stop stop-color="#5899FF"/>
<stop offset="1" stop-color="#4F39EE"/>
</linearGradient>
<linearGradient id="paint35_linear_1_1574" x1="155.959" y1="90.4741" x2="211.115" y2="90.4741" gradientUnits="userSpaceOnUse">
<stop stop-color="#4648E3"/>
<stop offset="0.30457" stop-color="#4C8BEF"/>
<stop offset="1" stop-color="#4434DF"/>
</linearGradient>
<linearGradient id="paint36_linear_1_1574" x1="192.49" y1="45.4904" x2="203.334" y2="60.601" gradientUnits="userSpaceOnUse">
<stop stop-color="#5899FF"/>
<stop offset="1" stop-color="#4F39EE"/>
</linearGradient>
<linearGradient id="paint37_linear_1_1574" x1="229.839" y1="100.2" x2="232.621" y2="100.2" gradientUnits="userSpaceOnUse">
<stop stop-color="#EEBD2F"/>
<stop offset="1" stop-color="#DA5618"/>
</linearGradient>
<radialGradient id="paint38_radial_1_1574" cx="0" cy="0" r="1" gradientUnits="userSpaceOnUse" gradientTransform="translate(231.231 97.7068) scale(2.40867 2.40868)">
<stop stop-color="#E79927"/>
<stop offset="1" stop-color="#DD661C"/>
</radialGradient>
<linearGradient id="paint39_linear_1_1574" x1="195.669" y1="73.0414" x2="232.158" y2="73.0414" gradientUnits="userSpaceOnUse">
<stop stop-color="#EEBD2F"/>
<stop offset="1" stop-color="#DA5618"/>
</linearGradient>
<radialGradient id="paint40_radial_1_1574" cx="0" cy="0" r="1" gradientUnits="userSpaceOnUse" gradientTransform="translate(268.787 7.60506) rotate(33.0558) scale(9.05841 9.05841)">
<stop stop-color="#E79927"/>
<stop offset="1" stop-color="#DD661C"/>
</radialGradient>
<radialGradient id="paint41_radial_1_1574" cx="0" cy="0" r="1" gradientUnits="userSpaceOnUse" gradientTransform="translate(233.378 7.60506) rotate(33.0558) scale(9.05841)">
<stop stop-color="#E79927"/>
<stop offset="1" stop-color="#DD661C"/>
</radialGradient>
<radialGradient id="paint42_radial_1_1574" cx="0" cy="0" r="1" gradientUnits="userSpaceOnUse" gradientTransform="translate(155.432 7.60506) rotate(33.0558) scale(9.05841 9.05841)">
<stop stop-color="#E79927"/>
<stop offset="1" stop-color="#DD661C"/>
</radialGradient>
<radialGradient id="paint43_radial_1_1574" cx="0" cy="0" r="1" gradientUnits="userSpaceOnUse" gradientTransform="translate(120.023 7.60506) rotate(33.0558) scale(9.05841 9.05841)">
<stop stop-color="#E79927"/>
<stop offset="1" stop-color="#DD661C"/>
</radialGradient>
<linearGradient id="paint44_linear_1_1574" x1="-184.224" y1="55.753" x2="383.884" y2="242.604" gradientUnits="userSpaceOnUse">
<stop offset="0.00124015" stop-color="#D10474"/>
<stop offset="1" stop-color="#7739DF"/>
</linearGradient>
<linearGradient id="paint45_linear_1_1574" x1="-184.224" y1="55.753" x2="383.884" y2="242.604" gradientUnits="userSpaceOnUse">
<stop offset="0.00124015" stop-color="#D10474"/>
<stop offset="1" stop-color="#7739DF"/>
</linearGradient>
<linearGradient id="paint46_linear_1_1574" x1="-184.224" y1="55.753" x2="383.884" y2="242.604" gradientUnits="userSpaceOnUse">
<stop offset="0.00124015" stop-color="#D10474"/>
<stop offset="1" stop-color="#7739DF"/>
</linearGradient>
<linearGradient id="paint47_linear_1_1574" x1="-184.224" y1="55.753" x2="383.884" y2="242.604" gradientUnits="userSpaceOnUse">
<stop offset="0.00124015" stop-color="#D10474"/>
<stop offset="1" stop-color="#7739DF"/>
</linearGradient>
<linearGradient id="paint48_linear_1_1574" x1="-184.224" y1="55.753" x2="383.884" y2="242.604" gradientUnits="userSpaceOnUse">
<stop offset="0.00124015" stop-color="#D10474"/>
<stop offset="1" stop-color="#7739DF"/>
</linearGradient>
<linearGradient id="paint49_linear_1_1574" x1="-184.224" y1="55.753" x2="383.884" y2="242.604" gradientUnits="userSpaceOnUse">
<stop offset="0.00124015" stop-color="#D10474"/>
<stop offset="1" stop-color="#7739DF"/>
</linearGradient>
<linearGradient id="paint50_linear_1_1574" x1="-184.224" y1="55.753" x2="383.884" y2="242.604" gradientUnits="userSpaceOnUse">
<stop offset="0.00124015" stop-color="#D10474"/>
<stop offset="1" stop-color="#7739DF"/>
</linearGradient>
<linearGradient id="paint51_linear_1_1574" x1="-184.224" y1="55.753" x2="383.884" y2="242.604" gradientUnits="userSpaceOnUse">
<stop offset="0.00124015" stop-color="#D10474"/>
<stop offset="1" stop-color="#7739DF"/>
</linearGradient>
<linearGradient id="paint52_linear_1_1574" x1="-184.224" y1="55.753" x2="383.884" y2="242.604" gradientUnits="userSpaceOnUse">
<stop offset="0.00124015" stop-color="#D10474"/>
<stop offset="1" stop-color="#7739DF"/>
</linearGradient>
<linearGradient id="paint53_linear_1_1574" x1="-184.224" y1="55.753" x2="383.884" y2="242.604" gradientUnits="userSpaceOnUse">
<stop offset="0.00124015" stop-color="#D10474"/>
<stop offset="1" stop-color="#7739DF"/>
</linearGradient>
<linearGradient id="paint54_linear_1_1574" x1="-184.224" y1="55.753" x2="383.884" y2="242.604" gradientUnits="userSpaceOnUse">
<stop offset="0.00124015" stop-color="#D10474"/>
<stop offset="1" stop-color="#7739DF"/>
</linearGradient>
<linearGradient id="paint55_linear_1_1574" x1="-184.224" y1="55.753" x2="383.884" y2="242.604" gradientUnits="userSpaceOnUse">
<stop offset="0.00124015" stop-color="#D10474"/>
<stop offset="1" stop-color="#7739DF"/>
</linearGradient>
<linearGradient id="paint56_linear_1_1574" x1="-184.224" y1="55.753" x2="383.884" y2="242.604" gradientUnits="userSpaceOnUse">
<stop offset="0.00124015" stop-color="#D10474"/>
<stop offset="1" stop-color="#7739DF"/>
</linearGradient>
</defs>
</svg>
