<svg width="467" height="93" viewBox="0 0 467 93" fill="none" xmlns="http://www.w3.org/2000/svg">
<mask id="mask0_1_1863" style="mask-type:luminance" maskUnits="userSpaceOnUse" x="21" y="12" width="83" height="81">
<path d="M81.5821 12.4823L87.7176 16.0193H99.9526V56.0807C99.9526 74.0697 83.1546 88.7073 62.5 88.7073C41.8454 88.7073 25.0475 74.0697 25.0475 56.0807V16.0193H37.3443L43.4592 12.4823H21.5105V56.0807C21.5105 76.0186 39.8965 92.2443 62.5 92.2443C85.1036 92.2443 103.49 76.0186 103.49 56.0807V12.4823H81.5821Z" fill="white"/>
</mask>
<g mask="url(#mask0_1_1863)">
<path d="M81.5821 12.4823L87.7176 16.0193H99.9526V56.0807C99.9526 74.0697 83.1546 88.7073 62.5 88.7073C41.8454 88.7073 25.0475 74.0697 25.0475 56.0807V16.0193H37.3443L43.4592 12.4823H21.5105V56.0807C21.5105 76.0186 39.8965 92.2443 62.5 92.2443C85.1036 92.2443 103.49 76.0186 103.49 56.0807V12.4823H81.5821Z" fill="url(#paint0_linear_1_1863)"/>
</g>
<mask id="mask1_1_1863" style="mask-type:luminance" maskUnits="userSpaceOnUse" x="27" y="18" width="71" height="69">
<path d="M91.8062 18.3755L93.8531 19.5562H96.4208V56.0807C96.4208 72.1208 81.2005 85.1756 62.5 85.1756C43.7995 85.1756 28.5792 72.1208 28.5792 56.0807V19.5562H31.2294L33.2711 18.3755H27.4037V56.0807C27.4037 72.7704 43.1447 86.3511 62.5 86.3511C81.8553 86.3511 97.5963 72.7704 97.5963 56.0807V18.3755H91.8062Z" fill="white"/>
</mask>
<g mask="url(#mask1_1_1863)">
<path d="M91.8062 18.3755L93.8531 19.5562H96.4208V56.0807C96.4208 72.1208 81.2005 85.1756 62.5 85.1756C43.7995 85.1756 28.5792 72.1208 28.5792 56.0807V19.5562H31.2294L33.2711 18.3755H27.4037V56.0807C27.4037 72.7704 43.1447 86.3511 62.5 86.3511C81.8553 86.3511 97.5963 72.7704 97.5963 56.0807V18.3755H91.8062Z" fill="url(#paint1_linear_1_1863)"/>
</g>
<mask id="mask2_1_1863" style="mask-type:luminance" maskUnits="userSpaceOnUse" x="109" y="18" width="16" height="58">
<path d="M117.774 41.4678L117.836 35.1529C121.548 34.7033 124.709 31.4762 125 27.7284C121.823 27.9124 118.973 30.1594 117.856 33.091L117.899 28.7693C120.033 25.8258 119.924 21.4567 117.54 18.672C115.102 21.4098 114.907 25.7758 116.984 28.7611L116.941 33.0833C115.883 30.13 113.077 27.8263 109.905 27.5804C110.121 31.3334 113.219 34.6218 116.921 35.1441L116.859 41.4596C115.801 38.5063 112.995 36.2031 109.822 35.9567C110.039 39.7097 113.137 42.9986 116.839 43.5204L116.777 49.8364C115.718 46.8831 112.913 44.58 109.74 44.3335C109.957 48.0865 113.055 51.3749 116.757 51.8972L116.694 58.2127C115.636 55.2599 112.83 52.9568 109.658 52.7103C109.875 56.4633 112.972 59.7517 116.674 60.274L116.612 66.5895C115.553 63.6362 112.748 61.3331 109.575 61.0871C109.792 64.8401 112.89 68.1286 116.592 68.6509L116.526 75.3273L117.441 75.336L117.507 68.6596C121.218 68.21 124.38 64.9835 124.671 61.2356C121.493 61.4192 118.643 63.6666 117.527 66.5983L117.589 60.2828C121.301 59.8337 124.462 56.6066 124.753 52.8588C121.576 53.0424 118.726 55.2898 117.61 58.2215L117.671 51.9065C121.383 51.4569 124.545 48.2298 124.836 44.482C121.658 44.6655 118.808 46.913 117.691 49.8447L117.754 43.5297C121.465 43.0801 124.627 39.853 124.918 36.1052C121.74 36.2892 118.891 38.5362 117.774 41.4678Z" fill="white"/>
</mask>
<g mask="url(#mask2_1_1863)">
<path d="M117.774 41.4678L117.836 35.1529C121.548 34.7033 124.709 31.4762 125 27.7284C121.823 27.9124 118.973 30.1594 117.856 33.091L117.899 28.7693C120.033 25.8258 119.924 21.4567 117.54 18.672C115.102 21.4098 114.907 25.7758 116.984 28.7611L116.941 33.0833C115.883 30.13 113.077 27.8263 109.905 27.5804C110.121 31.3334 113.219 34.6218 116.921 35.1441L116.859 41.4596C115.801 38.5063 112.995 36.2031 109.822 35.9567C110.039 39.7097 113.137 42.9986 116.839 43.5204L116.777 49.8364C115.718 46.8831 112.913 44.58 109.74 44.3335C109.957 48.0865 113.055 51.3749 116.757 51.8972L116.694 58.2127C115.636 55.2599 112.83 52.9568 109.658 52.7103C109.875 56.4633 112.972 59.7517 116.674 60.274L116.612 66.5895C115.553 63.6362 112.748 61.3331 109.575 61.0871C109.792 64.8401 112.89 68.1286 116.592 68.6509L116.526 75.3273L117.441 75.336L117.507 68.6596C121.218 68.21 124.38 64.9835 124.671 61.2356C121.493 61.4192 118.643 63.6666 117.527 66.5983L117.589 60.2828C121.301 59.8337 124.462 56.6066 124.753 52.8588C121.576 53.0424 118.726 55.2898 117.61 58.2215L117.671 51.9065C121.383 51.4569 124.545 48.2298 124.836 44.482C121.658 44.6655 118.808 46.913 117.691 49.8447L117.754 43.5297C121.465 43.0801 124.627 39.853 124.918 36.1052C121.74 36.2892 118.891 38.5362 117.774 41.4678Z" fill="url(#paint2_linear_1_1863)"/>
</g>
<mask id="mask3_1_1863" style="mask-type:luminance" maskUnits="userSpaceOnUse" x="0" y="18" width="16" height="58">
<path d="M8.19893 41.4678L8.2608 35.1529C11.9725 34.7033 15.1342 31.4762 15.4249 27.7284C12.2479 27.9124 9.39768 30.1594 8.28143 33.091L8.3237 28.7693C10.4583 25.8258 10.349 21.4567 7.96537 18.672C5.52714 21.4098 5.33224 25.7758 7.40905 28.7611L7.36625 33.0833C6.30775 30.13 3.50241 27.8263 0.328948 27.5804C0.546012 31.3334 3.6442 34.6218 7.34615 35.1441L7.28427 41.4596C6.22576 38.5063 3.42043 36.2031 0.246964 35.9567C0.464028 39.7097 3.56171 42.9986 7.26365 43.5204L7.20178 49.8364C6.14327 46.8831 3.33794 44.58 0.164471 44.3335C0.381535 48.0865 3.47972 51.3749 7.18167 51.8972L7.11928 58.2127C6.06077 55.2599 3.25544 52.9568 0.0824934 52.7103C0.299042 56.4633 3.39723 59.7517 7.09918 60.274L7.03731 66.5895C5.97828 63.6362 3.17295 61.3331 0 61.0871C0.217064 64.8401 3.31474 68.1286 7.01668 68.6509L6.9512 75.3273L7.86586 75.336L7.93186 68.6596C11.6431 68.21 14.8052 64.9835 15.0955 61.2356C11.9184 61.4192 9.06822 63.6666 7.95197 66.5983L8.01383 60.2828C11.7256 59.8337 14.8872 56.6066 15.178 52.8588C12.0009 53.0424 9.15071 55.2898 8.03446 58.2215L8.09633 51.9065C11.8076 51.4569 14.9697 48.2298 15.2605 44.482C12.0829 44.6655 9.23321 46.913 8.11644 49.8447L8.17883 43.5297C11.8901 43.0801 15.0517 39.853 15.3425 36.1052C12.1654 36.2892 9.3157 38.5362 8.19893 41.4678Z" fill="white"/>
</mask>
<g mask="url(#mask3_1_1863)">
<path d="M8.19893 41.4678L8.2608 35.1529C11.9725 34.7033 15.1342 31.4762 15.4249 27.7284C12.2479 27.9124 9.39768 30.1594 8.28143 33.091L8.3237 28.7693C10.4583 25.8258 10.349 21.4567 7.96537 18.672C5.52714 21.4098 5.33224 25.7758 7.40905 28.7611L7.36625 33.0833C6.30775 30.13 3.50241 27.8263 0.328948 27.5804C0.546012 31.3334 3.6442 34.6218 7.34615 35.1441L7.28427 41.4596C6.22576 38.5063 3.42043 36.2031 0.246964 35.9567C0.464028 39.7097 3.56171 42.9986 7.26365 43.5204L7.20178 49.8364C6.14327 46.8831 3.33794 44.58 0.164471 44.3335C0.381535 48.0865 3.47972 51.3749 7.18167 51.8972L7.11928 58.2127C6.06077 55.2599 3.25544 52.9568 0.0824934 52.7103C0.299042 56.4633 3.39723 59.7517 7.09918 60.274L7.03731 66.5895C5.97828 63.6362 3.17295 61.3331 0 61.0871C0.217064 64.8401 3.31474 68.1286 7.01668 68.6509L6.9512 75.3273L7.86586 75.336L7.93186 68.6596C11.6431 68.21 14.8052 64.9835 15.0955 61.2356C11.9184 61.4192 9.06822 63.6666 7.95197 66.5983L8.01383 60.2828C11.7256 59.8337 14.8872 56.6066 15.178 52.8588C12.0009 53.0424 9.15071 55.2898 8.03446 58.2215L8.09633 51.9065C11.8076 51.4569 14.9697 48.2298 15.2605 44.482C12.0829 44.6655 9.23321 46.913 8.11644 49.8447L8.17883 43.5297C11.8901 43.0801 15.0517 39.853 15.3425 36.1052C12.1654 36.2892 9.3157 38.5362 8.19893 41.4678Z" fill="url(#paint3_linear_1_1863)"/>
</g>
<mask id="mask4_1_1863" style="mask-type:luminance" maskUnits="userSpaceOnUse" x="62" y="45" width="29" height="30">
<path d="M62.7774 74.8586V74.0032C62.7774 74.0032 67.1775 72.0955 74.637 72.0955C78.0662 72.0955 82.1415 72.4982 86.7349 73.6753L89.879 45.4167L90.2945 46.2721L87.102 74.5306C82.4385 73.3535 78.3008 72.9509 74.819 72.9509C67.245 72.9509 62.7774 74.8586 62.7774 74.8586Z" fill="white"/>
</mask>
<g mask="url(#mask4_1_1863)">
<path d="M62.7774 74.8586V74.0032C62.7774 74.0032 67.1775 72.0955 74.637 72.0955C78.0662 72.0955 82.1415 72.4982 86.7349 73.6753L89.879 45.4167L90.2945 46.2721L87.102 74.5306C82.4385 73.3535 78.3008 72.9509 74.819 72.9509C67.245 72.9509 62.7774 74.8586 62.7774 74.8586Z" fill="url(#paint4_linear_1_1863)"/>
</g>
<mask id="mask5_1_1863" style="mask-type:luminance" maskUnits="userSpaceOnUse" x="62" y="44" width="28" height="31">
<path d="M62.7774 74.0032C62.7774 74.0032 68.368 70.8519 77.5584 70.8519C79.8347 70.8519 82.3302 71.0447 85.018 71.5268L87.7821 44.4985C89.1056 45.0424 89.8681 45.4111 89.879 45.4162V45.4167L86.7349 73.6753C82.1415 72.4982 78.0662 72.0955 74.637 72.0955C67.1775 72.0955 62.7774 74.0032 62.7774 74.0032Z" fill="white"/>
</mask>
<g mask="url(#mask5_1_1863)">
<path d="M62.7774 74.0032C62.7774 74.0032 68.368 70.8519 77.5584 70.8519C79.8347 70.8519 82.3302 71.0447 85.018 71.5268L87.7821 44.4985C89.1056 45.0424 89.8681 45.4111 89.879 45.4162V45.4167L86.7349 73.6753C82.1415 72.4982 78.0662 72.0955 74.637 72.0955C67.1775 72.0955 62.7774 74.0032 62.7774 74.0032Z" fill="url(#paint5_linear_1_1863)"/>
</g>
<mask id="mask6_1_1863" style="mask-type:luminance" maskUnits="userSpaceOnUse" x="62" y="42" width="26" height="33">
<path d="M62.7774 74.0032C62.7774 74.0032 69.378 69.3293 79.9275 69.3293C81.0288 69.3293 82.1734 69.3804 83.3578 69.4928L85.9141 42.2304C87.1979 42.6722 87.9367 42.9862 87.9367 42.9862L87.7821 44.4985L85.018 71.5268C82.3302 71.0447 79.8347 70.8519 77.5584 70.8519C68.368 70.8519 62.7774 74.0032 62.7774 74.0032Z" fill="white"/>
</mask>
<g mask="url(#mask6_1_1863)">
<path d="M62.7774 74.0032C62.7774 74.0032 69.378 69.3293 79.9275 69.3293C81.0288 69.3293 82.1734 69.3804 83.3578 69.4928L85.9141 42.2304C87.1979 42.6722 87.9367 42.9862 87.9367 42.9862L87.7821 44.4985L85.018 71.5268C82.3302 71.0447 79.8347 70.8519 77.5584 70.8519C68.368 70.8519 62.7774 74.0032 62.7774 74.0032Z" fill="url(#paint6_linear_1_1863)"/>
</g>
<mask id="mask7_1_1863" style="mask-type:luminance" maskUnits="userSpaceOnUse" x="62" y="40" width="25" height="35">
<path d="M62.7774 74.0032C62.7774 74.0032 70.1823 67.4717 81.7068 67.3696L84.0378 40.0737C85.318 40.4181 86.0584 40.6852 86.0584 40.6852L85.9141 42.2304L83.3578 69.4928C82.1734 69.3804 81.0288 69.3293 79.9275 69.3293C69.378 69.3293 62.7774 74.0032 62.7774 74.0032Z" fill="white"/>
</mask>
<g mask="url(#mask7_1_1863)">
<path d="M62.7774 74.0032C62.7774 74.0032 70.1823 67.4717 81.7068 67.3696L84.0378 40.0737C85.318 40.4181 86.0584 40.6852 86.0584 40.6852L85.9141 42.2304L83.3578 69.4928C82.1734 69.3804 81.0288 69.3293 79.9275 69.3293C69.378 69.3293 62.7774 74.0032 62.7774 74.0032Z" fill="url(#paint7_linear_1_1863)"/>
</g>
<mask id="mask8_1_1863" style="mask-type:luminance" maskUnits="userSpaceOnUse" x="62" y="37" width="23" height="38">
<path d="M62.7774 74.0032V48.4036C64.3933 48.3891 66.006 48.2468 67.5657 47.9766C66.103 48.5103 64.9321 49.0769 64.0875 49.5379V50.5396C66.0947 49.3816 70.8887 47.1038 77.579 47.1038C77.5811 47.1038 77.5831 47.1038 77.5852 47.1038C78.8489 47.1038 80.1843 47.1857 82.094 47.4399L82.1683 46.5691C80.2415 46.3139 78.8773 46.2303 77.5852 46.2303C75.6285 46.2308 73.8296 46.4196 72.2086 46.7171C73.1516 46.3541 74.0457 45.9328 74.8758 45.4528C76.1694 44.7026 77.2171 43.8622 78.0167 42.9666C79.2139 43.0347 80.5916 43.1951 82.4287 43.5173L82.5034 42.6439C80.9706 42.3773 79.7466 42.2211 78.6762 42.1365C78.6813 42.1293 78.686 42.1221 78.6911 42.1154C79.5414 40.9007 79.9636 39.606 79.9626 38.316L79.9621 37.538C82.5509 37.8241 84.191 38.2835 84.191 38.2835L84.0378 40.0737L81.7068 67.3696C70.1823 67.4717 62.7774 74.0032 62.7774 74.0032ZM80.7994 62.5952C72.7159 62.9066 66.7712 66.2482 64.0875 68.095V69.1613C66.369 67.5078 72.3829 63.8156 80.7252 63.4697L80.7994 62.5952ZM80.87 58.5329C72.7407 58.5365 66.7763 61.7022 64.0875 63.4568V64.505C66.3912 62.9211 72.4515 59.4068 80.8592 59.4068C80.8633 59.4068 80.8659 59.4068 80.87 59.4068C80.9365 59.4068 81.0046 59.4089 81.0716 59.4094L81.1464 58.537C81.0546 58.536 80.9613 58.5329 80.87 58.5329ZM79.7661 54.4715C72.1967 54.4746 66.6495 57.2372 64.0875 58.818V59.8481C66.301 58.4091 71.9364 55.345 79.7574 55.345C79.7605 55.345 79.7631 55.345 79.7661 55.345C80.3034 55.345 80.8566 55.3671 81.4145 55.3975L81.4887 54.5262C80.9056 54.4942 80.3281 54.4715 79.7661 54.4715ZM78.6705 50.3705C71.6605 50.3726 66.5216 52.7629 64.0875 54.1787V55.1939C66.1984 53.8982 71.4089 51.2439 78.6628 51.2439C78.6654 51.2439 78.6679 51.2439 78.6705 51.2439C79.6053 51.2439 80.5787 51.2898 81.7543 51.4172L81.8285 50.5469C80.6287 50.4175 79.6305 50.3705 78.6705 50.3705Z" fill="white"/>
</mask>
<g mask="url(#mask8_1_1863)">
<path d="M62.7774 74.0032V48.4036C64.3933 48.3891 66.006 48.2468 67.5657 47.9766C66.103 48.5103 64.9321 49.0769 64.0875 49.5379V50.5396C66.0947 49.3816 70.8887 47.1038 77.579 47.1038C77.5811 47.1038 77.5831 47.1038 77.5852 47.1038C78.8489 47.1038 80.1843 47.1857 82.094 47.4399L82.1683 46.5691C80.2415 46.3139 78.8773 46.2303 77.5852 46.2303C75.6285 46.2308 73.8296 46.4196 72.2086 46.7171C73.1516 46.3541 74.0457 45.9328 74.8758 45.4528C76.1694 44.7026 77.2171 43.8622 78.0167 42.9666C79.2139 43.0347 80.5916 43.1951 82.4287 43.5173L82.5034 42.6439C80.9706 42.3773 79.7466 42.2211 78.6762 42.1365C78.6813 42.1293 78.686 42.1221 78.6911 42.1154C79.5414 40.9007 79.9636 39.606 79.9626 38.316L79.9621 37.538C82.5509 37.8241 84.191 38.2835 84.191 38.2835L84.0378 40.0737L81.7068 67.3696C70.1823 67.4717 62.7774 74.0032 62.7774 74.0032ZM80.7994 62.5952C72.7159 62.9066 66.7712 66.2482 64.0875 68.095V69.1613C66.369 67.5078 72.3829 63.8156 80.7252 63.4697L80.7994 62.5952ZM80.87 58.5329C72.7407 58.5365 66.7763 61.7022 64.0875 63.4568V64.505C66.3912 62.9211 72.4515 59.4068 80.8592 59.4068C80.8633 59.4068 80.8659 59.4068 80.87 59.4068C80.9365 59.4068 81.0046 59.4089 81.0716 59.4094L81.1464 58.537C81.0546 58.536 80.9613 58.5329 80.87 58.5329ZM79.7661 54.4715C72.1967 54.4746 66.6495 57.2372 64.0875 58.818V59.8481C66.301 58.4091 71.9364 55.345 79.7574 55.345C79.7605 55.345 79.7631 55.345 79.7661 55.345C80.3034 55.345 80.8566 55.3671 81.4145 55.3975L81.4887 54.5262C80.9056 54.4942 80.3281 54.4715 79.7661 54.4715ZM78.6705 50.3705C71.6605 50.3726 66.5216 52.7629 64.0875 54.1787V55.1939C66.1984 53.8982 71.4089 51.2439 78.6628 51.2439C78.6654 51.2439 78.6679 51.2439 78.6705 51.2439C79.6053 51.2439 80.5787 51.2898 81.7543 51.4172L81.8285 50.5469C80.6287 50.4175 79.6305 50.3705 78.6705 50.3705Z" fill="url(#paint8_linear_1_1863)"/>
</g>
<mask id="mask9_1_1863" style="mask-type:luminance" maskUnits="userSpaceOnUse" x="64" y="58" width="18" height="7">
<path d="M64.0875 64.505V63.4568C66.7763 61.7022 72.7407 58.5365 80.87 58.5329C80.9613 58.5329 81.0546 58.536 81.1464 58.537L81.0716 59.4094C81.0046 59.4089 80.9365 59.4068 80.87 59.4068C80.8659 59.4068 80.8633 59.4068 80.8592 59.4068C72.4515 59.4068 66.3912 62.9211 64.0875 64.505Z" fill="white"/>
</mask>
<g mask="url(#mask9_1_1863)">
<path d="M64.0875 64.505V63.4568C66.7763 61.7022 72.7407 58.5365 80.87 58.5329C80.9613 58.5329 81.0546 58.536 81.1464 58.537L81.0716 59.4094C81.0046 59.4089 80.9365 59.4068 80.87 59.4068C80.8659 59.4068 80.8633 59.4068 80.8592 59.4068C72.4515 59.4068 66.3912 62.9211 64.0875 64.505Z" fill="url(#paint9_linear_1_1863)"/>
</g>
<mask id="mask10_1_1863" style="mask-type:luminance" maskUnits="userSpaceOnUse" x="64" y="54" width="18" height="6">
<path d="M64.0875 59.8482V58.818C66.6495 57.2372 72.1967 54.4747 79.7661 54.4716C80.3281 54.4716 80.9056 54.4943 81.4887 54.5262L81.4145 55.3976C80.8566 55.3672 80.3034 55.345 79.7661 55.345C79.763 55.345 79.7605 55.345 79.7574 55.345C71.9364 55.345 66.301 58.4091 64.0875 59.8482Z" fill="white"/>
</mask>
<g mask="url(#mask10_1_1863)">
<path d="M64.0875 59.8482V58.818C66.6495 57.2372 72.1967 54.4747 79.7661 54.4716C80.3281 54.4716 80.9056 54.4943 81.4887 54.5262L81.4145 55.3976C80.8566 55.3672 80.3034 55.345 79.7661 55.345C79.763 55.345 79.7605 55.345 79.7574 55.345C71.9364 55.345 66.301 58.4091 64.0875 59.8482Z" fill="url(#paint10_linear_1_1863)"/>
</g>
<mask id="mask11_1_1863" style="mask-type:luminance" maskUnits="userSpaceOnUse" x="64" y="62" width="17" height="8">
<path d="M64.0875 69.1613V68.095C66.7712 66.2482 72.7159 62.9066 80.7994 62.5952L80.7251 63.4696C72.3829 63.8156 66.369 67.5078 64.0875 69.1613Z" fill="white"/>
</mask>
<g mask="url(#mask11_1_1863)">
<path d="M64.0875 69.1613V68.095C66.7712 66.2482 72.7159 62.9066 80.7994 62.5952L80.7251 63.4696C72.3829 63.8156 66.369 67.5078 64.0875 69.1613Z" fill="url(#paint11_linear_1_1863)"/>
</g>
<mask id="mask12_1_1863" style="mask-type:luminance" maskUnits="userSpaceOnUse" x="78" y="42" width="5" height="2">
<path d="M82.4286 43.5173C80.5916 43.1951 79.2139 43.0347 78.0167 42.9667C78.2596 42.6944 78.4792 42.4176 78.6762 42.1366C79.7465 42.2211 80.9705 42.3773 82.5034 42.6439L82.4286 43.5173Z" fill="white"/>
</mask>
<g mask="url(#mask12_1_1863)">
<path d="M82.4286 43.5173C80.5916 43.1951 79.2139 43.0347 78.0167 42.9667C78.2596 42.6944 78.4792 42.4176 78.6762 42.1366C79.7465 42.2211 80.9705 42.3773 82.5034 42.6439L82.4286 43.5173Z" fill="url(#paint12_linear_1_1863)"/>
</g>
<mask id="mask13_1_1863" style="mask-type:luminance" maskUnits="userSpaceOnUse" x="64" y="46" width="19" height="5">
<path d="M64.0875 50.5396V49.5379C64.9321 49.0769 66.103 48.5103 67.5657 47.9766C69.1903 47.6956 70.7572 47.2754 72.2086 46.7171C73.8296 46.4196 75.6285 46.2308 77.5852 46.2303C78.8773 46.2303 80.2415 46.3139 82.1683 46.5691L82.094 47.4399C80.1843 47.1857 78.8489 47.1037 77.5852 47.1037C77.5831 47.1037 77.5811 47.1037 77.579 47.1037C70.8887 47.1037 66.0947 49.3816 64.0875 50.5396Z" fill="white"/>
</mask>
<g mask="url(#mask13_1_1863)">
<path d="M64.0875 50.5396V49.5379C64.9321 49.0769 66.103 48.5103 67.5657 47.9766C69.1903 47.6956 70.7572 47.2754 72.2086 46.7171C73.8296 46.4196 75.6285 46.2308 77.5852 46.2303C78.8773 46.2303 80.2415 46.3139 82.1683 46.5691L82.094 47.4399C80.1843 47.1857 78.8489 47.1037 77.5852 47.1037C77.5831 47.1037 77.5811 47.1037 77.579 47.1037C70.8887 47.1037 66.0947 49.3816 64.0875 50.5396Z" fill="url(#paint13_linear_1_1863)"/>
</g>
<mask id="mask14_1_1863" style="mask-type:luminance" maskUnits="userSpaceOnUse" x="64" y="50" width="18" height="6">
<path d="M64.0875 55.1939V54.1787C66.5216 52.7629 71.6605 50.3726 78.6705 50.3706C79.6305 50.3706 80.6287 50.4175 81.8285 50.5469L81.7543 51.4172C80.5787 51.2899 79.6053 51.244 78.6705 51.244C78.6679 51.244 78.6654 51.244 78.6628 51.244C71.4089 51.244 66.1984 53.8982 64.0875 55.1939Z" fill="white"/>
</mask>
<g mask="url(#mask14_1_1863)">
<path d="M64.0875 55.1939V54.1787C66.5216 52.7629 71.6605 50.3726 78.6705 50.3706C79.6305 50.3706 80.6287 50.4175 81.8285 50.5469L81.7543 51.4172C80.5787 51.2899 79.6053 51.244 78.6705 51.244C78.6679 51.244 78.6654 51.244 78.6628 51.244C71.4089 51.244 66.1984 53.8982 64.0875 55.1939Z" fill="url(#paint14_linear_1_1863)"/>
</g>
<mask id="mask15_1_1863" style="mask-type:luminance" maskUnits="userSpaceOnUse" x="62" y="42" width="26" height="33">
<path d="M62.7774 74.0032C64.449 73.105 66.2504 72.4667 68.0772 71.9511C69.9091 71.4443 71.7863 71.1025 73.677 70.8921C74.1498 70.8385 74.6252 70.8132 75.099 70.7725L75.811 70.7168L76.5246 70.6977L77.9518 70.6668L79.3789 70.7147C80.3323 70.722 81.2774 70.8529 82.2266 70.9246C83.1732 71.0256 84.1116 71.1912 85.0546 71.3211L84.8097 71.5057C85.2742 66.7468 85.8001 61.994 86.2961 57.2382L87.0927 50.1096L87.9362 42.9862L87.3211 50.1334L86.6581 57.2753C86.1811 62.0327 85.7341 66.7937 85.2257 71.5479L85.2025 71.7645L84.9808 71.7325C84.0476 71.5985 83.1185 71.4283 82.1817 71.3226C81.2423 71.2458 80.306 71.1102 79.3619 71.0978L77.9482 71.0411L76.5339 71.0571L75.826 71.0628L75.1196 71.1051C74.6494 71.137 74.1771 71.153 73.7074 71.1978C71.8266 71.3654 69.9617 71.6887 68.1246 72.1326C66.2922 72.5853 64.4768 73.1612 62.7774 74.0032Z" fill="white"/>
</mask>
<g mask="url(#mask15_1_1863)">
<path d="M62.7774 74.0032C64.449 73.105 66.2504 72.4667 68.0772 71.9511C69.9091 71.4443 71.7863 71.1025 73.677 70.8921C74.1498 70.8385 74.6252 70.8132 75.099 70.7725L75.811 70.7168L76.5246 70.6977L77.9518 70.6668L79.3789 70.7147C80.3323 70.722 81.2774 70.8529 82.2266 70.9246C83.1732 71.0256 84.1116 71.1912 85.0546 71.3211L84.8097 71.5057C85.2742 66.7468 85.8001 61.994 86.2961 57.2382L87.0927 50.1096L87.9362 42.9862L87.3211 50.1334L86.6581 57.2753C86.1811 62.0327 85.7341 66.7937 85.2257 71.5479L85.2025 71.7645L84.9808 71.7325C84.0476 71.5985 83.1185 71.4283 82.1817 71.3226C81.2423 71.2458 80.306 71.1102 79.3619 71.0978L77.9482 71.0411L76.5339 71.0571L75.826 71.0628L75.1196 71.1051C74.6494 71.137 74.1771 71.153 73.7074 71.1978C71.8266 71.3654 69.9617 71.6887 68.1246 72.1326C66.2922 72.5853 64.4768 73.1612 62.7774 74.0032Z" fill="url(#paint15_linear_1_1863)"/>
</g>
<mask id="mask16_1_1863" style="mask-type:luminance" maskUnits="userSpaceOnUse" x="62" y="40" width="25" height="35">
<path d="M62.7774 74.0032C64.2551 72.9952 65.8715 72.2012 67.5286 71.5247C69.1903 70.855 70.9098 70.3203 72.6639 69.9419C74.4184 69.5774 76.1972 69.2768 77.9935 69.2072C78.8891 69.1272 79.7883 69.1577 80.6865 69.1489C81.5846 69.1556 82.4802 69.2438 83.3773 69.2871L83.1526 69.4732C83.5728 64.6694 84.0677 59.8724 84.5245 55.0717L85.267 47.8761L86.0589 40.6852L85.4995 47.8978L84.8922 55.1062C84.4482 59.9079 84.0435 64.7133 83.5635 69.5119L83.5434 69.7093L83.3382 69.698C82.4519 69.6501 81.5661 69.5567 80.6782 69.5449C79.7899 69.548 78.9005 69.5119 78.0142 69.5856C76.2374 69.6537 74.4721 69.9027 72.7258 70.2342C70.9769 70.5693 69.2692 71.0901 67.5941 71.6933C65.9241 72.3105 64.2876 73.0463 62.7774 74.0032Z" fill="white"/>
</mask>
<g mask="url(#mask16_1_1863)">
<path d="M62.7774 74.0032C64.2551 72.9952 65.8715 72.2012 67.5286 71.5247C69.1903 70.855 70.9098 70.3203 72.6639 69.9419C74.4184 69.5774 76.1972 69.2768 77.9935 69.2072C78.8891 69.1272 79.7883 69.1577 80.6865 69.1489C81.5846 69.1556 82.4802 69.2438 83.3773 69.2871L83.1526 69.4732C83.5728 64.6694 84.0677 59.8724 84.5245 55.0717L85.267 47.8761L86.0589 40.6852L85.4995 47.8978L84.8922 55.1062C84.4482 59.9079 84.0435 64.7133 83.5635 69.5119L83.5434 69.7093L83.3382 69.698C82.4519 69.6501 81.5661 69.5567 80.6782 69.5449C79.7899 69.548 78.9005 69.5119 78.0142 69.5856C76.2374 69.6537 74.4721 69.9027 72.7258 70.2342C70.9769 70.5693 69.2692 71.0901 67.5941 71.6933C65.9241 72.3105 64.2876 73.0463 62.7774 74.0032Z" fill="url(#paint16_linear_1_1863)"/>
</g>
<mask id="mask17_1_1863" style="mask-type:luminance" maskUnits="userSpaceOnUse" x="62" y="38" width="23" height="37">
<path d="M62.7774 74.0032C64.07 72.8947 65.5018 71.9527 66.9882 71.1164C68.4737 70.2765 70.0375 69.5712 71.6482 68.9999C73.2584 68.4312 74.9077 67.9465 76.5978 67.6671C78.2797 67.3376 79.994 67.2273 81.7048 67.1654L81.5032 67.3521C81.8878 62.5019 82.34 57.6574 82.7638 52.8108L83.4516 45.5451L84.191 38.2835L83.6877 45.5652L83.134 52.8423C82.7298 57.6909 82.3539 62.5416 81.91 67.3871L81.8935 67.5681L81.7084 67.5738C80.0198 67.6243 78.3266 67.7217 76.6628 68.0373C74.9933 68.3095 73.3501 68.7364 71.7451 69.2757C70.1339 69.8037 68.5814 70.4977 67.0713 71.27C65.5652 72.0512 64.1071 72.94 62.7774 74.0032Z" fill="white"/>
</mask>
<g mask="url(#mask17_1_1863)">
<path d="M62.7774 74.0032C64.07 72.8947 65.5018 71.9527 66.9882 71.1164C68.4737 70.2765 70.0375 69.5712 71.6482 68.9999C73.2584 68.4312 74.9077 67.9465 76.5978 67.6671C78.2797 67.3376 79.994 67.2273 81.7048 67.1654L81.5032 67.3521C81.8878 62.5019 82.34 57.6574 82.7638 52.8108L83.4516 45.5451L84.191 38.2835L83.6877 45.5652L83.134 52.8423C82.7298 57.6909 82.3539 62.5416 81.91 67.3871L81.8935 67.5681L81.7084 67.5738C80.0198 67.6243 78.3266 67.7217 76.6628 68.0373C74.9933 68.3095 73.3501 68.7364 71.7451 69.2757C70.1339 69.8037 68.5814 70.4977 67.0713 71.27C65.5652 72.0512 64.1071 72.94 62.7774 74.0032Z" fill="url(#paint17_linear_1_1863)"/>
</g>
<mask id="mask18_1_1863" style="mask-type:luminance" maskUnits="userSpaceOnUse" x="35" y="45" width="28" height="30">
<path d="M62.7774 74.8586C62.7774 74.8586 58.3098 72.9509 50.7358 72.9509C47.254 72.9509 43.1163 73.3535 38.4523 74.5306L35.2603 46.2721L35.6758 45.4162L38.8199 73.6753C43.4133 72.4982 47.4881 72.0955 50.9178 72.0955C58.3773 72.0955 62.7774 74.0032 62.7774 74.0032V74.8586Z" fill="white"/>
</mask>
<g mask="url(#mask18_1_1863)">
<path d="M62.7774 74.8586C62.7774 74.8586 58.3098 72.9509 50.7358 72.9509C47.254 72.9509 43.1163 73.3535 38.4523 74.5306L35.2603 46.2721L35.6758 45.4162L38.8199 73.6753C43.4133 72.4982 47.4881 72.0955 50.9178 72.0955C58.3773 72.0955 62.7774 74.0032 62.7774 74.0032V74.8586Z" fill="url(#paint18_linear_1_1863)"/>
</g>
<mask id="mask19_1_1863" style="mask-type:luminance" maskUnits="userSpaceOnUse" x="35" y="44" width="28" height="31">
<path d="M62.7774 74.0032C62.7774 74.0032 58.3773 72.0955 50.9178 72.0955C47.488 72.0955 43.4133 72.4982 38.8199 73.6753L35.6758 45.4162C35.6862 45.4116 36.4492 45.0424 37.7728 44.4985L40.5368 71.5268C43.2246 71.0447 45.7201 70.8519 47.9959 70.8519C57.1868 70.8519 62.7774 74.0032 62.7774 74.0032Z" fill="white"/>
</mask>
<g mask="url(#mask19_1_1863)">
<path d="M62.7774 74.0032C62.7774 74.0032 58.3773 72.0955 50.9178 72.0955C47.488 72.0955 43.4133 72.4982 38.8199 73.6753L35.6758 45.4162C35.6862 45.4116 36.4492 45.0424 37.7728 44.4985L40.5368 71.5268C43.2246 71.0447 45.7201 70.8519 47.9959 70.8519C57.1868 70.8519 62.7774 74.0032 62.7774 74.0032Z" fill="url(#paint19_linear_1_1863)"/>
</g>
<mask id="mask20_1_1863" style="mask-type:luminance" maskUnits="userSpaceOnUse" x="37" y="42" width="26" height="33">
<path d="M62.7774 74.0032C62.7774 74.0032 57.1868 70.8519 47.9959 70.8519C45.7201 70.8519 43.2246 71.0447 40.5368 71.5268L37.7727 44.4985L37.6181 42.9862C37.6181 42.9862 38.3569 42.6722 39.6407 42.2304L42.197 69.4928C43.3814 69.3804 44.526 69.3293 45.6273 69.3293C56.1768 69.3293 62.7774 74.0032 62.7774 74.0032Z" fill="white"/>
</mask>
<g mask="url(#mask20_1_1863)">
<path d="M62.7774 74.0032C62.7774 74.0032 57.1868 70.8519 47.9959 70.8519C45.7201 70.8519 43.2246 71.0447 40.5368 71.5268L37.7727 44.4985L37.6181 42.9862C37.6181 42.9862 38.3569 42.6722 39.6407 42.2304L42.197 69.4928C43.3814 69.3804 44.526 69.3293 45.6273 69.3293C56.1768 69.3293 62.7774 74.0032 62.7774 74.0032Z" fill="url(#paint20_linear_1_1863)"/>
</g>
<mask id="mask21_1_1863" style="mask-type:luminance" maskUnits="userSpaceOnUse" x="39" y="40" width="24" height="35">
<path d="M62.7774 74.0032C62.7774 74.0032 56.1768 69.3293 45.6273 69.3293C44.526 69.3293 43.3813 69.3804 42.197 69.4928L39.6407 42.2304L39.4958 40.6852C39.4958 40.6852 40.2368 40.4181 41.5164 40.0737L43.848 67.3696C55.3719 67.4717 62.7774 74.0032 62.7774 74.0032Z" fill="white"/>
</mask>
<g mask="url(#mask21_1_1863)">
<path d="M62.7774 74.0032C62.7774 74.0032 56.1768 69.3293 45.6273 69.3293C44.526 69.3293 43.3813 69.3804 42.197 69.4928L39.6407 42.2304L39.4958 40.6852C39.4958 40.6852 40.2368 40.4181 41.5164 40.0737L43.848 67.3696C55.3719 67.4717 62.7774 74.0032 62.7774 74.0032Z" fill="url(#paint21_linear_1_1863)"/>
</g>
<mask id="mask22_1_1863" style="mask-type:luminance" maskUnits="userSpaceOnUse" x="41" y="37" width="22" height="38">
<path d="M62.7774 74.0032C62.7774 74.0032 55.372 67.4717 43.848 67.3696L41.5165 40.0737L41.3639 38.2835C41.3639 38.2835 42.7833 37.886 45.0653 37.6004L45.0658 38.3428C45.0668 39.6493 45.5015 40.9553 46.3708 42.1809C45.4231 42.2721 44.3476 42.4186 43.0514 42.6439L43.1261 43.5173C44.7085 43.2399 45.9495 43.0826 47.0287 43.0007C47.8299 43.8911 48.8765 44.7258 50.1686 45.4714C50.8709 45.8761 51.619 46.2391 52.4037 46.5598C51.0358 46.3546 49.5545 46.2308 47.9696 46.2303C46.6775 46.2303 45.3133 46.3139 43.3865 46.5691L43.4608 47.4399C45.3705 47.1857 46.7054 47.1038 47.9696 47.1038C47.9717 47.1038 47.9737 47.1038 47.9758 47.1038C54.6661 47.1038 59.4601 49.3816 61.4668 50.5396V49.5379C60.6996 49.1192 59.6632 48.6129 58.383 48.1241C59.7344 48.3113 61.1177 48.4051 62.501 48.4051C62.5933 48.4051 62.6851 48.4046 62.7774 48.4036V74.0032ZM44.7554 62.5952L44.8297 63.4697C53.1719 63.8156 59.1858 67.5078 61.4668 69.1613V68.095C58.7831 66.2482 52.8389 62.9066 44.7554 62.5952ZM44.6956 59.4068C53.1028 59.4068 59.1636 62.9211 61.4668 64.505V63.4568C58.7785 61.7022 52.8141 58.5365 44.6848 58.5329C44.5935 58.5329 44.5002 58.536 44.4084 58.537L44.4832 59.4094C44.5502 59.4089 44.6183 59.4068 44.6848 59.4068C44.6889 59.4068 44.6915 59.4068 44.6956 59.4068ZM45.7974 55.345C53.6184 55.345 59.2538 58.4091 61.4668 59.8481V58.818C58.9053 57.2372 53.3581 54.4746 45.7887 54.4715C45.2267 54.4715 44.6492 54.4942 44.0661 54.5262L44.1403 55.3975C44.6982 55.3671 45.2509 55.345 45.7887 55.345C45.7918 55.345 45.7943 55.345 45.7974 55.345ZM46.892 51.2439C54.1459 51.2439 59.3559 53.8982 61.4668 55.1939V54.1787C59.0332 52.7629 53.8943 50.3726 46.8843 50.3705C45.9243 50.3705 44.9261 50.4175 43.7263 50.5469L43.8005 51.4172C44.9761 51.2898 45.949 51.2439 46.8843 51.2439C46.8869 51.2439 46.8895 51.2439 46.892 51.2439Z" fill="white"/>
</mask>
<g mask="url(#mask22_1_1863)">
<path d="M62.7774 74.0032C62.7774 74.0032 55.372 67.4717 43.848 67.3696L41.5165 40.0737L41.3639 38.2835C41.3639 38.2835 42.7833 37.886 45.0653 37.6004L45.0658 38.3428C45.0668 39.6493 45.5015 40.9553 46.3708 42.1809C45.4231 42.2721 44.3476 42.4186 43.0514 42.6439L43.1261 43.5173C44.7085 43.2399 45.9495 43.0826 47.0287 43.0007C47.8299 43.8911 48.8765 44.7258 50.1686 45.4714C50.8709 45.8761 51.619 46.2391 52.4037 46.5598C51.0358 46.3546 49.5545 46.2308 47.9696 46.2303C46.6775 46.2303 45.3133 46.3139 43.3865 46.5691L43.4608 47.4399C45.3705 47.1857 46.7054 47.1038 47.9696 47.1038C47.9717 47.1038 47.9737 47.1038 47.9758 47.1038C54.6661 47.1038 59.4601 49.3816 61.4668 50.5396V49.5379C60.6996 49.1192 59.6632 48.6129 58.383 48.1241C59.7344 48.3113 61.1177 48.4051 62.501 48.4051C62.5933 48.4051 62.6851 48.4046 62.7774 48.4036V74.0032ZM44.7554 62.5952L44.8297 63.4697C53.1719 63.8156 59.1858 67.5078 61.4668 69.1613V68.095C58.7831 66.2482 52.8389 62.9066 44.7554 62.5952ZM44.6956 59.4068C53.1028 59.4068 59.1636 62.9211 61.4668 64.505V63.4568C58.7785 61.7022 52.8141 58.5365 44.6848 58.5329C44.5935 58.5329 44.5002 58.536 44.4084 58.537L44.4832 59.4094C44.5502 59.4089 44.6183 59.4068 44.6848 59.4068C44.6889 59.4068 44.6915 59.4068 44.6956 59.4068ZM45.7974 55.345C53.6184 55.345 59.2538 58.4091 61.4668 59.8481V58.818C58.9053 57.2372 53.3581 54.4746 45.7887 54.4715C45.2267 54.4715 44.6492 54.4942 44.0661 54.5262L44.1403 55.3975C44.6982 55.3671 45.2509 55.345 45.7887 55.345C45.7918 55.345 45.7943 55.345 45.7974 55.345ZM46.892 51.2439C54.1459 51.2439 59.3559 53.8982 61.4668 55.1939V54.1787C59.0332 52.7629 53.8943 50.3726 46.8843 50.3705C45.9243 50.3705 44.9261 50.4175 43.7263 50.5469L43.8005 51.4172C44.9761 51.2898 45.949 51.2439 46.8843 51.2439C46.8869 51.2439 46.8895 51.2439 46.892 51.2439Z" fill="url(#paint22_linear_1_1863)"/>
</g>
<mask id="mask23_1_1863" style="mask-type:luminance" maskUnits="userSpaceOnUse" x="44" y="58" width="18" height="7">
<path d="M61.4668 64.505C59.1636 62.9211 53.1029 59.4068 44.6956 59.4068C44.6915 59.4068 44.6889 59.4068 44.6848 59.4068C44.6183 59.4068 44.5502 59.4089 44.4832 59.4094L44.4084 58.537C44.5002 58.536 44.5935 58.5329 44.6848 58.5329C52.8141 58.5365 58.7785 61.7022 61.4668 63.4568V64.505Z" fill="white"/>
</mask>
<g mask="url(#mask23_1_1863)">
<path d="M61.4668 64.505C59.1636 62.9211 53.1029 59.4068 44.6956 59.4068C44.6915 59.4068 44.6889 59.4068 44.6848 59.4068C44.6183 59.4068 44.5502 59.4089 44.4832 59.4094L44.4084 58.537C44.5002 58.536 44.5935 58.5329 44.6848 58.5329C52.8141 58.5365 58.7785 61.7022 61.4668 63.4568V64.505Z" fill="url(#paint23_linear_1_1863)"/>
</g>
<mask id="mask24_1_1863" style="mask-type:luminance" maskUnits="userSpaceOnUse" x="44" y="54" width="18" height="6">
<path d="M61.4668 59.8482C59.2538 58.4091 53.6184 55.345 45.7974 55.345C45.7943 55.345 45.7918 55.345 45.7887 55.345C45.2509 55.345 44.6982 55.3672 44.1403 55.3976L44.0661 54.5262C44.6492 54.4943 45.2267 54.4716 45.7887 54.4716C53.3581 54.4747 58.9053 57.2372 61.4668 58.818V59.8482Z" fill="white"/>
</mask>
<g mask="url(#mask24_1_1863)">
<path d="M61.4668 59.8482C59.2538 58.4091 53.6184 55.345 45.7974 55.345C45.7943 55.345 45.7918 55.345 45.7887 55.345C45.2509 55.345 44.6982 55.3672 44.1403 55.3976L44.0661 54.5262C44.6492 54.4943 45.2267 54.4716 45.7887 54.4716C53.3581 54.4747 58.9053 57.2372 61.4668 58.818V59.8482Z" fill="url(#paint24_linear_1_1863)"/>
</g>
<mask id="mask25_1_1863" style="mask-type:luminance" maskUnits="userSpaceOnUse" x="44" y="62" width="18" height="8">
<path d="M61.4668 69.1613C59.1858 67.5078 53.1719 63.8156 44.8297 63.4696L44.7554 62.5952C52.8389 62.9066 58.7831 66.2482 61.4668 68.095V69.1613Z" fill="white"/>
</mask>
<g mask="url(#mask25_1_1863)">
<path d="M61.4668 69.1613C59.1858 67.5078 53.1719 63.8156 44.8297 63.4696L44.7554 62.5952C52.8389 62.9066 58.7831 66.2482 61.4668 68.095V69.1613Z" fill="url(#paint25_linear_1_1863)"/>
</g>
<mask id="mask26_1_1863" style="mask-type:luminance" maskUnits="userSpaceOnUse" x="43" y="42" width="5" height="2">
<path d="M43.1261 43.5173L43.0514 42.6439C44.3476 42.4186 45.4231 42.2722 46.3708 42.1809C46.5677 42.4583 46.7868 42.7321 47.0287 43.0007C45.9495 43.0827 44.7085 43.2399 43.1261 43.5173Z" fill="white"/>
</mask>
<g mask="url(#mask26_1_1863)">
<path d="M43.1261 43.5173L43.0514 42.6439C44.3476 42.4186 45.4231 42.2722 46.3708 42.1809C46.5677 42.4583 46.7868 42.7321 47.0287 43.0007C45.9495 43.0827 44.7085 43.2399 43.1261 43.5173Z" fill="url(#paint26_linear_1_1863)"/>
</g>
<mask id="mask27_1_1863" style="mask-type:luminance" maskUnits="userSpaceOnUse" x="43" y="46" width="19" height="5">
<path d="M61.4668 50.5396C59.4601 49.3816 54.6661 47.1037 47.9758 47.1037C47.9738 47.1037 47.9717 47.1037 47.9696 47.1037C46.7054 47.1037 45.3705 47.1857 43.4608 47.4399L43.3865 46.5691C45.3133 46.3139 46.6776 46.2303 47.9696 46.2303C49.5546 46.2308 51.0358 46.3546 52.4037 46.5598C54.2372 47.31 56.2717 47.8312 58.383 48.1241C59.6632 48.6129 60.6996 49.1192 61.4668 49.5379V50.5396Z" fill="white"/>
</mask>
<g mask="url(#mask27_1_1863)">
<path d="M61.4668 50.5396C59.4601 49.3816 54.6661 47.1037 47.9758 47.1037C47.9738 47.1037 47.9717 47.1037 47.9696 47.1037C46.7054 47.1037 45.3705 47.1857 43.4608 47.4399L43.3865 46.5691C45.3133 46.3139 46.6776 46.2303 47.9696 46.2303C49.5546 46.2308 51.0358 46.3546 52.4037 46.5598C54.2372 47.31 56.2717 47.8312 58.383 48.1241C59.6632 48.6129 60.6996 49.1192 61.4668 49.5379V50.5396Z" fill="url(#paint27_linear_1_1863)"/>
</g>
<mask id="mask28_1_1863" style="mask-type:luminance" maskUnits="userSpaceOnUse" x="43" y="50" width="19" height="6">
<path d="M61.4667 55.1939C59.3559 53.8982 54.1459 51.244 46.892 51.244C46.8894 51.244 46.8868 51.244 46.8843 51.244C45.949 51.244 44.9761 51.2899 43.8005 51.4172L43.7263 50.5469C44.926 50.4175 45.9242 50.3706 46.8843 50.3706C53.8942 50.3726 59.0331 52.7629 61.4667 54.1787V55.1939Z" fill="white"/>
</mask>
<g mask="url(#mask28_1_1863)">
<path d="M61.4667 55.1939C59.3559 53.8982 54.1459 51.244 46.892 51.244C46.8894 51.244 46.8868 51.244 46.8843 51.244C45.949 51.244 44.9761 51.2899 43.8005 51.4172L43.7263 50.5469C44.926 50.4175 45.9242 50.3706 46.8843 50.3706C53.8942 50.3726 59.0331 52.7629 61.4667 54.1787V55.1939Z" fill="url(#paint28_linear_1_1863)"/>
</g>
<mask id="mask29_1_1863" style="mask-type:luminance" maskUnits="userSpaceOnUse" x="37" y="42" width="26" height="33">
<path d="M62.7774 74.0032C61.078 73.1612 59.2626 72.5853 57.4297 72.1326C55.5931 71.6887 53.7282 71.3654 51.8474 71.1978C51.3777 71.153 50.9054 71.137 50.4352 71.1051L49.7288 71.0628L49.0209 71.0571L47.6066 71.0411L46.1929 71.0978C45.2488 71.1102 44.3125 71.2458 43.3731 71.3226C42.4363 71.4283 41.5072 71.5985 40.574 71.7325L40.3522 71.7645L40.3291 71.5479C39.8207 66.7937 39.3737 62.0327 38.8967 57.2753L38.2337 50.1334L37.6181 42.9862L38.4621 50.1096L39.2587 57.2382C39.7547 61.994 40.2806 66.7468 40.7446 71.5057L40.5002 71.3211C41.4432 71.1912 42.3816 71.0256 43.3282 70.9246C44.2774 70.8529 45.2225 70.722 46.1759 70.7147L47.6025 70.6668L49.0302 70.6977L49.7438 70.7168L50.4558 70.7725C50.9296 70.8132 51.405 70.8385 51.8778 70.8921C53.7685 71.1025 55.6457 71.4443 57.4776 71.9511C59.3044 72.4667 61.1058 73.105 62.7774 74.0032Z" fill="white"/>
</mask>
<g mask="url(#mask29_1_1863)">
<path d="M62.7774 74.0032C61.078 73.1612 59.2626 72.5853 57.4297 72.1326C55.5931 71.6887 53.7282 71.3654 51.8474 71.1978C51.3777 71.153 50.9054 71.137 50.4352 71.1051L49.7288 71.0628L49.0209 71.0571L47.6066 71.0411L46.1929 71.0978C45.2488 71.1102 44.3125 71.2458 43.3731 71.3226C42.4363 71.4283 41.5072 71.5985 40.574 71.7325L40.3522 71.7645L40.3291 71.5479C39.8207 66.7937 39.3737 62.0327 38.8967 57.2753L38.2337 50.1334L37.6181 42.9862L38.4621 50.1096L39.2587 57.2382C39.7547 61.994 40.2806 66.7468 40.7446 71.5057L40.5002 71.3211C41.4432 71.1912 42.3816 71.0256 43.3282 70.9246C44.2774 70.8529 45.2225 70.722 46.1759 70.7147L47.6025 70.6668L49.0302 70.6977L49.7438 70.7168L50.4558 70.7725C50.9296 70.8132 51.405 70.8385 51.8778 70.8921C53.7685 71.1025 55.6457 71.4443 57.4776 71.9511C59.3044 72.4667 61.1058 73.105 62.7774 74.0032Z" fill="url(#paint29_linear_1_1863)"/>
</g>
<mask id="mask30_1_1863" style="mask-type:luminance" maskUnits="userSpaceOnUse" x="39" y="40" width="24" height="35">
<path d="M62.7774 74.0032C61.2672 73.0463 59.6307 72.3105 57.9607 71.6933C56.2856 71.0901 54.5774 70.5693 52.829 70.2342C51.0827 69.9027 49.3174 69.6537 47.5406 69.5856C46.6543 69.5119 45.7649 69.548 44.8766 69.5449C43.9887 69.5567 43.1029 69.6501 42.2166 69.698L42.0114 69.7093L41.9913 69.5119C41.5113 64.7133 41.1066 59.9079 40.6626 55.1062L40.0547 47.8978L39.4958 40.6852L40.2878 47.8761L41.0303 55.0717C41.4871 59.8724 41.982 64.6694 42.4022 69.4732L42.1774 69.2871C43.0746 69.2438 43.9702 69.1556 44.8683 69.1489C45.7665 69.1577 46.6657 69.1272 47.5612 69.2072C49.3576 69.2768 51.1363 69.5774 52.8909 69.9419C54.6449 70.3203 56.3645 70.855 58.0262 71.5247C59.6833 72.2012 61.2997 72.9952 62.7774 74.0032Z" fill="white"/>
</mask>
<g mask="url(#mask30_1_1863)">
<path d="M62.7774 74.0032C61.2672 73.0463 59.6307 72.3105 57.9607 71.6933C56.2856 71.0901 54.5774 70.5693 52.829 70.2342C51.0827 69.9027 49.3174 69.6537 47.5406 69.5856C46.6543 69.5119 45.7649 69.548 44.8766 69.5449C43.9887 69.5567 43.1029 69.6501 42.2166 69.698L42.0114 69.7093L41.9913 69.5119C41.5113 64.7133 41.1066 59.9079 40.6626 55.1062L40.0547 47.8978L39.4958 40.6852L40.2878 47.8761L41.0303 55.0717C41.4871 59.8724 41.982 64.6694 42.4022 69.4732L42.1774 69.2871C43.0746 69.2438 43.9702 69.1556 44.8683 69.1489C45.7665 69.1577 46.6657 69.1272 47.5612 69.2072C49.3576 69.2768 51.1363 69.5774 52.8909 69.9419C54.6449 70.3203 56.3645 70.855 58.0262 71.5247C59.6833 72.2012 61.2997 72.9952 62.7774 74.0032Z" fill="url(#paint30_linear_1_1863)"/>
</g>
<mask id="mask31_1_1863" style="mask-type:luminance" maskUnits="userSpaceOnUse" x="41" y="38" width="22" height="37">
<path d="M62.7774 74.0032C61.4477 72.94 59.9896 72.0512 58.4836 71.27C56.9734 70.4977 55.4209 69.8037 53.8097 69.2757C52.2047 68.7364 50.5615 68.3095 48.892 68.0373C47.2282 67.7217 45.5345 67.6243 43.8464 67.5738L43.6613 67.5681L43.6448 67.3871C43.2009 62.5416 42.825 57.6909 42.4208 52.8423L41.8666 45.5652L41.3639 38.2835L42.1027 45.5451L42.791 52.8108C43.2148 57.6574 43.667 62.5019 44.0516 67.3521L43.85 67.1654C45.5608 67.2273 47.2751 67.3376 48.957 67.6671C50.6471 67.9465 52.2965 68.4312 53.9061 68.9999C55.5174 69.5712 57.0811 70.2765 58.5666 71.1164C60.053 71.9527 61.4843 72.8947 62.7774 74.0032Z" fill="white"/>
</mask>
<g mask="url(#mask31_1_1863)">
<path d="M62.7774 74.0032C61.4477 72.94 59.9896 72.0512 58.4836 71.27C56.9734 70.4977 55.4209 69.8037 53.8097 69.2757C52.2047 68.7364 50.5615 68.3095 48.892 68.0373C47.2282 67.7217 45.5345 67.6243 43.8464 67.5738L43.6613 67.5681L43.6448 67.3871C43.2009 62.5416 42.825 57.6909 42.4208 52.8423L41.8666 45.5652L41.3639 38.2835L42.1027 45.5451L42.791 52.8108C43.2148 57.6574 43.667 62.5019 44.0516 67.3521L43.85 67.1654C45.5608 67.2273 47.2751 67.3376 48.957 67.6671C50.6471 67.9465 52.2965 68.4312 53.9061 68.9999C55.5174 69.5712 57.0811 70.2765 58.5666 71.1164C60.053 71.9527 61.4843 72.8947 62.7774 74.0032Z" fill="url(#paint31_linear_1_1863)"/>
</g>
<mask id="mask32_1_1863" style="mask-type:luminance" maskUnits="userSpaceOnUse" x="31" y="5" width="63" height="37">
<path d="M62.5139 41.5426L45.0607 31.4834V31.4839L31.5568 23.701V22.0408H34.4276L62.4866 5.8126L90.6441 22.0408H93.4432V23.6541L68.2906 38.2015L62.7774 41.39L62.5134 41.5426" fill="white"/>
</mask>
<g mask="url(#mask32_1_1863)">
<path d="M62.5139 41.5426L45.0607 31.4834V31.4839L31.5568 23.701V22.0408H34.4276L62.4866 5.8126L90.6441 22.0408H93.4432V23.6541L68.2906 38.2015L62.7774 41.39L62.5134 41.5426" fill="url(#paint32_linear_1_1863)"/>
</g>
<mask id="mask33_1_1863" style="mask-type:luminance" maskUnits="userSpaceOnUse" x="45" y="31" width="35" height="18">
<path d="M62.501 48.4051C61.1177 48.4051 59.7343 48.3113 58.383 48.1241C56.2716 47.8313 54.2371 47.31 52.4037 46.5598C51.6189 46.2391 50.8708 45.8761 50.1686 45.4714C48.8765 44.7259 47.8298 43.8911 47.0286 43.0007C46.7868 42.7321 46.5677 42.4583 46.3707 42.1809C45.5014 40.9553 45.0668 39.6493 45.0658 38.3428L45.0653 37.6004L45.0622 33.8866L62.5134 43.9442L79.9589 33.8546L79.962 37.538L79.9625 38.316C79.9636 39.606 79.5413 40.9007 78.6911 42.1154C78.6859 42.1221 78.6813 42.1293 78.6761 42.1366C78.4792 42.4176 78.2595 42.6944 78.0167 42.9667C77.217 43.8622 76.1693 44.7027 74.8757 45.4528C74.0456 45.9329 73.1516 46.3541 72.2086 46.7171C70.7572 47.2755 69.1903 47.6957 67.5657 47.9767C66.006 48.2468 64.3932 48.3891 62.7774 48.4036C62.6851 48.4046 62.5933 48.4051 62.501 48.4051Z" fill="white"/>
</mask>
<g mask="url(#mask33_1_1863)">
<path d="M62.501 48.4051C61.1177 48.4051 59.7343 48.3113 58.383 48.1241C56.2716 47.8313 54.2371 47.31 52.4037 46.5598C51.6189 46.2391 50.8708 45.8761 50.1686 45.4714C48.8765 44.7259 47.8298 43.8911 47.0286 43.0007C46.7868 42.7321 46.5677 42.4583 46.3707 42.1809C45.5014 40.9553 45.0668 39.6493 45.0658 38.3428L45.0653 37.6004L45.0622 33.8866L62.5134 43.9442L79.9589 33.8546L79.962 37.538L79.9625 38.316C79.9636 39.606 79.5413 40.9007 78.6911 42.1154C78.6859 42.1221 78.6813 42.1293 78.6761 42.1366C78.4792 42.4176 78.2595 42.6944 78.0167 42.9667C77.217 43.8622 76.1693 44.7027 74.8757 45.4528C74.0456 45.9329 73.1516 46.3541 72.2086 46.7171C70.7572 47.2755 69.1903 47.6957 67.5657 47.9767C66.006 48.2468 64.3932 48.3891 62.7774 48.4036C62.6851 48.4046 62.5933 48.4051 62.501 48.4051Z" fill="url(#paint33_linear_1_1863)"/>
</g>
<mask id="mask34_1_1863" style="mask-type:luminance" maskUnits="userSpaceOnUse" x="31" y="4" width="63" height="36">
<path d="M62.4866 4.19933L31.5568 22.0878L62.5134 39.9293L93.4432 22.0409L62.4866 4.19933Z" fill="white"/>
</mask>
<g mask="url(#mask34_1_1863)">
<path d="M62.6802 4.07055L31.7504 21.959L62.707 39.8005L93.6368 21.9121L62.6802 4.07055Z" fill="url(#paint34_linear_1_1863)"/>
</g>
<mask id="mask35_1_1863" style="mask-type:luminance" maskUnits="userSpaceOnUse" x="45" y="31" width="35" height="13">
<path d="M62.5134 43.9442L45.0622 33.8866L45.0606 31.4834L62.5139 41.5426L62.7774 41.39L68.2906 38.2015L79.9574 31.454L79.9589 33.8546L62.5134 43.9442Z" fill="white"/>
</mask>
<g mask="url(#mask35_1_1863)">
<path d="M62.5134 43.9442L45.0622 33.8866L45.0606 31.4834L62.5139 41.5426L62.7774 41.39L68.2906 38.2015L79.9574 31.454L79.9589 33.8546L62.5134 43.9442Z" fill="url(#paint35_linear_1_1863)"/>
</g>
<mask id="mask36_1_1863" style="mask-type:luminance" maskUnits="userSpaceOnUse" x="59" y="20" width="7" height="4">
<path d="M65.4105 22.0646C65.4105 23.0163 64.1076 23.7882 62.5 23.7882C60.8924 23.7882 59.5895 23.0163 59.5895 22.0646C59.5895 21.1123 60.8924 20.3404 62.5 20.3404C64.1076 20.3404 65.4105 21.1123 65.4105 22.0646Z" fill="white"/>
</mask>
<g mask="url(#mask36_1_1863)">
<path d="M65.4105 22.0646C65.4105 23.0163 64.1076 23.7882 62.5 23.7882C60.8924 23.7882 59.5895 23.0163 59.5895 22.0646C59.5895 21.1123 60.8924 20.3404 62.5 20.3404C64.1076 20.3404 65.4105 21.1123 65.4105 22.0646Z" fill="url(#paint36_linear_1_1863)"/>
</g>
<mask id="mask37_1_1863" style="mask-type:luminance" maskUnits="userSpaceOnUse" x="77" y="41" width="2" height="6">
<path d="M78.1709 46.65C77.8316 46.65 77.5568 46.3752 77.5568 46.0365V42.4072C77.5568 42.0685 77.8316 41.7932 78.1709 41.7932C78.5096 41.7932 78.7844 42.0685 78.7844 42.4072V46.0365C78.7844 46.3752 78.5096 46.65 78.1709 46.65Z" fill="white"/>
</mask>
<g mask="url(#mask37_1_1863)">
<path d="M78.1709 46.65C77.8316 46.65 77.5568 46.3752 77.5568 46.0365V42.4072C77.5568 42.0685 77.8316 41.7932 78.1709 41.7932C78.5096 41.7932 78.7844 42.0685 78.7844 42.4072V46.0365C78.7844 46.3752 78.5096 46.65 78.1709 46.65Z" fill="url(#paint37_linear_1_1863)"/>
</g>
<mask id="mask38_1_1863" style="mask-type:luminance" maskUnits="userSpaceOnUse" x="77" y="41" width="2" height="4">
<path d="M78.1709 44.3825C77.7187 44.3825 77.3521 44.0159 77.3521 43.5637V42.679C77.3521 42.2268 77.7187 41.8602 78.1709 41.8602C78.6231 41.8602 78.9891 42.2268 78.9891 42.679V43.5637C78.9891 44.0159 78.6231 44.3825 78.1709 44.3825Z" fill="white"/>
</mask>
<g mask="url(#mask38_1_1863)">
<path d="M78.1709 44.3825C77.7187 44.3825 77.3521 44.0159 77.3521 43.5637V42.679C77.3521 42.2268 77.7187 41.8602 78.1709 41.8602C78.6231 41.8602 78.9891 42.2268 78.9891 42.679V43.5637C78.9891 44.0159 78.6231 44.3825 78.1709 44.3825Z" fill="url(#paint38_radial_1_1863)"/>
</g>
<mask id="mask39_1_1863" style="mask-type:luminance" maskUnits="userSpaceOnUse" x="62" y="21" width="17" height="22">
<path d="M78.1709 42.8166C77.9445 42.8166 77.7615 42.633 77.7615 42.4072V31.1106L62.6809 22.4188C62.485 22.3059 62.418 22.0558 62.5309 21.8599C62.6438 21.6645 62.8939 21.5969 63.0898 21.7098L78.375 30.5192C78.5019 30.5924 78.5802 30.727 78.5802 30.874V42.4072C78.5802 42.633 78.3967 42.8166 78.1709 42.8166Z" fill="white"/>
</mask>
<g mask="url(#mask39_1_1863)">
<path d="M78.1709 42.8166C77.9445 42.8166 77.7615 42.633 77.7615 42.4072V31.1106L62.6809 22.4188C62.485 22.3059 62.418 22.0558 62.5309 21.8599C62.6438 21.6645 62.8939 21.5969 63.0898 21.7098L78.375 30.5192C78.5019 30.5924 78.5802 30.727 78.5802 30.874V42.4072C78.5802 42.633 78.3967 42.8166 78.1709 42.8166Z" fill="url(#paint39_linear_1_1863)"/>
</g>
<mask id="mask40_1_1863" style="mask-type:luminance" maskUnits="userSpaceOnUse" x="91" y="0" width="10" height="9">
<path d="M96.7873 0.329801L97.7958 2.3731L100.051 2.70101C100.536 2.77113 100.73 3.36767 100.379 3.71002L98.7471 5.30063L99.1322 7.54655C99.2152 8.03017 98.7079 8.39881 98.2738 8.1704L96.2568 7.11034L94.2398 8.1704C93.8057 8.39881 93.2983 8.03017 93.3813 7.54655L93.7665 5.30063L92.1346 3.71002C91.7835 3.36767 91.9774 2.77113 92.4625 2.70101L94.7177 2.3731L95.7262 0.329801C95.9433 -0.109999 96.5703 -0.109999 96.7873 0.329801Z" fill="white"/>
</mask>
<g mask="url(#mask40_1_1863)">
<path d="M96.7873 0.329801L97.7958 2.3731L100.051 2.70101C100.536 2.77113 100.73 3.36767 100.379 3.71002L98.7471 5.30063L99.1322 7.54655C99.2152 8.03017 98.7079 8.39881 98.2738 8.1704L96.2568 7.11034L94.2398 8.1704C93.8057 8.39881 93.2983 8.03017 93.3813 7.54655L93.7665 5.30063L92.1346 3.71002C91.7835 3.36767 91.9774 2.77113 92.4625 2.70101L94.7177 2.3731L95.7262 0.329801C95.9433 -0.109999 96.5703 -0.109999 96.7873 0.329801Z" fill="url(#paint40_radial_1_1863)"/>
</g>
<mask id="mask41_1_1863" style="mask-type:luminance" maskUnits="userSpaceOnUse" x="76" y="0" width="9" height="9">
<path d="M81.1603 0.329801L82.1688 2.3731L84.424 2.70101C84.9092 2.77113 85.103 3.36767 84.7519 3.71002L83.1201 5.30063L83.5052 7.54655C83.5882 8.03017 83.0809 8.39881 82.6468 8.1704L80.6298 7.11034L78.6128 8.1704C78.1786 8.39881 77.6713 8.03017 77.7543 7.54655L78.1395 5.30063L76.5076 3.71002C76.1565 3.36767 76.3504 2.77113 76.8355 2.70101L79.0907 2.3731L80.0992 0.329801C80.3163 -0.109999 80.9432 -0.109999 81.1603 0.329801Z" fill="white"/>
</mask>
<g mask="url(#mask41_1_1863)">
<path d="M81.1603 0.329801L82.1688 2.3731L84.424 2.70101C84.9092 2.77113 85.103 3.36767 84.7519 3.71002L83.1201 5.30063L83.5052 7.54655C83.5882 8.03017 83.0809 8.39881 82.6468 8.1704L80.6298 7.11034L78.6128 8.1704C78.1786 8.39881 77.6713 8.03017 77.7543 7.54655L78.1395 5.30063L76.5076 3.71002C76.1565 3.36767 76.3504 2.77113 76.8355 2.70101L79.0907 2.3731L80.0992 0.329801C80.3163 -0.109999 80.9432 -0.109999 81.1603 0.329801Z" fill="url(#paint41_radial_1_1863)"/>
</g>
<mask id="mask42_1_1863" style="mask-type:luminance" maskUnits="userSpaceOnUse" x="41" y="0" width="10" height="9">
<path d="M46.76 0.329801L47.7685 2.3731L50.0237 2.70101C50.5089 2.77113 50.7027 3.36767 50.3516 3.71002L48.7198 5.30063L49.1049 7.54655C49.1879 8.03017 48.6806 8.39881 48.2465 8.1704L46.2295 7.11034L44.2125 8.1704C43.7783 8.39881 43.271 8.03017 43.354 7.54655L43.7392 5.30063L42.1073 3.71002C41.7562 3.36767 41.9501 2.77113 42.4352 2.70101L44.6904 2.3731L45.6989 0.329801C45.916 -0.109999 46.5429 -0.109999 46.76 0.329801Z" fill="white"/>
</mask>
<g mask="url(#mask42_1_1863)">
<path d="M46.76 0.329801L47.7685 2.3731L50.0237 2.70101C50.5089 2.77113 50.7027 3.36767 50.3516 3.71002L48.7198 5.30063L49.1049 7.54655C49.1879 8.03017 48.6806 8.39881 48.2465 8.1704L46.2295 7.11034L44.2125 8.1704C43.7783 8.39881 43.271 8.03017 43.354 7.54655L43.7392 5.30063L42.1073 3.71002C41.7562 3.36767 41.9501 2.77113 42.4352 2.70101L44.6904 2.3731L45.6989 0.329801C45.916 -0.109999 46.5429 -0.109999 46.76 0.329801Z" fill="url(#paint42_radial_1_1863)"/>
</g>
<mask id="mask43_1_1863" style="mask-type:luminance" maskUnits="userSpaceOnUse" x="26" y="0" width="9" height="9">
<path d="M31.133 0.329801L32.1415 2.3731L34.3967 2.70101C34.8818 2.77113 35.0757 3.36767 34.7246 3.71002L33.0927 5.30063L33.4779 7.54655C33.5609 8.03017 33.0535 8.39881 32.6194 8.1704L30.6024 7.11034L28.5854 8.1704C28.1513 8.39881 27.644 8.03017 27.727 7.54655L28.1121 5.30063L26.4803 3.71002C26.1291 3.36767 26.323 2.77113 26.8082 2.70101L29.0634 2.3731L30.0719 0.329801C30.2889 -0.109999 30.9159 -0.109999 31.133 0.329801Z" fill="white"/>
</mask>
<g mask="url(#mask43_1_1863)">
<path d="M31.133 0.329801L32.1415 2.3731L34.3967 2.70101C34.8818 2.77113 35.0757 3.36767 34.7246 3.71002L33.0927 5.30063L33.4779 7.54655C33.5609 8.03017 33.0535 8.39881 32.6194 8.1704L30.6024 7.11034L28.5854 8.1704C28.1513 8.39881 27.644 8.03017 27.727 7.54655L28.1121 5.30063L26.4803 3.71002C26.1291 3.36767 26.323 2.77113 26.8082 2.70101L29.0634 2.3731L30.0719 0.329801C30.2889 -0.109999 30.9159 -0.109999 31.133 0.329801Z" fill="url(#paint43_radial_1_1863)"/>
</g>
<path d="M159.152 41.9163V48.5695H139V20.7827H158.793V27.4359H146.766V31.3495H157.041V37.5331H146.766V41.9163H159.152Z" fill="url(#paint44_linear_1_1863)"/>
<path d="M160.78 38.2375C160.78 36.2024 161.165 34.3891 161.935 32.7976C162.732 31.1799 163.82 29.9145 165.201 29.0013C166.582 28.0621 168.161 27.5924 169.94 27.5924C171.294 27.5924 172.542 27.9055 173.684 28.5317C174.826 29.1318 175.688 29.9667 176.273 31.0364V20H183.839V40.3509C183.839 41.0553 183.946 41.5511 184.158 41.8381C184.37 42.099 184.742 42.2555 185.273 42.3077V48.5695C183.972 48.8304 182.91 48.9609 182.087 48.9609C180.813 48.9609 179.804 48.726 179.06 48.2564C178.317 47.7868 177.839 47.0693 177.627 46.1039L177.467 45.3603C176.75 46.6127 175.781 47.5259 174.56 48.0999C173.339 48.6739 172.038 48.9609 170.657 48.9609C169.223 48.9609 167.896 48.7 166.675 48.1781C165.48 47.6563 164.431 46.9258 163.528 45.9865C162.652 45.0211 161.975 43.8862 161.497 42.5816C161.019 41.251 160.78 39.803 160.78 38.2375ZM176.312 40.5857V36.9069C176.073 36.3068 175.742 35.785 175.317 35.3414C174.918 34.8718 174.467 34.5065 173.963 34.2456C173.458 33.9847 172.94 33.8543 172.409 33.8543C171.852 33.8543 171.334 33.9717 170.856 34.2065C170.405 34.4413 170.007 34.7674 169.661 35.1849C169.316 35.6023 169.051 36.085 168.865 36.6329C168.679 37.1808 168.586 37.7679 168.586 38.3941C168.586 39.0463 168.679 39.6334 168.865 40.1552C169.077 40.677 169.369 41.1336 169.741 41.525C170.113 41.8902 170.551 42.1772 171.055 42.386C171.56 42.5947 172.117 42.6991 172.728 42.6991C173.1 42.6991 173.445 42.6599 173.764 42.5816C174.082 42.4773 174.387 42.3468 174.679 42.1903C174.972 42.0076 175.25 41.7859 175.516 41.525C175.808 41.238 176.073 40.9249 176.312 40.5857Z" fill="url(#paint45_linear_1_1863)"/>
<path d="M188.182 41.525V27.9838H195.749V39.8421C195.749 40.7292 195.948 41.4336 196.346 41.9555C196.771 42.4512 197.342 42.6991 198.059 42.6991C198.457 42.6991 198.855 42.6469 199.254 42.5425C199.652 42.4381 200.05 42.2294 200.448 41.9163C200.873 41.6032 201.285 41.1597 201.683 40.5857V27.9838H209.25V40.3509C209.25 41.0553 209.356 41.5511 209.568 41.8381C209.781 42.099 210.152 42.2555 210.684 42.3077V48.5695C210.02 48.7 209.422 48.7913 208.891 48.8435C208.36 48.9217 207.896 48.9609 207.497 48.9609C206.223 48.9609 205.214 48.726 204.471 48.2564C203.727 47.7868 203.249 47.0693 203.037 46.1039L202.878 45.3603C201.895 46.6388 200.714 47.565 199.333 48.139C197.979 48.6869 196.439 48.9609 194.713 48.9609C192.616 48.9609 190.996 48.3216 189.855 47.0432C188.74 45.7647 188.182 43.9253 188.182 41.525Z" fill="url(#paint46_linear_1_1863)"/>
<path d="M239.306 20.7827V48.5695H231.54V37.6896H222.062V48.5695H214.296V20.7827H222.062V31.0364H231.54V20.7827H239.306Z" fill="url(#paint47_linear_1_1863)"/>
<path d="M243.448 41.525V27.9838H251.015V39.8421C251.015 40.7292 251.214 41.4336 251.612 41.9555C252.037 42.4512 252.608 42.6991 253.325 42.6991C253.723 42.6991 254.121 42.6469 254.519 42.5425C254.918 42.4381 255.316 42.2294 255.714 41.9163C256.139 41.6032 256.551 41.1597 256.949 40.5857V27.9838H264.516V40.3509C264.516 41.0553 264.622 41.5511 264.834 41.8381C265.047 42.099 265.418 42.2555 265.949 42.3077V48.5695C265.286 48.7 264.688 48.7913 264.157 48.8435C263.626 48.9217 263.162 48.9609 262.763 48.9609C261.489 48.9609 260.48 48.726 259.737 48.2564C258.993 47.7868 258.515 47.0693 258.303 46.1039L258.144 45.3603C257.161 46.6388 255.98 47.565 254.599 48.139C253.245 48.6869 251.705 48.9609 249.979 48.9609C247.882 48.9609 246.262 48.3216 245.121 47.0432C244.005 45.7647 243.448 43.9253 243.448 41.525Z" fill="url(#paint48_linear_1_1863)"/>
<path d="M282.385 48.9609C280.819 48.9609 279.465 48.6608 278.323 48.0607C277.181 47.4345 276.279 46.5344 275.615 45.3603V48.5695H269.044V20H276.611V31.0364C277.221 29.9145 278.084 29.0666 279.199 28.4926C280.314 27.8925 281.629 27.5924 283.142 27.5924C284.416 27.5924 285.598 27.8664 286.687 28.4143C287.775 28.9361 288.718 29.6797 289.514 30.6451C290.337 31.6104 290.974 32.7584 291.426 34.0891C291.877 35.3936 292.103 36.8156 292.103 38.3549C292.103 39.8682 291.851 41.2771 291.346 42.5816C290.868 43.8601 290.191 44.982 289.315 45.9474C288.465 46.9127 287.443 47.6563 286.248 48.1781C285.08 48.7 283.793 48.9609 282.385 48.9609ZM280.195 42.6991C280.806 42.6991 281.363 42.5947 281.868 42.386C282.372 42.1772 282.81 41.8902 283.182 41.525C283.554 41.1336 283.832 40.677 284.018 40.1552C284.231 39.6334 284.337 39.0463 284.337 38.3941C284.337 37.5592 284.164 36.8025 283.819 36.1242C283.5 35.4197 283.049 34.8718 282.465 34.4804C281.907 34.063 281.257 33.8543 280.514 33.8543C279.983 33.8543 279.465 33.9847 278.96 34.2456C278.456 34.5065 277.991 34.8718 277.566 35.3414C277.168 35.785 276.85 36.3068 276.611 36.9069V40.5857C276.85 40.9249 277.102 41.238 277.367 41.525C277.659 41.7859 277.951 42.0076 278.243 42.1903C278.536 42.3468 278.841 42.4773 279.159 42.5816C279.505 42.6599 279.85 42.6991 280.195 42.6991Z" fill="url(#paint49_linear_1_1863)"/>
<path d="M302.739 34.4413C302.739 32.7454 303.058 31.0886 303.695 29.471C304.359 27.8273 305.315 26.3401 306.562 25.0094C307.81 23.6788 309.324 22.6221 311.103 21.8394C312.908 21.0306 314.939 20.6262 317.196 20.6262C319.904 20.6262 322.267 21.1871 324.285 22.309C326.303 23.4049 327.803 24.8659 328.785 26.6923L322.851 30.8408C322.506 29.9276 322.001 29.2231 321.338 28.7274C320.701 28.2317 319.997 27.8925 319.227 27.7099C318.484 27.5011 317.753 27.3968 317.037 27.3968C315.921 27.3968 314.952 27.6185 314.129 28.0621C313.333 28.4795 312.669 29.0405 312.138 29.7449C311.634 30.4494 311.249 31.2321 310.983 32.0931C310.744 32.9541 310.625 33.8151 310.625 34.6761C310.625 35.6415 310.771 36.5677 311.063 37.4548C311.355 38.3419 311.78 39.1377 312.337 39.8421C312.895 40.5205 313.572 41.0553 314.368 41.4467C315.191 41.8381 316.107 42.0337 317.116 42.0337C317.833 42.0337 318.563 41.9294 319.307 41.7206C320.05 41.4858 320.727 41.1206 321.338 40.6248C321.948 40.1291 322.413 39.4638 322.732 38.6289L329.064 42.3468C328.506 43.7036 327.577 44.8646 326.276 45.83C324.975 46.7953 323.502 47.5389 321.855 48.0607C320.209 48.5565 318.576 48.8043 316.957 48.8043C314.859 48.8043 312.935 48.3999 311.182 47.5911C309.456 46.7562 307.956 45.6604 306.682 44.3036C305.434 42.9208 304.465 41.3815 303.775 39.6856C303.084 37.9636 302.739 36.2155 302.739 34.4413Z" fill="url(#paint50_linear_1_1863)"/>
<path d="M341.431 48.9609C339.572 48.9609 337.926 48.6739 336.492 48.0999C335.059 47.5259 333.851 46.7431 332.868 45.7517C331.912 44.7341 331.182 43.5861 330.678 42.3077C330.2 41.0292 329.961 39.6856 329.961 38.2767C329.961 36.8677 330.2 35.5241 330.678 34.2456C331.182 32.9411 331.912 31.7931 332.868 30.8016C333.851 29.8102 335.059 29.0274 336.492 28.4534C337.926 27.8794 339.572 27.5924 341.431 27.5924C343.316 27.5924 344.962 27.8794 346.369 28.4534C347.803 29.0274 348.998 29.8102 349.953 30.8016C350.936 31.7931 351.666 32.9411 352.144 34.2456C352.648 35.5241 352.901 36.8677 352.901 38.2767C352.901 39.6856 352.648 41.0292 352.144 42.3077C351.666 43.5861 350.936 44.7341 349.953 45.7517C348.998 46.7431 347.803 47.5259 346.369 48.0999C344.962 48.6739 343.316 48.9609 341.431 48.9609ZM337.727 38.2767C337.727 39.1898 337.886 39.9856 338.205 40.664C338.523 41.3162 338.962 41.825 339.519 42.1903C340.077 42.5295 340.714 42.6991 341.431 42.6991C342.148 42.6991 342.785 42.5295 343.342 42.1903C343.9 41.825 344.338 41.3162 344.657 40.664C344.975 39.9856 345.135 39.1898 345.135 38.2767C345.135 37.3635 344.975 36.5807 344.657 35.9285C344.338 35.2501 343.9 34.7413 343.342 34.4022C342.785 34.0369 342.148 33.8543 341.431 33.8543C340.714 33.8543 340.077 34.0369 339.519 34.4022C338.962 34.7413 338.523 35.2501 338.205 35.9285C337.886 36.5807 337.727 37.3635 337.727 38.2767Z" fill="url(#paint51_linear_1_1863)"/>
<path d="M376.647 48.5695H369.08V36.9852C369.08 35.9676 368.841 35.2371 368.363 34.7935C367.912 34.3239 367.381 34.0891 366.77 34.0891C366.345 34.0891 365.894 34.2195 365.416 34.4804C364.938 34.7152 364.5 35.0544 364.102 35.498C363.704 35.9415 363.385 36.4503 363.146 37.0243V48.5695H355.579V27.9838H362.389V31.0364C362.894 30.2798 363.531 29.6536 364.301 29.1579C365.071 28.6361 365.96 28.2447 366.969 27.9838C367.978 27.7229 369.08 27.5924 370.275 27.5924C371.709 27.5924 372.85 27.8403 373.7 28.336C374.549 28.8318 375.187 29.471 375.611 30.2537C376.036 31.0364 376.315 31.8583 376.448 32.7193C376.581 33.5542 376.647 34.3239 376.647 35.0283V48.5695Z" fill="url(#paint52_linear_1_1863)"/>
<path d="M401.382 48.5695H393.816V36.9852C393.816 35.9676 393.577 35.2371 393.099 34.7935C392.647 34.3239 392.116 34.0891 391.506 34.0891C391.081 34.0891 390.63 34.2195 390.152 34.4804C389.674 34.7152 389.236 35.0544 388.837 35.498C388.439 35.9415 388.12 36.4503 387.882 37.0243V48.5695H380.315V27.9838H387.125V31.0364C387.629 30.2798 388.267 29.6536 389.036 29.1579C389.806 28.6361 390.696 28.2447 391.705 27.9838C392.714 27.7229 393.816 27.5924 395.01 27.5924C396.444 27.5924 397.586 27.8403 398.435 28.336C399.285 28.8318 399.922 29.471 400.347 30.2537C400.772 31.0364 401.051 31.8583 401.183 32.7193C401.316 33.5542 401.382 34.3239 401.382 35.0283V48.5695Z" fill="url(#paint53_linear_1_1863)"/>
<path d="M415.365 48.9609C413.533 48.9609 411.9 48.6869 410.466 48.139C409.033 47.565 407.825 46.7953 406.842 45.83C405.886 44.8646 405.156 43.7557 404.652 42.5034C404.147 41.251 403.895 39.9334 403.895 38.5506C403.895 36.5677 404.333 34.7544 405.209 33.1107C406.086 31.4408 407.373 30.1102 409.073 29.1188C410.772 28.1012 412.869 27.5924 415.365 27.5924C417.861 27.5924 419.958 28.0882 421.657 29.0796C423.357 30.0711 424.644 31.3756 425.521 32.9933C426.397 34.6109 426.835 36.372 426.835 38.2767C426.835 38.668 426.808 39.0724 426.755 39.4899C426.729 39.8812 426.689 40.2335 426.636 40.5466H411.94C411.993 41.2771 412.192 41.8772 412.537 42.3468C412.909 42.7904 413.36 43.1165 413.891 43.3252C414.449 43.534 415.02 43.6383 415.604 43.6383C416.427 43.6383 417.197 43.4557 417.914 43.0904C418.657 42.7251 419.148 42.2164 419.387 41.5641L425.799 43.3644C425.242 44.4602 424.459 45.4256 423.45 46.2605C422.467 47.0954 421.299 47.7607 419.945 48.2564C418.591 48.726 417.064 48.9609 415.365 48.9609ZM411.781 36.085H418.71C418.631 35.4067 418.432 34.8327 418.113 34.363C417.821 33.8934 417.423 33.5281 416.918 33.2672C416.44 33.0063 415.883 32.8758 415.246 32.8758C414.608 32.8758 414.038 33.0063 413.533 33.2672C413.055 33.5281 412.657 33.8934 412.338 34.363C412.046 34.8327 411.86 35.4067 411.781 36.085Z" fill="url(#paint54_linear_1_1863)"/>
<path d="M439.674 48.9609C437.815 48.9609 436.169 48.6739 434.735 48.0999C433.328 47.5259 432.133 46.7431 431.151 45.7517C430.169 44.7341 429.425 43.5861 428.921 42.3077C428.416 41.0292 428.164 39.6856 428.164 38.2767C428.164 36.3981 428.602 34.65 429.478 33.0324C430.381 31.3887 431.682 30.0711 433.381 29.0796C435.107 28.0882 437.204 27.5924 439.674 27.5924C442.196 27.5924 444.32 28.1143 446.046 29.1579C447.772 30.2015 449.059 31.5452 449.909 33.1889L442.541 35.3806C442.196 34.8848 441.771 34.5065 441.267 34.2456C440.789 33.9847 440.244 33.8543 439.634 33.8543C438.944 33.8543 438.32 34.0369 437.762 34.4022C437.204 34.7413 436.753 35.2371 436.408 35.8893C436.089 36.5416 435.93 37.3374 435.93 38.2767C435.93 39.1898 436.089 39.9856 436.408 40.664C436.753 41.3162 437.204 41.825 437.762 42.1903C438.32 42.5295 438.944 42.6991 439.634 42.6991C440.059 42.6991 440.444 42.6469 440.789 42.5425C441.134 42.4121 441.453 42.2294 441.745 41.9946C442.063 41.7598 442.329 41.4858 442.541 41.1727L449.909 43.3644C449.351 44.4602 448.581 45.4256 447.599 46.2605C446.643 47.0954 445.501 47.7607 444.174 48.2564C442.873 48.726 441.373 48.9609 439.674 48.9609Z" fill="url(#paint55_linear_1_1863)"/>
<path d="M467 47.4345C466.31 47.7215 465.566 47.9955 464.77 48.2564C464 48.4912 463.203 48.6739 462.38 48.8043C461.584 48.9348 460.8 49 460.031 49C458.889 49 457.84 48.8174 456.884 48.4521C455.928 48.0607 455.159 47.4345 454.574 46.5736C454.017 45.6865 453.738 44.4993 453.738 43.0121V33.5803H451.149V27.9838H453.738V21.5263H461.305V27.9838H465.407V33.5803H461.305V40.39C461.305 41.0684 461.451 41.5511 461.743 41.8381C462.035 42.099 462.433 42.2294 462.938 42.2294C463.309 42.2294 463.734 42.1642 464.212 42.0337C464.69 41.9033 465.168 41.7467 465.646 41.5641L467 47.4345Z" fill="url(#paint56_linear_1_1863)"/>
<path d="M146.644 64.3518C146.644 64.84 146.515 65.2776 146.257 65.6646C145.999 66.0423 145.651 66.3417 145.212 66.5628C144.783 66.7747 144.31 66.8807 143.795 66.8807H139V57.0691H143.895C144.372 57.0691 144.783 57.1935 145.126 57.4422C145.479 57.6817 145.747 57.995 145.928 58.3819C146.119 58.7596 146.214 59.1558 146.214 59.5704C146.214 60.0586 146.085 60.5101 145.828 60.9246C145.57 61.3392 145.212 61.6478 144.754 61.8505C145.336 62.0163 145.794 62.325 146.128 62.7764C146.472 63.2278 146.644 63.7529 146.644 64.3518ZM145.642 64.1859C145.642 63.8543 145.565 63.5503 145.413 63.2739C145.26 62.9883 145.05 62.758 144.783 62.5829C144.525 62.4079 144.229 62.3204 143.895 62.3204H140.002V66.0377H143.795C144.139 66.0377 144.449 65.9502 144.726 65.7751C145.002 65.6001 145.222 65.3744 145.384 65.098C145.556 64.8124 145.642 64.5084 145.642 64.1859ZM140.002 57.9121V61.5327H143.495C143.829 61.5327 144.124 61.4497 144.382 61.2839C144.64 61.1089 144.845 60.8832 144.998 60.6068C145.15 60.3304 145.227 60.0356 145.227 59.7224C145.227 59.3907 145.155 59.0913 145.012 58.8241C144.869 58.5477 144.673 58.3266 144.425 58.1608C144.177 57.995 143.895 57.9121 143.58 57.9121H140.002Z" fill="black"/>
<path d="M149.965 66.8807V57.0691H154.259C154.698 57.0691 155.099 57.1566 155.461 57.3317C155.824 57.5067 156.139 57.7462 156.406 58.0503C156.683 58.3451 156.893 58.6767 157.036 59.0452C157.188 59.4045 157.265 59.773 157.265 60.1508C157.265 60.6206 157.169 61.0628 156.978 61.4774C156.797 61.892 156.535 62.242 156.191 62.5276C155.857 62.8132 155.461 63.0021 155.003 63.0942L157.494 66.8807H156.363L153.973 63.2601H150.967V66.8807H149.965ZM150.967 62.4033H154.287C154.688 62.4033 155.037 62.2973 155.332 62.0854C155.628 61.8735 155.857 61.5972 156.019 61.2563C156.182 60.9062 156.263 60.5377 156.263 60.1508C156.263 59.7546 156.167 59.3907 155.976 59.059C155.795 58.7182 155.547 58.4464 155.232 58.2437C154.927 58.0318 154.583 57.9259 154.202 57.9259H150.967V62.4033Z" fill="black"/>
<path d="M160.748 66.8807V57.0691H161.75V66.8807H160.748Z" fill="black"/>
<path d="M165.729 66.8807V57.0691H169.179C170.257 57.0691 171.154 57.2902 171.87 57.7324C172.595 58.1654 173.139 58.755 173.502 59.5013C173.865 60.2383 174.046 61.0582 174.046 61.9611C174.046 62.956 173.845 63.822 173.445 64.559C173.053 65.2961 172.49 65.8673 171.756 66.2726C171.03 66.678 170.172 66.8807 169.179 66.8807H165.729ZM173.044 61.9611C173.044 61.178 172.891 60.4824 172.586 59.8744C172.29 59.2663 171.856 58.7919 171.283 58.451C170.711 58.1009 170.009 57.9259 169.179 57.9259H166.731V66.0239H169.179C170.019 66.0239 170.725 65.8442 171.298 65.4849C171.87 65.1256 172.304 64.642 172.6 64.0339C172.896 63.4167 173.044 62.7257 173.044 61.9611Z" fill="black"/>
<path d="M181.472 66.9497C180.795 66.9497 180.165 66.8116 179.583 66.5352C179.001 66.2496 178.495 65.8673 178.066 65.3882C177.636 64.9091 177.302 64.3748 177.064 63.7852C176.835 63.1956 176.72 62.5875 176.72 61.9611C176.72 61.2977 176.835 60.6713 177.064 60.0817C177.302 59.4828 177.632 58.9531 178.051 58.4925C178.471 58.0318 178.968 57.6679 179.54 57.4008C180.113 57.1336 180.738 57 181.415 57C182.417 57 183.233 57.1981 183.863 57.5942C184.493 57.9904 184.97 58.5063 185.294 59.142L184.521 59.6394C184.197 59.0314 183.763 58.5846 183.219 58.299C182.675 58.0134 182.069 57.8706 181.401 57.8706C180.838 57.8706 180.327 57.9858 179.869 58.2161C179.421 58.4464 179.034 58.755 178.71 59.142C178.385 59.5289 178.137 59.9665 177.966 60.4548C177.803 60.943 177.722 61.4497 177.722 61.9749C177.722 62.5276 177.818 63.0528 178.009 63.5503C178.199 64.0385 178.471 64.4761 178.824 64.8631C179.177 65.2408 179.583 65.5402 180.041 65.7613C180.509 65.9732 181.01 66.0791 181.544 66.0791C182.164 66.0791 182.751 65.9317 183.305 65.6369C183.858 65.3329 184.388 64.8677 184.893 64.2412V65.2638C183.93 66.3878 182.789 66.9497 181.472 66.9497ZM184.736 62.804H182.474V62.0578H185.581V66.8807H184.736V62.804Z" fill="black"/>
<path d="M189.071 66.8807V57.0691H190.073V66.8807H189.071Z" fill="black"/>
<path d="M195.054 58.8518V66.8807H194.052V57.0691H194.883L201.553 65.25V57.0829H202.555V66.8807H201.624L195.054 58.8518Z" fill="black"/>
<path d="M210.62 66.9497C209.943 66.9497 209.313 66.8116 208.731 66.5352C208.149 66.2496 207.643 65.8673 207.213 65.3882C206.784 64.9091 206.45 64.3748 206.212 63.7852C205.982 63.1956 205.868 62.5875 205.868 61.9611C205.868 61.2977 205.982 60.6713 206.212 60.0817C206.45 59.4828 206.779 58.9531 207.199 58.4925C207.619 58.0318 208.115 57.6679 208.688 57.4008C209.26 57.1336 209.885 57 210.563 57C211.565 57 212.381 57.1981 213.011 57.5942C213.64 57.9904 214.118 58.5063 214.442 59.142L213.669 59.6394C213.345 59.0314 212.91 58.5846 212.366 58.299C211.823 58.0134 211.217 57.8706 210.549 57.8706C209.986 57.8706 209.475 57.9858 209.017 58.2161C208.569 58.4464 208.182 58.755 207.858 59.142C207.533 59.5289 207.285 59.9665 207.113 60.4548C206.951 60.943 206.87 61.4497 206.87 61.9749C206.87 62.5276 206.965 63.0528 207.156 63.5503C207.347 64.0385 207.619 64.4761 207.972 64.8631C208.325 65.2408 208.731 65.5402 209.189 65.7613C209.656 65.9732 210.157 66.0791 210.692 66.0791C211.312 66.0791 211.899 65.9317 212.452 65.6369C213.006 65.3329 213.535 64.8677 214.041 64.2412V65.2638C213.077 66.3878 211.937 66.9497 210.62 66.9497ZM213.884 62.804H211.622V62.0578H214.728V66.8807H213.884V62.804Z" fill="black"/>
<path d="M223.298 66.8807V57.0691H229.968V57.9259H224.3V61.5327H229.081V62.3342H224.3V66.8807H223.298Z" fill="black"/>
<path d="M237.295 66.9497C236.494 66.9497 235.816 66.8116 235.263 66.5352C234.709 66.2588 234.27 65.8903 233.946 65.4296C233.621 64.9598 233.383 64.4301 233.23 63.8405C233.087 63.2508 233.015 62.6428 233.015 62.0163V57.0691H234.003V62.0163C234.003 62.523 234.055 63.0205 234.16 63.5088C234.275 63.9971 234.456 64.4347 234.704 64.8216C234.952 65.2085 235.286 65.5172 235.706 65.7475C236.126 65.9686 236.651 66.0791 237.281 66.0791C237.93 66.0791 238.464 65.964 238.884 65.7337C239.313 65.4941 239.647 65.1809 239.886 64.794C240.134 64.407 240.311 63.974 240.415 63.495C240.52 63.0067 240.573 62.5138 240.573 62.0163V57.0691H241.575V62.0163C241.575 62.6704 241.499 63.2969 241.346 63.8957C241.193 64.4946 240.945 65.0197 240.602 65.4711C240.268 65.9225 239.829 66.2818 239.285 66.549C238.741 66.8162 238.078 66.9497 237.295 66.9497Z" fill="black"/>
<path d="M252.609 57.9259H248.988V66.8807H247.986V57.9259H244.364V57.0691H252.609V57.9259Z" fill="black"/>
<path d="M259.7 66.9497C258.898 66.9497 258.221 66.8116 257.667 66.5352C257.114 66.2588 256.675 65.8903 256.35 65.4296C256.026 64.9598 255.787 64.4301 255.634 63.8405C255.491 63.2508 255.42 62.6428 255.42 62.0163V57.0691H256.407V62.0163C256.407 62.523 256.46 63.0205 256.565 63.5088C256.679 63.9971 256.861 64.4347 257.109 64.8216C257.357 65.2085 257.691 65.5172 258.111 65.7475C258.531 65.9686 259.056 66.0791 259.685 66.0791C260.334 66.0791 260.869 65.964 261.288 65.7337C261.718 65.4941 262.052 65.1809 262.29 64.794C262.539 64.407 262.715 63.974 262.82 63.495C262.925 63.0067 262.977 62.5138 262.977 62.0163V57.0691H263.979V62.0163C263.979 62.6704 263.903 63.2969 263.75 63.8957C263.598 64.4946 263.35 65.0197 263.006 65.4711C262.672 65.9225 262.233 66.2818 261.689 66.549C261.145 66.8162 260.482 66.9497 259.7 66.9497Z" fill="black"/>
<path d="M267.8 66.8807V57.0691H272.094C272.533 57.0691 272.934 57.1566 273.296 57.3317C273.659 57.5067 273.974 57.7462 274.241 58.0503C274.518 58.3451 274.728 58.6767 274.871 59.0452C275.023 59.4045 275.1 59.773 275.1 60.1508C275.1 60.6206 275.004 61.0628 274.813 61.4774C274.632 61.892 274.37 62.242 274.026 62.5276C273.692 62.8132 273.296 63.0021 272.838 63.0942L275.329 66.8807H274.198L271.807 63.2601H268.802V66.8807H267.8ZM268.802 62.4033H272.122C272.523 62.4033 272.871 62.2973 273.167 62.0854C273.463 61.8735 273.692 61.5972 273.854 61.2563C274.017 60.9062 274.098 60.5377 274.098 60.1508C274.098 59.7546 274.002 59.3907 273.811 59.059C273.63 58.7182 273.382 58.4464 273.067 58.2437C272.762 58.0318 272.418 57.9259 272.037 57.9259H268.802V62.4033Z" fill="black"/>
<path d="M285.41 66.0239V66.8807H278.583V57.0691H285.281V57.9259H279.584V61.4636H284.551V62.2789H279.584V66.0239H285.41Z" fill="black"/>
<path d="M294.621 58.907C294.478 58.7504 294.311 58.6122 294.12 58.4925C293.929 58.3635 293.714 58.2529 293.476 58.1608C293.237 58.0687 292.979 57.995 292.703 57.9397C292.436 57.8844 292.149 57.8568 291.844 57.8568C290.956 57.8568 290.303 58.0226 289.883 58.3543C289.473 58.6767 289.267 59.1189 289.267 59.6809C289.267 60.0678 289.363 60.3719 289.554 60.593C289.754 60.8141 290.064 60.9937 290.484 61.1319C290.904 61.2701 291.438 61.4129 292.087 61.5603C292.812 61.7077 293.437 61.8827 293.962 62.0854C294.487 62.2881 294.893 62.5645 295.179 62.9146C295.465 63.2554 295.608 63.7207 295.608 64.3103C295.608 64.7617 295.518 65.1533 295.336 65.4849C295.155 65.8166 294.902 66.093 294.578 66.3141C294.253 66.5352 293.867 66.701 293.418 66.8116C292.97 66.9129 292.478 66.9636 291.944 66.9636C291.419 66.9636 290.913 66.9129 290.427 66.8116C289.95 66.701 289.496 66.5444 289.067 66.3417C288.638 66.1298 288.237 65.8626 287.865 65.5402L288.366 64.7525C288.547 64.9368 288.762 65.1118 289.01 65.2776C289.267 65.4343 289.549 65.5771 289.854 65.706C290.169 65.835 290.503 65.9363 290.856 66.0101C291.219 66.0745 291.591 66.1068 291.973 66.1068C292.784 66.1068 293.414 65.964 293.862 65.6784C294.32 65.3928 294.549 64.969 294.549 64.407C294.549 64.0017 294.435 63.6792 294.206 63.4397C293.977 63.191 293.633 62.9883 293.175 62.8317C292.717 62.675 292.154 62.523 291.486 62.3756C290.78 62.219 290.183 62.044 289.697 61.8505C289.21 61.657 288.843 61.4037 288.595 61.0905C288.356 60.768 288.237 60.3442 288.237 59.8191C288.237 59.2111 288.389 58.6997 288.695 58.2852C289.01 57.8614 289.439 57.5436 289.983 57.3317C290.527 57.1106 291.152 57 291.858 57C292.307 57 292.722 57.0461 293.103 57.1382C293.495 57.2211 293.853 57.3455 294.177 57.5113C294.511 57.6771 294.821 57.8844 295.107 58.1332L294.621 58.907Z" fill="black"/>
<path d="M298.763 68L299.007 66.8392H298.678V65.5264H299.622V66.8392L299.264 68H298.763Z" fill="black"/>
<path d="M316.176 64.3518C316.176 64.84 316.047 65.2776 315.79 65.6646C315.532 66.0423 315.184 66.3417 314.745 66.5628C314.315 66.7747 313.843 66.8807 313.328 66.8807H308.533V57.0691H313.428C313.905 57.0691 314.315 57.1935 314.659 57.4422C315.012 57.6817 315.279 57.995 315.461 58.3819C315.651 58.7596 315.747 59.1558 315.747 59.5704C315.747 60.0586 315.618 60.5101 315.36 60.9246C315.103 61.3392 314.745 61.6478 314.287 61.8505C314.869 62.0163 315.327 62.325 315.661 62.7764C316.004 63.2278 316.176 63.7529 316.176 64.3518ZM315.174 64.1859C315.174 63.8543 315.098 63.5503 314.945 63.2739C314.793 62.9883 314.583 62.758 314.315 62.5829C314.058 62.4079 313.762 62.3204 313.428 62.3204H309.535V66.0377H313.328C313.671 66.0377 313.981 65.9502 314.258 65.7751C314.535 65.6001 314.754 65.3744 314.917 65.098C315.088 64.8124 315.174 64.5084 315.174 64.1859ZM309.535 57.9121V61.5327H313.027C313.361 61.5327 313.657 61.4497 313.915 61.2839C314.172 61.1089 314.377 60.8832 314.53 60.6068C314.683 60.3304 314.759 60.0356 314.759 59.7224C314.759 59.3907 314.688 59.0913 314.544 58.8241C314.401 58.5477 314.206 58.3266 313.958 58.1608C313.709 57.995 313.428 57.9121 313.113 57.9121H309.535Z" fill="black"/>
<path d="M323.634 66.9497C322.832 66.9497 322.155 66.8116 321.601 66.5352C321.048 66.2588 320.609 65.8903 320.285 65.4296C319.96 64.9598 319.721 64.4301 319.569 63.8405C319.426 63.2508 319.354 62.6428 319.354 62.0163V57.0691H320.342V62.0163C320.342 62.523 320.394 63.0205 320.499 63.5088C320.614 63.9971 320.795 64.4347 321.043 64.8216C321.291 65.2085 321.625 65.5172 322.045 65.7475C322.465 65.9686 322.99 66.0791 323.62 66.0791C324.269 66.0791 324.803 65.964 325.223 65.7337C325.652 65.4941 325.986 65.1809 326.225 64.794C326.473 64.407 326.649 63.974 326.754 63.495C326.859 63.0067 326.912 62.5138 326.912 62.0163V57.0691H327.914V62.0163C327.914 62.6704 327.837 63.2969 327.685 63.8957C327.532 64.4946 327.284 65.0197 326.94 65.4711C326.606 65.9225 326.167 66.2818 325.624 66.549C325.08 66.8162 324.416 66.9497 323.634 66.9497Z" fill="black"/>
<path d="M331.734 66.8807V57.0691H332.736V66.8807H331.734Z" fill="black"/>
<path d="M336.716 66.8807V57.0691H337.718V66.0239H343.586V66.8807H336.716Z" fill="black"/>
<path d="M346.492 66.8807V57.0691H349.942C351.02 57.0691 351.917 57.2902 352.633 57.7324C353.358 58.1654 353.902 58.755 354.265 59.5013C354.627 60.2383 354.809 61.0582 354.809 61.9611C354.809 62.956 354.608 63.822 354.207 64.559C353.816 65.2961 353.253 65.8673 352.518 66.2726C351.793 66.678 350.934 66.8807 349.942 66.8807H346.492ZM353.807 61.9611C353.807 61.178 353.654 60.4824 353.349 59.8744C353.053 59.2663 352.619 58.7919 352.046 58.451C351.474 58.1009 350.772 57.9259 349.942 57.9259H347.494V66.0239H349.942C350.782 66.0239 351.488 65.8442 352.06 65.4849C352.633 65.1256 353.067 64.642 353.363 64.0339C353.659 63.4167 353.807 62.7257 353.807 61.9611Z" fill="black"/>
<path d="M358.156 66.8807V57.0691H359.158V66.8807H358.156Z" fill="black"/>
<path d="M364.14 58.8518V66.8807H363.138V57.0691H363.968L370.638 65.25V57.0829H371.64V66.8807H370.71L364.14 58.8518Z" fill="black"/>
<path d="M379.705 66.9497C379.028 66.9497 378.398 66.8116 377.816 66.5352C377.234 66.2496 376.728 65.8673 376.299 65.3882C375.869 64.9091 375.535 64.3748 375.297 63.7852C375.068 63.1956 374.953 62.5875 374.953 61.9611C374.953 61.2977 375.068 60.6713 375.297 60.0817C375.535 59.4828 375.865 58.9531 376.284 58.4925C376.704 58.0318 377.201 57.6679 377.773 57.4008C378.346 57.1336 378.971 57 379.648 57C380.65 57 381.466 57.1981 382.096 57.5942C382.726 57.9904 383.203 58.5063 383.527 59.142L382.754 59.6394C382.43 59.0314 381.996 58.5846 381.452 58.299C380.908 58.0134 380.302 57.8706 379.634 57.8706C379.071 57.8706 378.56 57.9858 378.102 58.2161C377.654 58.4464 377.267 58.755 376.943 59.142C376.618 59.5289 376.37 59.9665 376.199 60.4548C376.036 60.943 375.955 61.4497 375.955 61.9749C375.955 62.5276 376.051 63.0528 376.242 63.5503C376.432 64.0385 376.704 64.4761 377.057 64.8631C377.41 65.2408 377.816 65.5402 378.274 65.7613C378.742 65.9732 379.243 66.0791 379.777 66.0791C380.397 66.0791 380.984 65.9317 381.538 65.6369C382.091 65.3329 382.621 64.8677 383.126 64.2412V65.2638C382.163 66.3878 381.022 66.9497 379.705 66.9497ZM382.969 62.804H380.707V62.0578H383.814V66.8807H382.969V62.804Z" fill="black"/>
<path d="M392.383 66.8807V57.0691H395.833C396.911 57.0691 397.808 57.2902 398.524 57.7324C399.249 58.1654 399.793 58.755 400.156 59.5013C400.518 60.2383 400.7 61.0582 400.7 61.9611C400.7 62.956 400.499 63.822 400.098 64.559C399.707 65.2961 399.144 65.8673 398.409 66.2726C397.684 66.678 396.825 66.8807 395.833 66.8807H392.383ZM399.698 61.9611C399.698 61.178 399.545 60.4824 399.24 59.8744C398.944 59.2663 398.51 58.7919 397.937 58.451C397.365 58.1009 396.663 57.9259 395.833 57.9259H393.385V66.0239H395.833C396.673 66.0239 397.379 65.8442 397.951 65.4849C398.524 65.1256 398.958 64.642 399.254 64.0339C399.55 63.4167 399.698 62.7257 399.698 61.9611Z" fill="black"/>
<path d="M404.047 66.8807V57.0691H408.341C408.78 57.0691 409.181 57.1566 409.543 57.3317C409.906 57.5067 410.221 57.7462 410.488 58.0503C410.765 58.3451 410.975 58.6767 411.118 59.0452C411.271 59.4045 411.347 59.773 411.347 60.1508C411.347 60.6206 411.252 61.0628 411.061 61.4774C410.879 61.892 410.617 62.242 410.273 62.5276C409.939 62.8132 409.543 63.0021 409.085 63.0942L411.576 66.8807H410.445L408.055 63.2601H405.049V66.8807H404.047ZM405.049 62.4033H408.37C408.77 62.4033 409.119 62.2973 409.415 62.0854C409.71 61.8735 409.939 61.5972 410.102 61.2563C410.264 60.9062 410.345 60.5377 410.345 60.1508C410.345 59.7546 410.25 59.3907 410.059 59.059C409.877 58.7182 409.629 58.4464 409.314 58.2437C409.009 58.0318 408.665 57.9259 408.284 57.9259H405.049V62.4033Z" fill="black"/>
<path d="M421.657 66.0239V66.8807H414.83V57.0691H421.529V57.9259H415.832V61.4636H420.799V62.2789H415.832V66.0239H421.657Z" fill="black"/>
<path d="M428.133 57.0691H428.977L433.2 66.8807H432.141L430.824 63.8128H426.258L424.955 66.8807H423.882L428.133 57.0691ZM430.595 63.0528L428.548 58.2023L426.472 63.0528H430.595Z" fill="black"/>
<path d="M445.092 66.8807V58.8932L441.413 65.098H440.783L437.09 58.8932V66.8807H436.088V57.0691H437.119L441.084 63.7852L445.077 57.0691H446.094V66.8807H445.092Z" fill="black"/>
<path d="M456.012 58.907C455.869 58.7504 455.702 58.6122 455.511 58.4925C455.321 58.3635 455.106 58.2529 454.867 58.1608C454.629 58.0687 454.371 57.995 454.094 57.9397C453.827 57.8844 453.541 57.8568 453.235 57.8568C452.348 57.8568 451.694 58.0226 451.274 58.3543C450.864 58.6767 450.659 59.1189 450.659 59.6809C450.659 60.0678 450.754 60.3719 450.945 60.593C451.146 60.8141 451.456 60.9937 451.876 61.1319C452.296 61.2701 452.83 61.4129 453.479 61.5603C454.204 61.7077 454.829 61.8827 455.354 62.0854C455.879 62.2881 456.284 62.5645 456.571 62.9146C456.857 63.2554 457 63.7207 457 64.3103C457 64.7617 456.909 65.1533 456.728 65.4849C456.547 65.8166 456.294 66.093 455.969 66.3141C455.645 66.5352 455.258 66.701 454.81 66.8116C454.361 66.9129 453.87 66.9636 453.336 66.9636C452.811 66.9636 452.305 66.9129 451.818 66.8116C451.341 66.701 450.888 66.5444 450.459 66.3417C450.029 66.1298 449.628 65.8626 449.256 65.5402L449.757 64.7525C449.939 64.9368 450.153 65.1118 450.401 65.2776C450.659 65.4343 450.94 65.5771 451.246 65.706C451.561 65.835 451.895 65.9363 452.248 66.0101C452.61 66.0745 452.983 66.1068 453.364 66.1068C454.175 66.1068 454.805 65.964 455.254 65.6784C455.712 65.3928 455.941 64.969 455.941 64.407C455.941 64.0017 455.826 63.6792 455.597 63.4397C455.368 63.191 455.025 62.9883 454.567 62.8317C454.109 62.675 453.546 62.523 452.878 62.3756C452.171 62.219 451.575 62.044 451.088 61.8505C450.602 61.657 450.234 61.4037 449.986 61.0905C449.748 60.768 449.628 60.3442 449.628 59.8191C449.628 59.2111 449.781 58.6997 450.086 58.2852C450.401 57.8614 450.831 57.5436 451.375 57.3317C451.919 57.1106 452.544 57 453.25 57C453.698 57 454.113 57.0461 454.495 57.1382C454.886 57.2211 455.244 57.3455 455.569 57.5113C455.903 57.6771 456.213 57.8844 456.499 58.1332L456.012 58.907Z" fill="black"/>
<defs>
<linearGradient id="paint0_linear_1_1863" x1="40.9359" y1="1.26716" x2="88.7707" y2="84.1196" gradientUnits="userSpaceOnUse">
<stop stop-color="#DA006A"/>
<stop offset="1" stop-color="#733BE4"/>
</linearGradient>
<linearGradient id="paint1_linear_1_1863" x1="44.0222" y1="8.78088" x2="84.8916" y2="79.5685" gradientUnits="userSpaceOnUse">
<stop stop-color="#EEBD2F"/>
<stop offset="1" stop-color="#DA5618"/>
</linearGradient>
<linearGradient id="paint2_linear_1_1863" x1="104.449" y1="19.4165" x2="134.622" y2="79.7629" gradientUnits="userSpaceOnUse">
<stop stop-color="#EEBD2F"/>
<stop offset="1" stop-color="#DA5618"/>
</linearGradient>
<linearGradient id="paint3_linear_1_1863" x1="-5.12652" y1="19.4165" x2="25.0466" y2="79.7629" gradientUnits="userSpaceOnUse">
<stop stop-color="#EEBD2F"/>
<stop offset="1" stop-color="#DA5618"/>
</linearGradient>
<linearGradient id="paint4_linear_1_1863" x1="89.6877" y1="64.9504" x2="66.0669" y2="56.4411" gradientUnits="userSpaceOnUse">
<stop stop-color="#5899FF"/>
<stop offset="1" stop-color="#4F39EE"/>
</linearGradient>
<linearGradient id="paint5_linear_1_1863" x1="92.7642" y1="62.8489" x2="84.2641" y2="61.5146" gradientUnits="userSpaceOnUse">
<stop stop-color="#5899FF"/>
<stop offset="1" stop-color="#4F39EE"/>
</linearGradient>
<linearGradient id="paint6_linear_1_1863" x1="90.6982" y1="60.076" x2="82.8558" y2="58.9142" gradientUnits="userSpaceOnUse">
<stop stop-color="#F1CC60"/>
<stop offset="0.30985" stop-color="#F5E2AA"/>
<stop offset="1" stop-color="#E59F2F"/>
</linearGradient>
<linearGradient id="paint7_linear_1_1863" x1="92.8302" y1="65.0438" x2="71.5297" y2="56.1362" gradientUnits="userSpaceOnUse">
<stop stop-color="#F1CC60"/>
<stop offset="0.30985" stop-color="#F5E2AA"/>
<stop offset="1" stop-color="#E59F2F"/>
</linearGradient>
<linearGradient id="paint8_linear_1_1863" x1="62.7774" y1="55.6584" x2="84.191" y2="55.6584" gradientUnits="userSpaceOnUse">
<stop stop-color="#F1CC60"/>
<stop offset="0.30985" stop-color="#F5E2AA"/>
<stop offset="1" stop-color="#E59F2F"/>
</linearGradient>
<linearGradient id="paint9_linear_1_1863" x1="62.7774" y1="55.6585" x2="84.191" y2="55.6585" gradientUnits="userSpaceOnUse">
<stop stop-color="#EABC4E"/>
<stop offset="0.30985" stop-color="#EED08A"/>
<stop offset="1" stop-color="#DF9326"/>
</linearGradient>
<linearGradient id="paint10_linear_1_1863" x1="62.7774" y1="55.6585" x2="84.191" y2="55.6585" gradientUnits="userSpaceOnUse">
<stop stop-color="#EABC4E"/>
<stop offset="0.30985" stop-color="#EED08A"/>
<stop offset="1" stop-color="#DF9326"/>
</linearGradient>
<linearGradient id="paint11_linear_1_1863" x1="62.7774" y1="55.6584" x2="84.191" y2="55.6584" gradientUnits="userSpaceOnUse">
<stop stop-color="#EABC4E"/>
<stop offset="0.30985" stop-color="#EED08A"/>
<stop offset="1" stop-color="#DF9326"/>
</linearGradient>
<linearGradient id="paint12_linear_1_1863" x1="62.7774" y1="55.6585" x2="84.191" y2="55.6585" gradientUnits="userSpaceOnUse">
<stop stop-color="#EABC4E"/>
<stop offset="0.30985" stop-color="#EED08A"/>
<stop offset="1" stop-color="#DF9326"/>
</linearGradient>
<linearGradient id="paint13_linear_1_1863" x1="62.7774" y1="55.6584" x2="84.191" y2="55.6584" gradientUnits="userSpaceOnUse">
<stop stop-color="#EABC4E"/>
<stop offset="0.30985" stop-color="#EED08A"/>
<stop offset="1" stop-color="#DF9326"/>
</linearGradient>
<linearGradient id="paint14_linear_1_1863" x1="62.7774" y1="55.6585" x2="84.191" y2="55.6585" gradientUnits="userSpaceOnUse">
<stop stop-color="#EABC4E"/>
<stop offset="0.30985" stop-color="#EED08A"/>
<stop offset="1" stop-color="#DF9326"/>
</linearGradient>
<linearGradient id="paint15_linear_1_1863" x1="71.7224" y1="52.1999" x2="83.5745" y2="72.7282" gradientUnits="userSpaceOnUse">
<stop stop-color="#F1CC60"/>
<stop offset="0.30985" stop-color="#F5E2AA"/>
<stop offset="1" stop-color="#E59F2F"/>
</linearGradient>
<linearGradient id="paint16_linear_1_1863" x1="70.0514" y1="49.7812" x2="82.0657" y2="70.5906" gradientUnits="userSpaceOnUse">
<stop stop-color="#F1CC60"/>
<stop offset="0.30985" stop-color="#F5E2AA"/>
<stop offset="1" stop-color="#E59F2F"/>
</linearGradient>
<linearGradient id="paint17_linear_1_1863" x1="68.3649" y1="47.2765" x2="80.5449" y2="68.3729" gradientUnits="userSpaceOnUse">
<stop stop-color="#F1CC60"/>
<stop offset="0.30985" stop-color="#F5E2AA"/>
<stop offset="1" stop-color="#E59F2F"/>
</linearGradient>
<linearGradient id="paint18_linear_1_1863" x1="35.8671" y1="64.9504" x2="59.4879" y2="56.4411" gradientUnits="userSpaceOnUse">
<stop stop-color="#5899FF"/>
<stop offset="1" stop-color="#4F39EE"/>
</linearGradient>
<linearGradient id="paint19_linear_1_1863" x1="32.7906" y1="62.8489" x2="41.2907" y2="61.5146" gradientUnits="userSpaceOnUse">
<stop stop-color="#5899FF"/>
<stop offset="1" stop-color="#4F39EE"/>
</linearGradient>
<linearGradient id="paint20_linear_1_1863" x1="34.856" y1="60.076" x2="42.6985" y2="58.9142" gradientUnits="userSpaceOnUse">
<stop stop-color="#F1CC60"/>
<stop offset="0.30985" stop-color="#F5E2AA"/>
<stop offset="1" stop-color="#E59F2F"/>
</linearGradient>
<linearGradient id="paint21_linear_1_1863" x1="32.7246" y1="65.0438" x2="54.0251" y2="56.1362" gradientUnits="userSpaceOnUse">
<stop stop-color="#F1CC60"/>
<stop offset="0.30985" stop-color="#F5E2AA"/>
<stop offset="1" stop-color="#E59F2F"/>
</linearGradient>
<linearGradient id="paint22_linear_1_1863" x1="62.7774" y1="55.6584" x2="41.3638" y2="55.6584" gradientUnits="userSpaceOnUse">
<stop stop-color="#F1CC60"/>
<stop offset="0.30985" stop-color="#F5E2AA"/>
<stop offset="1" stop-color="#E59F2F"/>
</linearGradient>
<linearGradient id="paint23_linear_1_1863" x1="62.7774" y1="55.6585" x2="41.3638" y2="55.6585" gradientUnits="userSpaceOnUse">
<stop stop-color="#EABC4E"/>
<stop offset="0.30985" stop-color="#EED08A"/>
<stop offset="1" stop-color="#DF9326"/>
</linearGradient>
<linearGradient id="paint24_linear_1_1863" x1="62.7774" y1="55.6585" x2="41.3638" y2="55.6585" gradientUnits="userSpaceOnUse">
<stop stop-color="#EABC4E"/>
<stop offset="0.30985" stop-color="#EED08A"/>
<stop offset="1" stop-color="#DF9326"/>
</linearGradient>
<linearGradient id="paint25_linear_1_1863" x1="62.7774" y1="55.6584" x2="41.3638" y2="55.6584" gradientUnits="userSpaceOnUse">
<stop stop-color="#EABC4E"/>
<stop offset="0.30985" stop-color="#EED08A"/>
<stop offset="1" stop-color="#DF9326"/>
</linearGradient>
<linearGradient id="paint26_linear_1_1863" x1="62.7774" y1="55.6584" x2="41.3638" y2="55.6584" gradientUnits="userSpaceOnUse">
<stop stop-color="#EABC4E"/>
<stop offset="0.30985" stop-color="#EED08A"/>
<stop offset="1" stop-color="#DF9326"/>
</linearGradient>
<linearGradient id="paint27_linear_1_1863" x1="62.7774" y1="55.6584" x2="41.3638" y2="55.6584" gradientUnits="userSpaceOnUse">
<stop stop-color="#EABC4E"/>
<stop offset="0.30985" stop-color="#EED08A"/>
<stop offset="1" stop-color="#DF9326"/>
</linearGradient>
<linearGradient id="paint28_linear_1_1863" x1="62.7774" y1="55.6585" x2="41.3638" y2="55.6585" gradientUnits="userSpaceOnUse">
<stop stop-color="#EABC4E"/>
<stop offset="0.30985" stop-color="#EED08A"/>
<stop offset="1" stop-color="#DF9326"/>
</linearGradient>
<linearGradient id="paint29_linear_1_1863" x1="53.8324" y1="52.1998" x2="41.9803" y2="72.7282" gradientUnits="userSpaceOnUse">
<stop stop-color="#F1CC60"/>
<stop offset="0.30985" stop-color="#F5E2AA"/>
<stop offset="1" stop-color="#E59F2F"/>
</linearGradient>
<linearGradient id="paint30_linear_1_1863" x1="55.5034" y1="49.7812" x2="43.4891" y2="70.5906" gradientUnits="userSpaceOnUse">
<stop stop-color="#F1CC60"/>
<stop offset="0.30985" stop-color="#F5E2AA"/>
<stop offset="1" stop-color="#E59F2F"/>
</linearGradient>
<linearGradient id="paint31_linear_1_1863" x1="57.1899" y1="47.2765" x2="45.0099" y2="68.3729" gradientUnits="userSpaceOnUse">
<stop stop-color="#F1CC60"/>
<stop offset="0.30985" stop-color="#F5E2AA"/>
<stop offset="1" stop-color="#E59F2F"/>
</linearGradient>
<linearGradient id="paint32_linear_1_1863" x1="48.4965" y1="6.35397" x2="75.4558" y2="38.152" gradientUnits="userSpaceOnUse">
<stop stop-color="#5899FF"/>
<stop offset="1" stop-color="#4F39EE"/>
</linearGradient>
<linearGradient id="paint33_linear_1_1863" x1="44.9508" y1="39.9293" x2="69.2933" y2="39.9293" gradientUnits="userSpaceOnUse">
<stop stop-color="#514FF2"/>
<stop offset="0.30457" stop-color="#5899FF"/>
<stop offset="1" stop-color="#4F39EE"/>
</linearGradient>
<linearGradient id="paint34_linear_1_1863" x1="51.0098" y1="5.65445" x2="90.2057" y2="60.2747" gradientUnits="userSpaceOnUse">
<stop stop-color="#5899FF"/>
<stop offset="1" stop-color="#4F39EE"/>
</linearGradient>
<linearGradient id="paint35_linear_1_1863" x1="44.9508" y1="39.9293" x2="69.2933" y2="39.9293" gradientUnits="userSpaceOnUse">
<stop stop-color="#4648E3"/>
<stop offset="0.30457" stop-color="#4C8BEF"/>
<stop offset="1" stop-color="#4434DF"/>
</linearGradient>
<linearGradient id="paint36_linear_1_1863" x1="61.0733" y1="20.0764" x2="65.859" y2="26.7453" gradientUnits="userSpaceOnUse">
<stop stop-color="#5899FF"/>
<stop offset="1" stop-color="#4F39EE"/>
</linearGradient>
<linearGradient id="paint37_linear_1_1863" x1="77.5568" y1="44.2216" x2="78.7844" y2="44.2216" gradientUnits="userSpaceOnUse">
<stop stop-color="#EEBD2F"/>
<stop offset="1" stop-color="#DA5618"/>
</linearGradient>
<radialGradient id="paint38_radial_1_1863" cx="0" cy="0" r="1" gradientUnits="userSpaceOnUse" gradientTransform="translate(78.1709 43.1213) scale(1.06303 1.06303)">
<stop stop-color="#E79927"/>
<stop offset="1" stop-color="#DD661C"/>
</radialGradient>
<linearGradient id="paint39_linear_1_1863" x1="62.4763" y1="32.2356" x2="78.5802" y2="32.2356" gradientUnits="userSpaceOnUse">
<stop stop-color="#EEBD2F"/>
<stop offset="1" stop-color="#DA5618"/>
</linearGradient>
<radialGradient id="paint40_radial_1_1863" cx="0" cy="0" r="1" gradientUnits="userSpaceOnUse" gradientTransform="translate(94.7456 3.35632) rotate(33.0558) scale(3.99779 3.99779)">
<stop stop-color="#E79927"/>
<stop offset="1" stop-color="#DD661C"/>
</radialGradient>
<radialGradient id="paint41_radial_1_1863" cx="0" cy="0" r="1" gradientUnits="userSpaceOnUse" gradientTransform="translate(79.1186 3.35632) rotate(33.0558) scale(3.99779)">
<stop stop-color="#E79927"/>
<stop offset="1" stop-color="#DD661C"/>
</radialGradient>
<radialGradient id="paint42_radial_1_1863" cx="0" cy="0" r="1" gradientUnits="userSpaceOnUse" gradientTransform="translate(44.7183 3.35632) rotate(33.0558) scale(3.99779 3.99779)">
<stop stop-color="#E79927"/>
<stop offset="1" stop-color="#DD661C"/>
</radialGradient>
<radialGradient id="paint43_radial_1_1863" cx="0" cy="0" r="1" gradientUnits="userSpaceOnUse" gradientTransform="translate(29.0912 3.35632) rotate(33.0558) scale(3.99779)">
<stop stop-color="#E79927"/>
<stop offset="1" stop-color="#DD661C"/>
</radialGradient>
<linearGradient id="paint44_linear_1_1863" x1="-22.18" y1="-122.652" x2="466.008" y2="39.41" gradientUnits="userSpaceOnUse">
<stop offset="0.00124015" stop-color="#D10474"/>
<stop offset="1" stop-color="#7739DF"/>
</linearGradient>
<linearGradient id="paint45_linear_1_1863" x1="-22.18" y1="-122.652" x2="466.008" y2="39.41" gradientUnits="userSpaceOnUse">
<stop offset="0.00124015" stop-color="#D10474"/>
<stop offset="1" stop-color="#7739DF"/>
</linearGradient>
<linearGradient id="paint46_linear_1_1863" x1="-22.18" y1="-122.652" x2="466.008" y2="39.41" gradientUnits="userSpaceOnUse">
<stop offset="0.00124015" stop-color="#D10474"/>
<stop offset="1" stop-color="#7739DF"/>
</linearGradient>
<linearGradient id="paint47_linear_1_1863" x1="-22.18" y1="-122.652" x2="466.008" y2="39.41" gradientUnits="userSpaceOnUse">
<stop offset="0.00124015" stop-color="#D10474"/>
<stop offset="1" stop-color="#7739DF"/>
</linearGradient>
<linearGradient id="paint48_linear_1_1863" x1="-22.18" y1="-122.652" x2="466.008" y2="39.41" gradientUnits="userSpaceOnUse">
<stop offset="0.00124015" stop-color="#D10474"/>
<stop offset="1" stop-color="#7739DF"/>
</linearGradient>
<linearGradient id="paint49_linear_1_1863" x1="-22.18" y1="-122.652" x2="466.008" y2="39.41" gradientUnits="userSpaceOnUse">
<stop offset="0.00124015" stop-color="#D10474"/>
<stop offset="1" stop-color="#7739DF"/>
</linearGradient>
<linearGradient id="paint50_linear_1_1863" x1="-22.18" y1="-122.652" x2="466.008" y2="39.41" gradientUnits="userSpaceOnUse">
<stop offset="0.00124015" stop-color="#D10474"/>
<stop offset="1" stop-color="#7739DF"/>
</linearGradient>
<linearGradient id="paint51_linear_1_1863" x1="-22.18" y1="-122.652" x2="466.008" y2="39.41" gradientUnits="userSpaceOnUse">
<stop offset="0.00124015" stop-color="#D10474"/>
<stop offset="1" stop-color="#7739DF"/>
</linearGradient>
<linearGradient id="paint52_linear_1_1863" x1="-22.18" y1="-122.652" x2="466.008" y2="39.41" gradientUnits="userSpaceOnUse">
<stop offset="0.00124015" stop-color="#D10474"/>
<stop offset="1" stop-color="#7739DF"/>
</linearGradient>
<linearGradient id="paint53_linear_1_1863" x1="-22.18" y1="-122.652" x2="466.008" y2="39.41" gradientUnits="userSpaceOnUse">
<stop offset="0.00124015" stop-color="#D10474"/>
<stop offset="1" stop-color="#7739DF"/>
</linearGradient>
<linearGradient id="paint54_linear_1_1863" x1="-22.18" y1="-122.652" x2="466.008" y2="39.41" gradientUnits="userSpaceOnUse">
<stop offset="0.00124015" stop-color="#D10474"/>
<stop offset="1" stop-color="#7739DF"/>
</linearGradient>
<linearGradient id="paint55_linear_1_1863" x1="-22.18" y1="-122.652" x2="466.008" y2="39.41" gradientUnits="userSpaceOnUse">
<stop offset="0.00124015" stop-color="#D10474"/>
<stop offset="1" stop-color="#7739DF"/>
</linearGradient>
<linearGradient id="paint56_linear_1_1863" x1="-22.18" y1="-122.652" x2="466.008" y2="39.41" gradientUnits="userSpaceOnUse">
<stop offset="0.00124015" stop-color="#D10474"/>
<stop offset="1" stop-color="#7739DF"/>
</linearGradient>
</defs>
</svg>
