<svg width="467" height="93" viewBox="0 0 467 93" fill="none" xmlns="http://www.w3.org/2000/svg">
<mask id="mask0_1_1864" style="mask-type:luminance" maskUnits="userSpaceOnUse" x="21" y="12" width="83" height="81">
<path d="M81.5821 12.4823L87.7176 16.0193H99.9526V56.0807C99.9526 74.0697 83.1546 88.7074 62.5 88.7074C41.8454 88.7074 25.0475 74.0697 25.0475 56.0807V16.0193H37.3443L43.4592 12.4823H21.5105V56.0807C21.5105 76.0187 39.8965 92.2443 62.5 92.2443C85.1036 92.2443 103.49 76.0187 103.49 56.0807V12.4823H81.5821Z" fill="white"/>
</mask>
<g mask="url(#mask0_1_1864)">
<path d="M81.5821 12.4823L87.7176 16.0193H99.9526V56.0807C99.9526 74.0697 83.1546 88.7074 62.5 88.7074C41.8454 88.7074 25.0475 74.0697 25.0475 56.0807V16.0193H37.3443L43.4592 12.4823H21.5105V56.0807C21.5105 76.0187 39.8965 92.2443 62.5 92.2443C85.1036 92.2443 103.49 76.0187 103.49 56.0807V12.4823H81.5821Z" fill="url(#paint0_linear_1_1864)"/>
</g>
<mask id="mask1_1_1864" style="mask-type:luminance" maskUnits="userSpaceOnUse" x="27" y="18" width="71" height="69">
<path d="M91.8062 18.3755L93.8531 19.5562H96.4208V56.0807C96.4208 72.1208 81.2005 85.1756 62.5 85.1756C43.7995 85.1756 28.5792 72.1208 28.5792 56.0807V19.5562H31.2294L33.2711 18.3755H27.4037V56.0807C27.4037 72.7704 43.1447 86.3511 62.5 86.3511C81.8553 86.3511 97.5963 72.7704 97.5963 56.0807V18.3755H91.8062Z" fill="white"/>
</mask>
<g mask="url(#mask1_1_1864)">
<path d="M91.8062 18.3755L93.8531 19.5562H96.4208V56.0807C96.4208 72.1208 81.2005 85.1756 62.5 85.1756C43.7995 85.1756 28.5792 72.1208 28.5792 56.0807V19.5562H31.2294L33.2711 18.3755H27.4037V56.0807C27.4037 72.7704 43.1447 86.3511 62.5 86.3511C81.8553 86.3511 97.5963 72.7704 97.5963 56.0807V18.3755H91.8062Z" fill="url(#paint1_linear_1_1864)"/>
</g>
<mask id="mask2_1_1864" style="mask-type:luminance" maskUnits="userSpaceOnUse" x="109" y="18" width="16" height="58">
<path d="M117.774 41.4678L117.836 35.1529C121.548 34.7033 124.709 31.4762 125 27.7283C121.823 27.9124 118.973 30.1594 117.856 33.091L117.899 28.7693C120.033 25.8258 119.924 21.4567 117.54 18.672C115.102 21.4098 114.907 25.7758 116.984 28.7611L116.941 33.0833C115.883 30.13 113.077 27.8263 109.905 27.5804C110.121 31.3334 113.219 34.6218 116.921 35.1441L116.859 41.4596C115.801 38.5063 112.995 36.2031 109.822 35.9567C110.039 39.7097 113.137 42.9986 116.839 43.5204L116.777 49.8364C115.718 46.8831 112.913 44.5799 109.74 44.3335C109.957 48.0865 113.055 51.3749 116.757 51.8972L116.694 58.2127C115.636 55.2599 112.83 52.9568 109.658 52.7103C109.875 56.4633 112.972 59.7517 116.674 60.274L116.612 66.5895C115.553 63.6362 112.748 61.3331 109.575 61.0871C109.792 64.8401 112.89 68.1285 116.592 68.6508L116.526 75.3272L117.441 75.336L117.507 68.6596C121.218 68.21 124.38 64.9834 124.671 61.2356C121.493 61.4192 118.643 63.6666 117.527 66.5983L117.589 60.2828C121.301 59.8337 124.462 56.6066 124.753 52.8588C121.576 53.0423 118.726 55.2898 117.61 58.2215L117.671 51.9065C121.383 51.4569 124.545 48.2298 124.836 44.482C121.658 44.6655 118.808 46.913 117.691 49.8446L117.754 43.5297C121.465 43.0801 124.627 39.853 124.918 36.1052C121.74 36.2892 118.891 38.5362 117.774 41.4678Z" fill="white"/>
</mask>
<g mask="url(#mask2_1_1864)">
<path d="M117.774 41.4678L117.836 35.1529C121.548 34.7033 124.709 31.4762 125 27.7283C121.823 27.9124 118.973 30.1594 117.856 33.091L117.899 28.7693C120.033 25.8258 119.924 21.4567 117.54 18.672C115.102 21.4098 114.907 25.7758 116.984 28.7611L116.941 33.0833C115.883 30.13 113.077 27.8263 109.905 27.5804C110.121 31.3334 113.219 34.6218 116.921 35.1441L116.859 41.4596C115.801 38.5063 112.995 36.2031 109.822 35.9567C110.039 39.7097 113.137 42.9986 116.839 43.5204L116.777 49.8364C115.718 46.8831 112.913 44.5799 109.74 44.3335C109.957 48.0865 113.055 51.3749 116.757 51.8972L116.694 58.2127C115.636 55.2599 112.83 52.9568 109.658 52.7103C109.875 56.4633 112.972 59.7517 116.674 60.274L116.612 66.5895C115.553 63.6362 112.748 61.3331 109.575 61.0871C109.792 64.8401 112.89 68.1285 116.592 68.6508L116.526 75.3272L117.441 75.336L117.507 68.6596C121.218 68.21 124.38 64.9834 124.671 61.2356C121.493 61.4192 118.643 63.6666 117.527 66.5983L117.589 60.2828C121.301 59.8337 124.462 56.6066 124.753 52.8588C121.576 53.0423 118.726 55.2898 117.61 58.2215L117.671 51.9065C121.383 51.4569 124.545 48.2298 124.836 44.482C121.658 44.6655 118.808 46.913 117.691 49.8446L117.754 43.5297C121.465 43.0801 124.627 39.853 124.918 36.1052C121.74 36.2892 118.891 38.5362 117.774 41.4678Z" fill="url(#paint2_linear_1_1864)"/>
</g>
<mask id="mask3_1_1864" style="mask-type:luminance" maskUnits="userSpaceOnUse" x="0" y="18" width="16" height="58">
<path d="M8.19893 41.4678L8.2608 35.1529C11.9725 34.7033 15.1342 31.4762 15.4249 27.7283C12.2479 27.9124 9.39768 30.1594 8.28143 33.091L8.3237 28.7693C10.4583 25.8258 10.349 21.4567 7.96537 18.672C5.52714 21.4098 5.33224 25.7758 7.40905 28.7611L7.36625 33.0833C6.30775 30.13 3.50241 27.8263 0.328948 27.5804C0.546012 31.3334 3.6442 34.6218 7.34615 35.1441L7.28427 41.4596C6.22576 38.5063 3.42043 36.2031 0.246964 35.9567C0.464028 39.7097 3.56171 42.9986 7.26365 43.5204L7.20178 49.8364C6.14327 46.8831 3.33794 44.5799 0.164471 44.3335C0.381535 48.0865 3.47972 51.3749 7.18167 51.8972L7.11928 58.2127C6.06077 55.2599 3.25544 52.9568 0.0824934 52.7103C0.299042 56.4633 3.39723 59.7517 7.09918 60.274L7.03731 66.5895C5.97828 63.6362 3.17295 61.3331 0 61.0871C0.217064 64.8401 3.31474 68.1285 7.01668 68.6508L6.9512 75.3272L7.86586 75.336L7.93186 68.6596C11.6431 68.21 14.8052 64.9834 15.0955 61.2356C11.9184 61.4192 9.06822 63.6666 7.95197 66.5983L8.01383 60.2828C11.7256 59.8337 14.8872 56.6066 15.178 52.8588C12.0009 53.0423 9.15071 55.2898 8.03446 58.2215L8.09633 51.9065C11.8076 51.4569 14.9697 48.2298 15.2605 44.482C12.0829 44.6655 9.23321 46.913 8.11644 49.8446L8.17883 43.5297C11.8901 43.0801 15.0517 39.853 15.3425 36.1052C12.1654 36.2892 9.3157 38.5362 8.19893 41.4678Z" fill="white"/>
</mask>
<g mask="url(#mask3_1_1864)">
<path d="M8.19893 41.4678L8.2608 35.1529C11.9725 34.7033 15.1342 31.4762 15.4249 27.7283C12.2479 27.9124 9.39768 30.1594 8.28143 33.091L8.3237 28.7693C10.4583 25.8258 10.349 21.4567 7.96537 18.672C5.52714 21.4098 5.33224 25.7758 7.40905 28.7611L7.36625 33.0833C6.30775 30.13 3.50241 27.8263 0.328948 27.5804C0.546012 31.3334 3.6442 34.6218 7.34615 35.1441L7.28427 41.4596C6.22576 38.5063 3.42043 36.2031 0.246964 35.9567C0.464028 39.7097 3.56171 42.9986 7.26365 43.5204L7.20178 49.8364C6.14327 46.8831 3.33794 44.5799 0.164471 44.3335C0.381535 48.0865 3.47972 51.3749 7.18167 51.8972L7.11928 58.2127C6.06077 55.2599 3.25544 52.9568 0.0824934 52.7103C0.299042 56.4633 3.39723 59.7517 7.09918 60.274L7.03731 66.5895C5.97828 63.6362 3.17295 61.3331 0 61.0871C0.217064 64.8401 3.31474 68.1285 7.01668 68.6508L6.9512 75.3272L7.86586 75.336L7.93186 68.6596C11.6431 68.21 14.8052 64.9834 15.0955 61.2356C11.9184 61.4192 9.06822 63.6666 7.95197 66.5983L8.01383 60.2828C11.7256 59.8337 14.8872 56.6066 15.178 52.8588C12.0009 53.0423 9.15071 55.2898 8.03446 58.2215L8.09633 51.9065C11.8076 51.4569 14.9697 48.2298 15.2605 44.482C12.0829 44.6655 9.23321 46.913 8.11644 49.8446L8.17883 43.5297C11.8901 43.0801 15.0517 39.853 15.3425 36.1052C12.1654 36.2892 9.3157 38.5362 8.19893 41.4678Z" fill="url(#paint3_linear_1_1864)"/>
</g>
<mask id="mask4_1_1864" style="mask-type:luminance" maskUnits="userSpaceOnUse" x="62" y="45" width="29" height="30">
<path d="M62.7774 74.8586V74.0032C62.7774 74.0032 67.1775 72.0955 74.637 72.0955C78.0662 72.0955 82.1415 72.4982 86.7349 73.6753L89.879 45.4167L90.2945 46.2721L87.102 74.5306C82.4385 73.3535 78.3008 72.9509 74.819 72.9509C67.245 72.9509 62.7774 74.8586 62.7774 74.8586Z" fill="white"/>
</mask>
<g mask="url(#mask4_1_1864)">
<path d="M62.7774 74.8586V74.0032C62.7774 74.0032 67.1775 72.0955 74.637 72.0955C78.0662 72.0955 82.1415 72.4982 86.7349 73.6753L89.879 45.4167L90.2945 46.2721L87.102 74.5306C82.4385 73.3535 78.3008 72.9509 74.819 72.9509C67.245 72.9509 62.7774 74.8586 62.7774 74.8586Z" fill="url(#paint4_linear_1_1864)"/>
</g>
<mask id="mask5_1_1864" style="mask-type:luminance" maskUnits="userSpaceOnUse" x="62" y="44" width="28" height="31">
<path d="M62.7774 74.0032C62.7774 74.0032 68.368 70.8519 77.5584 70.8519C79.8347 70.8519 82.3302 71.0447 85.018 71.5268L87.7821 44.4985C89.1056 45.0424 89.8681 45.4111 89.879 45.4162V45.4167L86.7349 73.6753C82.1415 72.4982 78.0662 72.0955 74.637 72.0955C67.1775 72.0955 62.7774 74.0032 62.7774 74.0032Z" fill="white"/>
</mask>
<g mask="url(#mask5_1_1864)">
<path d="M62.7774 74.0032C62.7774 74.0032 68.368 70.8519 77.5584 70.8519C79.8347 70.8519 82.3302 71.0447 85.018 71.5268L87.7821 44.4985C89.1056 45.0424 89.8681 45.4111 89.879 45.4162V45.4167L86.7349 73.6753C82.1415 72.4982 78.0662 72.0955 74.637 72.0955C67.1775 72.0955 62.7774 74.0032 62.7774 74.0032Z" fill="url(#paint5_linear_1_1864)"/>
</g>
<mask id="mask6_1_1864" style="mask-type:luminance" maskUnits="userSpaceOnUse" x="62" y="42" width="26" height="33">
<path d="M62.7774 74.0032C62.7774 74.0032 69.378 69.3293 79.9275 69.3293C81.0288 69.3293 82.1734 69.3804 83.3578 69.4928L85.9141 42.2304C87.1979 42.6722 87.9367 42.9862 87.9367 42.9862L87.7821 44.4985L85.018 71.5268C82.3302 71.0447 79.8347 70.8519 77.5584 70.8519C68.368 70.8519 62.7774 74.0032 62.7774 74.0032Z" fill="white"/>
</mask>
<g mask="url(#mask6_1_1864)">
<path d="M62.7774 74.0032C62.7774 74.0032 69.378 69.3293 79.9275 69.3293C81.0288 69.3293 82.1734 69.3804 83.3578 69.4928L85.9141 42.2304C87.1979 42.6722 87.9367 42.9862 87.9367 42.9862L87.7821 44.4985L85.018 71.5268C82.3302 71.0447 79.8347 70.8519 77.5584 70.8519C68.368 70.8519 62.7774 74.0032 62.7774 74.0032Z" fill="url(#paint6_linear_1_1864)"/>
</g>
<mask id="mask7_1_1864" style="mask-type:luminance" maskUnits="userSpaceOnUse" x="62" y="40" width="25" height="35">
<path d="M62.7774 74.0032C62.7774 74.0032 70.1823 67.4717 81.7068 67.3696L84.0378 40.0736C85.318 40.4181 86.0584 40.6851 86.0584 40.6851L85.9141 42.2304L83.3578 69.4928C82.1734 69.3804 81.0288 69.3293 79.9275 69.3293C69.378 69.3293 62.7774 74.0032 62.7774 74.0032Z" fill="white"/>
</mask>
<g mask="url(#mask7_1_1864)">
<path d="M62.7774 74.0032C62.7774 74.0032 70.1823 67.4717 81.7068 67.3696L84.0378 40.0736C85.318 40.4181 86.0584 40.6851 86.0584 40.6851L85.9141 42.2304L83.3578 69.4928C82.1734 69.3804 81.0288 69.3293 79.9275 69.3293C69.378 69.3293 62.7774 74.0032 62.7774 74.0032Z" fill="url(#paint7_linear_1_1864)"/>
</g>
<mask id="mask8_1_1864" style="mask-type:luminance" maskUnits="userSpaceOnUse" x="62" y="37" width="23" height="38">
<path d="M62.7774 74.0032V48.4035C64.3933 48.3891 66.006 48.2468 67.5657 47.9766C66.103 48.5103 64.9321 49.0769 64.0875 49.5378V50.5396C66.0947 49.3816 70.8887 47.1037 77.579 47.1037C77.5811 47.1037 77.5831 47.1037 77.5852 47.1037C78.8489 47.1037 80.1843 47.1857 82.094 47.4399L82.1683 46.5691C80.2415 46.3138 78.8773 46.2303 77.5852 46.2303C75.6285 46.2308 73.8296 46.4195 72.2086 46.717C73.1516 46.3541 74.0457 45.9328 74.8758 45.4528C76.1694 44.7026 77.2171 43.8622 78.0167 42.9666C79.2139 43.0347 80.5916 43.195 82.4287 43.5173L82.5034 42.6439C80.9706 42.3773 79.7466 42.2211 78.6762 42.1365C78.6813 42.1293 78.686 42.1221 78.6911 42.1154C79.5414 40.9007 79.9636 39.606 79.9626 38.316L79.9621 37.538C82.5509 37.8241 84.191 38.2835 84.191 38.2835L84.0378 40.0736L81.7068 67.3696C70.1823 67.4717 62.7774 74.0032 62.7774 74.0032ZM80.7994 62.5952C72.7159 62.9066 66.7712 66.2482 64.0875 68.095V69.1612C66.369 67.5077 72.3829 63.8156 80.7252 63.4696L80.7994 62.5952ZM80.87 58.5328C72.7407 58.5365 66.7763 61.7022 64.0875 63.4567V64.5049C66.3912 62.9211 72.4515 59.4068 80.8592 59.4068C80.8633 59.4068 80.8659 59.4068 80.87 59.4068C80.9365 59.4068 81.0046 59.4088 81.0716 59.4094L81.1464 58.537C81.0546 58.5359 80.9613 58.5328 80.87 58.5328ZM79.7661 54.4715C72.1967 54.4746 66.6495 57.2372 64.0875 58.818V59.8481C66.301 58.4091 71.9364 55.3449 79.7574 55.3449C79.7605 55.3449 79.7631 55.3449 79.7661 55.3449C80.3034 55.3449 80.8566 55.3671 81.4145 55.3975L81.4887 54.5262C80.9056 54.4942 80.3281 54.4715 79.7661 54.4715ZM78.6705 50.3705C71.6605 50.3726 66.5216 52.7629 64.0875 54.1787V55.1939C66.1984 53.8982 71.4089 51.2439 78.6628 51.2439C78.6654 51.2439 78.6679 51.2439 78.6705 51.2439C79.6053 51.2439 80.5787 51.2898 81.7543 51.4172L81.8285 50.5469C80.6287 50.4174 79.6305 50.3705 78.6705 50.3705Z" fill="white"/>
</mask>
<g mask="url(#mask8_1_1864)">
<path d="M62.7774 74.0032V48.4035C64.3933 48.3891 66.006 48.2468 67.5657 47.9766C66.103 48.5103 64.9321 49.0769 64.0875 49.5378V50.5396C66.0947 49.3816 70.8887 47.1037 77.579 47.1037C77.5811 47.1037 77.5831 47.1037 77.5852 47.1037C78.8489 47.1037 80.1843 47.1857 82.094 47.4399L82.1683 46.5691C80.2415 46.3138 78.8773 46.2303 77.5852 46.2303C75.6285 46.2308 73.8296 46.4195 72.2086 46.717C73.1516 46.3541 74.0457 45.9328 74.8758 45.4528C76.1694 44.7026 77.2171 43.8622 78.0167 42.9666C79.2139 43.0347 80.5916 43.195 82.4287 43.5173L82.5034 42.6439C80.9706 42.3773 79.7466 42.2211 78.6762 42.1365C78.6813 42.1293 78.686 42.1221 78.6911 42.1154C79.5414 40.9007 79.9636 39.606 79.9626 38.316L79.9621 37.538C82.5509 37.8241 84.191 38.2835 84.191 38.2835L84.0378 40.0736L81.7068 67.3696C70.1823 67.4717 62.7774 74.0032 62.7774 74.0032ZM80.7994 62.5952C72.7159 62.9066 66.7712 66.2482 64.0875 68.095V69.1612C66.369 67.5077 72.3829 63.8156 80.7252 63.4696L80.7994 62.5952ZM80.87 58.5328C72.7407 58.5365 66.7763 61.7022 64.0875 63.4567V64.5049C66.3912 62.9211 72.4515 59.4068 80.8592 59.4068C80.8633 59.4068 80.8659 59.4068 80.87 59.4068C80.9365 59.4068 81.0046 59.4088 81.0716 59.4094L81.1464 58.537C81.0546 58.5359 80.9613 58.5328 80.87 58.5328ZM79.7661 54.4715C72.1967 54.4746 66.6495 57.2372 64.0875 58.818V59.8481C66.301 58.4091 71.9364 55.3449 79.7574 55.3449C79.7605 55.3449 79.7631 55.3449 79.7661 55.3449C80.3034 55.3449 80.8566 55.3671 81.4145 55.3975L81.4887 54.5262C80.9056 54.4942 80.3281 54.4715 79.7661 54.4715ZM78.6705 50.3705C71.6605 50.3726 66.5216 52.7629 64.0875 54.1787V55.1939C66.1984 53.8982 71.4089 51.2439 78.6628 51.2439C78.6654 51.2439 78.6679 51.2439 78.6705 51.2439C79.6053 51.2439 80.5787 51.2898 81.7543 51.4172L81.8285 50.5469C80.6287 50.4174 79.6305 50.3705 78.6705 50.3705Z" fill="url(#paint8_linear_1_1864)"/>
</g>
<mask id="mask9_1_1864" style="mask-type:luminance" maskUnits="userSpaceOnUse" x="64" y="58" width="18" height="7">
<path d="M64.0875 64.505V63.4568C66.7763 61.7022 72.7407 58.5365 80.87 58.5329C80.9613 58.5329 81.0546 58.536 81.1464 58.537L81.0716 59.4094C81.0046 59.4089 80.9365 59.4068 80.87 59.4068C80.8659 59.4068 80.8633 59.4068 80.8592 59.4068C72.4515 59.4068 66.3912 62.9211 64.0875 64.505Z" fill="white"/>
</mask>
<g mask="url(#mask9_1_1864)">
<path d="M64.0875 64.505V63.4568C66.7763 61.7022 72.7407 58.5365 80.87 58.5329C80.9613 58.5329 81.0546 58.536 81.1464 58.537L81.0716 59.4094C81.0046 59.4089 80.9365 59.4068 80.87 59.4068C80.8659 59.4068 80.8633 59.4068 80.8592 59.4068C72.4515 59.4068 66.3912 62.9211 64.0875 64.505Z" fill="url(#paint9_linear_1_1864)"/>
</g>
<mask id="mask10_1_1864" style="mask-type:luminance" maskUnits="userSpaceOnUse" x="64" y="54" width="18" height="6">
<path d="M64.0875 59.8482V58.818C66.6495 57.2372 72.1967 54.4747 79.7661 54.4716C80.3281 54.4716 80.9056 54.4943 81.4887 54.5262L81.4145 55.3976C80.8566 55.3672 80.3034 55.345 79.7661 55.345C79.763 55.345 79.7605 55.345 79.7574 55.345C71.9364 55.345 66.301 58.4092 64.0875 59.8482Z" fill="white"/>
</mask>
<g mask="url(#mask10_1_1864)">
<path d="M64.0875 59.8482V58.818C66.6495 57.2372 72.1967 54.4747 79.7661 54.4716C80.3281 54.4716 80.9056 54.4943 81.4887 54.5262L81.4145 55.3976C80.8566 55.3672 80.3034 55.345 79.7661 55.345C79.763 55.345 79.7605 55.345 79.7574 55.345C71.9364 55.345 66.301 58.4092 64.0875 59.8482Z" fill="url(#paint10_linear_1_1864)"/>
</g>
<mask id="mask11_1_1864" style="mask-type:luminance" maskUnits="userSpaceOnUse" x="64" y="62" width="17" height="8">
<path d="M64.0875 69.1613V68.095C66.7712 66.2482 72.7159 62.9066 80.7994 62.5952L80.7251 63.4696C72.3829 63.8156 66.369 67.5078 64.0875 69.1613Z" fill="white"/>
</mask>
<g mask="url(#mask11_1_1864)">
<path d="M64.0875 69.1613V68.095C66.7712 66.2482 72.7159 62.9066 80.7994 62.5952L80.7251 63.4696C72.3829 63.8156 66.369 67.5078 64.0875 69.1613Z" fill="url(#paint11_linear_1_1864)"/>
</g>
<mask id="mask12_1_1864" style="mask-type:luminance" maskUnits="userSpaceOnUse" x="78" y="42" width="5" height="2">
<path d="M82.4286 43.5173C80.5916 43.1951 79.2139 43.0347 78.0167 42.9667C78.2596 42.6945 78.4792 42.4176 78.6762 42.1366C79.7465 42.2211 80.9705 42.3774 82.5034 42.6439L82.4286 43.5173Z" fill="white"/>
</mask>
<g mask="url(#mask12_1_1864)">
<path d="M82.4286 43.5173C80.5916 43.1951 79.2139 43.0347 78.0167 42.9667C78.2596 42.6945 78.4792 42.4176 78.6762 42.1366C79.7465 42.2211 80.9705 42.3774 82.5034 42.6439L82.4286 43.5173Z" fill="url(#paint12_linear_1_1864)"/>
</g>
<mask id="mask13_1_1864" style="mask-type:luminance" maskUnits="userSpaceOnUse" x="64" y="46" width="19" height="5">
<path d="M64.0875 50.5396V49.5379C64.9321 49.0769 66.103 48.5103 67.5657 47.9766C69.1903 47.6956 70.7572 47.2754 72.2086 46.7171C73.8296 46.4196 75.6285 46.2308 77.5852 46.2303C78.8773 46.2303 80.2415 46.3139 82.1683 46.5691L82.094 47.4399C80.1843 47.1857 78.8489 47.1037 77.5852 47.1037C77.5831 47.1037 77.5811 47.1037 77.579 47.1037C70.8887 47.1037 66.0947 49.3816 64.0875 50.5396Z" fill="white"/>
</mask>
<g mask="url(#mask13_1_1864)">
<path d="M64.0875 50.5396V49.5379C64.9321 49.0769 66.103 48.5103 67.5657 47.9766C69.1903 47.6956 70.7572 47.2754 72.2086 46.7171C73.8296 46.4196 75.6285 46.2308 77.5852 46.2303C78.8773 46.2303 80.2415 46.3139 82.1683 46.5691L82.094 47.4399C80.1843 47.1857 78.8489 47.1037 77.5852 47.1037C77.5831 47.1037 77.5811 47.1037 77.579 47.1037C70.8887 47.1037 66.0947 49.3816 64.0875 50.5396Z" fill="url(#paint13_linear_1_1864)"/>
</g>
<mask id="mask14_1_1864" style="mask-type:luminance" maskUnits="userSpaceOnUse" x="64" y="50" width="18" height="6">
<path d="M64.0875 55.1939V54.1787C66.5216 52.7629 71.6605 50.3726 78.6705 50.3705C79.6305 50.3705 80.6287 50.4175 81.8285 50.5469L81.7543 51.4172C80.5787 51.2898 79.6053 51.244 78.6705 51.244C78.6679 51.244 78.6654 51.244 78.6628 51.244C71.4089 51.244 66.1984 53.8982 64.0875 55.1939Z" fill="white"/>
</mask>
<g mask="url(#mask14_1_1864)">
<path d="M64.0875 55.1939V54.1787C66.5216 52.7629 71.6605 50.3726 78.6705 50.3705C79.6305 50.3705 80.6287 50.4175 81.8285 50.5469L81.7543 51.4172C80.5787 51.2898 79.6053 51.244 78.6705 51.244C78.6679 51.244 78.6654 51.244 78.6628 51.244C71.4089 51.244 66.1984 53.8982 64.0875 55.1939Z" fill="url(#paint14_linear_1_1864)"/>
</g>
<mask id="mask15_1_1864" style="mask-type:luminance" maskUnits="userSpaceOnUse" x="62" y="42" width="26" height="33">
<path d="M62.7774 74.0032C64.449 73.105 66.2504 72.4667 68.0772 71.9511C69.9091 71.4443 71.7863 71.1025 73.677 70.8921C74.1498 70.8385 74.6252 70.8132 75.099 70.7725L75.811 70.7168L76.5246 70.6977L77.9518 70.6668L79.3789 70.7147C80.3323 70.7219 81.2774 70.8529 82.2266 70.9246C83.1732 71.0256 84.1116 71.1911 85.0546 71.3211L84.8097 71.5057C85.2742 66.7467 85.8001 61.994 86.2961 57.2382L87.0927 50.1096L87.9362 42.9862L87.3211 50.1333L86.6581 57.2753C86.1811 62.0327 85.7341 66.7937 85.2257 71.5479L85.2025 71.7645L84.9808 71.7325C84.0476 71.5985 83.1185 71.4283 82.1817 71.3226C81.2423 71.2458 80.306 71.1102 79.3619 71.0978L77.9482 71.0411L76.5339 71.0571L75.826 71.0628L75.1196 71.105C74.6494 71.137 74.1771 71.153 73.7074 71.1978C71.8266 71.3654 69.9617 71.6887 68.1246 72.1326C66.2922 72.5853 64.4768 73.1612 62.7774 74.0032Z" fill="white"/>
</mask>
<g mask="url(#mask15_1_1864)">
<path d="M62.7774 74.0032C64.449 73.105 66.2504 72.4667 68.0772 71.9511C69.9091 71.4443 71.7863 71.1025 73.677 70.8921C74.1498 70.8385 74.6252 70.8132 75.099 70.7725L75.811 70.7168L76.5246 70.6977L77.9518 70.6668L79.3789 70.7147C80.3323 70.7219 81.2774 70.8529 82.2266 70.9246C83.1732 71.0256 84.1116 71.1911 85.0546 71.3211L84.8097 71.5057C85.2742 66.7467 85.8001 61.994 86.2961 57.2382L87.0927 50.1096L87.9362 42.9862L87.3211 50.1333L86.6581 57.2753C86.1811 62.0327 85.7341 66.7937 85.2257 71.5479L85.2025 71.7645L84.9808 71.7325C84.0476 71.5985 83.1185 71.4283 82.1817 71.3226C81.2423 71.2458 80.306 71.1102 79.3619 71.0978L77.9482 71.0411L76.5339 71.0571L75.826 71.0628L75.1196 71.105C74.6494 71.137 74.1771 71.153 73.7074 71.1978C71.8266 71.3654 69.9617 71.6887 68.1246 72.1326C66.2922 72.5853 64.4768 73.1612 62.7774 74.0032Z" fill="url(#paint15_linear_1_1864)"/>
</g>
<mask id="mask16_1_1864" style="mask-type:luminance" maskUnits="userSpaceOnUse" x="62" y="40" width="25" height="35">
<path d="M62.7774 74.0032C64.2551 72.9952 65.8715 72.2012 67.5286 71.5247C69.1903 70.855 70.9098 70.3203 72.6639 69.9419C74.4184 69.5773 76.1972 69.2767 77.9935 69.2071C78.8891 69.1272 79.7883 69.1576 80.6865 69.1489C81.5846 69.1556 82.4802 69.2438 83.3773 69.2871L83.1526 69.4732C83.5728 64.6694 84.0677 59.8723 84.5245 55.0717L85.267 47.8761L86.0589 40.6851L85.4995 47.8977L84.8922 55.1062C84.4482 59.9079 84.0435 64.7132 83.5635 69.5119L83.5434 69.7093L83.3382 69.698C82.4519 69.65 81.5661 69.5567 80.6782 69.5449C79.7899 69.5479 78.9005 69.5118 78.0142 69.5856C76.2374 69.6536 74.4721 69.9027 72.7258 70.2342C70.9769 70.5693 69.2692 71.0901 67.5941 71.6933C65.9241 72.3105 64.2876 73.0462 62.7774 74.0032Z" fill="white"/>
</mask>
<g mask="url(#mask16_1_1864)">
<path d="M62.7774 74.0032C64.2551 72.9952 65.8715 72.2012 67.5286 71.5247C69.1903 70.855 70.9098 70.3203 72.6639 69.9419C74.4184 69.5773 76.1972 69.2767 77.9935 69.2071C78.8891 69.1272 79.7883 69.1576 80.6865 69.1489C81.5846 69.1556 82.4802 69.2438 83.3773 69.2871L83.1526 69.4732C83.5728 64.6694 84.0677 59.8723 84.5245 55.0717L85.267 47.8761L86.0589 40.6851L85.4995 47.8977L84.8922 55.1062C84.4482 59.9079 84.0435 64.7132 83.5635 69.5119L83.5434 69.7093L83.3382 69.698C82.4519 69.65 81.5661 69.5567 80.6782 69.5449C79.7899 69.5479 78.9005 69.5118 78.0142 69.5856C76.2374 69.6536 74.4721 69.9027 72.7258 70.2342C70.9769 70.5693 69.2692 71.0901 67.5941 71.6933C65.9241 72.3105 64.2876 73.0462 62.7774 74.0032Z" fill="url(#paint16_linear_1_1864)"/>
</g>
<mask id="mask17_1_1864" style="mask-type:luminance" maskUnits="userSpaceOnUse" x="62" y="38" width="23" height="37">
<path d="M62.7774 74.0032C64.07 72.8947 65.5018 71.9527 66.9882 71.1164C68.4737 70.2765 70.0375 69.5711 71.6482 68.9999C73.2584 68.4312 74.9077 67.9465 76.5978 67.6671C78.2797 67.3376 79.994 67.2273 81.7048 67.1654L81.5032 67.352C81.8878 62.5019 82.34 57.6574 82.7638 52.8108L83.4516 45.5451L84.191 38.2835L83.6877 45.5652L83.134 52.8423C82.7298 57.6909 82.3539 62.5416 81.91 67.3871L81.8935 67.5681L81.7084 67.5737C80.0198 67.6243 78.3266 67.7217 76.6628 68.0373C74.9933 68.3095 73.3501 68.7364 71.7451 69.2757C70.1339 69.8037 68.5814 70.4977 67.0713 71.27C65.5652 72.0511 64.1071 72.94 62.7774 74.0032Z" fill="white"/>
</mask>
<g mask="url(#mask17_1_1864)">
<path d="M62.7774 74.0032C64.07 72.8947 65.5018 71.9527 66.9882 71.1164C68.4737 70.2765 70.0375 69.5711 71.6482 68.9999C73.2584 68.4312 74.9077 67.9465 76.5978 67.6671C78.2797 67.3376 79.994 67.2273 81.7048 67.1654L81.5032 67.352C81.8878 62.5019 82.34 57.6574 82.7638 52.8108L83.4516 45.5451L84.191 38.2835L83.6877 45.5652L83.134 52.8423C82.7298 57.6909 82.3539 62.5416 81.91 67.3871L81.8935 67.5681L81.7084 67.5737C80.0198 67.6243 78.3266 67.7217 76.6628 68.0373C74.9933 68.3095 73.3501 68.7364 71.7451 69.2757C70.1339 69.8037 68.5814 70.4977 67.0713 71.27C65.5652 72.0511 64.1071 72.94 62.7774 74.0032Z" fill="url(#paint17_linear_1_1864)"/>
</g>
<mask id="mask18_1_1864" style="mask-type:luminance" maskUnits="userSpaceOnUse" x="35" y="45" width="28" height="30">
<path d="M62.7774 74.8586C62.7774 74.8586 58.3098 72.9509 50.7358 72.9509C47.254 72.9509 43.1163 73.3535 38.4523 74.5306L35.2603 46.2721L35.6758 45.4162L38.8199 73.6753C43.4133 72.4982 47.4881 72.0955 50.9178 72.0955C58.3773 72.0955 62.7774 74.0032 62.7774 74.0032V74.8586Z" fill="white"/>
</mask>
<g mask="url(#mask18_1_1864)">
<path d="M62.7774 74.8586C62.7774 74.8586 58.3098 72.9509 50.7358 72.9509C47.254 72.9509 43.1163 73.3535 38.4523 74.5306L35.2603 46.2721L35.6758 45.4162L38.8199 73.6753C43.4133 72.4982 47.4881 72.0955 50.9178 72.0955C58.3773 72.0955 62.7774 74.0032 62.7774 74.0032V74.8586Z" fill="url(#paint18_linear_1_1864)"/>
</g>
<mask id="mask19_1_1864" style="mask-type:luminance" maskUnits="userSpaceOnUse" x="35" y="44" width="28" height="31">
<path d="M62.7774 74.0032C62.7774 74.0032 58.3773 72.0955 50.9178 72.0955C47.488 72.0955 43.4133 72.4982 38.8199 73.6753L35.6758 45.4162C35.6862 45.4116 36.4492 45.0424 37.7728 44.4985L40.5368 71.5268C43.2246 71.0447 45.7201 70.8519 47.9959 70.8519C57.1868 70.8519 62.7774 74.0032 62.7774 74.0032Z" fill="white"/>
</mask>
<g mask="url(#mask19_1_1864)">
<path d="M62.7774 74.0032C62.7774 74.0032 58.3773 72.0955 50.9178 72.0955C47.488 72.0955 43.4133 72.4982 38.8199 73.6753L35.6758 45.4162C35.6862 45.4116 36.4492 45.0424 37.7728 44.4985L40.5368 71.5268C43.2246 71.0447 45.7201 70.8519 47.9959 70.8519C57.1868 70.8519 62.7774 74.0032 62.7774 74.0032Z" fill="url(#paint19_linear_1_1864)"/>
</g>
<mask id="mask20_1_1864" style="mask-type:luminance" maskUnits="userSpaceOnUse" x="37" y="42" width="26" height="33">
<path d="M62.7774 74.0032C62.7774 74.0032 57.1868 70.8519 47.9959 70.8519C45.7201 70.8519 43.2246 71.0447 40.5368 71.5268L37.7727 44.4985L37.6181 42.9862C37.6181 42.9862 38.3569 42.6722 39.6407 42.2304L42.197 69.4928C43.3814 69.3804 44.526 69.3293 45.6273 69.3293C56.1768 69.3293 62.7774 74.0032 62.7774 74.0032Z" fill="white"/>
</mask>
<g mask="url(#mask20_1_1864)">
<path d="M62.7774 74.0032C62.7774 74.0032 57.1868 70.8519 47.9959 70.8519C45.7201 70.8519 43.2246 71.0447 40.5368 71.5268L37.7727 44.4985L37.6181 42.9862C37.6181 42.9862 38.3569 42.6722 39.6407 42.2304L42.197 69.4928C43.3814 69.3804 44.526 69.3293 45.6273 69.3293C56.1768 69.3293 62.7774 74.0032 62.7774 74.0032Z" fill="url(#paint20_linear_1_1864)"/>
</g>
<mask id="mask21_1_1864" style="mask-type:luminance" maskUnits="userSpaceOnUse" x="39" y="40" width="24" height="35">
<path d="M62.7774 74.0032C62.7774 74.0032 56.1768 69.3293 45.6273 69.3293C44.526 69.3293 43.3813 69.3804 42.197 69.4928L39.6407 42.2304L39.4958 40.6851C39.4958 40.6851 40.2368 40.4181 41.5164 40.0736L43.848 67.3696C55.3719 67.4717 62.7774 74.0032 62.7774 74.0032Z" fill="white"/>
</mask>
<g mask="url(#mask21_1_1864)">
<path d="M62.7774 74.0032C62.7774 74.0032 56.1768 69.3293 45.6273 69.3293C44.526 69.3293 43.3813 69.3804 42.197 69.4928L39.6407 42.2304L39.4958 40.6851C39.4958 40.6851 40.2368 40.4181 41.5164 40.0736L43.848 67.3696C55.3719 67.4717 62.7774 74.0032 62.7774 74.0032Z" fill="url(#paint21_linear_1_1864)"/>
</g>
<mask id="mask22_1_1864" style="mask-type:luminance" maskUnits="userSpaceOnUse" x="41" y="37" width="22" height="38">
<path d="M62.7774 74.0032C62.7774 74.0032 55.372 67.4717 43.848 67.3696L41.5165 40.0736L41.3639 38.2835C41.3639 38.2835 42.7833 37.886 45.0653 37.6003L45.0658 38.3428C45.0668 39.6493 45.5015 40.9553 46.3708 42.1809C45.4231 42.2721 44.3476 42.4186 43.0514 42.6439L43.1261 43.5173C44.7085 43.2399 45.9495 43.0826 47.0287 43.0007C47.8299 43.8911 48.8765 44.7258 50.1686 45.4714C50.8709 45.8761 51.619 46.2391 52.4037 46.5598C51.0358 46.3546 49.5545 46.2308 47.9696 46.2303C46.6775 46.2303 45.3133 46.3138 43.3865 46.5691L43.4608 47.4399C45.3705 47.1857 46.7054 47.1037 47.9696 47.1037C47.9717 47.1037 47.9737 47.1037 47.9758 47.1037C54.6661 47.1037 59.4601 49.3816 61.4668 50.5396V49.5378C60.6996 49.1192 59.6632 48.6129 58.383 48.1241C59.7344 48.3112 61.1177 48.4051 62.501 48.4051C62.5933 48.4051 62.6851 48.4046 62.7774 48.4035V74.0032ZM44.7554 62.5952L44.8297 63.4696C53.1719 63.8156 59.1858 67.5077 61.4668 69.1612V68.095C58.7831 66.2482 52.8389 62.9066 44.7554 62.5952ZM44.6956 59.4068C53.1028 59.4068 59.1636 62.9211 61.4668 64.5049V63.4567C58.7785 61.7022 52.8141 58.5365 44.6848 58.5328C44.5935 58.5328 44.5002 58.5359 44.4084 58.537L44.4832 59.4094C44.5502 59.4088 44.6183 59.4068 44.6848 59.4068C44.6889 59.4068 44.6915 59.4068 44.6956 59.4068ZM45.7974 55.3449C53.6184 55.3449 59.2538 58.4091 61.4668 59.8481V58.818C58.9053 57.2372 53.3581 54.4746 45.7887 54.4715C45.2267 54.4715 44.6492 54.4942 44.0661 54.5262L44.1403 55.3975C44.6982 55.3671 45.2509 55.3449 45.7887 55.3449C45.7918 55.3449 45.7943 55.3449 45.7974 55.3449ZM46.892 51.2439C54.1459 51.2439 59.3559 53.8982 61.4668 55.1939V54.1787C59.0332 52.7629 53.8943 50.3726 46.8843 50.3705C45.9243 50.3705 44.9261 50.4174 43.7263 50.5469L43.8005 51.4172C44.9761 51.2898 45.949 51.2439 46.8843 51.2439C46.8869 51.2439 46.8895 51.2439 46.892 51.2439Z" fill="white"/>
</mask>
<g mask="url(#mask22_1_1864)">
<path d="M62.7774 74.0032C62.7774 74.0032 55.372 67.4717 43.848 67.3696L41.5165 40.0736L41.3639 38.2835C41.3639 38.2835 42.7833 37.886 45.0653 37.6003L45.0658 38.3428C45.0668 39.6493 45.5015 40.9553 46.3708 42.1809C45.4231 42.2721 44.3476 42.4186 43.0514 42.6439L43.1261 43.5173C44.7085 43.2399 45.9495 43.0826 47.0287 43.0007C47.8299 43.8911 48.8765 44.7258 50.1686 45.4714C50.8709 45.8761 51.619 46.2391 52.4037 46.5598C51.0358 46.3546 49.5545 46.2308 47.9696 46.2303C46.6775 46.2303 45.3133 46.3138 43.3865 46.5691L43.4608 47.4399C45.3705 47.1857 46.7054 47.1037 47.9696 47.1037C47.9717 47.1037 47.9737 47.1037 47.9758 47.1037C54.6661 47.1037 59.4601 49.3816 61.4668 50.5396V49.5378C60.6996 49.1192 59.6632 48.6129 58.383 48.1241C59.7344 48.3112 61.1177 48.4051 62.501 48.4051C62.5933 48.4051 62.6851 48.4046 62.7774 48.4035V74.0032ZM44.7554 62.5952L44.8297 63.4696C53.1719 63.8156 59.1858 67.5077 61.4668 69.1612V68.095C58.7831 66.2482 52.8389 62.9066 44.7554 62.5952ZM44.6956 59.4068C53.1028 59.4068 59.1636 62.9211 61.4668 64.5049V63.4567C58.7785 61.7022 52.8141 58.5365 44.6848 58.5328C44.5935 58.5328 44.5002 58.5359 44.4084 58.537L44.4832 59.4094C44.5502 59.4088 44.6183 59.4068 44.6848 59.4068C44.6889 59.4068 44.6915 59.4068 44.6956 59.4068ZM45.7974 55.3449C53.6184 55.3449 59.2538 58.4091 61.4668 59.8481V58.818C58.9053 57.2372 53.3581 54.4746 45.7887 54.4715C45.2267 54.4715 44.6492 54.4942 44.0661 54.5262L44.1403 55.3975C44.6982 55.3671 45.2509 55.3449 45.7887 55.3449C45.7918 55.3449 45.7943 55.3449 45.7974 55.3449ZM46.892 51.2439C54.1459 51.2439 59.3559 53.8982 61.4668 55.1939V54.1787C59.0332 52.7629 53.8943 50.3726 46.8843 50.3705C45.9243 50.3705 44.9261 50.4174 43.7263 50.5469L43.8005 51.4172C44.9761 51.2898 45.949 51.2439 46.8843 51.2439C46.8869 51.2439 46.8895 51.2439 46.892 51.2439Z" fill="url(#paint22_linear_1_1864)"/>
</g>
<mask id="mask23_1_1864" style="mask-type:luminance" maskUnits="userSpaceOnUse" x="44" y="58" width="18" height="7">
<path d="M61.4668 64.505C59.1636 62.9211 53.1029 59.4068 44.6956 59.4068C44.6915 59.4068 44.6889 59.4068 44.6848 59.4068C44.6183 59.4068 44.5502 59.4089 44.4832 59.4094L44.4084 58.537C44.5002 58.536 44.5935 58.5329 44.6848 58.5329C52.8141 58.5365 58.7785 61.7022 61.4668 63.4568V64.505Z" fill="white"/>
</mask>
<g mask="url(#mask23_1_1864)">
<path d="M61.4668 64.505C59.1636 62.9211 53.1029 59.4068 44.6956 59.4068C44.6915 59.4068 44.6889 59.4068 44.6848 59.4068C44.6183 59.4068 44.5502 59.4089 44.4832 59.4094L44.4084 58.537C44.5002 58.536 44.5935 58.5329 44.6848 58.5329C52.8141 58.5365 58.7785 61.7022 61.4668 63.4568V64.505Z" fill="url(#paint23_linear_1_1864)"/>
</g>
<mask id="mask24_1_1864" style="mask-type:luminance" maskUnits="userSpaceOnUse" x="44" y="54" width="18" height="6">
<path d="M61.4668 59.8482C59.2538 58.4092 53.6184 55.345 45.7974 55.345C45.7943 55.345 45.7918 55.345 45.7887 55.345C45.2509 55.345 44.6982 55.3672 44.1403 55.3976L44.0661 54.5262C44.6492 54.4943 45.2267 54.4716 45.7887 54.4716C53.3581 54.4747 58.9053 57.2372 61.4668 58.818V59.8482Z" fill="white"/>
</mask>
<g mask="url(#mask24_1_1864)">
<path d="M61.4668 59.8482C59.2538 58.4092 53.6184 55.345 45.7974 55.345C45.7943 55.345 45.7918 55.345 45.7887 55.345C45.2509 55.345 44.6982 55.3672 44.1403 55.3976L44.0661 54.5262C44.6492 54.4943 45.2267 54.4716 45.7887 54.4716C53.3581 54.4747 58.9053 57.2372 61.4668 58.818V59.8482Z" fill="url(#paint24_linear_1_1864)"/>
</g>
<mask id="mask25_1_1864" style="mask-type:luminance" maskUnits="userSpaceOnUse" x="44" y="62" width="18" height="8">
<path d="M61.4668 69.1613C59.1858 67.5078 53.1719 63.8156 44.8297 63.4696L44.7554 62.5952C52.8389 62.9066 58.7831 66.2482 61.4668 68.095V69.1613Z" fill="white"/>
</mask>
<g mask="url(#mask25_1_1864)">
<path d="M61.4668 69.1613C59.1858 67.5078 53.1719 63.8156 44.8297 63.4696L44.7554 62.5952C52.8389 62.9066 58.7831 66.2482 61.4668 68.095V69.1613Z" fill="url(#paint25_linear_1_1864)"/>
</g>
<mask id="mask26_1_1864" style="mask-type:luminance" maskUnits="userSpaceOnUse" x="43" y="42" width="5" height="2">
<path d="M43.1261 43.5173L43.0514 42.6439C44.3476 42.4186 45.4231 42.2722 46.3708 42.1809C46.5677 42.4583 46.7868 42.7321 47.0287 43.0007C45.9495 43.0827 44.7085 43.2399 43.1261 43.5173Z" fill="white"/>
</mask>
<g mask="url(#mask26_1_1864)">
<path d="M43.1261 43.5173L43.0514 42.6439C44.3476 42.4186 45.4231 42.2722 46.3708 42.1809C46.5677 42.4583 46.7868 42.7321 47.0287 43.0007C45.9495 43.0827 44.7085 43.2399 43.1261 43.5173Z" fill="url(#paint26_linear_1_1864)"/>
</g>
<mask id="mask27_1_1864" style="mask-type:luminance" maskUnits="userSpaceOnUse" x="43" y="46" width="19" height="5">
<path d="M61.4668 50.5396C59.4601 49.3816 54.6661 47.1037 47.9758 47.1037C47.9738 47.1037 47.9717 47.1037 47.9696 47.1037C46.7054 47.1037 45.3705 47.1857 43.4608 47.4399L43.3865 46.5691C45.3133 46.3139 46.6776 46.2303 47.9696 46.2303C49.5546 46.2308 51.0358 46.3546 52.4037 46.5598C54.2372 47.31 56.2717 47.8312 58.383 48.1241C59.6632 48.6129 60.6996 49.1192 61.4668 49.5379V50.5396Z" fill="white"/>
</mask>
<g mask="url(#mask27_1_1864)">
<path d="M61.4668 50.5396C59.4601 49.3816 54.6661 47.1037 47.9758 47.1037C47.9738 47.1037 47.9717 47.1037 47.9696 47.1037C46.7054 47.1037 45.3705 47.1857 43.4608 47.4399L43.3865 46.5691C45.3133 46.3139 46.6776 46.2303 47.9696 46.2303C49.5546 46.2308 51.0358 46.3546 52.4037 46.5598C54.2372 47.31 56.2717 47.8312 58.383 48.1241C59.6632 48.6129 60.6996 49.1192 61.4668 49.5379V50.5396Z" fill="url(#paint27_linear_1_1864)"/>
</g>
<mask id="mask28_1_1864" style="mask-type:luminance" maskUnits="userSpaceOnUse" x="43" y="50" width="19" height="6">
<path d="M61.4667 55.1939C59.3559 53.8982 54.1459 51.244 46.892 51.244C46.8894 51.244 46.8868 51.244 46.8843 51.244C45.949 51.244 44.9761 51.2898 43.8005 51.4172L43.7263 50.5469C44.926 50.4175 45.9242 50.3705 46.8843 50.3705C53.8942 50.3726 59.0331 52.7629 61.4667 54.1787V55.1939Z" fill="white"/>
</mask>
<g mask="url(#mask28_1_1864)">
<path d="M61.4667 55.1939C59.3559 53.8982 54.1459 51.244 46.892 51.244C46.8894 51.244 46.8868 51.244 46.8843 51.244C45.949 51.244 44.9761 51.2898 43.8005 51.4172L43.7263 50.5469C44.926 50.4175 45.9242 50.3705 46.8843 50.3705C53.8942 50.3726 59.0331 52.7629 61.4667 54.1787V55.1939Z" fill="url(#paint28_linear_1_1864)"/>
</g>
<mask id="mask29_1_1864" style="mask-type:luminance" maskUnits="userSpaceOnUse" x="37" y="42" width="26" height="33">
<path d="M62.7774 74.0032C61.078 73.1612 59.2626 72.5853 57.4297 72.1326C55.5931 71.6887 53.7282 71.3654 51.8474 71.1978C51.3777 71.153 50.9054 71.137 50.4352 71.105L49.7288 71.0628L49.0209 71.0571L47.6066 71.0411L46.1929 71.0978C45.2488 71.1102 44.3125 71.2458 43.3731 71.3226C42.4363 71.4283 41.5072 71.5985 40.574 71.7325L40.3522 71.7645L40.3291 71.5479C39.8207 66.7937 39.3737 62.0327 38.8967 57.2753L38.2337 50.1333L37.6181 42.9862L38.4621 50.1096L39.2587 57.2382C39.7547 61.994 40.2806 66.7467 40.7446 71.5057L40.5002 71.3211C41.4432 71.1911 42.3816 71.0256 43.3282 70.9246C44.2774 70.8529 45.2225 70.7219 46.1759 70.7147L47.6025 70.6668L49.0302 70.6977L49.7438 70.7168L50.4558 70.7725C50.9296 70.8132 51.405 70.8385 51.8778 70.8921C53.7685 71.1025 55.6457 71.4443 57.4776 71.9511C59.3044 72.4667 61.1058 73.105 62.7774 74.0032Z" fill="white"/>
</mask>
<g mask="url(#mask29_1_1864)">
<path d="M62.7774 74.0032C61.078 73.1612 59.2626 72.5853 57.4297 72.1326C55.5931 71.6887 53.7282 71.3654 51.8474 71.1978C51.3777 71.153 50.9054 71.137 50.4352 71.105L49.7288 71.0628L49.0209 71.0571L47.6066 71.0411L46.1929 71.0978C45.2488 71.1102 44.3125 71.2458 43.3731 71.3226C42.4363 71.4283 41.5072 71.5985 40.574 71.7325L40.3522 71.7645L40.3291 71.5479C39.8207 66.7937 39.3737 62.0327 38.8967 57.2753L38.2337 50.1333L37.6181 42.9862L38.4621 50.1096L39.2587 57.2382C39.7547 61.994 40.2806 66.7467 40.7446 71.5057L40.5002 71.3211C41.4432 71.1911 42.3816 71.0256 43.3282 70.9246C44.2774 70.8529 45.2225 70.7219 46.1759 70.7147L47.6025 70.6668L49.0302 70.6977L49.7438 70.7168L50.4558 70.7725C50.9296 70.8132 51.405 70.8385 51.8778 70.8921C53.7685 71.1025 55.6457 71.4443 57.4776 71.9511C59.3044 72.4667 61.1058 73.105 62.7774 74.0032Z" fill="url(#paint29_linear_1_1864)"/>
</g>
<mask id="mask30_1_1864" style="mask-type:luminance" maskUnits="userSpaceOnUse" x="39" y="40" width="24" height="35">
<path d="M62.7774 74.0032C61.2672 73.0462 59.6307 72.3105 57.9607 71.6933C56.2856 71.0901 54.5774 70.5693 52.829 70.2342C51.0827 69.9027 49.3174 69.6536 47.5406 69.5856C46.6543 69.5118 45.7649 69.5479 44.8766 69.5449C43.9887 69.5567 43.1029 69.65 42.2166 69.698L42.0114 69.7093L41.9913 69.5119C41.5113 64.7132 41.1066 59.9079 40.6626 55.1062L40.0547 47.8977L39.4958 40.6851L40.2878 47.8761L41.0303 55.0717C41.4871 59.8723 41.982 64.6694 42.4022 69.4732L42.1774 69.2871C43.0746 69.2438 43.9702 69.1556 44.8683 69.1489C45.7665 69.1576 46.6657 69.1272 47.5612 69.2071C49.3576 69.2767 51.1363 69.5773 52.8909 69.9419C54.6449 70.3203 56.3645 70.855 58.0262 71.5247C59.6833 72.2012 61.2997 72.9952 62.7774 74.0032Z" fill="white"/>
</mask>
<g mask="url(#mask30_1_1864)">
<path d="M62.7774 74.0032C61.2672 73.0462 59.6307 72.3105 57.9607 71.6933C56.2856 71.0901 54.5774 70.5693 52.829 70.2342C51.0827 69.9027 49.3174 69.6536 47.5406 69.5856C46.6543 69.5118 45.7649 69.5479 44.8766 69.5449C43.9887 69.5567 43.1029 69.65 42.2166 69.698L42.0114 69.7093L41.9913 69.5119C41.5113 64.7132 41.1066 59.9079 40.6626 55.1062L40.0547 47.8977L39.4958 40.6851L40.2878 47.8761L41.0303 55.0717C41.4871 59.8723 41.982 64.6694 42.4022 69.4732L42.1774 69.2871C43.0746 69.2438 43.9702 69.1556 44.8683 69.1489C45.7665 69.1576 46.6657 69.1272 47.5612 69.2071C49.3576 69.2767 51.1363 69.5773 52.8909 69.9419C54.6449 70.3203 56.3645 70.855 58.0262 71.5247C59.6833 72.2012 61.2997 72.9952 62.7774 74.0032Z" fill="url(#paint30_linear_1_1864)"/>
</g>
<mask id="mask31_1_1864" style="mask-type:luminance" maskUnits="userSpaceOnUse" x="41" y="38" width="22" height="37">
<path d="M62.7774 74.0032C61.4477 72.94 59.9896 72.0511 58.4836 71.27C56.9734 70.4977 55.4209 69.8037 53.8097 69.2757C52.2047 68.7364 50.5615 68.3095 48.892 68.0373C47.2282 67.7217 45.5345 67.6243 43.8464 67.5737L43.6613 67.5681L43.6448 67.3871C43.2009 62.5416 42.825 57.6909 42.4208 52.8423L41.8666 45.5652L41.3639 38.2835L42.1027 45.5451L42.791 52.8108C43.2148 57.6574 43.667 62.5019 44.0516 67.352L43.85 67.1654C45.5608 67.2273 47.2751 67.3376 48.957 67.6671C50.6471 67.9465 52.2965 68.4312 53.9061 68.9999C55.5174 69.5711 57.0811 70.2765 58.5666 71.1164C60.053 71.9527 61.4843 72.8947 62.7774 74.0032Z" fill="white"/>
</mask>
<g mask="url(#mask31_1_1864)">
<path d="M62.7774 74.0032C61.4477 72.94 59.9896 72.0511 58.4836 71.27C56.9734 70.4977 55.4209 69.8037 53.8097 69.2757C52.2047 68.7364 50.5615 68.3095 48.892 68.0373C47.2282 67.7217 45.5345 67.6243 43.8464 67.5737L43.6613 67.5681L43.6448 67.3871C43.2009 62.5416 42.825 57.6909 42.4208 52.8423L41.8666 45.5652L41.3639 38.2835L42.1027 45.5451L42.791 52.8108C43.2148 57.6574 43.667 62.5019 44.0516 67.352L43.85 67.1654C45.5608 67.2273 47.2751 67.3376 48.957 67.6671C50.6471 67.9465 52.2965 68.4312 53.9061 68.9999C55.5174 69.5711 57.0811 70.2765 58.5666 71.1164C60.053 71.9527 61.4843 72.8947 62.7774 74.0032Z" fill="url(#paint31_linear_1_1864)"/>
</g>
<mask id="mask32_1_1864" style="mask-type:luminance" maskUnits="userSpaceOnUse" x="31" y="5" width="63" height="37">
<path d="M62.5139 41.5426L45.0607 31.4834V31.4839L31.5568 23.701V22.0408H34.4276L62.4866 5.8126L90.6441 22.0408H93.4432V23.6541L68.2906 38.2015L62.7774 41.39L62.5134 41.5426" fill="white"/>
</mask>
<g mask="url(#mask32_1_1864)">
<path d="M62.5139 41.5426L45.0607 31.4834V31.4839L31.5568 23.701V22.0408H34.4276L62.4866 5.8126L90.6441 22.0408H93.4432V23.6541L68.2906 38.2015L62.7774 41.39L62.5134 41.5426" fill="url(#paint32_linear_1_1864)"/>
</g>
<mask id="mask33_1_1864" style="mask-type:luminance" maskUnits="userSpaceOnUse" x="45" y="31" width="35" height="18">
<path d="M62.501 48.4051C61.1177 48.4051 59.7343 48.3113 58.383 48.1241C56.2716 47.8313 54.2371 47.31 52.4037 46.5598C51.6189 46.2391 50.8708 45.8761 50.1686 45.4714C48.8765 44.7259 47.8298 43.8911 47.0286 43.0007C46.7868 42.7321 46.5677 42.4583 46.3707 42.1809C45.5014 40.9553 45.0668 39.6493 45.0658 38.3428L45.0653 37.6004L45.0622 33.8866L62.5134 43.9442L79.9589 33.8546L79.962 37.538L79.9625 38.316C79.9636 39.606 79.5413 40.9007 78.6911 42.1154C78.6859 42.1221 78.6813 42.1293 78.6761 42.1366C78.4792 42.4176 78.2595 42.6944 78.0167 42.9667C77.217 43.8622 76.1693 44.7027 74.8757 45.4528C74.0456 45.9329 73.1516 46.3541 72.2086 46.7171C70.7572 47.2755 69.1903 47.6957 67.5657 47.9767C66.006 48.2468 64.3932 48.3891 62.7774 48.4036C62.6851 48.4046 62.5933 48.4051 62.501 48.4051Z" fill="white"/>
</mask>
<g mask="url(#mask33_1_1864)">
<path d="M62.501 48.4051C61.1177 48.4051 59.7343 48.3113 58.383 48.1241C56.2716 47.8313 54.2371 47.31 52.4037 46.5598C51.6189 46.2391 50.8708 45.8761 50.1686 45.4714C48.8765 44.7259 47.8298 43.8911 47.0286 43.0007C46.7868 42.7321 46.5677 42.4583 46.3707 42.1809C45.5014 40.9553 45.0668 39.6493 45.0658 38.3428L45.0653 37.6004L45.0622 33.8866L62.5134 43.9442L79.9589 33.8546L79.962 37.538L79.9625 38.316C79.9636 39.606 79.5413 40.9007 78.6911 42.1154C78.6859 42.1221 78.6813 42.1293 78.6761 42.1366C78.4792 42.4176 78.2595 42.6944 78.0167 42.9667C77.217 43.8622 76.1693 44.7027 74.8757 45.4528C74.0456 45.9329 73.1516 46.3541 72.2086 46.7171C70.7572 47.2755 69.1903 47.6957 67.5657 47.9767C66.006 48.2468 64.3932 48.3891 62.7774 48.4036C62.6851 48.4046 62.5933 48.4051 62.501 48.4051Z" fill="url(#paint33_linear_1_1864)"/>
</g>
<mask id="mask34_1_1864" style="mask-type:luminance" maskUnits="userSpaceOnUse" x="31" y="4" width="63" height="36">
<path d="M62.4866 4.19932L31.5568 22.0878L62.5134 39.9293L93.4432 22.0408L62.4866 4.19932Z" fill="white"/>
</mask>
<g mask="url(#mask34_1_1864)">
<path d="M62.6802 4.07053L31.7504 21.959L62.707 39.8005L93.6368 21.9121L62.6802 4.07053Z" fill="url(#paint34_linear_1_1864)"/>
</g>
<mask id="mask35_1_1864" style="mask-type:luminance" maskUnits="userSpaceOnUse" x="45" y="31" width="35" height="13">
<path d="M62.5134 43.9442L45.0622 33.8865L45.0606 31.4834L62.5139 41.5426L62.7774 41.3899L68.2906 38.2015L79.9574 31.454L79.9589 33.8546L62.5134 43.9442Z" fill="white"/>
</mask>
<g mask="url(#mask35_1_1864)">
<path d="M62.5134 43.9442L45.0622 33.8865L45.0606 31.4834L62.5139 41.5426L62.7774 41.3899L68.2906 38.2015L79.9574 31.454L79.9589 33.8546L62.5134 43.9442Z" fill="url(#paint35_linear_1_1864)"/>
</g>
<mask id="mask36_1_1864" style="mask-type:luminance" maskUnits="userSpaceOnUse" x="59" y="20" width="7" height="4">
<path d="M65.4105 22.0646C65.4105 23.0163 64.1076 23.7882 62.5 23.7882C60.8924 23.7882 59.5895 23.0163 59.5895 22.0646C59.5895 21.1123 60.8924 20.3404 62.5 20.3404C64.1076 20.3404 65.4105 21.1123 65.4105 22.0646Z" fill="white"/>
</mask>
<g mask="url(#mask36_1_1864)">
<path d="M65.4105 22.0646C65.4105 23.0163 64.1076 23.7882 62.5 23.7882C60.8924 23.7882 59.5895 23.0163 59.5895 22.0646C59.5895 21.1123 60.8924 20.3404 62.5 20.3404C64.1076 20.3404 65.4105 21.1123 65.4105 22.0646Z" fill="url(#paint36_linear_1_1864)"/>
</g>
<mask id="mask37_1_1864" style="mask-type:luminance" maskUnits="userSpaceOnUse" x="77" y="41" width="2" height="6">
<path d="M78.1709 46.65C77.8316 46.65 77.5568 46.3752 77.5568 46.0365V42.4072C77.5568 42.0685 77.8316 41.7932 78.1709 41.7932C78.5096 41.7932 78.7844 42.0685 78.7844 42.4072V46.0365C78.7844 46.3752 78.5096 46.65 78.1709 46.65Z" fill="white"/>
</mask>
<g mask="url(#mask37_1_1864)">
<path d="M78.1709 46.65C77.8316 46.65 77.5568 46.3752 77.5568 46.0365V42.4072C77.5568 42.0685 77.8316 41.7932 78.1709 41.7932C78.5096 41.7932 78.7844 42.0685 78.7844 42.4072V46.0365C78.7844 46.3752 78.5096 46.65 78.1709 46.65Z" fill="url(#paint37_linear_1_1864)"/>
</g>
<mask id="mask38_1_1864" style="mask-type:luminance" maskUnits="userSpaceOnUse" x="77" y="41" width="2" height="4">
<path d="M78.1709 44.3825C77.7187 44.3825 77.3521 44.0159 77.3521 43.5637V42.679C77.3521 42.2268 77.7187 41.8602 78.1709 41.8602C78.6231 41.8602 78.9891 42.2268 78.9891 42.679V43.5637C78.9891 44.0159 78.6231 44.3825 78.1709 44.3825Z" fill="white"/>
</mask>
<g mask="url(#mask38_1_1864)">
<path d="M78.1709 44.3825C77.7187 44.3825 77.3521 44.0159 77.3521 43.5637V42.679C77.3521 42.2268 77.7187 41.8602 78.1709 41.8602C78.6231 41.8602 78.9891 42.2268 78.9891 42.679V43.5637C78.9891 44.0159 78.6231 44.3825 78.1709 44.3825Z" fill="url(#paint38_radial_1_1864)"/>
</g>
<mask id="mask39_1_1864" style="mask-type:luminance" maskUnits="userSpaceOnUse" x="62" y="21" width="17" height="22">
<path d="M78.1709 42.8166C77.9445 42.8166 77.7615 42.633 77.7615 42.4072V31.1106L62.6809 22.4188C62.485 22.3059 62.418 22.0558 62.5309 21.8599C62.6438 21.6645 62.8939 21.5969 63.0898 21.7098L78.375 30.5192C78.5019 30.5924 78.5802 30.727 78.5802 30.874V42.4072C78.5802 42.633 78.3967 42.8166 78.1709 42.8166Z" fill="white"/>
</mask>
<g mask="url(#mask39_1_1864)">
<path d="M78.1709 42.8166C77.9445 42.8166 77.7615 42.633 77.7615 42.4072V31.1106L62.6809 22.4188C62.485 22.3059 62.418 22.0558 62.5309 21.8599C62.6438 21.6645 62.8939 21.5969 63.0898 21.7098L78.375 30.5192C78.5019 30.5924 78.5802 30.727 78.5802 30.874V42.4072C78.5802 42.633 78.3967 42.8166 78.1709 42.8166Z" fill="url(#paint39_linear_1_1864)"/>
</g>
<mask id="mask40_1_1864" style="mask-type:luminance" maskUnits="userSpaceOnUse" x="91" y="0" width="10" height="9">
<path d="M96.7873 0.329801L97.7958 2.3731L100.051 2.70101C100.536 2.77113 100.73 3.36767 100.379 3.71002L98.7471 5.30063L99.1322 7.54655C99.2152 8.03017 98.7079 8.39881 98.2738 8.1704L96.2568 7.11034L94.2398 8.1704C93.8057 8.39881 93.2983 8.03017 93.3813 7.54655L93.7665 5.30063L92.1346 3.71002C91.7835 3.36767 91.9774 2.77113 92.4625 2.70101L94.7177 2.3731L95.7262 0.329801C95.9433 -0.109999 96.5703 -0.109999 96.7873 0.329801Z" fill="white"/>
</mask>
<g mask="url(#mask40_1_1864)">
<path d="M96.7873 0.329801L97.7958 2.3731L100.051 2.70101C100.536 2.77113 100.73 3.36767 100.379 3.71002L98.7471 5.30063L99.1322 7.54655C99.2152 8.03017 98.7079 8.39881 98.2738 8.1704L96.2568 7.11034L94.2398 8.1704C93.8057 8.39881 93.2983 8.03017 93.3813 7.54655L93.7665 5.30063L92.1346 3.71002C91.7835 3.36767 91.9774 2.77113 92.4625 2.70101L94.7177 2.3731L95.7262 0.329801C95.9433 -0.109999 96.5703 -0.109999 96.7873 0.329801Z" fill="url(#paint40_radial_1_1864)"/>
</g>
<mask id="mask41_1_1864" style="mask-type:luminance" maskUnits="userSpaceOnUse" x="76" y="0" width="9" height="9">
<path d="M81.1603 0.329801L82.1688 2.3731L84.424 2.70101C84.9092 2.77113 85.103 3.36767 84.7519 3.71002L83.1201 5.30063L83.5052 7.54655C83.5882 8.03017 83.0809 8.39881 82.6468 8.1704L80.6298 7.11034L78.6128 8.1704C78.1786 8.39881 77.6713 8.03017 77.7543 7.54655L78.1395 5.30063L76.5076 3.71002C76.1565 3.36767 76.3504 2.77113 76.8355 2.70101L79.0907 2.3731L80.0992 0.329801C80.3163 -0.109999 80.9432 -0.109999 81.1603 0.329801Z" fill="white"/>
</mask>
<g mask="url(#mask41_1_1864)">
<path d="M81.1603 0.329801L82.1688 2.3731L84.424 2.70101C84.9092 2.77113 85.103 3.36767 84.7519 3.71002L83.1201 5.30063L83.5052 7.54655C83.5882 8.03017 83.0809 8.39881 82.6468 8.1704L80.6298 7.11034L78.6128 8.1704C78.1786 8.39881 77.6713 8.03017 77.7543 7.54655L78.1395 5.30063L76.5076 3.71002C76.1565 3.36767 76.3504 2.77113 76.8355 2.70101L79.0907 2.3731L80.0992 0.329801C80.3163 -0.109999 80.9432 -0.109999 81.1603 0.329801Z" fill="url(#paint41_radial_1_1864)"/>
</g>
<mask id="mask42_1_1864" style="mask-type:luminance" maskUnits="userSpaceOnUse" x="41" y="0" width="10" height="9">
<path d="M46.76 0.329801L47.7685 2.3731L50.0237 2.70101C50.5089 2.77113 50.7027 3.36767 50.3516 3.71002L48.7198 5.30063L49.1049 7.54655C49.1879 8.03017 48.6806 8.39881 48.2465 8.1704L46.2295 7.11034L44.2125 8.1704C43.7783 8.39881 43.271 8.03017 43.354 7.54655L43.7392 5.30063L42.1073 3.71002C41.7562 3.36767 41.9501 2.77113 42.4352 2.70101L44.6904 2.3731L45.6989 0.329801C45.916 -0.109999 46.5429 -0.109999 46.76 0.329801Z" fill="white"/>
</mask>
<g mask="url(#mask42_1_1864)">
<path d="M46.76 0.329801L47.7685 2.3731L50.0237 2.70101C50.5089 2.77113 50.7027 3.36767 50.3516 3.71002L48.7198 5.30063L49.1049 7.54655C49.1879 8.03017 48.6806 8.39881 48.2465 8.1704L46.2295 7.11034L44.2125 8.1704C43.7783 8.39881 43.271 8.03017 43.354 7.54655L43.7392 5.30063L42.1073 3.71002C41.7562 3.36767 41.9501 2.77113 42.4352 2.70101L44.6904 2.3731L45.6989 0.329801C45.916 -0.109999 46.5429 -0.109999 46.76 0.329801Z" fill="url(#paint42_radial_1_1864)"/>
</g>
<mask id="mask43_1_1864" style="mask-type:luminance" maskUnits="userSpaceOnUse" x="26" y="0" width="9" height="9">
<path d="M31.133 0.329801L32.1415 2.3731L34.3967 2.70101C34.8818 2.77113 35.0757 3.36767 34.7246 3.71002L33.0927 5.30063L33.4779 7.54655C33.5609 8.03017 33.0535 8.39881 32.6194 8.1704L30.6024 7.11034L28.5854 8.1704C28.1513 8.39881 27.644 8.03017 27.727 7.54655L28.1121 5.30063L26.4803 3.71002C26.1291 3.36767 26.323 2.77113 26.8082 2.70101L29.0634 2.3731L30.0719 0.329801C30.2889 -0.109999 30.9159 -0.109999 31.133 0.329801Z" fill="white"/>
</mask>
<g mask="url(#mask43_1_1864)">
<path d="M31.133 0.329801L32.1415 2.3731L34.3967 2.70101C34.8818 2.77113 35.0757 3.36767 34.7246 3.71002L33.0927 5.30063L33.4779 7.54655C33.5609 8.03017 33.0535 8.39881 32.6194 8.1704L30.6024 7.11034L28.5854 8.1704C28.1513 8.39881 27.644 8.03017 27.727 7.54655L28.1121 5.30063L26.4803 3.71002C26.1291 3.36767 26.323 2.77113 26.8082 2.70101L29.0634 2.3731L30.0719 0.329801C30.2889 -0.109999 30.9159 -0.109999 31.133 0.329801Z" fill="url(#paint43_radial_1_1864)"/>
</g>
<path d="M156.002 43.2276V49.2362H138V24.1414H155.682V30.15H144.938V33.6845H154.117V39.269H144.938V43.2276H156.002Z" fill="url(#paint44_linear_1_1864)"/>
<path d="M159.229 49.2362V24.1414H168.941C171.74 24.1414 174.076 24.7069 175.95 25.8379C177.848 26.9454 179.271 28.4534 180.219 30.3621C181.192 32.2471 181.678 34.3443 181.678 36.6534C181.678 39.1983 181.144 41.4132 180.077 43.2983C179.034 45.1833 177.551 46.6443 175.63 47.681C173.732 48.7178 171.503 49.2362 168.941 49.2362H159.229ZM174.634 36.6534C174.634 35.3575 174.408 34.2264 173.958 33.2603C173.507 32.2707 172.855 31.5049 172.001 30.9629C171.147 30.421 170.127 30.15 168.941 30.15H166.166V43.2276H168.941C170.151 43.2276 171.171 42.9448 172.001 42.3793C172.855 41.8138 173.507 41.0362 173.958 40.0466C174.408 39.0333 174.634 37.9023 174.634 36.6534Z" fill="url(#paint45_linear_1_1864)"/>
<path d="M195.725 49.4483C193.709 49.4483 191.977 49.1184 190.531 48.4586C189.084 47.7988 187.898 46.8917 186.973 45.7371C186.072 44.5825 185.407 43.2629 184.981 41.7784C184.554 40.2704 184.34 38.6917 184.34 37.0422V24.1414H191.278V37.0422C191.278 37.867 191.361 38.6563 191.527 39.4103C191.693 40.1644 191.954 40.8359 192.31 41.425C192.665 42.0141 193.116 42.4853 193.661 42.8388C194.231 43.1687 194.919 43.3336 195.725 43.3336C196.555 43.3336 197.255 43.1687 197.824 42.8388C198.393 42.4853 198.844 42.0141 199.176 41.425C199.532 40.8124 199.793 40.129 199.959 39.375C200.125 38.621 200.208 37.8434 200.208 37.0422V24.1414H207.145V37.0422C207.145 38.7859 206.908 40.4118 206.434 41.9198C205.983 43.4279 205.295 44.7474 204.37 45.8784C203.445 47.0095 202.259 47.8931 200.813 48.5293C199.39 49.142 197.694 49.4483 195.725 49.4483Z" fill="url(#paint46_linear_1_1864)"/>
<path d="M233.479 24.1414V49.2362H226.541V39.4103H218.074V49.2362H211.136V24.1414H218.074V33.4017H226.541V24.1414H233.479Z" fill="url(#paint47_linear_1_1864)"/>
<path d="M248.849 49.4483C246.832 49.4483 245.101 49.1184 243.654 48.4586C242.207 47.7988 241.021 46.8917 240.096 45.7371C239.195 44.5825 238.531 43.2629 238.104 41.7784C237.677 40.2704 237.464 38.6917 237.464 37.0422V24.1414H244.401V37.0422C244.401 37.867 244.484 38.6563 244.65 39.4103C244.816 40.1644 245.077 40.8359 245.433 41.425C245.789 42.0141 246.239 42.4853 246.785 42.8388C247.354 43.1687 248.042 43.3336 248.849 43.3336C249.679 43.3336 250.378 43.1687 250.948 42.8388C251.517 42.4853 251.968 42.0141 252.3 41.425C252.655 40.8124 252.916 40.129 253.082 39.375C253.248 38.621 253.331 37.8434 253.331 37.0422V24.1414H260.269V37.0422C260.269 38.7859 260.032 40.4118 259.557 41.9198C259.107 43.4279 258.419 44.7474 257.494 45.8784C256.569 47.0095 255.383 47.8931 253.936 48.5293C252.513 49.142 250.817 49.4483 248.849 49.4483Z" fill="url(#paint48_linear_1_1864)"/>
<path d="M285.749 42.8034C285.749 44.3115 285.333 45.5368 284.503 46.4793C283.697 47.4218 282.606 48.117 281.23 48.5647C279.854 49.0124 278.337 49.2362 276.676 49.2362H264.26V24.1414H278.918C280.104 24.1414 281.123 24.4595 281.977 25.0957C282.855 25.7083 283.519 26.5095 283.97 27.4991C284.444 28.4888 284.681 29.5138 284.681 30.5741C284.681 31.7287 284.373 32.848 283.756 33.9319C283.163 35.0158 282.262 35.8287 281.052 36.3707C282.499 36.7948 283.638 37.5371 284.468 38.5974C285.322 39.6578 285.749 41.0598 285.749 42.8034ZM278.704 41.3897C278.704 40.9655 278.621 40.6003 278.455 40.294C278.313 39.9641 278.111 39.7049 277.85 39.5164C277.589 39.3279 277.281 39.2336 276.925 39.2336H271.197V43.4397H276.676C277.056 43.4397 277.4 43.3572 277.708 43.1922C278.016 43.0273 278.253 42.7917 278.42 42.4853C278.609 42.179 278.704 41.8138 278.704 41.3897ZM271.197 30.0086V33.8612H275.929C276.237 33.8612 276.534 33.8141 276.819 33.7198C277.103 33.602 277.34 33.4017 277.53 33.119C277.72 32.8362 277.815 32.4356 277.815 31.9172C277.815 31.446 277.732 31.0807 277.566 30.8216C277.423 30.5388 277.222 30.3385 276.961 30.2207C276.724 30.0793 276.451 30.0086 276.143 30.0086H271.197Z" fill="url(#paint49_linear_1_1864)"/>
<path d="M295.427 36.4767C295.427 34.9451 295.712 33.4489 296.281 31.9879C296.874 30.5034 297.728 29.1603 298.843 27.9586C299.957 26.7569 301.309 25.8026 302.898 25.0957C304.511 24.3652 306.326 24 308.342 24C310.761 24 312.872 24.5066 314.675 25.5198C316.477 26.5095 317.817 27.829 318.695 29.4784L313.394 33.225C313.086 32.4003 312.635 31.7641 312.042 31.3164C311.473 30.8687 310.844 30.5624 310.156 30.3974C309.492 30.2089 308.84 30.1147 308.2 30.1147C307.203 30.1147 306.338 30.3149 305.602 30.7155C304.891 31.0925 304.298 31.5991 303.823 32.2353C303.373 32.8716 303.029 33.5784 302.792 34.356C302.578 35.1336 302.472 35.9112 302.472 36.6888C302.472 37.5606 302.602 38.3971 302.863 39.1983C303.124 39.9994 303.503 40.7181 304.001 41.3543C304.499 41.967 305.104 42.45 305.816 42.8034C306.551 43.1569 307.369 43.3336 308.271 43.3336C308.911 43.3336 309.563 43.2394 310.227 43.0509C310.892 42.8388 311.496 42.5089 312.042 42.0612C312.587 41.6135 313.003 41.0126 313.287 40.2586L318.944 43.6164C318.446 44.8417 317.616 45.8902 316.454 46.7621C315.291 47.6339 313.975 48.3055 312.504 48.7767C311.034 49.2244 309.575 49.4483 308.128 49.4483C306.255 49.4483 304.535 49.083 302.97 48.3526C301.428 47.5986 300.088 46.6089 298.949 45.3836C297.835 44.1348 296.969 42.7445 296.352 41.2129C295.735 39.6578 295.427 38.079 295.427 36.4767Z" fill="url(#paint50_linear_1_1864)"/>
<path d="M332.416 49.4483C330.495 49.4483 328.752 49.0948 327.186 48.3879C325.621 47.6575 324.269 46.6914 323.13 45.4897C322.016 44.2644 321.15 42.8977 320.533 41.3897C319.94 39.858 319.644 38.2793 319.644 36.6534C319.644 34.9805 319.964 33.3899 320.604 31.8819C321.245 30.3739 322.134 29.0307 323.273 27.8526C324.435 26.6509 325.799 25.7083 327.364 25.025C328.953 24.3417 330.685 24 332.558 24C334.48 24 336.223 24.3652 337.788 25.0957C339.354 25.8026 340.694 26.7687 341.809 27.994C342.923 29.2193 343.777 30.5977 344.37 32.1293C344.987 33.6374 345.295 35.1925 345.295 36.7948C345.295 38.4443 344.975 40.023 344.335 41.531C343.718 43.0391 342.829 44.394 341.666 45.5957C340.528 46.7739 339.176 47.7164 337.61 48.4233C336.045 49.1066 334.314 49.4483 332.416 49.4483ZM326.688 36.7241C326.688 37.5724 326.807 38.3971 327.044 39.1983C327.281 39.9759 327.637 40.6828 328.111 41.319C328.586 41.9316 329.179 42.4264 329.89 42.8034C330.625 43.1569 331.491 43.3336 332.487 43.3336C333.483 43.3336 334.349 43.1451 335.084 42.7681C335.82 42.3911 336.413 41.8845 336.863 41.2483C337.338 40.5885 337.682 39.8698 337.895 39.0922C338.132 38.2911 338.251 37.4782 338.251 36.6534C338.251 35.8052 338.132 34.9922 337.895 34.2147C337.658 33.4371 337.302 32.742 336.828 32.1293C336.353 31.4931 335.749 30.9983 335.013 30.6448C334.278 30.2914 333.424 30.1147 332.452 30.1147C331.455 30.1147 330.59 30.3032 329.854 30.6802C329.143 31.0572 328.55 31.5638 328.076 32.2C327.601 32.8126 327.245 33.5195 327.008 34.3207C326.795 35.0983 326.688 35.8994 326.688 36.7241Z" fill="url(#paint51_linear_1_1864)"/>
<path d="M355.173 36.9009V49.2362H348.236V24.1414H353.644L363.783 36.9009V24.1414H370.721V49.2362H365.206L355.173 36.9009Z" fill="url(#paint52_linear_1_1864)"/>
<path d="M381.996 36.9009V49.2362H375.058V24.1414H380.466L390.606 36.9009V24.1414H397.543V49.2362H392.029L381.996 36.9009Z" fill="url(#paint53_linear_1_1864)"/>
<path d="M419.883 43.2276V49.2362H401.88V24.1414H419.563V30.15H408.818V33.6845H417.997V39.269H408.818V43.2276H419.883Z" fill="url(#paint54_linear_1_1864)"/>
<path d="M421.339 36.4767C421.339 34.9451 421.624 33.4489 422.193 31.9879C422.786 30.5034 423.64 29.1603 424.755 27.9586C425.869 26.7569 427.221 25.8026 428.811 25.0957C430.423 24.3652 432.238 24 434.254 24C436.673 24 438.784 24.5066 440.587 25.5198C442.389 26.5095 443.73 27.829 444.607 29.4784L439.306 33.225C438.998 32.4003 438.547 31.7641 437.954 31.3164C437.385 30.8687 436.756 30.5624 436.068 30.3974C435.404 30.2089 434.752 30.1147 434.112 30.1147C433.115 30.1147 432.25 30.3149 431.514 30.7155C430.803 31.0925 430.21 31.5991 429.736 32.2353C429.285 32.8716 428.941 33.5784 428.704 34.356C428.49 35.1336 428.384 35.9112 428.384 36.6888C428.384 37.5606 428.514 38.3971 428.775 39.1983C429.036 39.9994 429.415 40.7181 429.913 41.3543C430.412 41.967 431.016 42.45 431.728 42.8034C432.463 43.1569 433.282 43.3336 434.183 43.3336C434.823 43.3336 435.475 43.2394 436.14 43.0509C436.804 42.8388 437.409 42.5089 437.954 42.0612C438.5 41.6135 438.915 41.0126 439.199 40.2586L444.856 43.6164C444.358 44.8417 443.528 45.8902 442.366 46.7621C441.203 47.6339 439.887 48.3055 438.417 48.7767C436.946 49.2244 435.487 49.4483 434.04 49.4483C432.167 49.4483 430.447 49.083 428.882 48.3526C427.34 47.5986 426 46.6089 424.861 45.3836C423.747 44.1348 422.881 42.7445 422.264 41.2129C421.648 39.6578 421.339 38.079 421.339 36.4767Z" fill="url(#paint55_linear_1_1864)"/>
<path d="M467 30.15H459.742V49.2362H452.804V30.15H445.511V24.1414H467V30.15Z" fill="url(#paint56_linear_1_1864)"/>
<path d="M146.368 66.4432C146.368 66.9193 146.245 67.3459 145.998 67.7231C145.752 68.0914 145.419 68.3833 145 68.5988C144.59 68.8054 144.138 68.9087 143.646 68.9087H139.064V59.3432H143.742C144.198 59.3432 144.59 59.4644 144.918 59.7069C145.255 59.9404 145.511 60.2458 145.684 60.6231C145.866 60.9913 145.957 61.3775 145.957 61.7817C145.957 62.2577 145.834 62.6978 145.588 63.102C145.342 63.5062 145 63.8071 144.562 64.0047C145.119 64.1664 145.556 64.4672 145.875 64.9074C146.204 65.3475 146.368 65.8594 146.368 66.4432ZM145.41 66.2816C145.41 65.9582 145.337 65.6618 145.191 65.3924C145.046 65.1139 144.845 64.8894 144.59 64.7187C144.343 64.5481 144.061 64.4628 143.742 64.4628H140.022V68.0869H143.646C143.974 68.0869 144.271 68.0016 144.535 67.8309C144.799 67.6603 145.009 67.4402 145.164 67.1708C145.328 66.8923 145.41 66.5959 145.41 66.2816ZM140.022 60.165V63.6948H143.359C143.678 63.6948 143.961 63.614 144.207 63.4523C144.453 63.2817 144.649 63.0616 144.795 62.7922C144.941 62.5227 145.014 62.2353 145.014 61.9299C145.014 61.6066 144.945 61.3147 144.809 61.0542C144.672 60.7847 144.485 60.5692 144.248 60.4075C144.011 60.2458 143.742 60.165 143.441 60.165H140.022Z" fill="black"/>
<path d="M149.678 68.9087V59.3432H153.781C154.2 59.3432 154.583 59.4285 154.929 59.5991C155.276 59.7698 155.577 60.0033 155.832 60.2997C156.097 60.5871 156.297 60.9105 156.434 61.2697C156.58 61.62 156.653 61.9793 156.653 62.3476C156.653 62.8056 156.562 63.2367 156.379 63.6409C156.206 64.0451 155.955 64.3864 155.627 64.6648C155.308 64.9433 154.929 65.1274 154.492 65.2172L156.872 68.9087H155.791L153.507 65.3789H150.635V68.9087H149.678ZM150.635 64.5436H153.808C154.191 64.5436 154.524 64.4403 154.806 64.2337C155.089 64.0271 155.308 63.7577 155.463 63.4254C155.618 63.0841 155.695 62.7248 155.695 62.3476C155.695 61.9613 155.604 61.6066 155.422 61.2832C155.249 60.9509 155.012 60.6859 154.711 60.4883C154.419 60.2818 154.091 60.1785 153.726 60.1785H150.635V64.5436Z" fill="black"/>
<path d="M160.117 68.9087V59.3432H161.075V68.9087H160.117Z" fill="black"/>
<path d="M165.014 68.9087V59.3432H168.31C169.341 59.3432 170.198 59.5587 170.881 59.9898C171.574 60.412 172.094 60.9868 172.441 61.7143C172.787 62.4329 172.96 63.2323 172.96 64.1125C172.96 65.0825 172.769 65.9268 172.386 66.6453C172.012 67.3639 171.474 67.9207 170.772 68.3159C170.079 68.7111 169.259 68.9087 168.31 68.9087H165.014ZM172.003 64.1125C172.003 63.349 171.857 62.6709 171.565 62.0781C171.283 61.4853 170.868 61.0227 170.321 60.6904C169.774 60.3491 169.104 60.1785 168.31 60.1785H165.972V68.0734H168.31C169.113 68.0734 169.787 67.8983 170.334 67.548C170.881 67.1977 171.296 66.7262 171.579 66.1334C171.862 65.5316 172.003 64.858 172.003 64.1125Z" fill="black"/>
<path d="M180.193 68.9761C179.546 68.9761 178.944 68.8414 178.388 68.5719C177.832 68.2935 177.348 67.9207 176.938 67.4537C176.528 66.9866 176.209 66.4657 175.981 65.8909C175.762 65.316 175.653 64.7232 175.653 64.1125C175.653 63.4658 175.762 62.855 175.981 62.2802C176.209 61.6964 176.523 61.1799 176.924 60.7308C177.326 60.2818 177.8 59.927 178.347 59.6665C178.894 59.406 179.491 59.2758 180.138 59.2758C181.096 59.2758 181.875 59.4689 182.477 59.8551C183.079 60.2413 183.535 60.7443 183.845 61.3641L183.106 61.8491C182.796 61.2563 182.381 60.8207 181.862 60.5422C181.342 60.2638 180.763 60.1246 180.125 60.1246C179.587 60.1246 179.099 60.2368 178.661 60.4614C178.233 60.6859 177.864 60.9868 177.554 61.3641C177.244 61.7413 177.006 62.1679 176.842 62.644C176.687 63.12 176.61 63.614 176.61 64.1259C176.61 64.6648 176.701 65.1768 176.883 65.6618C177.066 66.1379 177.326 66.5645 177.663 66.9417C178 67.31 178.388 67.6019 178.825 67.8174C179.272 68.024 179.751 68.1273 180.262 68.1273C180.854 68.1273 181.415 67.9836 181.944 67.6962C182.473 67.3998 182.979 66.9462 183.462 66.3354V67.3324C182.541 68.4282 181.451 68.9761 180.193 68.9761ZM183.311 64.9343H181.151V64.2068H184.118V68.9087H183.311V64.9343Z" fill="black"/>
<path d="M187.59 68.9087V59.3432H188.547V68.9087H187.59Z" fill="black"/>
<path d="M193.444 61.0811V68.9087H192.487V59.3432H193.28L199.653 67.319V59.3566H200.611V68.9087H199.722L193.444 61.0811Z" fill="black"/>
<path d="M208.454 68.9761C207.806 68.9761 207.205 68.8414 206.648 68.5719C206.092 68.2935 205.609 67.9207 205.199 67.4537C204.788 66.9866 204.469 66.4657 204.241 65.8909C204.022 65.316 203.913 64.7232 203.913 64.1125C203.913 63.4658 204.022 62.855 204.241 62.2802C204.469 61.6964 204.784 61.1799 205.185 60.7308C205.586 60.2818 206.06 59.927 206.607 59.6665C207.154 59.406 207.752 59.2758 208.399 59.2758C209.356 59.2758 210.136 59.4689 210.738 59.8551C211.339 60.2413 211.795 60.7443 212.105 61.3641L211.367 61.8491C211.057 61.2563 210.642 60.8207 210.122 60.5422C209.603 60.2638 209.024 60.1246 208.385 60.1246C207.847 60.1246 207.36 60.2368 206.922 60.4614C206.493 60.6859 206.124 60.9868 205.814 61.3641C205.504 61.7413 205.267 62.1679 205.103 62.644C204.948 63.12 204.87 63.614 204.87 64.1259C204.87 64.6648 204.962 65.1768 205.144 65.6618C205.326 66.1379 205.586 66.5645 205.923 66.9417C206.261 67.31 206.648 67.6019 207.086 67.8174C207.533 68.024 208.011 68.1273 208.522 68.1273C209.115 68.1273 209.675 67.9836 210.204 67.6962C210.733 67.3998 211.239 66.9462 211.722 66.3354V67.3324C210.801 68.4282 209.712 68.9761 208.454 68.9761ZM211.572 64.9343H209.411V64.2068H212.379V68.9087H211.572V64.9343Z" fill="black"/>
<path d="M220.841 68.9087V59.3432H227.214V60.1785H221.798V63.6948H226.366V64.4762H221.798V68.9087H220.841Z" fill="black"/>
<path d="M234.351 68.9761C233.586 68.9761 232.938 68.8414 232.409 68.5719C231.88 68.3025 231.461 67.9432 231.151 67.4941C230.841 67.036 230.613 66.5196 230.467 65.9447C230.33 65.3699 230.262 64.7771 230.262 64.1664V59.3432H231.206V64.1664C231.206 64.6604 231.256 65.1454 231.356 65.6214C231.466 66.0974 231.639 66.5241 231.876 66.9013C232.113 67.2785 232.432 67.5794 232.833 67.804C233.234 68.0195 233.736 68.1273 234.338 68.1273C234.958 68.1273 235.468 68.015 235.87 67.7905C236.28 67.557 236.599 67.2516 236.827 66.8744C237.064 66.4971 237.233 66.075 237.333 65.6079C237.433 65.1319 237.483 64.6514 237.483 64.1664V59.3432H238.441V64.1664C238.441 64.8041 238.368 65.4148 238.222 65.9986C238.076 66.5824 237.839 67.0944 237.511 67.5345C237.192 67.9746 236.772 68.3249 236.252 68.5854C235.733 68.8458 235.099 68.9761 234.351 68.9761Z" fill="black"/>
<path d="M249.121 60.1785H245.66V68.9087H244.703V60.1785H241.243V59.3432H249.121V60.1785Z" fill="black"/>
<path d="M256.032 68.9761C255.266 68.9761 254.619 68.8414 254.09 68.5719C253.561 68.3025 253.142 67.9432 252.832 67.4941C252.522 67.036 252.294 66.5196 252.148 65.9447C252.011 65.3699 251.943 64.7771 251.943 64.1664V59.3432H252.886V64.1664C252.886 64.6604 252.937 65.1454 253.037 65.6214C253.146 66.0974 253.32 66.5241 253.557 66.9013C253.794 67.2785 254.113 67.5794 254.514 67.804C254.915 68.0195 255.417 68.1273 256.018 68.1273C256.638 68.1273 257.149 68.015 257.55 67.7905C257.961 67.557 258.28 67.2516 258.508 66.8744C258.745 66.4971 258.913 66.075 259.014 65.6079C259.114 65.1319 259.164 64.6514 259.164 64.1664V59.3432H260.121V64.1664C260.121 64.8041 260.049 65.4148 259.903 65.9986C259.757 66.5824 259.52 67.0944 259.191 67.5345C258.872 67.9746 258.453 68.3249 257.933 68.5854C257.413 68.8458 256.78 68.9761 256.032 68.9761Z" fill="black"/>
<path d="M263.908 68.9087V59.3432H268.011C268.431 59.3432 268.814 59.4285 269.16 59.5991C269.507 59.7698 269.808 60.0033 270.063 60.2997C270.327 60.5871 270.528 60.9105 270.665 61.2697C270.81 61.62 270.883 61.9793 270.883 62.3476C270.883 62.8056 270.792 63.2367 270.61 63.6409C270.437 64.0451 270.186 64.3864 269.858 64.6648C269.539 64.9433 269.16 65.1274 268.723 65.2172L271.102 68.9087H270.022L267.738 65.3789H264.866V68.9087H263.908ZM264.866 64.5436H268.039C268.422 64.5436 268.754 64.4403 269.037 64.2337C269.32 64.0271 269.539 63.7577 269.694 63.4254C269.849 63.0841 269.926 62.7248 269.926 62.3476C269.926 61.9613 269.835 61.6066 269.653 61.2832C269.479 60.9509 269.242 60.6859 268.941 60.4883C268.65 60.2818 268.321 60.1785 267.957 60.1785H264.866V64.5436Z" fill="black"/>
<path d="M280.872 68.0734V68.9087H274.348V59.3432H280.749V60.1785H275.305V63.6275H280.051V64.4223H275.305V68.0734H280.872Z" fill="black"/>
<path d="M289.809 61.135C289.672 60.9823 289.513 60.8476 289.33 60.7308C289.148 60.6051 288.943 60.4973 288.715 60.4075C288.487 60.3177 288.241 60.2458 287.976 60.1919C287.721 60.138 287.448 60.1111 287.156 60.1111C286.308 60.1111 285.683 60.2728 285.282 60.5961C284.89 60.9105 284.694 61.3416 284.694 61.8895C284.694 62.2667 284.785 62.5631 284.967 62.7787C285.159 62.9942 285.455 63.1694 285.856 63.3041C286.258 63.4388 286.768 63.5781 287.388 63.7218C288.081 63.8655 288.678 64.0361 289.18 64.2337C289.681 64.4313 290.069 64.7008 290.342 65.0421C290.616 65.3744 290.753 65.828 290.753 66.4028C290.753 66.8429 290.666 67.2246 290.493 67.548C290.32 67.8713 290.078 68.1408 289.768 68.3563C289.458 68.5719 289.089 68.7336 288.66 68.8414C288.232 68.9402 287.762 68.9896 287.251 68.9896C286.75 68.9896 286.267 68.9402 285.802 68.8414C285.346 68.7336 284.913 68.5809 284.502 68.3833C284.092 68.1767 283.709 67.9162 283.354 67.6019L283.832 66.8339C284.006 67.0136 284.211 67.1842 284.448 67.3459C284.694 67.4986 284.963 67.6378 285.255 67.7635C285.556 67.8893 285.875 67.9881 286.212 68.0599C286.559 68.1228 286.914 68.1543 287.279 68.1543C288.054 68.1543 288.656 68.015 289.084 67.7366C289.522 67.4582 289.741 67.045 289.741 66.4971C289.741 66.1019 289.631 65.7876 289.412 65.554C289.194 65.3115 288.865 65.1139 288.428 64.9612C287.99 64.8086 287.452 64.6604 286.814 64.5166C286.139 64.364 285.569 64.1933 285.104 64.0047C284.639 63.8161 284.288 63.5691 284.051 63.2637C283.823 62.9493 283.709 62.5362 283.709 62.0242C283.709 61.4314 283.855 60.9329 284.147 60.5288C284.448 60.1156 284.858 59.8057 285.378 59.5991C285.898 59.3836 286.495 59.2758 287.169 59.2758C287.598 59.2758 287.995 59.3207 288.359 59.4105C288.733 59.4914 289.075 59.6126 289.385 59.7743C289.704 59.936 290.001 60.138 290.274 60.3806L289.809 61.135Z" fill="black"/>
<path d="M293.904 70L294.137 68.8683H293.822V67.5884H294.725V68.8683L294.383 70H293.904Z" fill="black"/>
<path d="M310.815 66.4432C310.815 66.9193 310.692 67.3459 310.446 67.7231C310.2 68.0914 309.867 68.3833 309.448 68.5988C309.037 68.8054 308.586 68.9087 308.094 68.9087H303.512V59.3432H308.189C308.645 59.3432 309.037 59.4644 309.366 59.7069C309.703 59.9404 309.958 60.2458 310.131 60.6231C310.314 60.9913 310.405 61.3775 310.405 61.7817C310.405 62.2577 310.282 62.6978 310.036 63.102C309.789 63.5062 309.448 63.8071 309.01 64.0047C309.566 64.1664 310.004 64.4672 310.323 64.9074C310.651 65.3475 310.815 65.8594 310.815 66.4432ZM309.858 66.2816C309.858 65.9582 309.785 65.6618 309.639 65.3924C309.493 65.1139 309.293 64.8894 309.037 64.7187C308.791 64.5481 308.508 64.4628 308.189 64.4628H304.469V68.0869H308.094C308.422 68.0869 308.718 68.0016 308.983 67.8309C309.247 67.6603 309.457 67.4402 309.612 67.1708C309.776 66.8923 309.858 66.5959 309.858 66.2816ZM304.469 60.165V63.6948H307.806C308.125 63.6948 308.408 63.614 308.654 63.4523C308.9 63.2817 309.097 63.0616 309.242 62.7922C309.388 62.5227 309.461 62.2353 309.461 61.9299C309.461 61.6066 309.393 61.3147 309.256 61.0542C309.119 60.7847 308.932 60.5692 308.695 60.4075C308.458 60.2458 308.189 60.165 307.888 60.165H304.469Z" fill="black"/>
<path d="M318.078 68.9761C317.312 68.9761 316.664 68.8414 316.136 68.5719C315.607 68.3025 315.187 67.9432 314.877 67.4941C314.567 67.036 314.339 66.5196 314.194 65.9447C314.057 65.3699 313.988 64.7771 313.988 64.1664V59.3432H314.932V64.1664C314.932 64.6604 314.982 65.1454 315.083 65.6214C315.192 66.0974 315.365 66.5241 315.602 66.9013C315.839 67.2785 316.158 67.5794 316.56 67.804C316.961 68.0195 317.462 68.1273 318.064 68.1273C318.684 68.1273 319.195 68.015 319.596 67.7905C320.006 67.557 320.325 67.2516 320.553 66.8744C320.79 66.4971 320.959 66.075 321.059 65.6079C321.16 65.1319 321.21 64.6514 321.21 64.1664V59.3432H322.167V64.1664C322.167 64.8041 322.094 65.4148 321.948 65.9986C321.802 66.5824 321.565 67.0944 321.237 67.5345C320.918 67.9746 320.499 68.3249 319.979 68.5854C319.459 68.8458 318.825 68.9761 318.078 68.9761Z" fill="black"/>
<path d="M325.954 68.9087V59.3432H326.911V68.9087H325.954Z" fill="black"/>
<path d="M330.851 68.9087V59.3432H331.808V68.0734H337.416V68.9087H330.851Z" fill="black"/>
<path d="M340.329 68.9087V59.3432H343.625C344.655 59.3432 345.512 59.5587 346.196 59.9898C346.889 60.412 347.409 60.9868 347.755 61.7143C348.102 62.4329 348.275 63.2323 348.275 64.1125C348.275 65.0825 348.084 65.9268 347.701 66.6453C347.327 67.3639 346.789 67.9207 346.087 68.3159C345.394 68.7111 344.573 68.9087 343.625 68.9087H340.329ZM347.318 64.1125C347.318 63.349 347.172 62.6709 346.88 62.0781C346.597 61.4853 346.182 61.0227 345.635 60.6904C345.088 60.3491 344.418 60.1785 343.625 60.1785H341.286V68.0734H343.625C344.427 68.0734 345.102 67.8983 345.649 67.548C346.196 67.1977 346.611 66.7262 346.894 66.1334C347.176 65.5316 347.318 64.858 347.318 64.1125Z" fill="black"/>
<path d="M351.61 68.9087V59.3432H352.567V68.9087H351.61Z" fill="black"/>
<path d="M357.464 61.0811V68.9087H356.507V59.3432H357.3L363.673 67.319V59.3566H364.631V68.9087H363.742L357.464 61.0811Z" fill="black"/>
<path d="M372.474 68.9761C371.826 68.9761 371.225 68.8414 370.669 68.5719C370.112 68.2935 369.629 67.9207 369.219 67.4537C368.808 66.9866 368.489 66.4657 368.261 65.8909C368.043 65.316 367.933 64.7232 367.933 64.1125C367.933 63.4658 368.043 62.855 368.261 62.2802C368.489 61.6964 368.804 61.1799 369.205 60.7308C369.606 60.2818 370.08 59.927 370.628 59.6665C371.175 59.406 371.772 59.2758 372.419 59.2758C373.377 59.2758 374.156 59.4689 374.758 59.8551C375.36 60.2413 375.816 60.7443 376.126 61.3641L375.387 61.8491C375.077 61.2563 374.662 60.8207 374.142 60.5422C373.623 60.2638 373.044 60.1246 372.405 60.1246C371.868 60.1246 371.38 60.2368 370.942 60.4614C370.514 60.6859 370.144 60.9868 369.834 61.3641C369.524 61.7413 369.287 62.1679 369.123 62.644C368.968 63.12 368.891 63.614 368.891 64.1259C368.891 64.6648 368.982 65.1768 369.164 65.6618C369.346 66.1379 369.606 66.5645 369.944 66.9417C370.281 67.31 370.669 67.6019 371.106 67.8174C371.553 68.024 372.032 68.1273 372.542 68.1273C373.135 68.1273 373.696 67.9836 374.224 67.6962C374.753 67.3998 375.259 66.9462 375.743 66.3354V67.3324C374.822 68.4282 373.732 68.9761 372.474 68.9761ZM375.592 64.9343H373.431V64.2068H376.399V68.9087H375.592V64.9343Z" fill="black"/>
<path d="M384.861 68.9087V59.3432H388.157C389.187 59.3432 390.044 59.5587 390.728 59.9898C391.421 60.412 391.941 60.9868 392.287 61.7143C392.634 62.4329 392.807 63.2323 392.807 64.1125C392.807 65.0825 392.616 65.9268 392.233 66.6453C391.859 67.3639 391.321 67.9207 390.619 68.3159C389.926 68.7111 389.105 68.9087 388.157 68.9087H384.861ZM391.85 64.1125C391.85 63.349 391.704 62.6709 391.412 62.0781C391.129 61.4853 390.714 61.0227 390.167 60.6904C389.62 60.3491 388.95 60.1785 388.157 60.1785H385.818V68.0734H388.157C388.959 68.0734 389.634 67.8983 390.181 67.548C390.728 67.1977 391.143 66.7262 391.426 66.1334C391.708 65.5316 391.85 64.858 391.85 64.1125Z" fill="black"/>
<path d="M396.142 68.9087V59.3432H400.245C400.664 59.3432 401.047 59.4285 401.394 59.5991C401.74 59.7698 402.041 60.0033 402.296 60.2997C402.561 60.5871 402.761 60.9105 402.898 61.2697C403.044 61.62 403.117 61.9793 403.117 62.3476C403.117 62.8056 403.026 63.2367 402.844 63.6409C402.67 64.0451 402.42 64.3864 402.091 64.6648C401.772 64.9433 401.394 65.1274 400.956 65.2172L403.336 68.9087H402.255L399.971 65.3789H397.099V68.9087H396.142ZM397.099 64.5436H400.272C400.655 64.5436 400.988 64.4403 401.271 64.2337C401.553 64.0271 401.772 63.7577 401.927 63.4254C402.082 63.0841 402.16 62.7248 402.16 62.3476C402.16 61.9613 402.069 61.6066 401.886 61.2832C401.713 60.9509 401.476 60.6859 401.175 60.4883C400.883 60.2818 400.555 60.1785 400.19 60.1785H397.099V64.5436Z" fill="black"/>
<path d="M413.105 68.0734V68.9087H406.582V59.3432H412.982V60.1785H407.539V63.6275H412.285V64.4223H407.539V68.0734H413.105Z" fill="black"/>
<path d="M419.429 59.3432H420.236L424.271 68.9087H423.259L422 65.9178H417.638L416.393 68.9087H415.367L419.429 59.3432ZM421.782 65.1768L419.826 60.4479L417.843 65.1768H421.782Z" fill="black"/>
<path d="M435.77 68.9087V61.1215L432.255 67.1708H431.653L428.125 61.1215V68.9087H427.167V59.3432H428.152L431.94 65.8909L435.756 59.3432H436.727V68.9087H435.77Z" fill="black"/>
<path d="M446.341 61.135C446.204 60.9823 446.045 60.8476 445.863 60.7308C445.68 60.6051 445.475 60.4973 445.247 60.4075C445.019 60.3177 444.773 60.2458 444.509 60.1919C444.253 60.138 443.98 60.1111 443.688 60.1111C442.84 60.1111 442.215 60.2728 441.814 60.5961C441.422 60.9105 441.226 61.3416 441.226 61.8895C441.226 62.2667 441.317 62.5631 441.5 62.7787C441.691 62.9942 441.987 63.1694 442.389 63.3041C442.79 63.4388 443.3 63.5781 443.92 63.7218C444.613 63.8655 445.211 64.0361 445.712 64.2337C446.214 64.4313 446.601 64.7008 446.875 65.0421C447.148 65.3744 447.285 65.828 447.285 66.4028C447.285 66.8429 447.198 67.2246 447.025 67.548C446.852 67.8713 446.61 68.1408 446.3 68.3563C445.99 68.5719 445.621 68.7336 445.192 68.8414C444.764 68.9402 444.294 68.9896 443.784 68.9896C443.282 68.9896 442.799 68.9402 442.334 68.8414C441.878 68.7336 441.445 68.5809 441.035 68.3833C440.624 68.1767 440.241 67.9162 439.886 67.6019L440.365 66.8339C440.538 67.0136 440.743 67.1842 440.98 67.3459C441.226 67.4986 441.495 67.6378 441.787 67.7635C442.088 67.8893 442.407 67.9881 442.744 68.0599C443.091 68.1228 443.446 68.1543 443.811 68.1543C444.586 68.1543 445.188 68.015 445.616 67.7366C446.054 67.4582 446.273 67.045 446.273 66.4971C446.273 66.1019 446.163 65.7876 445.945 65.554C445.726 65.3115 445.398 65.1139 444.96 64.9612C444.522 64.8086 443.984 64.6604 443.346 64.5166C442.671 64.364 442.101 64.1933 441.636 64.0047C441.171 63.8161 440.82 63.5691 440.583 63.2637C440.355 62.9493 440.241 62.5362 440.241 62.0242C440.241 61.4314 440.387 60.9329 440.679 60.5288C440.98 60.1156 441.39 59.8057 441.91 59.5991C442.43 59.3836 443.027 59.2758 443.702 59.2758C444.13 59.2758 444.527 59.3207 444.892 59.4105C445.265 59.4914 445.607 59.6126 445.917 59.7743C446.236 59.936 446.533 60.138 446.806 60.3806L446.341 61.135Z" fill="black"/>
<defs>
<linearGradient id="paint0_linear_1_1864" x1="40.9359" y1="1.26718" x2="88.7707" y2="84.1196" gradientUnits="userSpaceOnUse">
<stop stop-color="#DA006A"/>
<stop offset="1" stop-color="#733BE4"/>
</linearGradient>
<linearGradient id="paint1_linear_1_1864" x1="44.0222" y1="8.78086" x2="84.8916" y2="79.5685" gradientUnits="userSpaceOnUse">
<stop stop-color="#EEBD2F"/>
<stop offset="1" stop-color="#DA5618"/>
</linearGradient>
<linearGradient id="paint2_linear_1_1864" x1="104.449" y1="19.4165" x2="134.622" y2="79.7629" gradientUnits="userSpaceOnUse">
<stop stop-color="#EEBD2F"/>
<stop offset="1" stop-color="#DA5618"/>
</linearGradient>
<linearGradient id="paint3_linear_1_1864" x1="-5.12652" y1="19.4165" x2="25.0466" y2="79.7629" gradientUnits="userSpaceOnUse">
<stop stop-color="#EEBD2F"/>
<stop offset="1" stop-color="#DA5618"/>
</linearGradient>
<linearGradient id="paint4_linear_1_1864" x1="89.6877" y1="64.9504" x2="66.0669" y2="56.4411" gradientUnits="userSpaceOnUse">
<stop stop-color="#5899FF"/>
<stop offset="1" stop-color="#4F39EE"/>
</linearGradient>
<linearGradient id="paint5_linear_1_1864" x1="92.7642" y1="62.8489" x2="84.2641" y2="61.5146" gradientUnits="userSpaceOnUse">
<stop stop-color="#5899FF"/>
<stop offset="1" stop-color="#4F39EE"/>
</linearGradient>
<linearGradient id="paint6_linear_1_1864" x1="90.6982" y1="60.076" x2="82.8558" y2="58.9142" gradientUnits="userSpaceOnUse">
<stop stop-color="#F1CC60"/>
<stop offset="0.30985" stop-color="#F5E2AA"/>
<stop offset="1" stop-color="#E59F2F"/>
</linearGradient>
<linearGradient id="paint7_linear_1_1864" x1="92.8302" y1="65.0437" x2="71.5297" y2="56.1362" gradientUnits="userSpaceOnUse">
<stop stop-color="#F1CC60"/>
<stop offset="0.30985" stop-color="#F5E2AA"/>
<stop offset="1" stop-color="#E59F2F"/>
</linearGradient>
<linearGradient id="paint8_linear_1_1864" x1="62.7774" y1="55.6584" x2="84.191" y2="55.6584" gradientUnits="userSpaceOnUse">
<stop stop-color="#F1CC60"/>
<stop offset="0.30985" stop-color="#F5E2AA"/>
<stop offset="1" stop-color="#E59F2F"/>
</linearGradient>
<linearGradient id="paint9_linear_1_1864" x1="62.7774" y1="55.6585" x2="84.191" y2="55.6585" gradientUnits="userSpaceOnUse">
<stop stop-color="#EABC4E"/>
<stop offset="0.30985" stop-color="#EED08A"/>
<stop offset="1" stop-color="#DF9326"/>
</linearGradient>
<linearGradient id="paint10_linear_1_1864" x1="62.7774" y1="55.6585" x2="84.191" y2="55.6585" gradientUnits="userSpaceOnUse">
<stop stop-color="#EABC4E"/>
<stop offset="0.30985" stop-color="#EED08A"/>
<stop offset="1" stop-color="#DF9326"/>
</linearGradient>
<linearGradient id="paint11_linear_1_1864" x1="62.7774" y1="55.6584" x2="84.191" y2="55.6584" gradientUnits="userSpaceOnUse">
<stop stop-color="#EABC4E"/>
<stop offset="0.30985" stop-color="#EED08A"/>
<stop offset="1" stop-color="#DF9326"/>
</linearGradient>
<linearGradient id="paint12_linear_1_1864" x1="62.7774" y1="55.6585" x2="84.191" y2="55.6585" gradientUnits="userSpaceOnUse">
<stop stop-color="#EABC4E"/>
<stop offset="0.30985" stop-color="#EED08A"/>
<stop offset="1" stop-color="#DF9326"/>
</linearGradient>
<linearGradient id="paint13_linear_1_1864" x1="62.7774" y1="55.6584" x2="84.191" y2="55.6584" gradientUnits="userSpaceOnUse">
<stop stop-color="#EABC4E"/>
<stop offset="0.30985" stop-color="#EED08A"/>
<stop offset="1" stop-color="#DF9326"/>
</linearGradient>
<linearGradient id="paint14_linear_1_1864" x1="62.7774" y1="55.6585" x2="84.191" y2="55.6585" gradientUnits="userSpaceOnUse">
<stop stop-color="#EABC4E"/>
<stop offset="0.30985" stop-color="#EED08A"/>
<stop offset="1" stop-color="#DF9326"/>
</linearGradient>
<linearGradient id="paint15_linear_1_1864" x1="71.7224" y1="52.1998" x2="83.5745" y2="72.7282" gradientUnits="userSpaceOnUse">
<stop stop-color="#F1CC60"/>
<stop offset="0.30985" stop-color="#F5E2AA"/>
<stop offset="1" stop-color="#E59F2F"/>
</linearGradient>
<linearGradient id="paint16_linear_1_1864" x1="70.0514" y1="49.7812" x2="82.0657" y2="70.5906" gradientUnits="userSpaceOnUse">
<stop stop-color="#F1CC60"/>
<stop offset="0.30985" stop-color="#F5E2AA"/>
<stop offset="1" stop-color="#E59F2F"/>
</linearGradient>
<linearGradient id="paint17_linear_1_1864" x1="68.3649" y1="47.2765" x2="80.5449" y2="68.3729" gradientUnits="userSpaceOnUse">
<stop stop-color="#F1CC60"/>
<stop offset="0.30985" stop-color="#F5E2AA"/>
<stop offset="1" stop-color="#E59F2F"/>
</linearGradient>
<linearGradient id="paint18_linear_1_1864" x1="35.8671" y1="64.9504" x2="59.4879" y2="56.4411" gradientUnits="userSpaceOnUse">
<stop stop-color="#5899FF"/>
<stop offset="1" stop-color="#4F39EE"/>
</linearGradient>
<linearGradient id="paint19_linear_1_1864" x1="32.7906" y1="62.8489" x2="41.2907" y2="61.5146" gradientUnits="userSpaceOnUse">
<stop stop-color="#5899FF"/>
<stop offset="1" stop-color="#4F39EE"/>
</linearGradient>
<linearGradient id="paint20_linear_1_1864" x1="34.856" y1="60.076" x2="42.6985" y2="58.9142" gradientUnits="userSpaceOnUse">
<stop stop-color="#F1CC60"/>
<stop offset="0.30985" stop-color="#F5E2AA"/>
<stop offset="1" stop-color="#E59F2F"/>
</linearGradient>
<linearGradient id="paint21_linear_1_1864" x1="32.7246" y1="65.0437" x2="54.0251" y2="56.1362" gradientUnits="userSpaceOnUse">
<stop stop-color="#F1CC60"/>
<stop offset="0.30985" stop-color="#F5E2AA"/>
<stop offset="1" stop-color="#E59F2F"/>
</linearGradient>
<linearGradient id="paint22_linear_1_1864" x1="62.7774" y1="55.6584" x2="41.3638" y2="55.6584" gradientUnits="userSpaceOnUse">
<stop stop-color="#F1CC60"/>
<stop offset="0.30985" stop-color="#F5E2AA"/>
<stop offset="1" stop-color="#E59F2F"/>
</linearGradient>
<linearGradient id="paint23_linear_1_1864" x1="62.7774" y1="55.6585" x2="41.3638" y2="55.6585" gradientUnits="userSpaceOnUse">
<stop stop-color="#EABC4E"/>
<stop offset="0.30985" stop-color="#EED08A"/>
<stop offset="1" stop-color="#DF9326"/>
</linearGradient>
<linearGradient id="paint24_linear_1_1864" x1="62.7774" y1="55.6585" x2="41.3638" y2="55.6585" gradientUnits="userSpaceOnUse">
<stop stop-color="#EABC4E"/>
<stop offset="0.30985" stop-color="#EED08A"/>
<stop offset="1" stop-color="#DF9326"/>
</linearGradient>
<linearGradient id="paint25_linear_1_1864" x1="62.7774" y1="55.6584" x2="41.3638" y2="55.6584" gradientUnits="userSpaceOnUse">
<stop stop-color="#EABC4E"/>
<stop offset="0.30985" stop-color="#EED08A"/>
<stop offset="1" stop-color="#DF9326"/>
</linearGradient>
<linearGradient id="paint26_linear_1_1864" x1="62.7774" y1="55.6584" x2="41.3638" y2="55.6584" gradientUnits="userSpaceOnUse">
<stop stop-color="#EABC4E"/>
<stop offset="0.30985" stop-color="#EED08A"/>
<stop offset="1" stop-color="#DF9326"/>
</linearGradient>
<linearGradient id="paint27_linear_1_1864" x1="62.7774" y1="55.6584" x2="41.3638" y2="55.6584" gradientUnits="userSpaceOnUse">
<stop stop-color="#EABC4E"/>
<stop offset="0.30985" stop-color="#EED08A"/>
<stop offset="1" stop-color="#DF9326"/>
</linearGradient>
<linearGradient id="paint28_linear_1_1864" x1="62.7774" y1="55.6585" x2="41.3638" y2="55.6585" gradientUnits="userSpaceOnUse">
<stop stop-color="#EABC4E"/>
<stop offset="0.30985" stop-color="#EED08A"/>
<stop offset="1" stop-color="#DF9326"/>
</linearGradient>
<linearGradient id="paint29_linear_1_1864" x1="53.8324" y1="52.1998" x2="41.9803" y2="72.7282" gradientUnits="userSpaceOnUse">
<stop stop-color="#F1CC60"/>
<stop offset="0.30985" stop-color="#F5E2AA"/>
<stop offset="1" stop-color="#E59F2F"/>
</linearGradient>
<linearGradient id="paint30_linear_1_1864" x1="55.5034" y1="49.7812" x2="43.4891" y2="70.5906" gradientUnits="userSpaceOnUse">
<stop stop-color="#F1CC60"/>
<stop offset="0.30985" stop-color="#F5E2AA"/>
<stop offset="1" stop-color="#E59F2F"/>
</linearGradient>
<linearGradient id="paint31_linear_1_1864" x1="57.1899" y1="47.2765" x2="45.0099" y2="68.3729" gradientUnits="userSpaceOnUse">
<stop stop-color="#F1CC60"/>
<stop offset="0.30985" stop-color="#F5E2AA"/>
<stop offset="1" stop-color="#E59F2F"/>
</linearGradient>
<linearGradient id="paint32_linear_1_1864" x1="48.4965" y1="6.35397" x2="75.4558" y2="38.152" gradientUnits="userSpaceOnUse">
<stop stop-color="#5899FF"/>
<stop offset="1" stop-color="#4F39EE"/>
</linearGradient>
<linearGradient id="paint33_linear_1_1864" x1="44.9508" y1="39.9293" x2="69.2933" y2="39.9293" gradientUnits="userSpaceOnUse">
<stop stop-color="#514FF2"/>
<stop offset="0.30457" stop-color="#5899FF"/>
<stop offset="1" stop-color="#4F39EE"/>
</linearGradient>
<linearGradient id="paint34_linear_1_1864" x1="51.0098" y1="5.65443" x2="90.2057" y2="60.2746" gradientUnits="userSpaceOnUse">
<stop stop-color="#5899FF"/>
<stop offset="1" stop-color="#4F39EE"/>
</linearGradient>
<linearGradient id="paint35_linear_1_1864" x1="44.9508" y1="39.9293" x2="69.2933" y2="39.9293" gradientUnits="userSpaceOnUse">
<stop stop-color="#4648E3"/>
<stop offset="0.30457" stop-color="#4C8BEF"/>
<stop offset="1" stop-color="#4434DF"/>
</linearGradient>
<linearGradient id="paint36_linear_1_1864" x1="61.0733" y1="20.0764" x2="65.859" y2="26.7453" gradientUnits="userSpaceOnUse">
<stop stop-color="#5899FF"/>
<stop offset="1" stop-color="#4F39EE"/>
</linearGradient>
<linearGradient id="paint37_linear_1_1864" x1="77.5568" y1="44.2216" x2="78.7844" y2="44.2216" gradientUnits="userSpaceOnUse">
<stop stop-color="#EEBD2F"/>
<stop offset="1" stop-color="#DA5618"/>
</linearGradient>
<radialGradient id="paint38_radial_1_1864" cx="0" cy="0" r="1" gradientUnits="userSpaceOnUse" gradientTransform="translate(78.1709 43.1213) scale(1.06303 1.06303)">
<stop stop-color="#E79927"/>
<stop offset="1" stop-color="#DD661C"/>
</radialGradient>
<linearGradient id="paint39_linear_1_1864" x1="62.4763" y1="32.2356" x2="78.5802" y2="32.2356" gradientUnits="userSpaceOnUse">
<stop stop-color="#EEBD2F"/>
<stop offset="1" stop-color="#DA5618"/>
</linearGradient>
<radialGradient id="paint40_radial_1_1864" cx="0" cy="0" r="1" gradientUnits="userSpaceOnUse" gradientTransform="translate(94.7456 3.35632) rotate(33.0558) scale(3.99779 3.99779)">
<stop stop-color="#E79927"/>
<stop offset="1" stop-color="#DD661C"/>
</radialGradient>
<radialGradient id="paint41_radial_1_1864" cx="0" cy="0" r="1" gradientUnits="userSpaceOnUse" gradientTransform="translate(79.1186 3.35632) rotate(33.0558) scale(3.99779)">
<stop stop-color="#E79927"/>
<stop offset="1" stop-color="#DD661C"/>
</radialGradient>
<radialGradient id="paint42_radial_1_1864" cx="0" cy="0" r="1" gradientUnits="userSpaceOnUse" gradientTransform="translate(44.7183 3.35632) rotate(33.0558) scale(3.99779 3.99779)">
<stop stop-color="#E79927"/>
<stop offset="1" stop-color="#DD661C"/>
</radialGradient>
<radialGradient id="paint43_radial_1_1864" cx="0" cy="0" r="1" gradientUnits="userSpaceOnUse" gradientTransform="translate(29.0912 3.35632) rotate(33.0558) scale(3.99779)">
<stop stop-color="#E79927"/>
<stop offset="1" stop-color="#DD661C"/>
</radialGradient>
<linearGradient id="paint44_linear_1_1864" x1="137.609" y1="-7.05" x2="444.09" y2="25.9665" gradientUnits="userSpaceOnUse">
<stop stop-color="#D5026F"/>
<stop offset="0.593576" stop-color="#7739DF"/>
</linearGradient>
<linearGradient id="paint45_linear_1_1864" x1="137.609" y1="-7.05" x2="444.09" y2="25.9665" gradientUnits="userSpaceOnUse">
<stop stop-color="#D5026F"/>
<stop offset="0.593576" stop-color="#7739DF"/>
</linearGradient>
<linearGradient id="paint46_linear_1_1864" x1="137.609" y1="-7.05" x2="444.09" y2="25.9665" gradientUnits="userSpaceOnUse">
<stop stop-color="#D5026F"/>
<stop offset="0.593576" stop-color="#7739DF"/>
</linearGradient>
<linearGradient id="paint47_linear_1_1864" x1="137.609" y1="-7.05" x2="444.09" y2="25.9665" gradientUnits="userSpaceOnUse">
<stop stop-color="#D5026F"/>
<stop offset="0.593576" stop-color="#7739DF"/>
</linearGradient>
<linearGradient id="paint48_linear_1_1864" x1="137.609" y1="-7.05" x2="444.09" y2="25.9665" gradientUnits="userSpaceOnUse">
<stop stop-color="#D5026F"/>
<stop offset="0.593576" stop-color="#7739DF"/>
</linearGradient>
<linearGradient id="paint49_linear_1_1864" x1="137.609" y1="-7.05" x2="444.09" y2="25.9665" gradientUnits="userSpaceOnUse">
<stop stop-color="#D5026F"/>
<stop offset="0.593576" stop-color="#7739DF"/>
</linearGradient>
<linearGradient id="paint50_linear_1_1864" x1="137.609" y1="-7.05" x2="444.09" y2="25.9665" gradientUnits="userSpaceOnUse">
<stop stop-color="#D5026F"/>
<stop offset="0.593576" stop-color="#7739DF"/>
</linearGradient>
<linearGradient id="paint51_linear_1_1864" x1="137.609" y1="-7.05" x2="444.09" y2="25.9665" gradientUnits="userSpaceOnUse">
<stop stop-color="#D5026F"/>
<stop offset="0.593576" stop-color="#7739DF"/>
</linearGradient>
<linearGradient id="paint52_linear_1_1864" x1="137.609" y1="-7.05" x2="444.09" y2="25.9665" gradientUnits="userSpaceOnUse">
<stop stop-color="#D5026F"/>
<stop offset="0.593576" stop-color="#7739DF"/>
</linearGradient>
<linearGradient id="paint53_linear_1_1864" x1="137.609" y1="-7.05" x2="444.09" y2="25.9665" gradientUnits="userSpaceOnUse">
<stop stop-color="#D5026F"/>
<stop offset="0.593576" stop-color="#7739DF"/>
</linearGradient>
<linearGradient id="paint54_linear_1_1864" x1="137.609" y1="-7.05" x2="444.09" y2="25.9665" gradientUnits="userSpaceOnUse">
<stop stop-color="#D5026F"/>
<stop offset="0.593576" stop-color="#7739DF"/>
</linearGradient>
<linearGradient id="paint55_linear_1_1864" x1="137.609" y1="-7.05" x2="444.09" y2="25.9665" gradientUnits="userSpaceOnUse">
<stop stop-color="#D5026F"/>
<stop offset="0.593576" stop-color="#7739DF"/>
</linearGradient>
<linearGradient id="paint56_linear_1_1864" x1="137.609" y1="-7.05" x2="444.09" y2="25.9665" gradientUnits="userSpaceOnUse">
<stop stop-color="#D5026F"/>
<stop offset="0.593576" stop-color="#7739DF"/>
</linearGradient>
</defs>
</svg>
