<svg width="308" height="227" viewBox="0 0 308 227" fill="none" xmlns="http://www.w3.org/2000/svg">
<mask id="mask0_1_705" style="mask-type:luminance" maskUnits="userSpaceOnUse" x="52" y="30" width="203" height="197">
<path d="M200.42 30.6649L215.493 39.354H245.55V137.772C245.55 181.964 204.283 217.924 153.541 217.924C102.8 217.924 61.5331 181.964 61.5331 137.772V39.354H91.7424L106.765 30.6649H52.844V137.772C52.844 186.752 98.0122 226.613 153.541 226.613C209.071 226.613 254.239 186.752 254.239 137.772V30.6649H200.42Z" fill="white"/>
</mask>
<g mask="url(#mask0_1_705)">
<path d="M200.42 30.6649L215.493 39.354H245.55V137.772C245.55 181.964 204.283 217.924 153.541 217.924C102.8 217.924 61.5331 181.964 61.5331 137.772V39.354H91.7424L106.765 30.6649H52.844V137.772C52.844 186.752 98.0122 226.613 153.541 226.613C209.071 226.613 254.239 186.752 254.239 137.772V30.6649H200.42Z" fill="url(#paint0_linear_1_705)"/>
</g>
<mask id="mask1_1_705" style="mask-type:luminance" maskUnits="userSpaceOnUse" x="67" y="45" width="173" height="168">
<path d="M225.537 45.1425L230.566 48.0431H236.873V137.772C236.873 177.177 199.482 209.248 153.541 209.248C107.601 209.248 70.2096 177.177 70.2096 137.772V48.0431H76.7201L81.736 45.1425H67.3217V137.772C67.3217 178.773 105.992 212.136 153.541 212.136C201.091 212.136 239.761 178.773 239.761 137.772V45.1425H225.537Z" fill="white"/>
</mask>
<g mask="url(#mask1_1_705)">
<path d="M225.537 45.1425L230.566 48.0431H236.873V137.772C236.873 177.177 199.482 209.248 153.541 209.248C107.601 209.248 70.2096 177.177 70.2096 137.772V48.0431H76.7201L81.736 45.1425H67.3217V137.772C67.3217 178.773 105.992 212.136 153.541 212.136C201.091 212.136 239.761 178.773 239.761 137.772V45.1425H225.537Z" fill="url(#paint1_linear_1_705)"/>
</g>
<mask id="mask2_1_705" style="mask-type:luminance" maskUnits="userSpaceOnUse" x="269" y="45" width="39" height="141">
<path d="M289.331 101.873L289.483 86.3589C298.602 85.2544 306.369 77.3265 307.083 68.1193C299.278 68.5715 292.277 74.0915 289.534 81.2936L289.638 70.6766C294.882 63.4454 294.613 52.712 288.757 45.8709C282.767 52.5967 282.289 63.3226 287.391 70.6564L287.285 81.2746C284.685 74.0193 277.793 68.36 269.998 67.7558C270.53 76.9756 278.142 85.0542 287.236 86.3373L287.084 101.852C284.484 94.5971 277.592 88.939 269.796 88.3335C270.329 97.5534 277.939 105.633 287.033 106.915L286.881 122.431C284.281 115.176 277.389 109.518 269.593 108.913C270.126 118.132 277.738 126.211 286.832 127.494L286.679 143.009C284.078 135.755 277.187 130.097 269.392 129.492C269.925 138.711 277.535 146.79 286.629 148.073L286.477 163.588C283.876 156.333 276.984 150.675 269.189 150.071C269.722 159.29 277.332 167.369 286.427 168.652L286.266 185.054L288.513 185.075L288.675 168.674C297.792 167.569 305.561 159.643 306.275 150.435C298.469 150.886 291.467 156.408 288.724 163.61L288.876 148.095C297.995 146.991 305.762 139.064 306.476 129.856C298.671 130.307 291.669 135.829 288.927 143.031L289.079 127.517C298.196 126.412 305.965 118.485 306.679 109.277C298.874 109.728 291.872 115.25 289.128 122.452L289.282 106.938C298.399 105.833 306.166 97.9055 306.88 88.6983C299.075 89.1505 292.075 94.6705 289.331 101.873Z" fill="white"/>
</mask>
<g mask="url(#mask2_1_705)">
<path d="M289.331 101.873L289.483 86.3589C298.602 85.2544 306.369 77.3265 307.083 68.1193C299.278 68.5715 292.277 74.0915 289.534 81.2936L289.638 70.6766C294.882 63.4454 294.613 52.712 288.757 45.8709C282.767 52.5967 282.289 63.3226 287.391 70.6564L287.285 81.2746C284.685 74.0193 277.793 68.36 269.998 67.7558C270.53 76.9756 278.142 85.0542 287.236 86.3373L287.084 101.852C284.484 94.5971 277.592 88.939 269.796 88.3335C270.329 97.5534 277.939 105.633 287.033 106.915L286.881 122.431C284.281 115.176 277.389 109.518 269.593 108.913C270.126 118.132 277.738 126.211 286.832 127.494L286.679 143.009C284.078 135.755 277.187 130.097 269.392 129.492C269.925 138.711 277.535 146.79 286.629 148.073L286.477 163.588C283.876 156.333 276.984 150.675 269.189 150.071C269.722 159.29 277.332 167.369 286.427 168.652L286.266 185.054L288.513 185.075L288.675 168.674C297.792 167.569 305.561 159.643 306.275 150.435C298.469 150.886 291.467 156.408 288.724 163.61L288.876 148.095C297.995 146.991 305.762 139.064 306.476 129.856C298.671 130.307 291.669 135.829 288.927 143.031L289.079 127.517C298.196 126.412 305.965 118.485 306.679 109.277C298.874 109.728 291.872 115.25 289.128 122.452L289.282 106.938C298.399 105.833 306.166 97.9055 306.88 88.6983C299.075 89.1505 292.075 94.6705 289.331 101.873Z" fill="url(#paint2_linear_1_705)"/>
</g>
<mask id="mask3_1_705" style="mask-type:luminance" maskUnits="userSpaceOnUse" x="0" y="45" width="38" height="141">
<path d="M20.142 101.873L20.294 86.3589C29.4125 85.2544 37.1795 77.3265 37.8939 68.1193C30.0889 68.5715 23.087 74.0915 20.3447 81.2936L20.4485 70.6766C25.6924 63.4454 25.4239 52.712 19.5682 45.8709C13.5783 52.5967 13.0995 63.3226 18.2015 70.6564L18.0964 81.2746C15.496 74.0193 8.60425 68.36 0.808114 67.7558C1.34137 76.9756 8.95257 85.0542 18.047 86.3373L17.895 101.852C15.2946 94.5971 8.40285 88.939 0.606708 88.3335C1.13996 97.5534 8.74991 105.633 17.8444 106.915L17.6923 122.431C15.0919 115.176 8.20019 109.518 0.404049 108.913C0.937302 118.132 8.54851 126.211 17.6429 127.494L17.4897 143.009C14.8893 135.755 7.99753 130.097 0.202658 129.492C0.734645 138.711 8.34585 146.79 17.4403 148.073L17.2883 163.588C14.6866 156.333 7.79487 150.675 0 150.071C0.533253 159.29 8.14319 167.369 17.2376 168.652L17.0768 185.054L19.3238 185.075L19.4859 168.674C28.6031 167.569 36.3714 159.643 37.0845 150.435C29.2795 150.886 22.2776 156.408 19.5353 163.61L19.6873 148.095C28.8058 146.991 36.5728 139.064 37.2872 129.856C29.4822 130.307 22.4802 135.829 19.738 143.031L19.89 127.517C29.0072 126.412 36.7755 118.485 37.4899 109.277C29.6836 109.728 22.6829 115.25 19.9394 122.452L20.0926 106.938C29.2099 105.833 36.9769 97.9055 37.6912 88.6983C29.8862 89.1505 22.8855 94.6705 20.142 101.873Z" fill="white"/>
</mask>
<g mask="url(#mask3_1_705)">
<path d="M20.142 101.873L20.294 86.3589C29.4125 85.2544 37.1795 77.3265 37.8939 68.1193C30.0889 68.5715 23.087 74.0915 20.3447 81.2936L20.4485 70.6766C25.6924 63.4454 25.4239 52.712 19.5682 45.8709C13.5783 52.5967 13.0995 63.3226 18.2015 70.6564L18.0964 81.2746C15.496 74.0193 8.60425 68.36 0.808114 67.7558C1.34137 76.9756 8.95257 85.0542 18.047 86.3373L17.895 101.852C15.2946 94.5971 8.40285 88.939 0.606708 88.3335C1.13996 97.5534 8.74991 105.633 17.8444 106.915L17.6923 122.431C15.0919 115.176 8.20019 109.518 0.404049 108.913C0.937302 118.132 8.54851 126.211 17.6429 127.494L17.4897 143.009C14.8893 135.755 7.99753 130.097 0.202658 129.492C0.734645 138.711 8.34585 146.79 17.4403 148.073L17.2883 163.588C14.6866 156.333 7.79487 150.675 0 150.071C0.533253 159.29 8.14319 167.369 17.2376 168.652L17.0768 185.054L19.3238 185.075L19.4859 168.674C28.6031 167.569 36.3714 159.643 37.0845 150.435C29.2795 150.886 22.2776 156.408 19.5353 163.61L19.6873 148.095C28.8058 146.991 36.5728 139.064 37.2872 129.856C29.4822 130.307 22.4802 135.829 19.738 143.031L19.89 127.517C29.0072 126.412 36.7755 118.485 37.4899 109.277C29.6836 109.728 22.6829 115.25 19.9394 122.452L20.0926 106.938C29.2099 105.833 36.9769 97.9055 37.6912 88.6983C29.8862 89.1505 22.8855 94.6705 20.142 101.873Z" fill="url(#paint3_linear_1_705)"/>
</g>
<mask id="mask4_1_705" style="mask-type:luminance" maskUnits="userSpaceOnUse" x="154" y="111" width="68" height="73">
<path d="M154.223 183.902V181.801C154.223 181.801 165.032 177.115 183.358 177.115C191.782 177.115 201.794 178.104 213.078 180.995L220.802 111.574L221.823 113.675L213.98 183.097C202.523 180.205 192.359 179.216 183.805 179.216C165.198 179.216 154.223 183.902 154.223 183.902Z" fill="white"/>
</mask>
<g mask="url(#mask4_1_705)">
<path d="M154.223 183.902V181.801C154.223 181.801 165.032 177.115 183.358 177.115C191.782 177.115 201.794 178.104 213.078 180.995L220.802 111.574L221.823 113.675L213.98 183.097C202.523 180.205 192.359 179.216 183.805 179.216C165.198 179.216 154.223 183.902 154.223 183.902Z" fill="url(#paint4_linear_1_705)"/>
</g>
<mask id="mask5_1_705" style="mask-type:luminance" maskUnits="userSpaceOnUse" x="154" y="109" width="67" height="73">
<path d="M154.223 181.801C154.223 181.801 167.957 174.059 190.535 174.059C196.127 174.059 202.258 174.533 208.86 175.717L215.651 109.318C218.902 110.654 220.776 111.56 220.802 111.573V111.574L213.078 180.995C201.794 178.104 191.782 177.115 183.358 177.115C165.032 177.115 154.223 181.801 154.223 181.801Z" fill="white"/>
</mask>
<g mask="url(#mask5_1_705)">
<path d="M154.223 181.801C154.223 181.801 167.957 174.059 190.535 174.059C196.127 174.059 202.258 174.533 208.86 175.717L215.651 109.318C218.902 110.654 220.776 111.56 220.802 111.573V111.574L213.078 180.995C201.794 178.104 191.782 177.115 183.358 177.115C165.032 177.115 154.223 181.801 154.223 181.801Z" fill="url(#paint5_linear_1_705)"/>
</g>
<mask id="mask6_1_705" style="mask-type:luminance" maskUnits="userSpaceOnUse" x="154" y="103" width="63" height="79">
<path d="M154.223 181.801C154.223 181.801 170.438 170.319 196.355 170.319C199.061 170.319 201.872 170.444 204.782 170.721L211.062 103.746C214.216 104.831 216.031 105.603 216.031 105.603L215.651 109.318L208.86 175.717C202.258 174.533 196.127 174.059 190.535 174.059C167.957 174.059 154.223 181.801 154.223 181.801Z" fill="white"/>
</mask>
<g mask="url(#mask6_1_705)">
<path d="M154.223 181.801C154.223 181.801 170.438 170.319 196.355 170.319C199.061 170.319 201.872 170.444 204.782 170.721L211.062 103.746C214.216 104.831 216.031 105.603 216.031 105.603L215.651 109.318L208.86 175.717C202.258 174.533 196.127 174.059 190.535 174.059C167.957 174.059 154.223 181.801 154.223 181.801Z" fill="url(#paint6_linear_1_705)"/>
</g>
<mask id="mask7_1_705" style="mask-type:luminance" maskUnits="userSpaceOnUse" x="154" y="98" width="58" height="84">
<path d="M154.223 181.801C154.223 181.801 172.414 165.755 200.726 165.505L206.453 98.4476C209.598 99.2937 211.417 99.9499 211.417 99.9499L211.062 103.746L204.782 170.721C201.872 170.444 199.061 170.319 196.355 170.319C170.438 170.319 154.223 181.801 154.223 181.801Z" fill="white"/>
</mask>
<g mask="url(#mask7_1_705)">
<path d="M154.223 181.801C154.223 181.801 172.414 165.755 200.726 165.505L206.453 98.4476C209.598 99.2937 211.417 99.9499 211.417 99.9499L211.062 103.746L204.782 170.721C201.872 170.444 199.061 170.319 196.355 170.319C170.438 170.319 154.223 181.801 154.223 181.801Z" fill="url(#paint7_linear_1_705)"/>
</g>
<mask id="mask8_1_705" style="mask-type:luminance" maskUnits="userSpaceOnUse" x="154" y="92" width="53" height="90">
<path d="M154.223 181.801V118.911C158.193 118.876 162.155 118.526 165.986 117.863C162.393 119.174 159.516 120.566 157.441 121.698V124.159C162.372 121.314 174.15 115.718 190.585 115.718C190.591 115.718 190.596 115.718 190.601 115.718C193.705 115.718 196.986 115.92 201.677 116.544L201.86 114.405C197.126 113.778 193.775 113.572 190.601 113.572C185.794 113.574 181.375 114.037 177.392 114.768C179.709 113.877 181.905 112.842 183.945 111.662C187.122 109.819 189.696 107.755 191.661 105.555C194.602 105.722 197.986 106.116 202.499 106.907L202.683 104.762C198.917 104.107 195.91 103.723 193.281 103.515C193.294 103.498 193.305 103.48 193.318 103.464C195.406 100.479 196.444 97.2988 196.441 94.1296L196.44 92.2183C202.8 92.9213 206.829 94.0499 206.829 94.0499L206.453 98.4476L200.726 165.505C172.414 165.755 154.223 181.801 154.223 181.801ZM198.497 153.776C178.639 154.541 164.034 162.75 157.441 167.287V169.906C163.046 165.844 177.82 156.774 198.314 155.924L198.497 153.776ZM198.67 143.796C178.699 143.805 164.047 151.582 157.441 155.892V158.467C163.101 154.576 177.989 145.943 198.644 145.943C198.654 145.943 198.66 145.943 198.67 145.943C198.834 145.943 199.001 145.948 199.166 145.949L199.349 143.806C199.124 143.803 198.895 143.796 198.67 143.796ZM195.959 133.818C177.363 133.826 163.735 140.613 157.441 144.496V147.027C162.879 143.492 176.723 135.964 195.937 135.964C195.945 135.964 195.951 135.964 195.959 135.964C197.278 135.964 198.637 136.019 200.008 136.093L200.19 133.953C198.758 133.874 197.339 133.818 195.959 133.818ZM193.267 123.744C176.046 123.749 163.421 129.621 157.441 133.099V135.593C162.627 132.41 175.428 125.889 193.248 125.889C193.254 125.889 193.261 125.889 193.267 125.889C195.563 125.889 197.955 126.002 200.843 126.315L201.025 124.177C198.078 123.859 195.625 123.744 193.267 123.744Z" fill="white"/>
</mask>
<g mask="url(#mask8_1_705)">
<path d="M154.223 181.801V118.911C158.193 118.876 162.155 118.526 165.986 117.863C162.393 119.174 159.516 120.566 157.441 121.698V124.159C162.372 121.314 174.15 115.718 190.585 115.718C190.591 115.718 190.596 115.718 190.601 115.718C193.705 115.718 196.986 115.92 201.677 116.544L201.86 114.405C197.126 113.778 193.775 113.572 190.601 113.572C185.794 113.574 181.375 114.037 177.392 114.768C179.709 113.877 181.905 112.842 183.945 111.662C187.122 109.819 189.696 107.755 191.661 105.555C194.602 105.722 197.986 106.116 202.499 106.907L202.683 104.762C198.917 104.107 195.91 103.723 193.281 103.515C193.294 103.498 193.305 103.48 193.318 103.464C195.406 100.479 196.444 97.2988 196.441 94.1296L196.44 92.2183C202.8 92.9213 206.829 94.0499 206.829 94.0499L206.453 98.4476L200.726 165.505C172.414 165.755 154.223 181.801 154.223 181.801ZM198.497 153.776C178.639 154.541 164.034 162.75 157.441 167.287V169.906C163.046 165.844 177.82 156.774 198.314 155.924L198.497 153.776ZM198.67 143.796C178.699 143.805 164.047 151.582 157.441 155.892V158.467C163.101 154.576 177.989 145.943 198.644 145.943C198.654 145.943 198.66 145.943 198.67 145.943C198.834 145.943 199.001 145.948 199.166 145.949L199.349 143.806C199.124 143.803 198.895 143.796 198.67 143.796ZM195.959 133.818C177.363 133.826 163.735 140.613 157.441 144.496V147.027C162.879 143.492 176.723 135.964 195.937 135.964C195.945 135.964 195.951 135.964 195.959 135.964C197.278 135.964 198.637 136.019 200.008 136.093L200.19 133.953C198.758 133.874 197.339 133.818 195.959 133.818ZM193.267 123.744C176.046 123.749 163.421 129.621 157.441 133.099V135.593C162.627 132.41 175.428 125.889 193.248 125.889C193.254 125.889 193.261 125.889 193.267 125.889C195.563 125.889 197.955 126.002 200.843 126.315L201.025 124.177C198.078 123.859 195.625 123.744 193.267 123.744Z" fill="url(#paint8_linear_1_705)"/>
</g>
<mask id="mask9_1_705" style="mask-type:luminance" maskUnits="userSpaceOnUse" x="157" y="143" width="43" height="16">
<path d="M157.441 158.467V155.892C164.047 151.582 178.699 143.805 198.67 143.796C198.895 143.796 199.124 143.803 199.349 143.806L199.166 145.949C199.001 145.948 198.834 145.943 198.67 145.943C198.66 145.943 198.654 145.943 198.644 145.943C177.989 145.943 163.101 154.576 157.441 158.467Z" fill="white"/>
</mask>
<g mask="url(#mask9_1_705)">
<path d="M157.441 158.467V155.892C164.047 151.582 178.699 143.805 198.67 143.796C198.895 143.796 199.124 143.803 199.349 143.806L199.166 145.949C199.001 145.948 198.834 145.943 198.67 145.943C198.66 145.943 198.654 145.943 198.644 145.943C177.989 145.943 163.101 154.576 157.441 158.467Z" fill="url(#paint9_linear_1_705)"/>
</g>
<mask id="mask10_1_705" style="mask-type:luminance" maskUnits="userSpaceOnUse" x="157" y="133" width="44" height="15">
<path d="M157.441 147.027V144.496C163.735 140.613 177.363 133.826 195.959 133.818C197.339 133.818 198.758 133.874 200.19 133.953L200.008 136.093C198.638 136.019 197.278 135.964 195.959 135.964C195.951 135.964 195.945 135.964 195.937 135.964C176.723 135.964 162.879 143.492 157.441 147.027Z" fill="white"/>
</mask>
<g mask="url(#mask10_1_705)">
<path d="M157.441 147.027V144.496C163.735 140.613 177.363 133.826 195.959 133.818C197.339 133.818 198.758 133.874 200.19 133.953L200.008 136.093C198.638 136.019 197.278 135.964 195.959 135.964C195.951 135.964 195.945 135.964 195.937 135.964C176.723 135.964 162.879 143.492 157.441 147.027Z" fill="url(#paint10_linear_1_705)"/>
</g>
<mask id="mask11_1_705" style="mask-type:luminance" maskUnits="userSpaceOnUse" x="157" y="153" width="42" height="17">
<path d="M157.441 169.906V167.287C164.034 162.75 178.639 154.541 198.497 153.776L198.315 155.924C177.82 156.774 163.046 165.844 157.441 169.906Z" fill="white"/>
</mask>
<g mask="url(#mask11_1_705)">
<path d="M157.441 169.906V167.287C164.034 162.75 178.639 154.541 198.497 153.776L198.315 155.924C177.82 156.774 163.046 165.844 157.441 169.906Z" fill="url(#paint11_linear_1_705)"/>
</g>
<mask id="mask12_1_705" style="mask-type:luminance" maskUnits="userSpaceOnUse" x="191" y="103" width="12" height="4">
<path d="M202.499 106.907C197.986 106.116 194.602 105.722 191.661 105.555C192.257 104.886 192.797 104.206 193.281 103.515C195.91 103.723 198.917 104.107 202.683 104.762L202.499 106.907Z" fill="white"/>
</mask>
<g mask="url(#mask12_1_705)">
<path d="M202.499 106.907C197.986 106.116 194.602 105.722 191.661 105.555C192.257 104.886 192.797 104.206 193.281 103.515C195.91 103.723 198.917 104.107 202.683 104.762L202.499 106.907Z" fill="url(#paint12_linear_1_705)"/>
</g>
<mask id="mask13_1_705" style="mask-type:luminance" maskUnits="userSpaceOnUse" x="157" y="113" width="45" height="12">
<path d="M157.441 124.159V121.698C159.516 120.566 162.393 119.174 165.986 117.863C169.977 117.172 173.827 116.14 177.392 114.768C181.375 114.037 185.794 113.574 190.601 113.572C193.775 113.572 197.126 113.778 201.86 114.405L201.677 116.544C196.986 115.92 193.705 115.718 190.601 115.718C190.596 115.718 190.591 115.718 190.585 115.718C174.15 115.718 162.372 121.314 157.441 124.159Z" fill="white"/>
</mask>
<g mask="url(#mask13_1_705)">
<path d="M157.441 124.159V121.698C159.516 120.566 162.393 119.174 165.986 117.863C169.977 117.172 173.827 116.14 177.392 114.768C181.375 114.037 185.794 113.574 190.601 113.572C193.775 113.572 197.126 113.778 201.86 114.405L201.677 116.544C196.986 115.92 193.705 115.718 190.601 115.718C190.596 115.718 190.591 115.718 190.585 115.718C174.15 115.718 162.372 121.314 157.441 124.159Z" fill="url(#paint13_linear_1_705)"/>
</g>
<mask id="mask14_1_705" style="mask-type:luminance" maskUnits="userSpaceOnUse" x="157" y="123" width="45" height="13">
<path d="M157.441 135.593V133.099C163.421 129.621 176.046 123.749 193.267 123.744C195.625 123.744 198.078 123.859 201.025 124.177L200.843 126.315C197.955 126.002 195.563 125.889 193.267 125.889C193.261 125.889 193.254 125.889 193.248 125.889C175.428 125.889 162.627 132.41 157.441 135.593Z" fill="white"/>
</mask>
<g mask="url(#mask14_1_705)">
<path d="M157.441 135.593V133.099C163.421 129.621 176.046 123.749 193.267 123.744C195.625 123.744 198.078 123.859 201.025 124.177L200.843 126.315C197.955 126.002 195.563 125.889 193.267 125.889C193.261 125.889 193.254 125.889 193.248 125.889C175.428 125.889 162.627 132.41 157.441 135.593Z" fill="url(#paint14_linear_1_705)"/>
</g>
<mask id="mask15_1_705" style="mask-type:luminance" maskUnits="userSpaceOnUse" x="154" y="105" width="63" height="77">
<path d="M154.223 181.801C158.329 179.595 162.755 178.026 167.243 176.76C171.743 175.515 176.355 174.675 181 174.158C182.161 174.026 183.329 173.964 184.493 173.864L186.242 173.728L187.995 173.681L191.501 173.605L195.007 173.722C197.349 173.74 199.671 174.062 202.003 174.238C204.328 174.486 206.634 174.893 208.95 175.212L208.349 175.665C209.49 163.974 210.782 152.299 212 140.615L213.957 123.103L216.03 105.603L214.519 123.161L212.89 140.706C211.718 152.394 210.62 164.09 209.371 175.769L209.314 176.301L208.769 176.223C206.477 175.893 204.194 175.475 201.893 175.216C199.585 175.027 197.285 174.694 194.965 174.664L191.492 174.524L188.018 174.564L186.279 174.577L184.544 174.681C183.388 174.76 182.228 174.799 181.074 174.909C176.454 175.321 171.872 176.115 167.359 177.206C162.858 178.318 158.398 179.733 154.223 181.801Z" fill="white"/>
</mask>
<g mask="url(#mask15_1_705)">
<path d="M154.223 181.801C158.329 179.595 162.755 178.026 167.243 176.76C171.743 175.515 176.355 174.675 181 174.158C182.161 174.026 183.329 173.964 184.493 173.864L186.242 173.728L187.995 173.681L191.501 173.605L195.007 173.722C197.349 173.74 199.671 174.062 202.003 174.238C204.328 174.486 206.634 174.893 208.95 175.212L208.349 175.665C209.49 163.974 210.782 152.299 212 140.615L213.957 123.103L216.03 105.603L214.519 123.161L212.89 140.706C211.718 152.394 210.62 164.09 209.371 175.769L209.314 176.301L208.769 176.223C206.477 175.893 204.194 175.475 201.893 175.216C199.585 175.027 197.285 174.694 194.965 174.664L191.492 174.524L188.018 174.564L186.279 174.577L184.544 174.681C183.388 174.76 182.228 174.799 181.074 174.909C176.454 175.321 171.872 176.115 167.359 177.206C162.858 178.318 158.398 179.733 154.223 181.801Z" fill="url(#paint15_linear_1_705)"/>
</g>
<mask id="mask16_1_705" style="mask-type:luminance" maskUnits="userSpaceOnUse" x="154" y="99" width="58" height="83">
<path d="M154.223 181.801C157.853 179.325 161.824 177.374 165.895 175.712C169.977 174.067 174.202 172.753 178.511 171.824C182.821 170.928 187.191 170.19 191.604 170.019C193.804 169.823 196.013 169.897 198.219 169.876C200.426 169.892 202.626 170.109 204.83 170.215L204.278 170.672C205.31 158.871 206.526 147.086 207.648 135.293L209.472 117.616L211.418 99.9499L210.044 117.669L208.551 135.378C207.461 147.174 206.467 158.979 205.287 170.767L205.238 171.253L204.734 171.225C202.556 171.107 200.38 170.878 198.199 170.848C196.017 170.856 193.832 170.767 191.654 170.949C187.29 171.116 182.953 171.728 178.663 172.542C174.366 173.365 170.171 174.645 166.056 176.127C161.953 177.643 157.933 179.45 154.223 181.801Z" fill="white"/>
</mask>
<g mask="url(#mask16_1_705)">
<path d="M154.223 181.801C157.853 179.325 161.824 177.374 165.895 175.712C169.977 174.067 174.202 172.753 178.511 171.824C182.821 170.928 187.191 170.19 191.604 170.019C193.804 169.823 196.013 169.897 198.219 169.876C200.426 169.892 202.626 170.109 204.83 170.215L204.278 170.672C205.31 158.871 206.526 147.086 207.648 135.293L209.472 117.616L211.418 99.9499L210.044 117.669L208.551 135.378C207.461 147.174 206.467 158.979 205.287 170.767L205.238 171.253L204.734 171.225C202.556 171.107 200.38 170.878 198.199 170.848C196.017 170.856 193.832 170.767 191.654 170.949C187.29 171.116 182.953 171.728 178.663 172.542C174.366 173.365 170.171 174.645 166.056 176.127C161.953 177.643 157.933 179.45 154.223 181.801Z" fill="url(#paint16_linear_1_705)"/>
</g>
<mask id="mask17_1_705" style="mask-type:luminance" maskUnits="userSpaceOnUse" x="154" y="94" width="53" height="88">
<path d="M154.223 181.801C157.398 179.078 160.916 176.764 164.568 174.709C168.217 172.646 172.058 170.913 176.015 169.51C179.971 168.113 184.023 166.922 188.175 166.235C192.307 165.426 196.518 165.155 200.721 165.003L200.226 165.461C201.171 153.546 202.282 141.645 203.323 129.739L205.012 111.889L206.829 94.0498L205.593 111.939L204.232 129.816C203.239 141.727 202.316 153.644 201.225 165.548L201.185 165.992L200.73 166.006C196.582 166.13 192.422 166.37 188.335 167.145C184.233 167.814 180.197 168.862 176.254 170.187C172.295 171.484 168.481 173.189 164.771 175.087C161.072 177.006 157.49 179.189 154.223 181.801Z" fill="white"/>
</mask>
<g mask="url(#mask17_1_705)">
<path d="M154.223 181.801C157.398 179.078 160.916 176.764 164.568 174.709C168.217 172.646 172.058 170.913 176.015 169.51C179.971 168.113 184.023 166.922 188.175 166.235C192.307 165.426 196.518 165.155 200.721 165.003L200.226 165.461C201.171 153.546 202.282 141.645 203.323 129.739L205.012 111.889L206.829 94.0498L205.593 111.939L204.232 129.816C203.239 141.727 202.316 153.644 201.225 165.548L201.185 165.992L200.73 166.006C196.582 166.13 192.422 166.37 188.335 167.145C184.233 167.814 180.197 168.862 176.254 170.187C172.295 171.484 168.481 173.189 164.771 175.087C161.072 177.006 157.49 179.189 154.223 181.801Z" fill="url(#paint17_linear_1_705)"/>
</g>
<mask id="mask18_1_705" style="mask-type:luminance" maskUnits="userSpaceOnUse" x="86" y="111" width="69" height="73">
<path d="M154.223 183.902C154.223 183.902 143.248 179.216 124.641 179.216C116.087 179.216 105.922 180.205 94.4643 183.097L86.6226 113.675L87.6435 111.572L95.3675 180.995C106.652 178.104 116.662 177.115 125.088 177.115C143.413 177.115 154.223 181.801 154.223 181.801V183.902Z" fill="white"/>
</mask>
<g mask="url(#mask18_1_705)">
<path d="M154.223 183.902C154.223 183.902 143.248 179.216 124.641 179.216C116.087 179.216 105.922 180.205 94.4643 183.097L86.6226 113.675L87.6435 111.572L95.3675 180.995C106.652 178.104 116.662 177.115 125.088 177.115C143.413 177.115 154.223 181.801 154.223 181.801V183.902Z" fill="url(#paint18_linear_1_705)"/>
</g>
<mask id="mask19_1_705" style="mask-type:luminance" maskUnits="userSpaceOnUse" x="87" y="109" width="68" height="73">
<path d="M154.223 181.801C154.223 181.801 143.413 177.115 125.088 177.115C116.662 177.115 106.652 178.104 95.3675 180.995L87.6436 111.573C87.6689 111.561 89.5435 110.654 92.795 109.318L99.5854 175.717C106.188 174.533 112.319 174.059 117.91 174.059C140.489 174.059 154.223 181.801 154.223 181.801Z" fill="white"/>
</mask>
<g mask="url(#mask19_1_705)">
<path d="M154.223 181.801C154.223 181.801 143.413 177.115 125.088 177.115C116.662 177.115 106.652 178.104 95.3675 180.995L87.6436 111.573C87.6689 111.561 89.5435 110.654 92.795 109.318L99.5854 175.717C106.188 174.533 112.319 174.059 117.91 174.059C140.489 174.059 154.223 181.801 154.223 181.801Z" fill="url(#paint19_linear_1_705)"/>
</g>
<mask id="mask20_1_705" style="mask-type:luminance" maskUnits="userSpaceOnUse" x="92" y="103" width="63" height="79">
<path d="M154.223 181.801C154.223 181.801 140.489 174.059 117.91 174.059C112.319 174.059 106.188 174.533 99.5853 175.717L92.7949 109.318L92.4149 105.603C92.4149 105.603 94.23 104.831 97.3839 103.746L103.664 170.721C106.573 170.444 109.385 170.319 112.091 170.319C138.007 170.319 154.223 181.801 154.223 181.801Z" fill="white"/>
</mask>
<g mask="url(#mask20_1_705)">
<path d="M154.223 181.801C154.223 181.801 140.489 174.059 117.91 174.059C112.319 174.059 106.188 174.533 99.5853 175.717L92.7949 109.318L92.4149 105.603C92.4149 105.603 94.23 104.831 97.3839 103.746L103.664 170.721C106.573 170.444 109.385 170.319 112.091 170.319C138.007 170.319 154.223 181.801 154.223 181.801Z" fill="url(#paint20_linear_1_705)"/>
</g>
<mask id="mask21_1_705" style="mask-type:luminance" maskUnits="userSpaceOnUse" x="97" y="98" width="58" height="84">
<path d="M154.223 181.801C154.223 181.801 138.007 170.319 112.091 170.319C109.385 170.319 106.573 170.444 103.664 170.721L97.3839 103.746L97.028 99.9499C97.028 99.9499 98.8482 99.2937 101.992 98.4476L107.72 165.505C136.03 165.755 154.223 181.801 154.223 181.801Z" fill="white"/>
</mask>
<g mask="url(#mask21_1_705)">
<path d="M154.223 181.801C154.223 181.801 138.007 170.319 112.091 170.319C109.385 170.319 106.573 170.444 103.664 170.721L97.3839 103.746L97.028 99.9499C97.028 99.9499 98.8482 99.2937 101.992 98.4476L107.72 165.505C136.03 165.755 154.223 181.801 154.223 181.801Z" fill="url(#paint21_linear_1_705)"/>
</g>
<mask id="mask22_1_705" style="mask-type:luminance" maskUnits="userSpaceOnUse" x="101" y="92" width="54" height="90">
<path d="M154.223 181.801C154.223 181.801 136.03 165.755 107.72 165.505L101.992 98.4476L101.617 94.0499C101.617 94.0499 105.104 93.0733 110.71 92.3716L110.712 94.1955C110.714 97.4052 111.782 100.614 113.917 103.624C111.589 103.849 108.947 104.208 105.763 104.762L105.946 106.907C109.834 106.226 112.883 105.84 115.534 105.638C117.502 107.826 120.073 109.876 123.247 111.708C124.973 112.702 126.81 113.594 128.738 114.382C125.378 113.878 121.739 113.574 117.845 113.572C114.671 113.572 111.319 113.778 106.586 114.405L106.768 116.544C111.46 115.92 114.739 115.718 117.845 115.718C117.85 115.718 117.855 115.718 117.86 115.718C134.296 115.718 146.073 121.314 151.003 124.159V121.698C149.118 120.669 146.572 119.426 143.427 118.225C146.747 118.685 150.146 118.915 153.544 118.915C153.771 118.915 153.996 118.914 154.223 118.911V181.801ZM109.949 153.776L110.131 155.924C130.626 156.774 145.4 165.844 151.003 169.906V167.287C144.41 162.75 129.807 154.541 109.949 153.776ZM109.802 145.943C130.456 145.943 145.345 154.576 151.003 158.467V155.892C144.399 151.582 129.746 143.805 109.775 143.796C109.551 143.796 109.322 143.803 109.097 143.806L109.28 145.949C109.445 145.948 109.612 145.943 109.775 145.943C109.786 145.943 109.792 145.943 109.802 145.943ZM112.509 135.964C131.722 135.964 145.567 143.492 151.003 147.027V144.496C144.711 140.613 131.083 133.826 112.487 133.818C111.107 133.818 109.688 133.874 108.255 133.953L108.438 136.093C109.808 136.019 111.166 135.964 112.487 135.964C112.495 135.964 112.501 135.964 112.509 135.964ZM115.198 125.889C133.018 125.889 145.818 132.41 151.003 135.593V133.099C145.025 129.621 132.4 123.749 115.179 123.744C112.82 123.744 110.368 123.859 107.421 124.177L107.603 126.315C110.491 126.002 112.881 125.889 115.179 125.889C115.185 125.889 115.192 125.889 115.198 125.889Z" fill="white"/>
</mask>
<g mask="url(#mask22_1_705)">
<path d="M154.223 181.801C154.223 181.801 136.03 165.755 107.72 165.505L101.992 98.4476L101.617 94.0499C101.617 94.0499 105.104 93.0733 110.71 92.3716L110.712 94.1955C110.714 97.4052 111.782 100.614 113.917 103.624C111.589 103.849 108.947 104.208 105.763 104.762L105.946 106.907C109.834 106.226 112.883 105.84 115.534 105.638C117.502 107.826 120.073 109.876 123.247 111.708C124.973 112.702 126.81 113.594 128.738 114.382C125.378 113.878 121.739 113.574 117.845 113.572C114.671 113.572 111.319 113.778 106.586 114.405L106.768 116.544C111.46 115.92 114.739 115.718 117.845 115.718C117.85 115.718 117.855 115.718 117.86 115.718C134.296 115.718 146.073 121.314 151.003 124.159V121.698C149.118 120.669 146.572 119.426 143.427 118.225C146.747 118.685 150.146 118.915 153.544 118.915C153.771 118.915 153.996 118.914 154.223 118.911V181.801ZM109.949 153.776L110.131 155.924C130.626 156.774 145.4 165.844 151.003 169.906V167.287C144.41 162.75 129.807 154.541 109.949 153.776ZM109.802 145.943C130.456 145.943 145.345 154.576 151.003 158.467V155.892C144.399 151.582 129.746 143.805 109.775 143.796C109.551 143.796 109.322 143.803 109.097 143.806L109.28 145.949C109.445 145.948 109.612 145.943 109.775 145.943C109.786 145.943 109.792 145.943 109.802 145.943ZM112.509 135.964C131.722 135.964 145.567 143.492 151.003 147.027V144.496C144.711 140.613 131.083 133.826 112.487 133.818C111.107 133.818 109.688 133.874 108.255 133.953L108.438 136.093C109.808 136.019 111.166 135.964 112.487 135.964C112.495 135.964 112.501 135.964 112.509 135.964ZM115.198 125.889C133.018 125.889 145.818 132.41 151.003 135.593V133.099C145.025 129.621 132.4 123.749 115.179 123.744C112.82 123.744 110.368 123.859 107.421 124.177L107.603 126.315C110.491 126.002 112.881 125.889 115.179 125.889C115.185 125.889 115.192 125.889 115.198 125.889Z" fill="url(#paint22_linear_1_705)"/>
</g>
<mask id="mask23_1_705" style="mask-type:luminance" maskUnits="userSpaceOnUse" x="109" y="143" width="43" height="16">
<path d="M151.003 158.467C145.345 154.576 130.456 145.943 109.802 145.943C109.792 145.943 109.786 145.943 109.775 145.943C109.612 145.943 109.445 145.948 109.28 145.949L109.097 143.806C109.322 143.803 109.551 143.796 109.775 143.796C129.746 143.805 144.399 151.582 151.003 155.892V158.467Z" fill="white"/>
</mask>
<g mask="url(#mask23_1_705)">
<path d="M151.003 158.467C145.345 154.576 130.456 145.943 109.802 145.943C109.792 145.943 109.786 145.943 109.775 145.943C109.612 145.943 109.445 145.948 109.28 145.949L109.097 143.806C109.322 143.803 109.551 143.796 109.775 143.796C129.746 143.805 144.399 151.582 151.003 155.892V158.467Z" fill="url(#paint23_linear_1_705)"/>
</g>
<mask id="mask24_1_705" style="mask-type:luminance" maskUnits="userSpaceOnUse" x="108" y="133" width="44" height="15">
<path d="M151.003 147.027C145.567 143.492 131.722 135.964 112.509 135.964C112.501 135.964 112.495 135.964 112.487 135.964C111.166 135.964 109.808 136.019 108.438 136.093L108.255 133.953C109.688 133.874 111.107 133.818 112.487 133.818C131.083 133.826 144.711 140.613 151.003 144.496V147.027Z" fill="white"/>
</mask>
<g mask="url(#mask24_1_705)">
<path d="M151.003 147.027C145.567 143.492 131.722 135.964 112.509 135.964C112.501 135.964 112.495 135.964 112.487 135.964C111.166 135.964 109.808 136.019 108.438 136.093L108.255 133.953C109.688 133.874 111.107 133.818 112.487 133.818C131.083 133.826 144.711 140.613 151.003 144.496V147.027Z" fill="url(#paint24_linear_1_705)"/>
</g>
<mask id="mask25_1_705" style="mask-type:luminance" maskUnits="userSpaceOnUse" x="109" y="153" width="43" height="17">
<path d="M151.003 169.906C145.4 165.844 130.626 156.774 110.131 155.924L109.949 153.776C129.807 154.541 144.41 162.75 151.003 167.287V169.906Z" fill="white"/>
</mask>
<g mask="url(#mask25_1_705)">
<path d="M151.003 169.906C145.4 165.844 130.626 156.774 110.131 155.924L109.949 153.776C129.807 154.541 144.41 162.75 151.003 167.287V169.906Z" fill="url(#paint25_linear_1_705)"/>
</g>
<mask id="mask26_1_705" style="mask-type:luminance" maskUnits="userSpaceOnUse" x="105" y="103" width="11" height="4">
<path d="M105.946 106.907L105.763 104.762C108.947 104.208 111.589 103.849 113.917 103.624C114.401 104.306 114.94 104.978 115.534 105.638C112.882 105.84 109.834 106.226 105.946 106.907Z" fill="white"/>
</mask>
<g mask="url(#mask26_1_705)">
<path d="M105.946 106.907L105.763 104.762C108.947 104.208 111.589 103.849 113.917 103.624C114.401 104.306 114.94 104.978 115.534 105.638C112.882 105.84 109.834 106.226 105.946 106.907Z" fill="url(#paint26_linear_1_705)"/>
</g>
<mask id="mask27_1_705" style="mask-type:luminance" maskUnits="userSpaceOnUse" x="106" y="113" width="46" height="12">
<path d="M151.003 124.159C146.073 121.314 134.296 115.718 117.86 115.718C117.855 115.718 117.85 115.718 117.845 115.718C114.739 115.718 111.46 115.92 106.768 116.544L106.586 114.405C111.319 113.778 114.671 113.572 117.845 113.572C121.739 113.574 125.378 113.878 128.738 114.382C133.242 116.225 138.241 117.505 143.427 118.225C146.572 119.426 149.118 120.669 151.003 121.698V124.159Z" fill="white"/>
</mask>
<g mask="url(#mask27_1_705)">
<path d="M151.003 124.159C146.073 121.314 134.296 115.718 117.86 115.718C117.855 115.718 117.85 115.718 117.845 115.718C114.739 115.718 111.46 115.92 106.768 116.544L106.586 114.405C111.319 113.778 114.671 113.572 117.845 113.572C121.739 113.574 125.378 113.878 128.738 114.382C133.242 116.225 138.241 117.505 143.427 118.225C146.572 119.426 149.118 120.669 151.003 121.698V124.159Z" fill="url(#paint27_linear_1_705)"/>
</g>
<mask id="mask28_1_705" style="mask-type:luminance" maskUnits="userSpaceOnUse" x="107" y="123" width="45" height="13">
<path d="M151.003 135.593C145.818 132.41 133.018 125.889 115.198 125.889C115.192 125.889 115.185 125.889 115.179 125.889C112.881 125.889 110.491 126.002 107.603 126.315L107.421 124.177C110.368 123.859 112.82 123.744 115.179 123.744C132.4 123.749 145.025 129.621 151.003 133.099V135.593Z" fill="white"/>
</mask>
<g mask="url(#mask28_1_705)">
<path d="M151.003 135.593C145.818 132.41 133.018 125.889 115.198 125.889C115.192 125.889 115.185 125.889 115.179 125.889C112.881 125.889 110.491 126.002 107.603 126.315L107.421 124.177C110.368 123.859 112.82 123.744 115.179 123.744C132.4 123.749 145.025 129.621 151.003 133.099V135.593Z" fill="url(#paint28_linear_1_705)"/>
</g>
<mask id="mask29_1_705" style="mask-type:luminance" maskUnits="userSpaceOnUse" x="92" y="105" width="63" height="77">
<path d="M154.223 181.801C150.048 179.733 145.588 178.318 141.085 177.206C136.574 176.115 131.992 175.321 127.371 174.909C126.218 174.799 125.057 174.76 123.902 174.681L122.167 174.577L120.428 174.564L116.953 174.524L113.48 174.664C111.161 174.694 108.861 175.027 106.553 175.216C104.252 175.475 101.969 175.893 99.6765 176.223L99.1319 176.301L99.0749 175.769C97.826 164.09 96.7278 152.394 95.5562 140.706L93.9273 123.161L92.4149 105.603L94.4884 123.103L96.4453 140.615C97.6638 152.299 98.9558 163.974 100.096 175.665L99.4954 175.212C101.812 174.893 104.117 174.486 106.443 174.238C108.775 174.062 111.096 173.74 113.439 173.722L116.943 173.605L120.451 173.681L122.204 173.728L123.953 173.864C125.117 173.964 126.285 174.026 127.446 174.158C132.091 174.675 136.703 175.515 141.203 176.76C145.691 178.026 150.116 179.595 154.223 181.801Z" fill="white"/>
</mask>
<g mask="url(#mask29_1_705)">
<path d="M154.223 181.801C150.048 179.733 145.588 178.318 141.085 177.206C136.574 176.115 131.992 175.321 127.371 174.909C126.218 174.799 125.057 174.76 123.902 174.681L122.167 174.577L120.428 174.564L116.953 174.524L113.48 174.664C111.161 174.694 108.861 175.027 106.553 175.216C104.252 175.475 101.969 175.893 99.6765 176.223L99.1319 176.301L99.0749 175.769C97.826 164.09 96.7278 152.394 95.5562 140.706L93.9273 123.161L92.4149 105.603L94.4884 123.103L96.4453 140.615C97.6638 152.299 98.9558 163.974 100.096 175.665L99.4954 175.212C101.812 174.893 104.117 174.486 106.443 174.238C108.775 174.062 111.096 173.74 113.439 173.722L116.943 173.605L120.451 173.681L122.204 173.728L123.953 173.864C125.117 173.964 126.285 174.026 127.446 174.158C132.091 174.675 136.703 175.515 141.203 176.76C145.691 178.026 150.116 179.595 154.223 181.801Z" fill="url(#paint29_linear_1_705)"/>
</g>
<mask id="mask30_1_705" style="mask-type:luminance" maskUnits="userSpaceOnUse" x="97" y="99" width="58" height="83">
<path d="M154.223 181.801C150.513 179.45 146.493 177.643 142.39 176.127C138.275 174.645 134.078 173.365 129.783 172.542C125.493 171.728 121.156 171.116 116.791 170.949C114.614 170.767 112.429 170.856 110.247 170.848C108.065 170.878 105.889 171.107 103.712 171.225L103.208 171.253L103.159 170.767C101.979 158.979 100.985 147.174 99.8944 135.378L98.401 117.669L97.028 99.9499L98.9735 117.616L100.798 135.293C101.92 147.086 103.136 158.871 104.168 170.672L103.616 170.215C105.82 170.109 108.02 169.892 110.226 169.876C112.433 169.897 114.642 169.823 116.842 170.019C121.255 170.19 125.625 170.928 129.935 171.824C134.244 172.753 138.468 174.067 142.551 175.712C146.622 177.374 150.593 179.325 154.223 181.801Z" fill="white"/>
</mask>
<g mask="url(#mask30_1_705)">
<path d="M154.223 181.801C150.513 179.45 146.493 177.643 142.39 176.127C138.275 174.645 134.078 173.365 129.783 172.542C125.493 171.728 121.156 171.116 116.791 170.949C114.614 170.767 112.429 170.856 110.247 170.848C108.065 170.878 105.889 171.107 103.712 171.225L103.208 171.253L103.159 170.767C101.979 158.979 100.985 147.174 99.8944 135.378L98.401 117.669L97.028 99.9499L98.9735 117.616L100.798 135.293C101.92 147.086 103.136 158.871 104.168 170.672L103.616 170.215C105.82 170.109 108.02 169.892 110.226 169.876C112.433 169.897 114.642 169.823 116.842 170.019C121.255 170.19 125.625 170.928 129.935 171.824C134.244 172.753 138.468 174.067 142.551 175.712C146.622 177.374 150.593 179.325 154.223 181.801Z" fill="url(#paint30_linear_1_705)"/>
</g>
<mask id="mask31_1_705" style="mask-type:luminance" maskUnits="userSpaceOnUse" x="101" y="94" width="54" height="88">
<path d="M154.223 181.801C150.956 179.189 147.374 177.006 143.674 175.087C139.964 173.189 136.151 171.484 132.192 170.187C128.249 168.862 124.213 167.814 120.111 167.145C116.024 166.37 111.863 166.13 107.716 166.006L107.261 165.992L107.221 165.548C106.13 153.644 105.207 141.727 104.214 129.816L102.852 111.939L101.617 94.0498L103.432 111.889L105.123 129.739C106.164 141.645 107.275 153.546 108.22 165.461L107.725 165.003C111.927 165.155 116.139 165.426 120.271 166.235C124.423 166.922 128.475 168.113 132.429 169.51C136.387 170.913 140.229 172.646 143.878 174.709C147.53 176.764 151.046 179.078 154.223 181.801Z" fill="white"/>
</mask>
<g mask="url(#mask31_1_705)">
<path d="M154.223 181.801C150.956 179.189 147.374 177.006 143.674 175.087C139.964 173.189 136.151 171.484 132.192 170.187C128.249 168.862 124.213 167.814 120.111 167.145C116.024 166.37 111.863 166.13 107.716 166.006L107.261 165.992L107.221 165.548C106.13 153.644 105.207 141.727 104.214 129.816L102.852 111.939L101.617 94.0498L103.432 111.889L105.123 129.739C106.164 141.645 107.275 153.546 108.22 165.461L107.725 165.003C111.927 165.155 116.139 165.426 120.271 166.235C124.423 166.922 128.475 168.113 132.429 169.51C136.387 170.913 140.229 172.646 143.878 174.709C147.53 176.764 151.046 179.078 154.223 181.801Z" fill="url(#paint31_linear_1_705)"/>
</g>
<mask id="mask32_1_705" style="mask-type:luminance" maskUnits="userSpaceOnUse" x="77" y="14" width="153" height="89">
<path d="M153.576 102.056L110.699 77.3442V77.3454L77.5244 58.2256V54.147H84.577L153.509 14.2797L222.682 54.147H229.559V58.1103L167.767 93.8484L154.223 101.681L153.574 102.056" fill="white"/>
</mask>
<g mask="url(#mask32_1_705)">
<path d="M153.576 102.056L110.699 77.3442V77.3454L77.5244 58.2256V54.147H84.577L153.509 14.2797L222.682 54.147H229.559V58.1103L167.767 93.8484L154.223 101.681L153.574 102.056" fill="url(#paint32_linear_1_705)"/>
</g>
<mask id="mask33_1_705" style="mask-type:luminance" maskUnits="userSpaceOnUse" x="110" y="77" width="87" height="42">
<path d="M153.544 118.915C150.146 118.915 146.747 118.685 143.427 118.225C138.24 117.505 133.242 116.225 128.738 114.382C126.81 113.594 124.973 112.702 123.247 111.708C120.073 109.876 117.502 107.826 115.534 105.638C114.939 104.978 114.401 104.306 113.917 103.624C111.782 100.614 110.714 97.4052 110.711 94.1955L110.71 92.3716L110.703 83.248L153.574 107.956L196.432 83.1695L196.44 92.2183L196.441 94.1296C196.444 97.2988 195.406 100.479 193.318 103.463C193.305 103.48 193.294 103.498 193.281 103.515C192.797 104.206 192.257 104.886 191.661 105.555C189.696 107.755 187.122 109.819 183.944 111.662C181.905 112.842 179.709 113.877 177.392 114.768C173.827 116.14 169.977 117.172 165.986 117.863C162.155 118.526 158.193 118.876 154.223 118.911C153.996 118.914 153.771 118.915 153.544 118.915Z" fill="white"/>
</mask>
<g mask="url(#mask33_1_705)">
<path d="M153.544 118.915C150.146 118.915 146.747 118.685 143.427 118.225C138.24 117.505 133.242 116.225 128.738 114.382C126.81 113.594 124.973 112.702 123.247 111.708C120.073 109.876 117.502 107.826 115.534 105.638C114.939 104.978 114.401 104.306 113.917 103.624C111.782 100.614 110.714 97.4052 110.711 94.1955L110.71 92.3716L110.703 83.248L153.574 107.956L196.432 83.1695L196.44 92.2183L196.441 94.1296C196.444 97.2988 195.406 100.479 193.318 103.463C193.305 103.48 193.294 103.498 193.281 103.515C192.797 104.206 192.257 104.886 191.661 105.555C189.696 107.755 187.122 109.819 183.944 111.662C181.905 112.842 179.709 113.877 177.392 114.768C173.827 116.14 169.977 117.172 165.986 117.863C162.155 118.526 158.193 118.876 154.223 118.911C153.996 118.914 153.771 118.915 153.544 118.915Z" fill="url(#paint33_linear_1_705)"/>
</g>
<mask id="mask34_1_705" style="mask-type:luminance" maskUnits="userSpaceOnUse" x="77" y="10" width="153" height="89">
<path d="M153.509 10.3164L77.5244 54.2623L153.574 98.0929L229.559 54.147L153.509 10.3164Z" fill="white"/>
</mask>
<g mask="url(#mask34_1_705)">
<path d="M153.984 10L78 53.9459L154.05 97.7765L230.034 53.8306L153.984 10Z" fill="url(#paint34_linear_1_705)"/>
</g>
<mask id="mask35_1_705" style="mask-type:luminance" maskUnits="userSpaceOnUse" x="110" y="77" width="87" height="31">
<path d="M153.574 107.956L110.703 83.248L110.699 77.3442L153.576 102.056L154.223 101.681L167.767 93.8484L196.428 77.272L196.432 83.1695L153.574 107.956Z" fill="white"/>
</mask>
<g mask="url(#mask35_1_705)">
<path d="M153.574 107.956L110.703 83.248L110.699 77.3442L153.576 102.056L154.223 101.681L167.767 93.8484L196.428 77.272L196.432 83.1695L153.574 107.956Z" fill="url(#paint35_linear_1_705)"/>
</g>
<mask id="mask36_1_705" style="mask-type:luminance" maskUnits="userSpaceOnUse" x="146" y="49" width="15" height="10">
<path d="M160.692 54.2053C160.692 56.5435 157.491 58.4397 153.542 58.4397C149.592 58.4397 146.391 56.5435 146.391 54.2053C146.391 51.8658 149.592 49.9697 153.542 49.9697C157.491 49.9697 160.692 51.8658 160.692 54.2053Z" fill="white"/>
</mask>
<g mask="url(#mask36_1_705)">
<path d="M160.692 54.2053C160.692 56.5435 157.491 58.4397 153.542 58.4397C149.592 58.4397 146.391 56.5435 146.391 54.2053C146.391 51.8658 149.592 49.9697 153.542 49.9697C157.491 49.9697 160.692 51.8658 160.692 54.2053Z" fill="url(#paint36_linear_1_705)"/>
</g>
<mask id="mask37_1_705" style="mask-type:luminance" maskUnits="userSpaceOnUse" x="190" y="102" width="4" height="13">
<path d="M192.04 114.604C191.206 114.604 190.531 113.928 190.531 113.096V104.18C190.531 103.348 191.206 102.672 192.04 102.672C192.872 102.672 193.547 103.348 193.547 104.18V113.096C193.547 113.928 192.872 114.604 192.04 114.604Z" fill="white"/>
</mask>
<g mask="url(#mask37_1_705)">
<path d="M192.04 114.604C191.206 114.604 190.531 113.928 190.531 113.096V104.18C190.531 103.348 191.206 102.672 192.04 102.672C192.872 102.672 193.547 103.348 193.547 104.18V113.096C193.547 113.928 192.872 114.604 192.04 114.604Z" fill="url(#paint37_linear_1_705)"/>
</g>
<mask id="mask38_1_705" style="mask-type:luminance" maskUnits="userSpaceOnUse" x="190" y="102" width="5" height="8">
<path d="M192.04 109.033C190.929 109.033 190.028 108.132 190.028 107.021V104.848C190.028 103.737 190.929 102.837 192.04 102.837C193.15 102.837 194.05 103.737 194.05 104.848V107.021C194.05 108.132 193.15 109.033 192.04 109.033Z" fill="white"/>
</mask>
<g mask="url(#mask38_1_705)">
<path d="M192.04 109.033C190.929 109.033 190.028 108.132 190.028 107.021V104.848C190.028 103.737 190.929 102.837 192.04 102.837C193.15 102.837 194.05 103.737 194.05 104.848V107.021C194.05 108.132 193.15 109.033 192.04 109.033Z" fill="url(#paint38_radial_1_705)"/>
</g>
<mask id="mask39_1_705" style="mask-type:luminance" maskUnits="userSpaceOnUse" x="153" y="53" width="41" height="53">
<path d="M192.04 105.186C191.484 105.186 191.034 104.735 191.034 104.18V76.4284L153.986 55.0755C153.505 54.7981 153.34 54.1838 153.617 53.7025C153.895 53.2224 154.509 53.0565 154.991 53.3339L192.541 74.9756C192.853 75.1554 193.045 75.4861 193.045 75.847V104.18C193.045 104.735 192.594 105.186 192.04 105.186Z" fill="white"/>
</mask>
<g mask="url(#mask39_1_705)">
<path d="M192.04 105.186C191.484 105.186 191.034 104.735 191.034 104.18V76.4284L153.986 55.0755C153.505 54.7981 153.34 54.1838 153.617 53.7025C153.895 53.2224 154.509 53.0565 154.991 53.3339L192.541 74.9756C192.853 75.1554 193.045 75.4861 193.045 75.847V104.18C193.045 104.735 192.594 105.186 192.04 105.186Z" fill="url(#paint39_linear_1_705)"/>
</g>
<mask id="mask40_1_705" style="mask-type:luminance" maskUnits="userSpaceOnUse" x="225" y="0" width="23" height="21">
<path d="M237.774 0.810341L240.252 5.83003L245.792 6.63559C246.984 6.80786 247.46 8.27336 246.597 9.11441L242.588 13.022L243.535 18.5395C243.739 19.7276 242.492 20.6332 241.426 20.0721L236.471 17.4679L231.516 20.0721C230.449 20.6332 229.203 19.7276 229.407 18.5395L230.353 13.022L226.344 9.11441C225.481 8.27336 225.958 6.80786 227.149 6.63559L232.69 5.83003L235.167 0.810341C235.7 -0.270099 237.241 -0.270099 237.774 0.810341Z" fill="white"/>
</mask>
<g mask="url(#mask40_1_705)">
<path d="M237.774 0.810341L240.252 5.83003L245.792 6.63559C246.984 6.80786 247.46 8.27336 246.597 9.11441L242.588 13.022L243.535 18.5395C243.739 19.7276 242.492 20.6332 241.426 20.0721L236.471 17.4679L231.516 20.0721C230.449 20.6332 229.203 19.7276 229.407 18.5395L230.353 13.022L226.344 9.11441C225.481 8.27336 225.958 6.80786 227.149 6.63559L232.69 5.83003L235.167 0.810341C235.7 -0.270099 237.241 -0.270099 237.774 0.810341Z" fill="url(#paint40_radial_1_705)"/>
</g>
<mask id="mask41_1_705" style="mask-type:luminance" maskUnits="userSpaceOnUse" x="187" y="0" width="22" height="21">
<path d="M199.384 0.810341L201.861 5.83003L207.401 6.63559C208.593 6.80786 209.069 8.27336 208.207 9.11441L204.198 13.022L205.144 18.5395C205.348 19.7276 204.102 20.6332 203.035 20.0721L198.08 17.4679L193.125 20.0721C192.059 20.6332 190.812 19.7276 191.016 18.5395L191.962 13.022L187.953 9.11441C187.091 8.27336 187.567 6.80786 188.759 6.63559L194.299 5.83003L196.777 0.810341C197.31 -0.270099 198.85 -0.270099 199.384 0.810341Z" fill="white"/>
</mask>
<g mask="url(#mask41_1_705)">
<path d="M199.384 0.810341L201.861 5.83003L207.401 6.63559C208.593 6.80786 209.069 8.27336 208.207 9.11441L204.198 13.022L205.144 18.5395C205.348 19.7276 204.102 20.6332 203.035 20.0721L198.08 17.4679L193.125 20.0721C192.059 20.6332 190.812 19.7276 191.016 18.5395L191.962 13.022L187.953 9.11441C187.091 8.27336 187.567 6.80786 188.759 6.63559L194.299 5.83003L196.777 0.810341C197.31 -0.270099 198.85 -0.270099 199.384 0.810341Z" fill="url(#paint41_radial_1_705)"/>
</g>
<mask id="mask42_1_705" style="mask-type:luminance" maskUnits="userSpaceOnUse" x="103" y="0" width="22" height="21">
<path d="M114.874 0.810341L117.351 5.83003L122.891 6.63559C124.083 6.80786 124.56 8.27336 123.697 9.11441L119.688 13.022L120.634 18.5395C120.838 19.7276 119.592 20.6332 118.525 20.0721L113.57 17.4679L108.615 20.0721C107.549 20.6332 106.302 19.7276 106.506 18.5395L107.452 13.022L103.444 9.11441C102.581 8.27336 103.057 6.80786 104.249 6.63559L109.789 5.83003L112.267 0.810341C112.8 -0.270099 114.34 -0.270099 114.874 0.810341Z" fill="white"/>
</mask>
<g mask="url(#mask42_1_705)">
<path d="M114.874 0.810341L117.351 5.83003L122.891 6.63559C124.083 6.80786 124.56 8.27336 123.697 9.11441L119.688 13.022L120.634 18.5395C120.838 19.7276 119.592 20.6332 118.525 20.0721L113.57 17.4679L108.615 20.0721C107.549 20.6332 106.302 19.7276 106.506 18.5395L107.452 13.022L103.444 9.11441C102.581 8.27336 103.057 6.80786 104.249 6.63559L109.789 5.83003L112.267 0.810341C112.8 -0.270099 114.34 -0.270099 114.874 0.810341Z" fill="url(#paint42_radial_1_705)"/>
</g>
<mask id="mask43_1_705" style="mask-type:luminance" maskUnits="userSpaceOnUse" x="64" y="0" width="22" height="21">
<path d="M76.4832 0.810341L78.9607 5.83003L84.501 6.63559C85.6929 6.80786 86.1692 8.27336 85.3066 9.11441L81.2977 13.022L82.2438 18.5395C82.4478 19.7276 81.2014 20.6332 80.1349 20.0721L75.1798 17.4679L70.2247 20.0721C69.1582 20.6332 67.9119 19.7276 68.1158 18.5395L69.062 13.022L65.0531 9.11441C64.1905 8.27336 64.6668 6.80786 65.8587 6.63559L71.3989 5.83003L73.8765 0.810341C74.4097 -0.270099 75.9499 -0.270099 76.4832 0.810341Z" fill="white"/>
</mask>
<g mask="url(#mask43_1_705)">
<path d="M76.4832 0.810341L78.9607 5.83003L84.501 6.63559C85.6929 6.80786 86.1692 8.27336 85.3066 9.11441L81.2977 13.022L82.2438 18.5395C82.4478 19.7276 81.2014 20.6332 80.1349 20.0721L75.1798 17.4679L70.2247 20.0721C69.1582 20.6332 67.9119 19.7276 68.1158 18.5395L69.062 13.022L65.0531 9.11441C64.1905 8.27336 64.6668 6.80786 65.8587 6.63559L71.3989 5.83003L73.8765 0.810341C74.4097 -0.270099 75.9499 -0.270099 76.4832 0.810341Z" fill="url(#paint43_radial_1_705)"/>
</g>
<defs>
<linearGradient id="paint0_linear_1_705" x1="100.566" y1="3.11306" x2="218.08" y2="206.654" gradientUnits="userSpaceOnUse">
<stop stop-color="#DA006A"/>
<stop offset="1" stop-color="#733BE4"/>
</linearGradient>
<linearGradient id="paint1_linear_1_705" x1="108.148" y1="21.5717" x2="208.55" y2="195.473" gradientUnits="userSpaceOnUse">
<stop stop-color="#EEBD2F"/>
<stop offset="1" stop-color="#DA5618"/>
</linearGradient>
<linearGradient id="paint2_linear_1_705" x1="256.595" y1="47.6999" x2="330.72" y2="195.951" gradientUnits="userSpaceOnUse">
<stop stop-color="#EEBD2F"/>
<stop offset="1" stop-color="#DA5618"/>
</linearGradient>
<linearGradient id="paint3_linear_1_705" x1="-12.5941" y1="47.6999" x2="61.5311" y2="195.951" gradientUnits="userSpaceOnUse">
<stop stop-color="#EEBD2F"/>
<stop offset="1" stop-color="#DA5618"/>
</linearGradient>
<linearGradient id="paint4_linear_1_705" x1="220.332" y1="159.561" x2="162.304" y2="138.657" gradientUnits="userSpaceOnUse">
<stop stop-color="#5899FF"/>
<stop offset="1" stop-color="#4F39EE"/>
</linearGradient>
<linearGradient id="paint5_linear_1_705" x1="227.89" y1="154.399" x2="207.009" y2="151.121" gradientUnits="userSpaceOnUse">
<stop stop-color="#5899FF"/>
<stop offset="1" stop-color="#4F39EE"/>
</linearGradient>
<linearGradient id="paint6_linear_1_705" x1="222.815" y1="147.587" x2="203.549" y2="144.732" gradientUnits="userSpaceOnUse">
<stop stop-color="#F1CC60"/>
<stop offset="0.30985" stop-color="#F5E2AA"/>
<stop offset="1" stop-color="#E59F2F"/>
</linearGradient>
<linearGradient id="paint7_linear_1_705" x1="228.053" y1="159.791" x2="175.724" y2="137.908" gradientUnits="userSpaceOnUse">
<stop stop-color="#F1CC60"/>
<stop offset="0.30985" stop-color="#F5E2AA"/>
<stop offset="1" stop-color="#E59F2F"/>
</linearGradient>
<linearGradient id="paint8_linear_1_705" x1="154.223" y1="136.734" x2="206.829" y2="136.734" gradientUnits="userSpaceOnUse">
<stop stop-color="#F1CC60"/>
<stop offset="0.30985" stop-color="#F5E2AA"/>
<stop offset="1" stop-color="#E59F2F"/>
</linearGradient>
<linearGradient id="paint9_linear_1_705" x1="154.223" y1="136.734" x2="206.829" y2="136.734" gradientUnits="userSpaceOnUse">
<stop stop-color="#EABC4E"/>
<stop offset="0.30985" stop-color="#EED08A"/>
<stop offset="1" stop-color="#DF9326"/>
</linearGradient>
<linearGradient id="paint10_linear_1_705" x1="154.223" y1="136.734" x2="206.829" y2="136.734" gradientUnits="userSpaceOnUse">
<stop stop-color="#EABC4E"/>
<stop offset="0.30985" stop-color="#EED08A"/>
<stop offset="1" stop-color="#DF9326"/>
</linearGradient>
<linearGradient id="paint11_linear_1_705" x1="154.223" y1="136.734" x2="206.829" y2="136.734" gradientUnits="userSpaceOnUse">
<stop stop-color="#EABC4E"/>
<stop offset="0.30985" stop-color="#EED08A"/>
<stop offset="1" stop-color="#DF9326"/>
</linearGradient>
<linearGradient id="paint12_linear_1_705" x1="154.223" y1="136.734" x2="206.829" y2="136.734" gradientUnits="userSpaceOnUse">
<stop stop-color="#EABC4E"/>
<stop offset="0.30985" stop-color="#EED08A"/>
<stop offset="1" stop-color="#DF9326"/>
</linearGradient>
<linearGradient id="paint13_linear_1_705" x1="154.223" y1="136.734" x2="206.829" y2="136.734" gradientUnits="userSpaceOnUse">
<stop stop-color="#EABC4E"/>
<stop offset="0.30985" stop-color="#EED08A"/>
<stop offset="1" stop-color="#DF9326"/>
</linearGradient>
<linearGradient id="paint14_linear_1_705" x1="154.223" y1="136.734" x2="206.829" y2="136.734" gradientUnits="userSpaceOnUse">
<stop stop-color="#EABC4E"/>
<stop offset="0.30985" stop-color="#EED08A"/>
<stop offset="1" stop-color="#DF9326"/>
</linearGradient>
<linearGradient id="paint15_linear_1_705" x1="176.198" y1="128.238" x2="205.314" y2="178.669" gradientUnits="userSpaceOnUse">
<stop stop-color="#F1CC60"/>
<stop offset="0.30985" stop-color="#F5E2AA"/>
<stop offset="1" stop-color="#E59F2F"/>
</linearGradient>
<linearGradient id="paint16_linear_1_705" x1="172.093" y1="122.296" x2="201.608" y2="173.418" gradientUnits="userSpaceOnUse">
<stop stop-color="#F1CC60"/>
<stop offset="0.30985" stop-color="#F5E2AA"/>
<stop offset="1" stop-color="#E59F2F"/>
</linearGradient>
<linearGradient id="paint17_linear_1_705" x1="167.949" y1="116.143" x2="197.872" y2="167.969" gradientUnits="userSpaceOnUse">
<stop stop-color="#F1CC60"/>
<stop offset="0.30985" stop-color="#F5E2AA"/>
<stop offset="1" stop-color="#E59F2F"/>
</linearGradient>
<linearGradient id="paint18_linear_1_705" x1="88.1134" y1="159.561" x2="146.142" y2="138.657" gradientUnits="userSpaceOnUse">
<stop stop-color="#5899FF"/>
<stop offset="1" stop-color="#4F39EE"/>
</linearGradient>
<linearGradient id="paint19_linear_1_705" x1="80.5555" y1="154.399" x2="101.437" y2="151.121" gradientUnits="userSpaceOnUse">
<stop stop-color="#5899FF"/>
<stop offset="1" stop-color="#4F39EE"/>
</linearGradient>
<linearGradient id="paint20_linear_1_705" x1="85.6296" y1="147.587" x2="104.896" y2="144.732" gradientUnits="userSpaceOnUse">
<stop stop-color="#F1CC60"/>
<stop offset="0.30985" stop-color="#F5E2AA"/>
<stop offset="1" stop-color="#E59F2F"/>
</linearGradient>
<linearGradient id="paint21_linear_1_705" x1="80.3933" y1="159.791" x2="132.722" y2="137.908" gradientUnits="userSpaceOnUse">
<stop stop-color="#F1CC60"/>
<stop offset="0.30985" stop-color="#F5E2AA"/>
<stop offset="1" stop-color="#E59F2F"/>
</linearGradient>
<linearGradient id="paint22_linear_1_705" x1="154.223" y1="136.734" x2="101.617" y2="136.734" gradientUnits="userSpaceOnUse">
<stop stop-color="#F1CC60"/>
<stop offset="0.30985" stop-color="#F5E2AA"/>
<stop offset="1" stop-color="#E59F2F"/>
</linearGradient>
<linearGradient id="paint23_linear_1_705" x1="154.223" y1="136.734" x2="101.617" y2="136.734" gradientUnits="userSpaceOnUse">
<stop stop-color="#EABC4E"/>
<stop offset="0.30985" stop-color="#EED08A"/>
<stop offset="1" stop-color="#DF9326"/>
</linearGradient>
<linearGradient id="paint24_linear_1_705" x1="154.223" y1="136.734" x2="101.617" y2="136.734" gradientUnits="userSpaceOnUse">
<stop stop-color="#EABC4E"/>
<stop offset="0.30985" stop-color="#EED08A"/>
<stop offset="1" stop-color="#DF9326"/>
</linearGradient>
<linearGradient id="paint25_linear_1_705" x1="154.223" y1="136.734" x2="101.617" y2="136.734" gradientUnits="userSpaceOnUse">
<stop stop-color="#EABC4E"/>
<stop offset="0.30985" stop-color="#EED08A"/>
<stop offset="1" stop-color="#DF9326"/>
</linearGradient>
<linearGradient id="paint26_linear_1_705" x1="154.223" y1="136.734" x2="101.617" y2="136.734" gradientUnits="userSpaceOnUse">
<stop stop-color="#EABC4E"/>
<stop offset="0.30985" stop-color="#EED08A"/>
<stop offset="1" stop-color="#DF9326"/>
</linearGradient>
<linearGradient id="paint27_linear_1_705" x1="154.223" y1="136.734" x2="101.617" y2="136.734" gradientUnits="userSpaceOnUse">
<stop stop-color="#EABC4E"/>
<stop offset="0.30985" stop-color="#EED08A"/>
<stop offset="1" stop-color="#DF9326"/>
</linearGradient>
<linearGradient id="paint28_linear_1_705" x1="154.223" y1="136.734" x2="101.617" y2="136.734" gradientUnits="userSpaceOnUse">
<stop stop-color="#EABC4E"/>
<stop offset="0.30985" stop-color="#EED08A"/>
<stop offset="1" stop-color="#DF9326"/>
</linearGradient>
<linearGradient id="paint29_linear_1_705" x1="132.248" y1="128.238" x2="103.132" y2="178.669" gradientUnits="userSpaceOnUse">
<stop stop-color="#F1CC60"/>
<stop offset="0.30985" stop-color="#F5E2AA"/>
<stop offset="1" stop-color="#E59F2F"/>
</linearGradient>
<linearGradient id="paint30_linear_1_705" x1="136.353" y1="122.296" x2="106.838" y2="173.418" gradientUnits="userSpaceOnUse">
<stop stop-color="#F1CC60"/>
<stop offset="0.30985" stop-color="#F5E2AA"/>
<stop offset="1" stop-color="#E59F2F"/>
</linearGradient>
<linearGradient id="paint31_linear_1_705" x1="140.496" y1="116.143" x2="110.574" y2="167.969" gradientUnits="userSpaceOnUse">
<stop stop-color="#F1CC60"/>
<stop offset="0.30985" stop-color="#F5E2AA"/>
<stop offset="1" stop-color="#E59F2F"/>
</linearGradient>
<linearGradient id="paint32_linear_1_705" x1="119.14" y1="15.6097" x2="185.369" y2="93.7268" gradientUnits="userSpaceOnUse">
<stop stop-color="#5899FF"/>
<stop offset="1" stop-color="#4F39EE"/>
</linearGradient>
<linearGradient id="paint33_linear_1_705" x1="110.429" y1="98.093" x2="170.23" y2="98.093" gradientUnits="userSpaceOnUse">
<stop stop-color="#514FF2"/>
<stop offset="0.30457" stop-color="#5899FF"/>
<stop offset="1" stop-color="#4F39EE"/>
</linearGradient>
<linearGradient id="paint34_linear_1_705" x1="125.314" y1="13.8911" x2="221.605" y2="148.075" gradientUnits="userSpaceOnUse">
<stop stop-color="#5899FF"/>
<stop offset="1" stop-color="#4F39EE"/>
</linearGradient>
<linearGradient id="paint35_linear_1_705" x1="110.429" y1="98.093" x2="170.23" y2="98.093" gradientUnits="userSpaceOnUse">
<stop stop-color="#4648E3"/>
<stop offset="0.30457" stop-color="#4C8BEF"/>
<stop offset="1" stop-color="#4434DF"/>
</linearGradient>
<linearGradient id="paint36_linear_1_705" x1="150.037" y1="49.3212" x2="161.793" y2="65.7043" gradientUnits="userSpaceOnUse">
<stop stop-color="#5899FF"/>
<stop offset="1" stop-color="#4F39EE"/>
</linearGradient>
<linearGradient id="paint37_linear_1_705" x1="190.531" y1="108.638" x2="193.547" y2="108.638" gradientUnits="userSpaceOnUse">
<stop stop-color="#EEBD2F"/>
<stop offset="1" stop-color="#DA5618"/>
</linearGradient>
<radialGradient id="paint38_radial_1_705" cx="0" cy="0" r="1" gradientUnits="userSpaceOnUse" gradientTransform="translate(192.04 105.935) scale(2.61151 2.61152)">
<stop stop-color="#E79927"/>
<stop offset="1" stop-color="#DD661C"/>
</radialGradient>
<linearGradient id="paint39_linear_1_705" x1="153.483" y1="79.1922" x2="193.045" y2="79.1922" gradientUnits="userSpaceOnUse">
<stop stop-color="#EEBD2F"/>
<stop offset="1" stop-color="#DA5618"/>
</linearGradient>
<radialGradient id="paint40_radial_1_705" cx="0" cy="0" r="1" gradientUnits="userSpaceOnUse" gradientTransform="translate(232.758 8.24549) rotate(33.0558) scale(9.82122 9.82123)">
<stop stop-color="#E79927"/>
<stop offset="1" stop-color="#DD661C"/>
</radialGradient>
<radialGradient id="paint41_radial_1_705" cx="0" cy="0" r="1" gradientUnits="userSpaceOnUse" gradientTransform="translate(194.368 8.24549) rotate(33.0558) scale(9.82123)">
<stop stop-color="#E79927"/>
<stop offset="1" stop-color="#DD661C"/>
</radialGradient>
<radialGradient id="paint42_radial_1_705" cx="0" cy="0" r="1" gradientUnits="userSpaceOnUse" gradientTransform="translate(109.858 8.24549) rotate(33.0558) scale(9.82122 9.82123)">
<stop stop-color="#E79927"/>
<stop offset="1" stop-color="#DD661C"/>
</radialGradient>
<radialGradient id="paint43_radial_1_705" cx="0" cy="0" r="1" gradientUnits="userSpaceOnUse" gradientTransform="translate(71.4673 8.24549) rotate(33.0558) scale(9.82123 9.82123)">
<stop stop-color="#E79927"/>
<stop offset="1" stop-color="#DD661C"/>
</radialGradient>
</defs>
</svg>
